<svg xmlns="http://www.w3.org/2000/svg" xmlns:xlink="http://www.w3.org/1999/xlink" width="1024" height="620" viewBox="0 0 1024 620">
  <defs>
    <style>
      .cls-1 {
        isolation: isolate;
      }

      .cls-2 {
        fill: none;
      }

      .cls-3, .cls-4 {
        fill: #51b2fb;
      }

      .cls-3, .cls-32 {
        opacity: 0.1;
      }

      .cls-4 {
        opacity: 0.2;
      }

      .cls-5 {
        fill: #e3ebfc;
      }

      .cls-6 {
        fill: #ccddfa;
      }

      .cls-7 {
        fill: #fafbff;
      }

      .cls-8 {
        fill: #80a7f6;
      }

      .cls-9 {
        fill: #9fbcfb;
      }

      .cls-10 {
        fill: #b8d0f9;
      }

      .cls-11, .cls-29, .cls-31 {
        fill: #207bff;
      }

      .cls-11, .cls-37 {
        opacity: 0.4;
      }

      .cls-12 {
        fill: #004bff;
        opacity: 0.5;
        mix-blend-mode: multiply;
      }

      .cls-13 {
        fill: #c5d8fa;
      }

      .cls-14 {
        fill: url(#_ÂÁ_Ï_ÌÌ_È_ËÂÌÚ_30);
      }

      .cls-15 {
        fill: #4aebff;
      }

      .cls-16, .cls-30 {
        fill: #fff;
      }

      .cls-17 {
        fill: #bef9ff;
      }

      .cls-18 {
        fill: url(#linear-gradient);
      }

      .cls-19 {
        fill: #ec1c24;
      }

      .cls-20 {
        fill: url(#linear-gradient-2);
      }

      .cls-21 {
        fill: url(#linear-gradient-3);
      }

      .cls-22 {
        fill: url(#linear-gradient-4);
      }

      .cls-23 {
        fill: url(#linear-gradient-5);
      }

      .cls-24 {
        fill: url(#linear-gradient-6);
      }

      .cls-25 {
        fill: url(#linear-gradient-7);
      }

      .cls-26 {
        fill: url(#_ÂÁ_Ï_ÌÌ_È_ËÂÌÚ_14);
      }

      .cls-27 {
        fill: url(#_ÂÁ_Ï_ÌÌ_È_ËÂÌÚ_18);
      }

      .cls-28 {
        fill: #4880f8;
      }

      .cls-30 {
        opacity: 0.8;
      }

      .cls-31 {
        opacity: 0.72;
      }

      .cls-32, .cls-33, .cls-34, .cls-35 {
        fill: #3ae6fb;
      }

      .cls-33 {
        opacity: 0.3;
      }

      .cls-35 {
        opacity: 0.7;
      }

      .cls-36 {
        fill: #93b4fb;
      }

      .cls-37 {
        mix-blend-mode: lighten;
        fill: url(#radial-gradient);
      }

      .cls-38 {
        fill: #00ffda;
      }

      .cls-39 {
        fill: #7fd1ca;
      }

      .cls-40 {
        fill: #1e1e1e;
      }
    </style>
    <radialGradient id="_ÂÁ_Ï_ÌÌ_È_ËÂÌÚ_30" data-name="¡ÂÁ˚ÏˇÌÌ˚È „‡‰ËÂÌÚ 30" cx="6079.81" cy="416.85" r="5.46" gradientTransform="translate(-5809.3)" gradientUnits="userSpaceOnUse">
      <stop offset="0" stop-color="#4aebff"/>
      <stop offset="1" stop-color="#00709e"/>
    </radialGradient>
    <linearGradient id="linear-gradient" x1="234.28" y1="321.54" x2="234.28" y2="351.63" gradientTransform="translate(45.19)" gradientUnits="userSpaceOnUse">
      <stop offset="0.02" stop-color="#dd2a21"/>
      <stop offset="0.06" stop-color="#c8201b"/>
      <stop offset="0.1" stop-color="#b71717"/>
      <stop offset="0.15" stop-color="#ac1113"/>
      <stop offset="0.22" stop-color="#a50e12"/>
      <stop offset="0.43" stop-color="#a30d11"/>
      <stop offset="0.79" stop-color="#6b0006"/>
    </linearGradient>
    <linearGradient id="linear-gradient-2" x1="225.54" y1="322.89" x2="225.54" y2="344.48" gradientTransform="translate(45.19)" gradientUnits="userSpaceOnUse">
      <stop offset="0" stop-color="#ad1a27"/>
      <stop offset="0.08" stop-color="#9e151f"/>
      <stop offset="0.28" stop-color="#7d090e"/>
      <stop offset="0.44" stop-color="#680304"/>
      <stop offset="0.56" stop-color="#610000"/>
      <stop offset="0.73" stop-color="#520000"/>
      <stop offset="1" stop-color="#3f0000"/>
    </linearGradient>
    <linearGradient id="linear-gradient-3" x1="711.98" y1="334" x2="726.26" y2="334" gradientTransform="matrix(-1, 0, 0, 1, 1015.73, 0)" gradientUnits="userSpaceOnUse">
      <stop offset="0" stop-color="#be1349"/>
      <stop offset="0.24" stop-color="#be124e"/>
      <stop offset="0.25" stop-color="#be124e"/>
      <stop offset="1" stop-color="#7a0025"/>
    </linearGradient>
    <linearGradient id="linear-gradient-4" x1="707.64" y1="341.18" x2="726.32" y2="341.18" gradientTransform="matrix(-1, 0, 0, 1, 1015.73, 0)" gradientUnits="userSpaceOnUse">
      <stop offset="0" stop-color="#282881"/>
      <stop offset="0.27" stop-color="#26257d"/>
      <stop offset="0.55" stop-color="#1f1b70"/>
      <stop offset="0.84" stop-color="#150c5b"/>
      <stop offset="1" stop-color="#0d004c"/>
    </linearGradient>
    <linearGradient id="linear-gradient-5" x1="712.06" y1="341.18" x2="726.26" y2="341.18" xlink:href="#linear-gradient-3"/>
    <linearGradient id="linear-gradient-6" x1="714.94" y1="333.94" x2="732.78" y2="333.94" xlink:href="#linear-gradient-4"/>
    <linearGradient id="linear-gradient-7" x1="239.16" y1="340.46" x2="239.16" y2="330.24" gradientTransform="translate(45.19)" gradientUnits="userSpaceOnUse">
      <stop offset="0" stop-color="#ed2d24"/>
      <stop offset="0.12" stop-color="#ed2824"/>
      <stop offset="0.25" stop-color="#ec1c24"/>
      <stop offset="1" stop-color="#74020d"/>
    </linearGradient>
    <linearGradient id="_ÂÁ_Ï_ÌÌ_È_ËÂÌÚ_14" data-name="¡ÂÁ˚ÏˇÌÌ˚È „‡‰ËÂÌÚ 14" x1="5998.92" y1="551.46" x2="6059.64" y2="551.46" gradientTransform="translate(-5784.65 13.43) rotate(-2.88)" gradientUnits="userSpaceOnUse">
      <stop offset="0" stop-color="#003a6b"/>
      <stop offset="1" stop-color="#00204c"/>
    </linearGradient>
    <linearGradient id="_ÂÁ_Ï_ÌÌ_È_ËÂÌÚ_18" data-name="¡ÂÁ˚ÏˇÌÌ˚È „‡‰ËÂÌÚ 18" x1="6060.37" y1="235.57" x2="6091.14" y2="287.4" gradientTransform="translate(-5809.3)" gradientUnits="userSpaceOnUse">
      <stop offset="0" stop-color="#cbd7e1"/>
      <stop offset="0.05" stop-color="#aec0d0"/>
      <stop offset="0.15" stop-color="#7998b2"/>
      <stop offset="0.26" stop-color="#4e7698"/>
      <stop offset="0.35" stop-color="#2c5c85"/>
      <stop offset="0.44" stop-color="#144976"/>
      <stop offset="0.53" stop-color="#053e6e"/>
      <stop offset="0.6" stop-color="#003a6b"/>
      <stop offset="1" stop-color="#00204c"/>
    </linearGradient>
    <radialGradient id="radial-gradient" cx="5208.42" cy="519.73" r="11.56" gradientTransform="matrix(0.74, 0.02, -0.03, 0.82, -3645.94, -206.49)" gradientUnits="userSpaceOnUse">
      <stop offset="0" stop-color="#00ddde" stop-opacity="0.52"/>
      <stop offset="0.09" stop-color="#2de6e7" stop-opacity="0.65"/>
      <stop offset="0.2" stop-color="#63f1f1" stop-opacity="0.8"/>
      <stop offset="0.3" stop-color="#8af8f9" stop-opacity="0.91"/>
      <stop offset="0.38" stop-color="#a2fdfd" stop-opacity="0.98"/>
      <stop offset="0.43" stop-color="#abffff"/>
      <stop offset="0.46" stop-color="#9ffcfd"/>
      <stop offset="0.51" stop-color="#7ff6f6"/>
      <stop offset="0.58" stop-color="#4aebeb"/>
      <stop offset="0.66" stop-color="#03dcdd"/>
      <stop offset="0.66" stop-color="#00dbdc"/>
      <stop offset="0.69" stop-color="#08dcdd" stop-opacity="0.97"/>
      <stop offset="0.74" stop-color="#1fdfe0" stop-opacity="0.88"/>
      <stop offset="0.8" stop-color="#44e5e5" stop-opacity="0.73"/>
      <stop offset="0.87" stop-color="#78eced" stop-opacity="0.53"/>
      <stop offset="0.94" stop-color="#baf5f6" stop-opacity="0.27"/>
      <stop offset="1" stop-color="#fff" stop-opacity="0"/>
    </radialGradient>
  </defs>
  <title>robot2</title>
  <g class="cls-1">
    <g id="RetroNegativa">
      <g id="Robot">
        <g id="fondo">
          <rect class="cls-2" width="1024" height="620"/>
        </g>
        <g id="sombra">
          <ellipse class="cls-3" cx="255.89" cy="448.18" rx="43.76" ry="9.82"/>
          <path class="cls-4" d="M290,448.18c0,3.45-15.27,6.25-34.09,6.25s-34.09-2.8-34.09-6.25,15.26-6.25,34.09-6.25S290,444.73,290,448.18Z"/>
          <path class="cls-4" d="M276.41,448.18c0,2.08-9.19,3.76-20.52,3.76s-20.53-1.68-20.53-3.76,9.19-3.76,20.53-3.76S276.41,446.1,276.41,448.18Z"/>
        </g>
        <g id="brazoIzquierdo">
          <g>
            <path class="cls-5" d="M328.4,353.75c-6.4-30.4-18.81-43.37-21.72-46.06a2.49,2.49,0,0,0-1.55-.67c-2.16-.14-7.74.42-13.21,8.5-3.79,5.59-2.47,14.61-2.13,15.05,3.55,4.56,25.88,33.26,31.81,43.09C328.05,384.35,331.13,366.74,328.4,353.75Z"/>
            <path class="cls-6" d="M291.88,315.56a25.31,25.31,0,0,1,5.2-5.78c-.59.72-1.18,1.5-1.77,2.38-4.78,7-2.48,11.82-.81,15.08,6,11.7,23.06,33.38,27.45,47.05a6.86,6.86,0,0,1-.38-.6c-5.94-9.82-28.26-38.53-31.81-43.08C289.41,330.17,288.1,321.14,291.88,315.56Z"/>
            <path class="cls-7" d="M309.28,318.38c14.31,10.3,18.48,46.93,18.48,46.93s-9.47-25.21-16.65-35.73S304.4,314.87,309.28,318.38Z"/>
            <path class="cls-6" d="M318,367.77a39.15,39.15,0,0,1,.17,5.29,8.92,8.92,0,0,1-2.43,2.57c-.18-2.21-2.16-13.7-4.28-16.62C310.73,358,318,365.64,318,367.77Z"/>
            <path class="cls-8" d="M311.23,359.38a.37.37,0,0,0,.28-.2c2.69-5.83,9.16-10.73,15.85-8.34a.37.37,0,0,0,.45-.22.35.35,0,0,0-.22-.45c-7.08-2.53-13.9,2.6-16.72,8.71a.35.35,0,0,0,.17.47A.32.32,0,0,0,311.23,359.38Z"/>
          </g>
          <path class="cls-9" d="M307.19,321.21c-.82,9.49-4.8,16.9-8.88,16.54s-6.73-8.33-5.9-17.83,4.79-16.76,8.88-16.54C307.2,303.69,308,311.71,307.19,321.21Z"/>
        </g>
        <g id="torso">
          <path class="cls-5" d="M216.31,299.29c-4.23-.27-19.18,14.72-14.68,29.26s30,63.09,35.73,80.08,9.23,21.18,17.43,22.72,20.59,2.1,35-27.9,16.58-63.69,17.23-79.7-1-22.36-6.62-24.18C287.32,295.31,216.31,299.29,216.31,299.29Z"/>
          <path class="cls-7" d="M284,399.92c11.14-31.56,9.8-65.48,8.77-81.56-.69-10.68-2-17-4.41-20.37-11.87-.66-29.2-.38-43.89.1,7.85,20.72,19.46,55.61,21.39,91.55,1.29,24-2,35.7-6.6,41.7C266.69,429.85,275.67,423.4,284,399.92Z"/>
          <path class="cls-10" d="M301.61,300.9c0,3.11-22,7.94-44.14,8S213.3,304.15,213.3,301s22-3.39,44.15-3.43S301.6,297.79,301.61,300.9Z"/>
          <path class="cls-11" d="M288.2,301.53c0,2.15-15.13,5.49-30.4,5.52s-30.43-3.27-30.43-5.42,15.14-2.34,30.41-2.37S288.2,299.38,288.2,301.53Z"/>
          <path class="cls-12" d="M278.91,302.65c0,.82-10.44,1.87-20.61,1.88s-19.92-1-19.92-1.81,9.74-1.15,19.91-1.17S278.91,301.83,278.91,302.65Z"/>
          <path class="cls-13" d="M246.48,412.14c-2.35-12.72-5.86-54.31-14.22-83.66-4.2-14.72-14.06-25.1-23.61-21.81-6.77,2.34-9.45,14-7,21.88,4.5,14.55,30,63.09,35.73,80.08s9.23,21.18,17.43,22.72c4.22.79,9.56,1.31,15.7-2.45C262.18,430.21,250.39,433.2,246.48,412.14Z"/>
          <path class="cls-14" d="M275.83,418.34a15.19,15.19,0,0,1-5.05.83,23.64,23.64,0,0,1-5.65-.41,2.28,2.28,0,0,1-2-2.1h0a2.05,2.05,0,0,1,2-2.1s4.35.49,5.41.48a39.33,39.33,0,0,0,5.49-.52c1.09,0,2.1.32,1.78,1.88A2.75,2.75,0,0,1,275.83,418.34Z"/>
          <path class="cls-15" d="M275.13,418.1a15.55,15.55,0,0,1-4.36.6,23.81,23.81,0,0,1-4.89-.3c-.91-.19-1.71-.68-1.71-1.5h0a1.63,1.63,0,0,1,1.72-1.49s3.75.35,4.67.34a40.7,40.7,0,0,0,4.74-.37c.94,0,1.83.23,1.54,1.34C276.71,417.24,276.27,417.75,275.13,418.1Z"/>
          <path class="cls-8" d="M269.56,408.74c-10,0-22.24-2.16-35.45-7.59a.35.35,0,0,1-.19-.46.36.36,0,0,1,.46-.2c24.62,10.12,45.79,8.84,55.05,3.36a.36.36,0,0,1,.49.13.35.35,0,0,1-.13.48C285.39,407.07,278.35,408.74,269.56,408.74Z"/>
          <path class="cls-16" d="M269.3,408c-10,0-22.24-2.16-35.45-7.59a.35.35,0,0,1-.19-.46.36.36,0,0,1,.46-.2c24.61,10.12,45.79,8.84,55.05,3.36a.36.36,0,0,1,.49.13.35.35,0,0,1-.13.48C285.13,406.27,278.09,408,269.3,408Z"/>
          <path class="cls-7" d="M305.12,307.5c1.89,38.46-3.66,56.66-3.66,56.66s5.3-29.06.41-57.15C301.2,303.16,304.82,301.49,305.12,307.5Z"/>
          <path class="cls-16" d="M216.69,304.81s4.37,2.63,20.37,4.12,37.07,1.2,37.07,1.2-19.41,2.57-37.14.66S216.69,304.81,216.69,304.81Z"/>
          <path class="cls-17" d="M273.12,415.62c-.77.07-1.67.12-2.56.13s-4.67-.34-4.67-.34a2,2,0,0,0-.36,0l1.72,3.15c.95.09,2.11.12,3.52.11a16.45,16.45,0,0,0,4.07-.52Z"/>
          <g>
            <path class="cls-18" d="M269.27,333.85a13.59,13.59,0,0,1,8.48-12.58,12.76,12.76,0,0,1,11.91,12.1c0,.14,0,.27,0,.41v.14h0a7.75,7.75,0,0,0-7.75-7.74,7.55,7.55,0,0,0-2.53.43c.77-.28.73-.28-.05,0a7.61,7.61,0,0,0-2.61-.45,7.41,7.41,0,0,0-7.4,7.67v.07a7.35,7.35,0,0,0,9.71,7.22,7.66,7.66,0,0,0,2.88.56,7.76,7.76,0,0,0,7.75-7.63,12.38,12.38,0,0,1-10.33,12.17,13.37,13.37,0,0,1-1.58.2A13.58,13.58,0,0,1,269.27,333.85Z"/>
            <path class="cls-19" d="M274.17,333.94a7.75,7.75,0,0,0,4.87,7.2,7.35,7.35,0,0,1-9.71-7.22v-.07a7.41,7.41,0,0,1,7.4-7.67,7.61,7.61,0,0,1,2.61.45c.78-.29.82-.29.05,0A7.75,7.75,0,0,0,274.17,333.94Z"/>
            <path class="cls-20" d="M276.66,321.22c.37,0,.73,0,1.09,0a13.58,13.58,0,0,0,0,25.17c-.34,0-.68,0-1,0a12.63,12.63,0,0,1-13-12.63v-.07C263.71,326.84,269.12,321.22,276.66,321.22Z"/>
            <path class="cls-21" d="M289.67,333.94v0Z"/>
            <path class="cls-22" d="M279.26,341.07c.81.29.8.3,0,0Z"/>
            <path class="cls-23" d="M279.26,341.07c.81.29.8.3,0,0Z"/>
            <path class="cls-24" d="M281.92,341.7a7.66,7.66,0,0,1-2.88-.56l.22-.07c.8.3.81.29,0,0a7.56,7.56,0,0,0,5-7.22v-.07a7.44,7.44,0,0,0-4.9-7.15h0a7.55,7.55,0,0,1,2.53-.43,7.75,7.75,0,0,1,7.75,7.74v.14A7.76,7.76,0,0,1,281.92,341.7Z"/>
            <path class="cls-25" d="M281.92,341.7a7.66,7.66,0,0,1-2.88-.56l.22-.07c.8.3.81.29,0,0a7.56,7.56,0,0,0,5-7.22v-.07a7.44,7.44,0,0,0-4.9-7.15h0a7.55,7.55,0,0,1,2.53-.43,7.75,7.75,0,0,1,7.75,7.74v.14A7.76,7.76,0,0,1,281.92,341.7Z"/>
          </g>
        </g>
        <g id="cabeza">
          <g>
            <path class="cls-5" d="M219.68,287.46c10.09,13,41,10.52,49.57,9.7s23.19-2.32,28.44-18.16,2.62-40-11.82-52.57-53.07-10.51-66.19,6.42S216.18,283,219.68,287.46Z"/>
            <path class="cls-16" d="M222.34,236.3c.58-.2,12.5-9.47,34.1-11.32,7.43-.64,19,0,26.45,1-.74-.79-11.41-7-33.45-4.66A43.47,43.47,0,0,0,222.34,236.3Z"/>
            <path class="cls-7" d="M261.6,232.47c-7,.11-13.91.6-20.47,3.09l-.15.06c6.81,14.41,7.36,33.18,3.38,46.6a28.34,28.34,0,0,1-5.79,10.88c12,2.11,25.46,1,30.68.51,5.69-.54,14-1.38,20.49-6.47a33.19,33.19,0,0,0,1.88-4.92c4-13.6,3.41-32.68-3.65-47.16A111.76,111.76,0,0,0,261.6,232.47Z"/>
            <path class="cls-26" d="M236.47,245.26c4-5.45,14.93-6.88,28.61-7.69,17.66-1.06,23.63,2.14,25.44,4.18s4.93,12.18,4.26,22-.78,12.82-4.84,15.27-15.76,4.85-23.33,5c-14.34.35-21.57-.34-26.36-3.16-2.45-1.44-5.57-9.19-6.05-18.76S234.39,248.08,236.47,245.26Z"/>
            <path class="cls-27" d="M264.59,239.09c-8.5.49-15.89,1.23-21.09,3.06,4.55,12.62,4.58,27.59,1.2,38.66l-.12.37c4.54,1.32,11,1.63,21.47,1.38,7.26-.17,18.5-2.41,22.39-4.7a6.93,6.93,0,0,0,3-3.18,65.82,65.82,0,0,0-2.24-31.36c-.09-.12-.17-.23-.25-.32C287.26,241.09,281.53,238.1,264.59,239.09Z"/>
            <path class="cls-9" d="M227.18,254.32c-.24,5.35-3.23,9.57-6.68,9.41s-6.05-4.62-5.82-10,3.23-9.57,6.68-9.42S227.42,249,227.18,254.32Z"/>
            <path class="cls-28" d="M224.45,253.91c-.17,3.76-2,6.73-4.09,6.64s-3.65-3.21-3.49-7,2-6.73,4.09-6.64S224.62,250.16,224.45,253.91Z"/>
            <path class="cls-29" d="M224.51,254.2l-.36,0,.36,0a13.15,13.15,0,0,0-1.58-7.13,5.73,5.73,0,0,0-4.58-3.21c-3.63-.16-6.8,4.21-7,9.75s2.52,10.18,6.16,10.34h.19C221.21,264,224.26,259.64,224.51,254.2Zm-6.19-9.64a5.08,5.08,0,0,1,4,2.86,12.42,12.42,0,0,1,1.48,6.74c-.23,5.16-3.06,9.22-6.31,9.08s-5.71-4.45-5.48-9.6,3-9.08,6.14-9.08Z"/>
            <path class="cls-7" d="M217.88,266.73l2.54.08s1.08,10.52,4.11,16.7,7.34,8.16,7.34,8.16-6.49-2.1-10.37-10.11C218.7,275.79,217.88,266.73,217.88,266.73Z"/>
            <path class="cls-30" d="M238.85,246.06v0a1.34,1.34,0,0,0,1.93.45c1.24-.84,3.11-2.1,4.19-2.68,1.71-.93,10.14-4,10.14-4a38.84,38.84,0,0,0-15.63,4.08A1.59,1.59,0,0,0,238.85,246.06Z"/>
          </g>
          <path class="cls-31" d="M232.22,253.08c0,1.66-.77,3-1.72,3s-1.73-1.35-1.73-3,.77-3,1.73-3S232.22,251.42,232.22,253.08Z"/>
          <g>
            <rect class="cls-32" x="252.71" y="249" width="12.18" height="15.91" rx="3.93"/>
            <rect class="cls-32" x="253.99" y="250.71" width="9.63" height="12.49" rx="3.68"/>
            <rect class="cls-33" x="255.61" y="252.32" width="6.68" height="9.72" rx="2.44"/>
            <path class="cls-34" d="M261.58,256.06h-5.49a.27.27,0,0,1,0-.53h5.49a.27.27,0,0,1,0,.53Z"/>
            <path class="cls-34" d="M261.58,257.22h-5.49a.27.27,0,0,1,0-.53h5.49a.27.27,0,0,1,0,.53Z"/>
            <path class="cls-34" d="M261.58,258.42h-5.49a.27.27,0,0,1,0-.53h5.49a.27.27,0,0,1,0,.53Z"/>
            <path class="cls-34" d="M260.88,253.84h-4.09a.27.27,0,0,1,0-.53h4.09a.27.27,0,0,1,0,.53Z"/>
            <path class="cls-34" d="M261.58,255h-5.49a.27.27,0,0,1,0-.53h5.49a.27.27,0,0,1,0,.53Z"/>
            <path class="cls-34" d="M261.58,259.85h-5.49a.27.27,0,0,1,0-.53h5.49a.27.27,0,0,1,0,.53Z"/>
            <path class="cls-34" d="M261.58,261h-5.49a.27.27,0,0,1,0-.53h5.49a.27.27,0,0,1,0,.53Z"/>
          </g>
          <g>
            <rect class="cls-32" x="274.58" y="248.71" width="12.18" height="15.91" rx="3.93"/>
            <rect class="cls-32" x="275.86" y="250.42" width="9.63" height="12.49" rx="3.68"/>
            <rect class="cls-33" x="277.48" y="252.03" width="6.68" height="9.72" rx="2.44"/>
            <path class="cls-34" d="M283.45,255.78H278a.27.27,0,0,1-.26-.27.26.26,0,0,1,.26-.26h5.49a.25.25,0,0,1,.26.26A.26.26,0,0,1,283.45,255.78Z"/>
            <path class="cls-34" d="M283.45,256.93H278a.26.26,0,0,1-.26-.26.27.27,0,0,1,.26-.27h5.49a.26.26,0,0,1,.26.27A.25.25,0,0,1,283.45,256.93Z"/>
            <path class="cls-34" d="M283.45,258.14H278a.27.27,0,0,1-.26-.27.26.26,0,0,1,.26-.26h5.49a.25.25,0,0,1,.26.26A.26.26,0,0,1,283.45,258.14Z"/>
            <path class="cls-34" d="M282.75,253.55h-4.09a.27.27,0,0,1,0-.53h4.09a.27.27,0,1,1,0,.53Z"/>
            <path class="cls-34" d="M283.45,254.76H278a.27.27,0,0,1-.26-.27.26.26,0,0,1,.26-.26h5.49a.25.25,0,0,1,.26.26A.26.26,0,0,1,283.45,254.76Z"/>
            <path class="cls-34" d="M283.45,259.56H278a.26.26,0,0,1-.26-.26A.27.27,0,0,1,278,259h5.49a.26.26,0,0,1,.26.27A.25.25,0,0,1,283.45,259.56Z"/>
            <path class="cls-34" d="M283.45,260.72H278a.27.27,0,0,1,0-.53h5.49a.27.27,0,0,1,0,.53Z"/>
          </g>
        </g>
        <path id="boca" class="cls-35" d="M261.34,273.07c5.5.7,15.35,1.25,15.35,1.25s-8.72.88-14.4-.1S255.43,272.32,261.34,273.07Z"/>
        <g id="brazoDerecho">
          <path class="cls-36" d="M225.26,327.93c3,10.61.63,20.62-5.39,22.35s-13.38-5.47-16.43-16.08-.63-20.62,5.39-22.35S222.21,317.32,225.26,327.93Z"/>
          <path class="cls-29" d="M217.94,347.66a.39.39,0,0,1,0-.77,4.38,4.38,0,0,0,3.54-2.47c2.51-4.3,2-12.43-1.12-18.89-3.75-7.73-9.76-10.81-13.17-9.24a.38.38,0,1,1-.32-.69c4.29-2,10.65,2.32,14.18,9.59,3.25,6.68,3.72,15.11,1.09,19.61a5.18,5.18,0,0,1-4.15,2.86Z"/>
          <g>
            <path class="cls-5" d="M185,367.52c2.53-31,13.22-45.38,15.76-48.42a2.55,2.55,0,0,1,1.46-.87c2.13-.4,7.73-.55,14.18,6.79,4.45,5.06,4.28,14.18,4,14.66-2.95,5-21.5,36.24-26.15,46.74C189.14,397.83,183.88,380.75,185,367.52Z"/>
            <path class="cls-6" d="M216.39,325a25.15,25.15,0,0,0-5.88-5.07c.68.63,1.36,1.34,2.06,2.13,5.62,6.4,3.94,11.42,2.69,14.87-4.49,12.35-18.69,36-21.32,50.12l.3-.64c4.65-10.5,23.2-41.78,26.15-46.74C220.68,339.23,220.85,330.11,216.39,325Z"/>
            <path class="cls-7" d="M199.49,330c-12.9,12-12.44,48.88-12.44,48.88s6.22-26.21,12-37.54S203.89,325.93,199.49,330Z"/>
            <path class="cls-6" d="M197,380.13a39.9,39.9,0,0,0,.49,5.26,8.79,8.79,0,0,0,2.73,2.25c-.1-2.21.43-13.86,2.17-17C203,369.5,196.82,378,197,380.13Z"/>
            <path class="cls-8" d="M202.69,371a.36.36,0,0,1-.3-.17c-3.39-5.44-10.43-9.49-16.76-6.28a.37.37,0,0,1-.48-.16.35.35,0,0,1,.16-.48c6.71-3.39,14.12.84,17.68,6.55a.34.34,0,0,1-.11.48A.33.33,0,0,1,202.69,371Z"/>
          </g>
          <g>
            <path class="cls-37" d="M207,338.8c-.16,5.25-4.13,9.38-8.85,9.24s-8.43-4.52-8.27-9.76,4.12-9.39,8.85-9.24S207.14,333.55,207,338.8Z"/>
            <g>
              <path class="cls-38" d="M192.56,339.35a8.32,8.32,0,0,0,1.89,5,17.05,17.05,0,0,0,2.06,2.36s5.46-1.39,7-4.52c.31-.66,1.74-4.77,1.74-4.77s.43-1-.37-1.44a25.73,25.73,0,0,1-2.77-1.57,8.21,8.21,0,0,0-1.85-1.19c-.52-.18-.75-.08-1.71,0a28.17,28.17,0,0,1-3.26-.08c-.95,0-1.07,1.08-1.07,1.08S192.61,338.61,192.56,339.35Z"/>
              <path class="cls-39" d="M194.18,334.23s-1.57,4.38-1.62,5.12c-.23,3.53,3.95,7.38,3.95,7.38h0s5.46-1.39,7-4.53c.31-.65,1.74-4.76,1.74-4.76s.43-1-.37-1.44a25.73,25.73,0,0,1-2.77-1.57,7.86,7.86,0,0,0-1.85-1.19c-.52-.19-.75-.08-1.71,0a28.17,28.17,0,0,1-3.26-.08C194.3,333.12,194.18,334.23,194.18,334.23Zm.86-.18h.8a9.49,9.49,0,0,0,2.51,0c1.73-.33,2.26.55,3.09,1.14a15.26,15.26,0,0,0,2.13,1.24c.24.13.48.24.69.36a.71.71,0,0,1,0,.2l0,.06c-.55,1.57-1.5,4.23-1.71,4.67a7.43,7.43,0,0,1-3.56,3,17.77,17.77,0,0,1-2.11.84,16.55,16.55,0,0,1-1.47-1.78,8,8,0,0,1-1.7-4.54,33.66,33.66,0,0,1,1.31-5Z"/>
              <path class="cls-40" d="M192.56,339.35c-.13,2,1.22,4.21,2.37,5.65-1.05-1.42-2.12-3.34-2-5.17a53.62,53.62,0,0,1,1.62-5.13s.11-1.1,1.07-1.08a28.11,28.11,0,0,0,3.26.08c1-.07,1.19-.17,1.71,0a7.73,7.73,0,0,1,1.84,1.18,25,25,0,0,0,2.77,1.57l.07,0a.89.89,0,0,0-.43-.52,24.8,24.8,0,0,1-2.77-1.57,7.86,7.86,0,0,0-1.85-1.19c-.52-.19-.75-.08-1.71,0a28.17,28.17,0,0,1-3.26-.08c-.95,0-1.07,1.08-1.07,1.08S192.61,338.61,192.56,339.35Z"/>
              <path class="cls-39" d="M198,339.44a.34.34,0,0,0,.09.32L198,340a.07.07,0,0,0,0,.09l.2.05a.07.07,0,0,0,.09-.05l.07-.25a.35.35,0,0,0,.23-.24.34.34,0,0,0-.24-.42A.34.34,0,0,0,198,339.44Z"/>
              <path class="cls-39" d="M198,337.69l-.13.5,1.51.4.13-.5a.78.78,0,1,0-1.51-.4Z"/>
              <path class="cls-39" d="M195.27,335.45s-1,3.23-1,3.78c-.2,2.62,2.72,5.65,2.72,5.65h0s3.88-1.09,5-3.44c.22-.49,1.28-3.56,1.28-3.56s.32-.75-.25-1.08a17.43,17.43,0,0,1-1.95-1.13c-.33-.25-.63-.45-.88-.61a4.18,4.18,0,0,0-.56-.3h0a2.14,2.14,0,0,0-1.14-.09,17.19,17.19,0,0,1-2.29,0C195.5,334.64,195.27,335.45,195.27,335.45Zm1.39,2.86a.41.41,0,0,1,.51-.3l.11,0,.14-.51a1.39,1.39,0,1,1,2.69.71l-.13.51.11,0a.43.43,0,0,1,.3.53l-.52,2a.43.43,0,0,1-.52.3l-2.91-.77a.42.42,0,0,1-.3-.52Z"/>
              <path class="cls-40" d="M194.27,339.23c-.14,1.88,1.33,4,2.16,5-.83-1.13-1.92-2.91-1.79-4.54,0-.55,1-3.78,1-3.78s.23-.81.91-.8a17.19,17.19,0,0,0,2.29,0,2.12,2.12,0,0,1,1.13.09h0a3.26,3.26,0,0,1,.55.3c.25.15.56.36.89.6a14.64,14.64,0,0,0,1.9,1.11.63.63,0,0,0-.32-.45,17.43,17.43,0,0,1-1.95-1.13,10.37,10.37,0,0,0-.88-.61,5.86,5.86,0,0,0-.56-.3h0a2.14,2.14,0,0,0-1.14-.09,17.23,17.23,0,0,1-2.29,0c-.67,0-.91.8-.91.8S194.31,338.68,194.27,339.23Z"/>
            </g>
          </g>
        </g>
      </g>
    </g>
  </g>
</svg>
