<svg xmlns="http://www.w3.org/2000/svg" xmlns:xlink="http://www.w3.org/1999/xlink" width="1024" height="620" viewBox="0 0 1024 620">
  <defs>
    <style>
      .cls-1 {
        isolation: isolate;
      }

      .cls-2 {
        fill: none;
      }

      .cls-3 {
        fill: #e3ebfc;
      }

      .cls-4 {
        fill: #ccddfa;
      }

      .cls-5 {
        fill: #fafbff;
      }

      .cls-6 {
        fill: #80a7f6;
      }

      .cls-7 {
        fill: #9fbcfb;
      }

      .cls-8 {
        fill: #e2eafb;
      }

      .cls-9 {
        fill: #f9faff;
      }

      .cls-10 {
        fill: #b7cff8;
      }

      .cls-11, .cls-31, .cls-33 {
        fill: #207bff;
      }

      .cls-11, .cls-39 {
        opacity: 0.4;
      }

      .cls-12 {
        fill: #004bff;
        opacity: 0.5;
        mix-blend-mode: multiply;
      }

      .cls-13 {
        fill: #c4d7f9;
      }

      .cls-14 {
        fill: url(#_ÂÁ_Ï_ÌÌ_È_ËÂÌÚ_30);
      }

      .cls-15 {
        fill: #4aeaff;
      }

      .cls-16 {
        fill: #80a6f5;
      }

      .cls-17, .cls-32 {
        fill: #fff;
      }

      .cls-18 {
        fill: #bdf8ff;
      }

      .cls-19 {
        fill: url(#linear-gradient);
      }

      .cls-20 {
        fill: #eb1c24;
      }

      .cls-21 {
        fill: url(#linear-gradient-2);
      }

      .cls-22 {
        fill: url(#linear-gradient-3);
      }

      .cls-23 {
        fill: url(#linear-gradient-4);
      }

      .cls-24 {
        fill: url(#linear-gradient-5);
      }

      .cls-25 {
        fill: url(#linear-gradient-6);
      }

      .cls-26 {
        fill: url(#linear-gradient-7);
      }

      .cls-27 {
        fill: url(#_ÂÁ_Ï_ÌÌ_È_ËÂÌÚ_14);
      }

      .cls-28 {
        fill: url(#_ÂÁ_Ï_ÌÌ_È_ËÂÌÚ_18);
      }

      .cls-29 {
        fill: #9ebbfa;
      }

      .cls-30 {
        fill: #4880f7;
      }

      .cls-32 {
        opacity: 0.8;
      }

      .cls-33 {
        opacity: 0.72;
      }

      .cls-34, .cls-35, .cls-36, .cls-37 {
        fill: #3ae5fa;
      }

      .cls-34, .cls-43 {
        opacity: 0.1;
      }

      .cls-35 {
        opacity: 0.3;
      }

      .cls-37 {
        opacity: 0.7;
      }

      .cls-38 {
        fill: #93b4fb;
      }

      .cls-39 {
        mix-blend-mode: lighten;
        fill: url(#radial-gradient);
      }

      .cls-40 {
        fill: #00ffda;
      }

      .cls-41 {
        fill: #7fd1ca;
      }

      .cls-42 {
        fill: #1e1e1e;
      }

      .cls-43, .cls-44 {
        fill: #51b1fa;
      }

      .cls-44 {
        opacity: 0.2;
      }
    </style>
    <radialGradient id="_ÂÁ_Ï_ÌÌ_È_ËÂÌÚ_30" data-name="¡ÂÁ˚ÏˇÌÌ˚È „‡‰ËÂÌÚ 30" cx="3135.33" cy="490.74" r="5.88" gradientTransform="translate(-2784.64 28.28) scale(0.97 0.95)" gradientUnits="userSpaceOnUse">
      <stop offset="0" stop-color="#4aeaff"/>
      <stop offset="1" stop-color="#00709d"/>
    </radialGradient>
    <linearGradient id="linear-gradient" x1="1453.24" y1="395.19" x2="1453.24" y2="425.86" gradientTransform="matrix(-1, 0, 0, 1, 1705.34, 0)" gradientUnits="userSpaceOnUse">
      <stop offset="0.02" stop-color="#dc2a21"/>
      <stop offset="0.06" stop-color="#c7201b"/>
      <stop offset="0.1" stop-color="#b61717"/>
      <stop offset="0.15" stop-color="#ab1113"/>
      <stop offset="0.22" stop-color="#a40e12"/>
      <stop offset="0.43" stop-color="#a20d11"/>
      <stop offset="0.79" stop-color="#6b0006"/>
    </linearGradient>
    <linearGradient id="linear-gradient-2" x1="1444.13" y1="396.56" x2="1444.13" y2="418.57" gradientTransform="matrix(-1, 0, 0, 1, 1705.34, 0)" gradientUnits="userSpaceOnUse">
      <stop offset="0" stop-color="#ac1a27"/>
      <stop offset="0.08" stop-color="#9e151f"/>
      <stop offset="0.28" stop-color="#7d0a0e"/>
      <stop offset="0.44" stop-color="#680304"/>
      <stop offset="0.56" stop-color="#610000"/>
      <stop offset="0.73" stop-color="#520000"/>
      <stop offset="1" stop-color="#3f0000"/>
    </linearGradient>
    <linearGradient id="linear-gradient-3" x1="-507.62" y1="407.89" x2="-493.13" y2="407.89" gradientTransform="translate(734.8)" gradientUnits="userSpaceOnUse">
      <stop offset="0" stop-color="#bd1349"/>
      <stop offset="0.24" stop-color="#bd124e"/>
      <stop offset="0.25" stop-color="#bd124e"/>
      <stop offset="1" stop-color="#7a0025"/>
    </linearGradient>
    <linearGradient id="linear-gradient-4" x1="-512.55" y1="415.21" x2="-493.06" y2="415.21" gradientTransform="translate(734.8)" gradientUnits="userSpaceOnUse">
      <stop offset="0" stop-color="#282880"/>
      <stop offset="0.27" stop-color="#26257c"/>
      <stop offset="0.56" stop-color="#1f1b6f"/>
      <stop offset="0.85" stop-color="#140b5a"/>
      <stop offset="1" stop-color="#0d004c"/>
    </linearGradient>
    <linearGradient id="linear-gradient-5" x1="-507.94" y1="415.21" x2="-493.13" y2="415.21" xlink:href="#linear-gradient-3"/>
    <linearGradient id="linear-gradient-6" x1="-504.94" y1="407.83" x2="-486.33" y2="407.83" xlink:href="#linear-gradient-4"/>
    <linearGradient id="linear-gradient-7" x1="1458.33" y1="414.48" x2="1458.33" y2="404.06" gradientTransform="matrix(-1, 0, 0, 1, 1705.34, 0)" gradientUnits="userSpaceOnUse">
      <stop offset="0" stop-color="#ec2d24"/>
      <stop offset="0.12" stop-color="#ec2824"/>
      <stop offset="0.25" stop-color="#eb1c24"/>
      <stop offset="1" stop-color="#74020d"/>
    </linearGradient>
    <linearGradient id="_ÂÁ_Ï_ÌÌ_È_ËÂÌÚ_14" data-name="¡ÂÁ˚ÏˇÌÌ˚È „‡‰ËÂÌÚ 14" x1="3029.17" y1="474.53" x2="3092.48" y2="474.53" gradientTransform="translate(-2838.4 13.43) rotate(-2.88)" gradientUnits="userSpaceOnUse">
      <stop offset="0" stop-color="#003a6b"/>
      <stop offset="1" stop-color="#00204c"/>
    </linearGradient>
    <linearGradient id="_ÂÁ_Ï_ÌÌ_È_ËÂÌÚ_18" data-name="¡ÂÁ˚ÏˇÌÌ˚È „‡‰ËÂÌÚ 18" x1="3091.55" y1="307.29" x2="3123.22" y2="360.65" gradientTransform="translate(-2863.05)" gradientUnits="userSpaceOnUse">
      <stop offset="0" stop-color="#cad6e0"/>
      <stop offset="0.05" stop-color="#aec0d0"/>
      <stop offset="0.15" stop-color="#7998b1"/>
      <stop offset="0.25" stop-color="#4e7698"/>
      <stop offset="0.35" stop-color="#2c5c84"/>
      <stop offset="0.44" stop-color="#144976"/>
      <stop offset="0.53" stop-color="#053e6e"/>
      <stop offset="0.6" stop-color="#003a6b"/>
      <stop offset="1" stop-color="#00204c"/>
    </linearGradient>
    <radialGradient id="radial-gradient" cx="3204.7" cy="654.05" r="13.06" gradientTransform="matrix(0.72, 0.02, -0.02, 0.78, -2106.4, -166.98)" gradientUnits="userSpaceOnUse">
      <stop offset="0" stop-color="#00ddde" stop-opacity="0.52"/>
      <stop offset="0.09" stop-color="#2de6e7" stop-opacity="0.65"/>
      <stop offset="0.2" stop-color="#63f1f1" stop-opacity="0.8"/>
      <stop offset="0.3" stop-color="#8af8f9" stop-opacity="0.91"/>
      <stop offset="0.38" stop-color="#a2fdfd" stop-opacity="0.98"/>
      <stop offset="0.43" stop-color="#abffff"/>
      <stop offset="0.46" stop-color="#9ffcfd"/>
      <stop offset="0.51" stop-color="#7ff6f6"/>
      <stop offset="0.58" stop-color="#4aebeb"/>
      <stop offset="0.66" stop-color="#03dcdd"/>
      <stop offset="0.66" stop-color="#00dbdc"/>
      <stop offset="0.69" stop-color="#08dcdd" stop-opacity="0.97"/>
      <stop offset="0.74" stop-color="#1fdfe0" stop-opacity="0.88"/>
      <stop offset="0.8" stop-color="#44e5e5" stop-opacity="0.73"/>
      <stop offset="0.87" stop-color="#78eced" stop-opacity="0.53"/>
      <stop offset="0.94" stop-color="#baf5f6" stop-opacity="0.27"/>
      <stop offset="1" stop-color="#fff" stop-opacity="0"/>
    </radialGradient>
  </defs>
  <title>robot</title>
  <g class="cls-1">
    <g id="Robot">
      <g id="fondo">
        <rect class="cls-2" width="1024" height="620"/>
      </g>
      <g id="brazoIzquierdo">
        <g>
          <path class="cls-3" d="M305.91,426.65c-7-32.5-20.56-46.36-23.75-49.24a2.78,2.78,0,0,0-1.7-.72c-2.36-.15-8.46.45-14.45,9.09-4.13,6-2.7,15.62-2.32,16.09,3.88,4.87,28.3,35.56,34.79,46.06C305.53,459.35,308.9,440.54,305.91,426.65Z"/>
          <path class="cls-4" d="M266,385.82a27.19,27.19,0,0,1,5.68-6.17c-.64.76-1.29,1.6-1.94,2.54-5.22,7.53-2.71,12.63-.88,16.12,6.57,12.5,25.22,35.68,30,50.3l-.42-.64c-6.49-10.51-30.9-41.19-34.79-46.06C263.28,401.44,261.84,391.79,266,385.82Z"/>
          <path class="cls-5" d="M285,388.84c15.64,11,20.2,50.17,20.2,50.17s-10.35-27-18.21-38.2S279.67,385.08,285,388.84Z"/>
          <path class="cls-4" d="M294.57,441.64a39.84,39.84,0,0,1,.18,5.65c-.06.51-2.62,3-2.65,2.75-.19-2.36-2.36-14.65-4.68-17.77C286.59,431.17,294.49,439.36,294.57,441.64Z"/>
          <path class="cls-6" d="M287.14,432.66a.37.37,0,0,0,.3-.21c2.94-6.23,10-11.47,17.33-8.92a.4.4,0,0,0,.5-.23.38.38,0,0,0-.24-.48c-7.75-2.7-15.21,2.78-18.29,9.31a.37.37,0,0,0,.19.5A.39.39,0,0,0,287.14,432.66Z"/>
        </g>
        <path class="cls-7" d="M282.72,391.86c-.9,10.15-5.25,18.06-9.72,17.69s-7.35-8.91-6.45-19.06,5.24-17.92,9.71-17.69C282.72,373.13,283.62,381.71,282.72,391.86Z"/>
      </g>
      <g id="torso">
        <path class="cls-8" d="M192,372.51c-4.42-.28-20,15-15.31,29.83S208,466.64,214,484s9.62,21.59,18.18,23.16,21.47,2.14,36.46-28.44,17.29-64.92,18-81.24-1.06-22.79-6.9-24.65C266.08,368.45,192,372.51,192,372.51Z"/>
        <path class="cls-9" d="M262.57,475.08c11.62-32.17,10.22-66.75,9.14-83.13-.72-10.89-2-17.32-4.6-20.77-12.37-.68-30.45-.38-45.77.1,8.19,21.12,20.3,56.69,22.31,93.33,1.35,24.44-2.1,36.39-6.89,42.5C244.56,505.59,253.93,499,262.57,475.08Z"/>
        <path class="cls-10" d="M281,374.14c0,3.17-22.91,8.1-46,8.13s-46.06-4.81-46.06-8,22.92-3.46,46-3.49S281,371,281,374.14Z"/>
        <path class="cls-11" d="M267,374.79c0,2.19-15.78,5.6-31.71,5.62s-31.72-3.32-31.73-5.52,15.79-2.39,31.72-2.41S267,372.6,267,374.79Z"/>
        <path class="cls-12" d="M257.31,375.93c0,.84-10.88,1.9-21.49,1.92s-20.77-1-20.77-1.85,10.15-1.17,20.76-1.19S257.31,375.09,257.31,375.93Z"/>
        <path class="cls-13" d="M223.5,487.54c-2.46-13-6.12-55.36-14.84-85.28C204.29,387.26,194,376.68,184,380c-7.06,2.38-9.86,14.29-7.32,22.31C181.41,417.16,208,466.64,214,484s9.62,21.59,18.18,23.16c4.4.81,10,1.34,16.37-2.5C239.86,506,227.56,509,223.5,487.54Z"/>
        <path class="cls-14" d="M254.1,493.86a16.17,16.17,0,0,1-5.27.84,24.48,24.48,0,0,1-5.89-.42c-1.1-.27-2.06-1-2.06-2.14h0a2.09,2.09,0,0,1,2.06-2.13s4.54.49,5.64.48a41.85,41.85,0,0,0,5.73-.53c1.13,0,2.19.33,1.85,1.92C256,492.62,255.47,493.35,254.1,493.86Z"/>
        <path class="cls-15" d="M253.37,493.62a16.51,16.51,0,0,1-4.55.6,25.93,25.93,0,0,1-5.1-.3c-.95-.19-1.78-.69-1.78-1.53h0a1.68,1.68,0,0,1,1.79-1.52s3.92.35,4.87.35a42.88,42.88,0,0,0,5-.38c1,0,1.9.24,1.61,1.37C255,492.74,254.56,493.26,253.37,493.62Z"/>
        <path class="cls-16" d="M247.56,484.08c-10.42,0-23.19-2.21-37-7.74a.36.36,0,0,1-.2-.48.37.37,0,0,1,.48-.19c25.67,10.31,47.76,9,57.42,3.42a.37.37,0,0,1,.5.13.35.35,0,0,1-.13.49C264.07,482.37,256.72,484.08,247.56,484.08Z"/>
        <path class="cls-17" d="M247.28,483.27c-10.41,0-23.18-2.21-37-7.74a.36.36,0,0,1-.2-.47.37.37,0,0,1,.48-.2c25.67,10.31,47.76,9,57.41,3.43a.37.37,0,0,1,.51.12.36.36,0,0,1-.13.5C263.8,481.56,256.45,483.27,247.28,483.27Z"/>
        <path class="cls-9" d="M284.64,380.87c2,39.21-3.81,57.76-3.81,57.76s5.53-29.62.43-58.26C280.56,376.45,284.34,374.74,284.64,380.87Z"/>
        <path class="cls-17" d="M192.42,378.13s4.56,2.69,21.25,4.2,38.65,1.23,38.65,1.23-20.24,2.62-38.73.67S192.42,378.13,192.42,378.13Z"/>
        <path class="cls-18" d="M251.27,491.09c-.8.07-1.74.12-2.67.13s-4.87-.35-4.87-.35a1.64,1.64,0,0,0-.38,0l1.8,3.21a36.29,36.29,0,0,0,3.67.1,17.23,17.23,0,0,0,4.24-.52Z"/>
        <g>
          <path class="cls-19" d="M262.74,407.74a13.84,13.84,0,0,0-8.84-12.83c-.54,0-1.06.1-1.58.19a12.86,12.86,0,0,0-10.85,12.15c0,.14,0,.27,0,.41v.15h0a8,8,0,0,1,8.09-7.89,8.25,8.25,0,0,1,2.64.43c-.8-.28-.77-.28,0,0a8.06,8.06,0,0,1,2.73-.47,7.65,7.65,0,0,1,7.72,7.83v.07a7.53,7.53,0,0,1-7.65,7.75,8,8,0,0,1-2.48-.39,8.29,8.29,0,0,1-3,.56,8,8,0,0,1-8.08-7.77,12.71,12.71,0,0,0,10.77,12.41,14.31,14.31,0,0,0,1.65.2A13.86,13.86,0,0,0,262.74,407.74Z"/>
          <path class="cls-20" d="M257.63,407.83a7.92,7.92,0,0,1-5.08,7.34,8,8,0,0,0,2.48.39,7.53,7.53,0,0,0,7.65-7.75v-.07a7.65,7.65,0,0,0-7.72-7.83,8.06,8.06,0,0,0-2.73.47c-.81-.3-.84-.3,0,0A7.93,7.93,0,0,1,257.63,407.83Z"/>
          <path class="cls-21" d="M255,394.86c-.38,0-.76,0-1.13.05a13.73,13.73,0,0,1,0,25.66c.35,0,.71,0,1.07,0,7.86,0,13.57-5.8,13.57-12.87v-.08C268.53,400.59,262.89,394.86,255,394.86Z"/>
          <path class="cls-22" d="M241.46,407.83s0,.09,0,.13,0-.09,0-.14Z"/>
          <path class="cls-23" d="M252.32,415.09Z"/>
          <path class="cls-24" d="M252.32,415.09Z"/>
          <path class="cls-25" d="M249.55,415.73a8.29,8.29,0,0,0,3-.56l-.23-.08h0a7.7,7.7,0,0,1-5.2-7.35v-.08a7.57,7.57,0,0,1,5.11-7.28l0,0a8.25,8.25,0,0,0-2.64-.43,8,8,0,0,0-8.09,7.89c0,.05,0,.09,0,.14A8,8,0,0,0,249.55,415.73Z"/>
          <path class="cls-26" d="M249.55,415.73a8.29,8.29,0,0,0,3-.56l-.23-.08h0a7.7,7.7,0,0,1-5.2-7.35v-.08a7.57,7.57,0,0,1,5.11-7.28l0,0a8.25,8.25,0,0,0-2.64-.43,8,8,0,0,0-8.09,7.89c0,.05,0,.09,0,.14A8,8,0,0,0,249.55,415.73Z"/>
        </g>
      </g>
      <g id="cabeza">
        <g>
          <path class="cls-8" d="M195.54,360.45c10.52,13.24,42.73,10.72,51.7,9.88s24.18-2.36,29.65-18.51,2.74-40.78-12.32-53.58-55.34-10.72-69,6.54S191.89,355.86,195.54,360.45Z"/>
          <path class="cls-17" d="M198.32,308.3c.6-.21,13-9.66,35.56-11.55,7.75-.65,19.83,0,27.58,1.05-.77-.8-11.9-7.08-34.88-4.75A45.7,45.7,0,0,0,198.32,308.3Z"/>
          <path class="cls-9" d="M239.26,304.39c-7.25.11-14.51.61-21.34,3.15l-.16.06c7.09,14.69,7.67,33.82,3.52,47.5a28.71,28.71,0,0,1-6,11.09c12.53,2.16,26.55,1,32,.53,5.93-.55,14.6-1.41,21.36-6.6a33,33,0,0,0,2-5c4.2-13.86,3.55-33.31-3.81-48.07A119.16,119.16,0,0,0,239.26,304.39Z"/>
          <path class="cls-27" d="M213.05,317.43c4.18-5.56,15.57-7,29.84-7.84,18.42-1.08,24.65,2.18,26.53,4.26s5.14,12.42,4.44,22.47-.81,13.07-5.05,15.56-16.44,4.95-24.33,5.14c-14.95.35-22.49-.36-27.49-3.23-2.55-1.47-5.8-9.37-6.31-19.12S210.88,320.31,213.05,317.43Z"/>
          <path class="cls-28" d="M242.37,311.14c-8.86.5-16.56,1.25-22,3.12,4.74,12.86,4.77,28.12,1.25,39.41,0,.13-.09.25-.13.38,4.74,1.34,11.52,1.66,22.39,1.41,7.57-.18,19.29-2.47,23.35-4.8a7.07,7.07,0,0,0,3.17-3.24,65.66,65.66,0,0,0-2.34-32,2.23,2.23,0,0,0-.26-.33C266,313.18,260,310.14,242.37,311.14Z"/>
          <path class="cls-29" d="M203.37,326.66c-.25,5.46-3.37,9.76-7,9.6s-6.31-4.71-6.07-10.17,3.37-9.75,7-9.59S203.62,321.2,203.37,326.66Z"/>
          <path class="cls-30" d="M200.52,326.25c-.18,3.83-2.09,6.86-4.27,6.77s-3.81-3.28-3.63-7.11,2.08-6.86,4.26-6.77S200.69,322.42,200.52,326.25Z"/>
          <path class="cls-31" d="M200.58,326.54l-.37,0,.37,0a13.2,13.2,0,0,0-1.64-7.27,6,6,0,0,0-4.78-3.27c-3.79-.16-7.1,4.29-7.35,9.94s2.62,10.38,6.42,10.54h.2C197.14,336.49,200.32,332.08,200.58,326.54Zm-6.46-9.82a5.29,5.29,0,0,1,4.18,2.91,12.47,12.47,0,0,1,1.54,6.88c-.24,5.25-3.2,9.39-6.58,9.25s-6-4.54-5.72-9.79,3.09-9.26,6.41-9.26Z"/>
          <path class="cls-9" d="M193.67,339.31l2.64.09s1.13,10.72,4.29,17,7.66,8.32,7.66,8.32-6.77-2.14-10.82-10.31C194.52,348.55,193.67,339.31,193.67,339.31Z"/>
          <path class="cls-32" d="M215.53,318.25h0a1.41,1.41,0,0,0,2,.47c1.29-.86,3.24-2.14,4.37-2.74,1.78-.95,10.57-4.12,10.57-4.12s-8.81.17-16.3,4.15A1.62,1.62,0,0,0,215.53,318.25Z"/>
        </g>
        <path class="cls-33" d="M208.62,325.4c0,1.7-.8,3.07-1.8,3.07s-1.8-1.37-1.8-3.07.81-3.06,1.8-3.06S208.62,323.71,208.62,325.4Z"/>
      </g>
      <g id="ojos">
        <rect class="cls-34" x="250.23" y="321.24" width="12.7" height="16.22" rx="3.93"/>
        <rect class="cls-34" x="251.56" y="322.99" width="10.04" height="12.73" rx="3.93"/>
        <rect class="cls-35" x="253.25" y="324.62" width="6.97" height="9.91" rx="2.44"/>
        <path class="cls-36" d="M259.48,328.44h-5.73a.27.27,0,1,1,0-.54h5.73a.27.27,0,1,1,0,.54Z"/>
        <path class="cls-36" d="M259.48,329.62h-5.73a.27.27,0,1,1,0-.54h5.73a.27.27,0,1,1,0,.54Z"/>
        <path class="cls-36" d="M259.48,330.85h-5.73a.27.27,0,0,1,0-.54h5.73a.27.27,0,1,1,0,.54Z"/>
        <path class="cls-36" d="M258.75,326.18h-4.27a.27.27,0,0,1,0-.54h4.27a.27.27,0,1,1,0,.54Z"/>
        <path class="cls-36" d="M259.48,327.4h-5.73a.27.27,0,1,1,0-.54h5.73a.27.27,0,0,1,0,.54Z"/>
        <path class="cls-36" d="M259.48,332.3h-5.73a.27.27,0,0,1,0-.54h5.73a.27.27,0,1,1,0,.54Z"/>
        <path class="cls-36" d="M259.48,333.48h-5.73a.27.27,0,0,1,0-.54h5.73a.27.27,0,1,1,0,.54Z"/>
        <g>
          <rect class="cls-34" x="229.99" y="321.24" width="12.7" height="16.22" rx="3.93"/>
          <rect class="cls-34" x="231.32" y="322.99" width="10.04" height="12.73" rx="3.93"/>
          <rect class="cls-35" x="233.01" y="324.62" width="6.97" height="9.91" rx="2.44"/>
          <path class="cls-36" d="M239.24,328.44h-5.73a.27.27,0,0,1,0-.54h5.73a.27.27,0,1,1,0,.54Z"/>
          <path class="cls-36" d="M239.24,329.62h-5.73a.27.27,0,0,1,0-.54h5.73a.27.27,0,1,1,0,.54Z"/>
          <path class="cls-36" d="M239.24,330.85h-5.73a.27.27,0,0,1,0-.54h5.73a.27.27,0,1,1,0,.54Z"/>
          <path class="cls-36" d="M238.51,326.18h-4.27a.27.27,0,1,1,0-.54h4.27a.27.27,0,1,1,0,.54Z"/>
          <path class="cls-36" d="M239.24,327.4h-5.73a.27.27,0,0,1,0-.54h5.73a.27.27,0,0,1,0,.54Z"/>
          <path class="cls-36" d="M239.24,332.3h-5.73a.27.27,0,0,1,0-.54h5.73a.27.27,0,1,1,0,.54Z"/>
          <path class="cls-36" d="M239.24,333.48h-5.73a.27.27,0,0,1,0-.54h5.73a.27.27,0,1,1,0,.54Z"/>
        </g>
      </g>
      <path id="boca" class="cls-37" d="M239,345.78c5.73.71,16,1.27,16,1.27s-9.09.9-15-.1S232.82,345,239,345.78Z"/>
      <g id="brazoDerecho">
        <path class="cls-38" d="M203.22,398.69c3.33,11.34.69,22-5.9,23.89s-14.62-5.85-18-17.2-.69-22,5.9-23.89S199.89,387.34,203.22,398.69Z"/>
        <path class="cls-31" d="M195.21,419.77a.41.41,0,1,1,0-.81,4.81,4.81,0,0,0,3.87-2.65c2.74-4.6,2.21-13.28-1.23-20.19-4.11-8.26-10.67-11.56-14.4-9.88a.42.42,0,0,1-.56-.2.41.41,0,0,1,.21-.54c4.69-2.12,11.64,2.49,15.5,10.26,3.55,7.14,4.07,16.15,1.2,21a5.65,5.65,0,0,1-4.54,3Z"/>
        <g>
          <path class="cls-3" d="M159.15,441c2.77-33.11,14.45-48.52,17.24-51.76a2.79,2.79,0,0,1,1.59-.93c2.33-.44,8.46-.59,15.51,7.25,4.87,5.42,4.68,15.17,4.37,15.68-3.23,5.3-23.52,38.74-28.6,50C163.72,473.41,158,455.15,159.15,441Z"/>
          <path class="cls-4" d="M193.53,395.6a27.38,27.38,0,0,0-6.44-5.42c.74.67,1.49,1.43,2.26,2.28,6.14,6.83,4.31,12.2,2.94,15.89-4.91,13.21-20.44,38.48-23.32,53.57.11-.21.22-.44.33-.68,5.08-11.22,25.37-44.65,28.6-50C198.21,410.77,198.4,401,193.53,395.6Z"/>
          <path class="cls-5" d="M175,400.93c-14.11,12.84-13.61,52.25-13.61,52.25s6.81-28,13.16-40.13S179.85,396.55,175,400.93Z"/>
          <path class="cls-4" d="M172.32,454.48a40.63,40.63,0,0,0,.55,5.63,9.7,9.7,0,0,0,3,2.41c-.11-2.37.47-14.83,2.37-18.2C178.89,443.12,172.11,452.22,172.32,454.48Z"/>
          <path class="cls-6" d="M178.54,444.67a.39.39,0,0,1-.33-.18c-3.71-5.81-11.4-10.15-18.33-6.72a.39.39,0,0,1-.52-.16.37.37,0,0,1,.17-.51c7.34-3.63,15.44.89,19.34,7a.37.37,0,0,1-.12.52A.42.42,0,0,1,178.54,444.67Z"/>
        </g>
        <g>
          <path class="cls-39" d="M183.23,410.3c-.18,5.61-4.51,10-9.68,9.88s-9.22-4.82-9-10.43,4.5-10,9.67-9.88S183.4,404.69,183.23,410.3Z"/>
          <g>
            <path class="cls-40" d="M167.46,410.89c-.13,1.89.95,3.86,2.06,5.37a18.64,18.64,0,0,0,2.26,2.53s6-1.49,7.61-4.84c.34-.71,1.91-5.09,1.91-5.09s.47-1.07-.42-1.55a28.23,28.23,0,0,1-3-1.68,9.18,9.18,0,0,0-2-1.27,4.34,4.34,0,0,0-1.87,0,33.52,33.52,0,0,1-3.56-.08c-1,0-1.18,1.15-1.18,1.15S167.52,410.1,167.46,410.89Z"/>
            <path class="cls-41" d="M169.23,405.42s-1.71,4.68-1.77,5.47c-.25,3.78,4.32,7.9,4.32,7.9h0s6-1.5,7.61-4.85c.34-.7,1.9-5.09,1.9-5.09s.48-1.06-.4-1.54a27.37,27.37,0,0,1-3-1.68,8.67,8.67,0,0,0-2-1.26c-.57-.21-.82-.09-1.87,0a31,31,0,0,1-3.56-.08C169.36,404.24,169.23,405.42,169.23,405.42Zm.94-.19h.88a10.38,10.38,0,0,0,2.74,0c1.89-.35,2.47.58,3.38,1.22a17.4,17.4,0,0,0,2.33,1.33l.75.38a.78.78,0,0,1,0,.21l0,.07c-.59,1.68-1.63,4.52-1.86,5-.71,1.46-2.51,2.53-3.9,3.18a20.48,20.48,0,0,1-2.3.89,18.52,18.52,0,0,1-1.61-1.89c-.9-1.22-2-3.24-1.86-4.86a35.61,35.61,0,0,1,1.44-5.31A1.86,1.86,0,0,1,170.17,405.23Z"/>
            <path class="cls-42" d="M167.46,410.89c-.15,2.2,1.33,4.5,2.6,6.05-1.16-1.53-2.33-3.58-2.2-5.54.06-.79,1.77-5.47,1.77-5.47s.13-1.18,1.18-1.16a33.33,33.33,0,0,0,3.56.09c1-.08,1.3-.19,1.87,0a8.59,8.59,0,0,1,2,1.27,29.11,29.11,0,0,0,3,1.68l.07.05a.91.91,0,0,0-.48-.56,28.23,28.23,0,0,1-3-1.68,8.33,8.33,0,0,0-2-1.26c-.57-.21-.83-.09-1.87,0a33.33,33.33,0,0,1-3.56-.09c-1,0-1.18,1.16-1.18,1.16S167.52,410.1,167.46,410.89Z"/>
            <path class="cls-41" d="M173.41,411a.4.4,0,0,0,.09.35l-.07.27a.07.07,0,0,0,0,.09l.23.06a.09.09,0,0,0,.1-.05l.07-.28a.34.34,0,0,0,.25-.25.36.36,0,0,0-.26-.45A.39.39,0,0,0,173.41,411Z"/>
            <path class="cls-41" d="M173.42,409.12l-.15.54,1.66.42.14-.54a.83.83,0,0,0-.61-1A.85.85,0,0,0,173.42,409.12Z"/>
            <path class="cls-41" d="M170.42,406.72s-1,3.45-1.09,4c-.22,2.8,3,6,3,6h0s4.24-1.16,5.44-3.67c.25-.53,1.4-3.81,1.4-3.81s.35-.8-.27-1.15a17.24,17.24,0,0,1-2.13-1.21c-.37-.27-.7-.49-1-.65a3.34,3.34,0,0,0-.61-.32h0a2.26,2.26,0,0,0-1.25-.1,20.52,20.52,0,0,1-2.5,0C170.67,405.86,170.42,406.72,170.42,406.72Zm1.52,3.06a.46.46,0,0,1,.57-.32l.12,0,.14-.54a1.54,1.54,0,0,1,1.87-1.07,1.5,1.5,0,0,1,1.08,1.83l-.15.54.12,0a.45.45,0,0,1,.33.56l-.56,2.09a.47.47,0,0,1-.57.33l-3.19-.82a.47.47,0,0,1-.33-.56Z"/>
            <path class="cls-42" d="M169.33,410.76c-.16,2,1.45,4.25,2.36,5.36-.91-1.2-2.09-3.11-1.95-4.85,0-.59,1.08-4,1.08-4s.25-.87,1-.86a18.81,18.81,0,0,0,2.51,0,2.46,2.46,0,0,1,1.24.1h0a3.34,3.34,0,0,1,.6.32,10.93,10.93,0,0,1,1,.65,17,17,0,0,0,2.08,1.18.71.71,0,0,0-.35-.48,17.24,17.24,0,0,1-2.13-1.21c-.37-.27-.7-.49-1-.65a4.15,4.15,0,0,0-.61-.32h0a2.25,2.25,0,0,0-1.24-.1,20.67,20.67,0,0,1-2.51,0c-.74,0-1,.85-1,.85S169.38,410.17,169.33,410.76Z"/>
          </g>
        </g>
      </g>
      <g id="sombra">
        <ellipse class="cls-43" cx="237.24" cy="530.04" rx="44.73" ry="9.82"/>
        <ellipse class="cls-44" cx="237.24" cy="530.04" rx="34.85" ry="6.24"/>
        <ellipse class="cls-44" cx="237.24" cy="530.04" rx="20.98" ry="3.76"/>
      </g>
    </g>
  </g>
</svg>
