<svg xmlns="http://www.w3.org/2000/svg" xmlns:xlink="http://www.w3.org/1999/xlink" width="1024" height="620" viewBox="0 0 1024 620">
  <defs>
    <style>
      .cls-1 {
        isolation: isolate;
      }

      .cls-2 {
        fill: none;
      }

      .cls-3, .cls-4 {
        fill: #51b2fb;
      }

      .cls-3, .cls-32 {
        opacity: 0.1;
      }

      .cls-4 {
        opacity: 0.2;
      }

      .cls-5 {
        fill: #e3ebfc;
      }

      .cls-6 {
        fill: #ccddfa;
      }

      .cls-7 {
        fill: #fafbff;
      }

      .cls-8 {
        fill: #80a7f6;
      }

      .cls-9 {
        fill: #9fbcfb;
      }

      .cls-10 {
        fill: #b8d0f9;
      }

      .cls-11, .cls-29, .cls-31 {
        fill: #207bff;
      }

      .cls-11, .cls-37 {
        opacity: 0.4;
      }

      .cls-12 {
        fill: #004bff;
        opacity: 0.5;
        mix-blend-mode: multiply;
      }

      .cls-13 {
        fill: #c5d8fa;
      }

      .cls-14 {
        fill: url(#_ÂÁ_Ï_ÌÌ_È_ËÂÌÚ_30);
      }

      .cls-15 {
        fill: #4aebff;
      }

      .cls-16, .cls-30 {
        fill: #fff;
      }

      .cls-17 {
        fill: #bef9ff;
      }

      .cls-18 {
        fill: url(#linear-gradient);
      }

      .cls-19 {
        fill: #ec1c24;
      }

      .cls-20 {
        fill: url(#linear-gradient-2);
      }

      .cls-21 {
        fill: url(#linear-gradient-3);
      }

      .cls-22 {
        fill: url(#linear-gradient-4);
      }

      .cls-23 {
        fill: url(#linear-gradient-5);
      }

      .cls-24 {
        fill: url(#linear-gradient-6);
      }

      .cls-25 {
        fill: url(#linear-gradient-7);
      }

      .cls-26 {
        fill: url(#_ÂÁ_Ï_ÌÌ_È_ËÂÌÚ_14);
      }

      .cls-27 {
        fill: url(#_ÂÁ_Ï_ÌÌ_È_ËÂÌÚ_18);
      }

      .cls-28 {
        fill: #4880f8;
      }

      .cls-30 {
        opacity: 0.8;
      }

      .cls-31 {
        opacity: 0.72;
      }

      .cls-32, .cls-33, .cls-34, .cls-35 {
        fill: #3ae6fb;
      }

      .cls-33 {
        opacity: 0.3;
      }

      .cls-35 {
        opacity: 0.7;
      }

      .cls-36 {
        fill: #93b4fb;
      }

      .cls-37 {
        mix-blend-mode: lighten;
        fill: url(#radial-gradient);
      }

      .cls-38 {
        fill: #00ffda;
      }

      .cls-39 {
        fill: #7fd1ca;
      }

      .cls-40 {
        fill: #1e1e1e;
      }
    </style>
    <radialGradient id="_ÂÁ_Ï_ÌÌ_È_ËÂÌÚ_30" data-name="¡ÂÁ˚ÏˇÌÌ˚È „‡‰ËÂÌÚ 30" cx="6034.93" cy="422.27" r="6.67" gradientTransform="translate(-5809.3)" gradientUnits="userSpaceOnUse">
      <stop offset="0" stop-color="#4aebff"/>
      <stop offset="1" stop-color="#00709e"/>
    </radialGradient>
    <linearGradient id="linear-gradient" x1="191.38" y1="305.85" x2="191.38" y2="342.61" gradientTransform="translate(45.19)" gradientUnits="userSpaceOnUse">
      <stop offset="0.02" stop-color="#dd2a21"/>
      <stop offset="0.06" stop-color="#c8201b"/>
      <stop offset="0.1" stop-color="#b71717"/>
      <stop offset="0.15" stop-color="#ac1113"/>
      <stop offset="0.22" stop-color="#a50e12"/>
      <stop offset="0.43" stop-color="#a30d11"/>
      <stop offset="0.79" stop-color="#6b0006"/>
    </linearGradient>
    <linearGradient id="linear-gradient-2" x1="180.71" y1="307.49" x2="180.71" y2="333.87" gradientTransform="translate(45.19)" gradientUnits="userSpaceOnUse">
      <stop offset="0" stop-color="#ad1a27"/>
      <stop offset="0.08" stop-color="#9e151f"/>
      <stop offset="0.28" stop-color="#7d090e"/>
      <stop offset="0.44" stop-color="#680304"/>
      <stop offset="0.56" stop-color="#610000"/>
      <stop offset="0.73" stop-color="#520000"/>
      <stop offset="1" stop-color="#3f0000"/>
    </linearGradient>
    <linearGradient id="linear-gradient-3" x1="749.5" y1="321.07" x2="766.95" y2="321.07" gradientTransform="matrix(-1, 0, 0, 1, 1015.73, 0)" gradientUnits="userSpaceOnUse">
      <stop offset="0" stop-color="#be1349"/>
      <stop offset="0.24" stop-color="#be124e"/>
      <stop offset="0.25" stop-color="#be124e"/>
      <stop offset="1" stop-color="#7a0025"/>
    </linearGradient>
    <linearGradient id="linear-gradient-4" x1="744.2" y1="329.84" x2="767.02" y2="329.84" gradientTransform="matrix(-1, 0, 0, 1, 1015.73, 0)" gradientUnits="userSpaceOnUse">
      <stop offset="0" stop-color="#282881"/>
      <stop offset="0.27" stop-color="#26257d"/>
      <stop offset="0.55" stop-color="#1f1b70"/>
      <stop offset="0.84" stop-color="#150c5b"/>
      <stop offset="1" stop-color="#0d004c"/>
    </linearGradient>
    <linearGradient id="linear-gradient-5" x1="749.6" y1="329.84" x2="766.94" y2="329.84" xlink:href="#linear-gradient-3"/>
    <linearGradient id="linear-gradient-6" x1="753.11" y1="321" x2="774.91" y2="321" xlink:href="#linear-gradient-4"/>
    <linearGradient id="linear-gradient-7" x1="197.35" y1="328.97" x2="197.35" y2="316.48" gradientTransform="translate(45.19)" gradientUnits="userSpaceOnUse">
      <stop offset="0" stop-color="#ed2d24"/>
      <stop offset="0.12" stop-color="#ed2824"/>
      <stop offset="0.25" stop-color="#ec1c24"/>
      <stop offset="1" stop-color="#74020d"/>
    </linearGradient>
    <linearGradient id="_ÂÁ_Ï_ÌÌ_È_ËÂÌÚ_14" data-name="¡ÂÁ˚ÏˇÌÌ˚È „‡‰ËÂÌÚ 14" x1="5947.51" y1="520.05" x2="6021.68" y2="520.05" gradientTransform="translate(-5784.65 13.43) rotate(-2.88)" gradientUnits="userSpaceOnUse">
      <stop offset="0" stop-color="#003a6b"/>
      <stop offset="1" stop-color="#00204c"/>
    </linearGradient>
    <linearGradient id="_ÂÁ_Ï_ÌÌ_È_ËÂÌÚ_18" data-name="¡ÂÁ˚ÏˇÌÌ˚È „‡‰ËÂÌÚ 18" x1="6011.19" y1="200.83" x2="6048.77" y2="264.15" gradientTransform="translate(-5809.3)" gradientUnits="userSpaceOnUse">
      <stop offset="0" stop-color="#cbd7e1"/>
      <stop offset="0.05" stop-color="#aec0d0"/>
      <stop offset="0.15" stop-color="#7998b2"/>
      <stop offset="0.26" stop-color="#4e7698"/>
      <stop offset="0.35" stop-color="#2c5c85"/>
      <stop offset="0.44" stop-color="#144976"/>
      <stop offset="0.53" stop-color="#053e6e"/>
      <stop offset="0.6" stop-color="#003a6b"/>
      <stop offset="1" stop-color="#00204c"/>
    </linearGradient>
    <radialGradient id="radial-gradient" cx="5125.84" cy="507.49" r="14.12" gradientTransform="matrix(0.74, 0.02, -0.03, 0.82, -3645.94, -206.49)" gradientUnits="userSpaceOnUse">
      <stop offset="0" stop-color="#00ddde" stop-opacity="0.52"/>
      <stop offset="0.09" stop-color="#2de6e7" stop-opacity="0.65"/>
      <stop offset="0.2" stop-color="#63f1f1" stop-opacity="0.8"/>
      <stop offset="0.3" stop-color="#8af8f9" stop-opacity="0.91"/>
      <stop offset="0.38" stop-color="#a2fdfd" stop-opacity="0.98"/>
      <stop offset="0.43" stop-color="#abffff"/>
      <stop offset="0.46" stop-color="#9ffcfd"/>
      <stop offset="0.51" stop-color="#7ff6f6"/>
      <stop offset="0.58" stop-color="#4aebeb"/>
      <stop offset="0.66" stop-color="#03dcdd"/>
      <stop offset="0.66" stop-color="#00dbdc"/>
      <stop offset="0.69" stop-color="#08dcdd" stop-opacity="0.97"/>
      <stop offset="0.74" stop-color="#1fdfe0" stop-opacity="0.88"/>
      <stop offset="0.8" stop-color="#44e5e5" stop-opacity="0.73"/>
      <stop offset="0.87" stop-color="#78eced" stop-opacity="0.53"/>
      <stop offset="0.94" stop-color="#baf5f6" stop-opacity="0.27"/>
      <stop offset="1" stop-color="#fff" stop-opacity="0"/>
    </radialGradient>
  </defs>
  <title>robot</title>
  <g class="cls-1">
    <g id="robot">
      <g id="fondo">
        <rect class="cls-2" width="1024" height="620"/>
      </g>
      <g id="sombra">
        <ellipse class="cls-3" cx="207.26" cy="460.04" rx="53.46" ry="12"/>
        <path class="cls-4" d="M249.41,460.54c0,4.22-18.65,7.64-41.65,7.64s-41.64-3.42-41.64-7.64,18.65-7.63,41.64-7.63S249.41,456.33,249.41,460.54Z" transform="translate(-0.5 -0.5)"/>
        <path class="cls-4" d="M232.84,460.54c0,2.54-11.23,4.6-25.08,4.6s-25.07-2.06-25.07-4.6S193.92,456,207.76,456,232.84,458,232.84,460.54Z" transform="translate(-0.5 -0.5)"/>
      </g>
      <g id="brazoIzquierda">
        <g>
          <path class="cls-5" d="M296.34,345.2c-7.81-37.14-23-53-26.52-56.27a3.09,3.09,0,0,0-1.9-.82c-2.64-.17-9.46.51-16.14,10.39-4.62,6.82-3,17.85-2.6,18.39,4.34,5.56,31.61,40.62,38.86,52.63C295.91,382.57,299.68,361.07,296.34,345.2Z" transform="translate(-0.5 -0.5)"/>
          <path class="cls-6" d="M251.74,298.54a30.5,30.5,0,0,1,6.35-7.05c-.72.87-1.45,1.83-2.17,2.9-5.83,8.61-3,14.44-1,18.43,7.33,14.28,28.16,40.76,33.52,57.47-.15-.23-.31-.47-.46-.73-7.25-12-34.52-47.07-38.86-52.63C248.72,316.39,247.12,305.36,251.74,298.54Z" transform="translate(-0.5 -0.5)"/>
          <path class="cls-7" d="M273,302c17.47,12.58,22.57,57.33,22.57,57.33s-11.56-30.8-20.34-43.65S267,297.7,273,302Z" transform="translate(-0.5 -0.5)"/>
          <path class="cls-6" d="M283.67,362.32a47.48,47.48,0,0,1,.21,6.46c-.08.59-2.94,3.45-3,3.15-.22-2.7-2.65-16.74-5.24-20.31C274.76,350.36,283.58,359.72,283.67,362.32Z" transform="translate(-0.5 -0.5)"/>
          <path class="cls-8" d="M275.37,352.07a.42.42,0,0,0,.34-.25c3.29-7.11,11.19-13.1,19.36-10.18a.43.43,0,0,0,.29-.82c-8.66-3.09-17,3.18-20.43,10.64a.44.44,0,0,0,.21.58A.46.46,0,0,0,275.37,352.07Z" transform="translate(-0.5 -0.5)"/>
        </g>
        <path class="cls-9" d="M270.43,305.44c-1,11.6-5.86,20.65-10.85,20.21s-8.21-10.18-7.21-21.77,5.86-20.48,10.85-20.22C270.44,284,271.44,293.85,270.43,305.44Z" transform="translate(-0.5 -0.5)"/>
      </g>
      <g id="torso">
        <path class="cls-5" d="M159.42,278.67c-5.17-.33-23.43,18-17.93,35.75s36.6,77.05,43.65,97.81S196.41,438.1,206.42,440s25.16,2.57,42.71-34.08,20.25-77.8,21.05-97.36-1.25-27.31-8.09-29.54C246.16,273.81,159.42,278.67,159.42,278.67Z" transform="translate(-0.5 -0.5)"/>
        <path class="cls-7" d="M242.05,401.59c13.61-38.54,12-80,10.71-99.62-.84-13.05-2.38-20.75-5.39-24.89-14.5-.81-35.67-.46-53.61.12,9.59,25.31,23.77,67.93,26.13,111.84,1.58,29.3-2.47,43.61-8.07,50.94C221,438.15,231.93,430.28,242.05,401.59Z" transform="translate(-0.5 -0.5)"/>
        <path class="cls-10" d="M263.62,280.64c0,3.79-26.85,9.69-53.93,9.74s-53.94-5.77-53.95-9.57,26.85-4.14,53.93-4.19S263.61,276.84,263.62,280.64Z" transform="translate(-0.5 -0.5)"/>
        <path class="cls-11" d="M247.24,281.41c0,2.63-18.49,6.71-37.14,6.74s-37.16-4-37.17-6.62,18.5-2.86,37.15-2.89S247.24,278.78,247.24,281.41Z" transform="translate(-0.5 -0.5)"/>
        <path class="cls-12" d="M235.89,282.77c0,1-12.75,2.28-25.18,2.3s-24.32-1.21-24.33-2.21,11.9-1.41,24.33-1.43S235.89,281.77,235.89,282.77Z" transform="translate(-0.5 -0.5)"/>
        <path class="cls-13" d="M196.28,416.53c-2.88-15.54-7.17-66.35-17.38-102.2-5.12-18-17.17-30.66-28.83-26.64-8.28,2.85-11.55,17.12-8.58,26.73,5.49,17.76,36.6,77.05,43.65,97.81S196.41,438.1,206.42,440c5.16,1,11.68,1.6,19.19-3C215.45,438.59,201.05,442.25,196.28,416.53Z" transform="translate(-0.5 -0.5)"/>
        <path class="cls-14" d="M232.13,424.09a18.25,18.25,0,0,1-6.17,1,28.23,28.23,0,0,1-6.91-.51,2.76,2.76,0,0,1-2.41-2.56h0a2.5,2.5,0,0,1,2.42-2.56s5.31.59,6.6.58a47.34,47.34,0,0,0,6.71-.63c1.33,0,2.57.39,2.17,2.3A3.29,3.29,0,0,1,232.13,424.09Z" transform="translate(-0.5 -0.5)"/>
        <path class="cls-15" d="M231.28,423.81a19,19,0,0,1-5.34.72,29.87,29.87,0,0,1-6-.36c-1.11-.23-2.08-.83-2.08-1.83h0a2,2,0,0,1,2.09-1.82s4.59.42,5.71.41a49,49,0,0,0,5.8-.45c1.14,0,2.22.28,1.87,1.64C233.2,422.75,232.67,423.38,231.28,423.81Z" transform="translate(-0.5 -0.5)"/>
        <path class="cls-8" d="M224.46,412.37c-12.2,0-27.16-2.64-43.29-9.27a.44.44,0,0,1-.24-.57.43.43,0,0,1,.56-.23c30.07,12.36,55.94,10.79,67.25,4.1a.45.45,0,0,1,.6.15.43.43,0,0,1-.16.59C243.8,410.32,235.2,412.37,224.46,412.37Z" transform="translate(-0.5 -0.5)"/>
        <path class="cls-16" d="M224.15,411.41c-12.21,0-27.17-2.65-43.3-9.28a.43.43,0,0,1-.24-.56.44.44,0,0,1,.57-.24c30.06,12.36,55.93,10.79,67.25,4.1a.44.44,0,0,1,.59.15.45.45,0,0,1-.15.6C243.49,409.36,234.88,411.41,224.15,411.41Z" transform="translate(-0.5 -0.5)"/>
        <path class="cls-7" d="M267.91,288.7c2.3,47-4.47,69.21-4.47,69.21s6.47-35.5.5-69.81C263.12,283.4,267.55,281.35,267.91,288.7Z" transform="translate(-0.5 -0.5)"/>
        <path class="cls-16" d="M159.88,285.42s5.34,3.21,24.89,5,45.28,1.47,45.28,1.47-23.72,3.14-45.37.8S159.88,285.42,159.88,285.42Z" transform="translate(-0.5 -0.5)"/>
        <path class="cls-17" d="M228.82,420.78c-.95.08-2,.14-3.13.15s-5.71-.41-5.71-.41a2.12,2.12,0,0,0-.44,0l2.11,3.84a41.43,41.43,0,0,0,4.29.13,19.78,19.78,0,0,0,5-.63Z" transform="translate(-0.5 -0.5)"/>
        <g>
          <path class="cls-18" d="M224.12,320.89a16.58,16.58,0,0,1,10.35-15.37,15.67,15.67,0,0,1,1.84.23A15.27,15.27,0,0,1,249,320.31c0,.16,0,.33,0,.49V321a9.48,9.48,0,0,0-9.47-9.46,9.6,9.6,0,0,0-3.1.52c.94-.33.9-.33-.05,0a9.23,9.23,0,0,0-3.2-.56,9.06,9.06,0,0,0-9,9.38V321c0,5.12,3.66,9.3,8.95,9.3a9.15,9.15,0,0,0,2.91-.47,9.48,9.48,0,0,0,13-8.64A15.12,15.12,0,0,1,236.42,336c-.63.11-1.28.19-1.94.24A16.58,16.58,0,0,1,224.12,320.89Z" transform="translate(-0.5 -0.5)"/>
          <path class="cls-19" d="M230.1,321a9.48,9.48,0,0,0,6,8.8,9.15,9.15,0,0,1-2.91.47c-5.29,0-8.95-4.18-8.95-9.3v-.08a9.06,9.06,0,0,1,9-9.38,9.23,9.23,0,0,1,3.2.56c1-.35,1-.35.05,0A9.48,9.48,0,0,0,230.1,321Z" transform="translate(-0.5 -0.5)"/>
          <path class="cls-20" d="M233.14,305.46c.45,0,.89,0,1.33.06a16.59,16.59,0,0,0,0,30.75c-.41,0-.83.05-1.26.05-9.2,0-15.89-6.95-15.89-15.43v-.09C217.33,312.32,223.93,305.46,233.14,305.46Z" transform="translate(-0.5 -0.5)"/>
          <path class="cls-21" d="M249,321c0,.06,0,.11,0,.16s0-.11,0-.17Z" transform="translate(-0.5 -0.5)"/>
          <path class="cls-22" d="M236.31,329.71c1,.35,1,.36,0,0Z" transform="translate(-0.5 -0.5)"/>
          <path class="cls-23" d="M236.31,329.71c1,.35,1,.36,0,0Z" transform="translate(-0.5 -0.5)"/>
          <path class="cls-24" d="M239.57,330.47a9.54,9.54,0,0,1-3.52-.67l.26-.09c1,.36,1,.35,0,0a9.24,9.24,0,0,0,6.1-8.82v-.09a9.08,9.08,0,0,0-6-8.73l.05,0a9.6,9.6,0,0,1,3.1-.52A9.48,9.48,0,0,1,249,321c0,.06,0,.11,0,.17A9.46,9.46,0,0,1,239.57,330.47Z" transform="translate(-0.5 -0.5)"/>
          <path class="cls-25" d="M239.57,330.47a9.54,9.54,0,0,1-3.52-.67l.26-.09c1,.36,1,.35,0,0a9.24,9.24,0,0,0,6.1-8.82v-.09a9.08,9.08,0,0,0-6-8.73l.05,0a9.6,9.6,0,0,1,3.1-.52A9.48,9.48,0,0,1,249,321c0,.06,0,.11,0,.17A9.46,9.46,0,0,1,239.57,330.47Z" transform="translate(-0.5 -0.5)"/>
        </g>
      </g>
      <g id="cabeza">
        <g>
          <path class="cls-5" d="M163.53,264.23c12.33,15.87,50.05,12.84,60.56,11.84s28.32-2.84,34.73-22.19S262,205,244.4,189.67s-64.84-12.84-80.87,7.84S159.26,258.72,163.53,264.23Z" transform="translate(-0.5 -0.5)"/>
          <path class="cls-16" d="M166.79,201.73c.7-.25,15.27-11.58,41.65-13.84,9.08-.78,23.23,0,32.31,1.26-.9-1-13.94-8.49-40.85-5.69C193.33,184.15,178.11,188.25,166.79,201.73Z" transform="translate(-0.5 -0.5)"/>
          <path class="cls-7" d="M214.75,197c-8.49.14-17,.74-25,3.78l-.18.08c8.31,17.59,9,40.52,4.12,56.92a34.51,34.51,0,0,1-7.07,13.29c14.68,2.58,31.1,1.24,37.48.63,6.95-.66,17.1-1.7,25-7.92a41,41,0,0,0,2.3-6c4.92-16.61,4.16-39.93-4.46-57.61A137.18,137.18,0,0,0,214.75,197Z" transform="translate(-0.5 -0.5)"/>
          <path class="cls-26" d="M184,212.67c4.9-6.66,18.24-8.4,35-9.4,21.57-1.28,28.87,2.62,31.07,5.11s6,14.89,5.2,26.93-1,15.66-5.91,18.65-19.25,5.92-28.5,6.15c-17.51.43-26.34-.43-32.2-3.87-3-1.76-6.79-11.23-7.39-22.91S181.51,216.12,184,212.67Z" transform="translate(-0.5 -0.5)"/>
          <path class="cls-27" d="M218.39,205.13c-10.38.61-19.4,1.5-25.75,3.74,5.55,15.42,5.59,33.7,1.46,47.23,0,.16-.1.3-.15.45,5.55,1.61,13.5,2,26.23,1.69,8.87-.21,22.59-3,27.35-5.75a8.46,8.46,0,0,0,3.72-3.88,80.59,80.59,0,0,0-2.74-38.31,4.84,4.84,0,0,0-.31-.39C246.09,207.58,239.09,203.93,218.39,205.13Z" transform="translate(-0.5 -0.5)"/>
          <path class="cls-9" d="M172.7,223.73c-.29,6.54-3.94,11.69-8.16,11.51s-7.4-5.65-7.1-12.19,3.94-11.69,8.16-11.5S173,217.19,172.7,223.73Z" transform="translate(-0.5 -0.5)"/>
          <path class="cls-28" d="M169.36,223.24c-.2,4.59-2.44,8.22-5,8.11s-4.46-3.93-4.26-8.52,2.44-8.22,5-8.11S169.57,218.65,169.36,223.24Z" transform="translate(-0.5 -0.5)"/>
          <path class="cls-29" d="M169.43,223.59l-.43,0,.43,0a16,16,0,0,0-1.92-8.71c-1.42-2.43-3.41-3.83-5.6-3.92-4.43-.2-8.31,5.14-8.61,11.91s3.08,12.44,7.52,12.63h.24C165.41,235.51,169.14,230.23,169.43,223.59Zm-7.55-11.77c1.88.08,3.62,1.32,4.88,3.49a15.11,15.11,0,0,1,1.81,8.24c-.28,6.29-3.74,11.25-7.71,11.09s-7-5.44-6.69-11.73,3.62-11.1,7.5-11.1Z" transform="translate(-0.5 -0.5)"/>
          <path class="cls-7" d="M161.34,238.89l3.1.11s1.32,12.85,5,20.4,9,10,9,10S170.5,266.8,165.76,257C162.34,250,161.34,238.89,161.34,238.89Z" transform="translate(-0.5 -0.5)"/>
          <path class="cls-30" d="M187,213.65v0a1.65,1.65,0,0,0,2.36.56c1.5-1,3.8-2.57,5.11-3.29,2.09-1.13,12.39-4.93,12.39-4.93s-10.33.21-19.09,5A2,2,0,0,0,187,213.65Z" transform="translate(-0.5 -0.5)"/>
        </g>
        <path class="cls-31" d="M178.86,222.23c0,2-1,3.67-2.11,3.67s-2.11-1.64-2.11-3.67,1-3.68,2.11-3.68S178.86,220.2,178.86,222.23Z" transform="translate(-0.5 -0.5)"/>
      </g>
      <g id="ojos">
        <g>
          <rect class="cls-32" x="203.39" y="216.74" width="14.88" height="19.44" rx="3.93"/>
          <rect class="cls-32" x="204.95" y="218.83" width="11.76" height="15.26" rx="3.68"/>
          <rect class="cls-33" x="206.93" y="220.79" width="8.16" height="11.88" rx="2.44"/>
          <path class="cls-34" d="M214.72,225.87H208a.33.33,0,1,1,0-.65h6.7a.33.33,0,0,1,0,.65Z" transform="translate(-0.5 -0.5)"/>
          <path class="cls-34" d="M214.72,227.28H208a.32.32,0,1,1,0-.64h6.7a.32.32,0,1,1,0,.64Z" transform="translate(-0.5 -0.5)"/>
          <path class="cls-34" d="M214.72,228.75H208a.32.32,0,0,1-.33-.32.33.33,0,0,1,.33-.33h6.7a.32.32,0,0,1,.32.33A.32.32,0,0,1,214.72,228.75Z" transform="translate(-0.5 -0.5)"/>
          <path class="cls-34" d="M213.86,223.15h-5a.32.32,0,0,1,0-.64h5a.32.32,0,1,1,0,.64Z" transform="translate(-0.5 -0.5)"/>
          <path class="cls-34" d="M214.72,224.62H208a.32.32,0,0,1-.33-.32A.33.33,0,0,1,208,224h6.7a.32.32,0,0,1,.32.33A.32.32,0,0,1,214.72,224.62Z" transform="translate(-0.5 -0.5)"/>
          <path class="cls-34" d="M214.72,230.5H208a.33.33,0,0,1-.33-.33.32.32,0,0,1,.33-.32h6.7a.32.32,0,0,1,.32.32A.32.32,0,0,1,214.72,230.5Z" transform="translate(-0.5 -0.5)"/>
          <path class="cls-34" d="M214.72,231.91H208a.32.32,0,0,1-.33-.32.33.33,0,0,1,.33-.33h6.7a.32.32,0,0,1,.32.33A.32.32,0,0,1,214.72,231.91Z" transform="translate(-0.5 -0.5)"/>
        </g>
        <g>
          <rect class="cls-32" x="230.11" y="216.39" width="14.88" height="19.44" rx="3.93"/>
          <rect class="cls-32" x="231.66" y="218.48" width="11.76" height="15.26" rx="3.68"/>
          <rect class="cls-33" x="233.64" y="220.44" width="8.16" height="11.88" rx="2.44"/>
          <path class="cls-34" d="M241.43,225.52h-6.7a.32.32,0,0,1-.32-.33.32.32,0,0,1,.32-.32h6.7a.32.32,0,0,1,.33.32A.33.33,0,0,1,241.43,225.52Z" transform="translate(-0.5 -0.5)"/>
          <path class="cls-34" d="M241.43,226.93h-6.7a.32.32,0,0,1-.32-.32.32.32,0,0,1,.32-.33h6.7a.33.33,0,0,1,.33.33A.32.32,0,0,1,241.43,226.93Z" transform="translate(-0.5 -0.5)"/>
          <path class="cls-34" d="M241.43,228.4h-6.7a.32.32,0,0,1-.32-.32.32.32,0,0,1,.32-.33h6.7a.33.33,0,0,1,.33.33A.32.32,0,0,1,241.43,228.4Z" transform="translate(-0.5 -0.5)"/>
          <path class="cls-34" d="M240.58,222.8h-5a.32.32,0,0,1-.33-.32.33.33,0,0,1,.33-.33h5a.32.32,0,0,1,.32.33A.32.32,0,0,1,240.58,222.8Z" transform="translate(-0.5 -0.5)"/>
          <path class="cls-34" d="M241.43,224.27h-6.7a.32.32,0,0,1-.32-.32.32.32,0,0,1,.32-.33h6.7a.33.33,0,0,1,.33.33A.32.32,0,0,1,241.43,224.27Z" transform="translate(-0.5 -0.5)"/>
          <path class="cls-34" d="M241.43,230.14h-6.7a.32.32,0,1,1,0-.64h6.7a.32.32,0,1,1,0,.64Z" transform="translate(-0.5 -0.5)"/>
          <path class="cls-34" d="M241.43,231.56h-6.7a.33.33,0,0,1,0-.65h6.7a.33.33,0,1,1,0,.65Z" transform="translate(-0.5 -0.5)"/>
        </g>
      </g>
      <path id="boca" class="cls-35" d="M214.43,246.64c6.71.86,18.75,1.52,18.75,1.52s-10.65,1.09-17.6-.11S207.2,245.73,214.43,246.64Z" transform="translate(-0.5 -0.5)"/>
      <g id="brazoDerecha">
        <path class="cls-36" d="M170.35,313.66c3.72,13,.78,25.18-6.58,27.3s-16.34-6.69-20.07-19.65-.77-25.19,6.59-27.3S166.63,300.69,170.35,313.66Z" transform="translate(-0.5 -0.5)"/>
        <path class="cls-29" d="M161.41,337.75a.46.46,0,0,1-.48-.43.47.47,0,0,1,.44-.5,5.36,5.36,0,0,0,4.32-3c3.06-5.25,2.47-15.17-1.37-23.07-4.58-9.44-11.92-13.21-16.09-11.28a.47.47,0,0,1-.62-.23.48.48,0,0,1,.23-.62c5.24-2.42,13,2.84,17.32,11.72,4,8.16,4.54,18.46,1.34,23.95a6.31,6.31,0,0,1-5.07,3.49Z" transform="translate(-0.5 -0.5)"/>
        <g>
          <path class="cls-5" d="M121.13,362c3.09-37.83,16.14-55.44,19.25-59.15a3.1,3.1,0,0,1,1.78-1.06c2.6-.5,9.44-.67,17.32,8.29,5.44,6.19,5.23,17.33,4.88,17.91-3.61,6.07-26.26,44.27-31.94,57.09C126.24,399,119.81,378.18,121.13,362Z" transform="translate(-0.5 -0.5)"/>
          <path class="cls-6" d="M159.52,310.13a30.8,30.8,0,0,0-7.18-6.2c.82.78,1.66,1.64,2.52,2.61,6.86,7.81,4.81,13.95,3.28,18.16-5.48,15.09-22.83,44-26,61.22.12-.25.25-.51.37-.78,5.68-12.82,28.34-51,31.95-57.09C164.76,327.46,165,316.32,159.52,310.13Z" transform="translate(-0.5 -0.5)"/>
          <path class="cls-7" d="M138.87,316.22c-15.76,14.67-15.2,59.71-15.2,59.71s7.61-32,14.71-45.86S144.25,311.21,138.87,316.22Z" transform="translate(-0.5 -0.5)"/>
          <path class="cls-6" d="M135.84,377.42a48,48,0,0,0,.61,6.43c.15.57,3.34,3,3.33,2.75-.12-2.7.52-16.94,2.65-20.8C143.18,364.43,135.61,374.83,135.84,377.42Z" transform="translate(-0.5 -0.5)"/>
          <path class="cls-8" d="M142.79,366.2a.43.43,0,0,1-.37-.2c-4.15-6.65-12.74-11.6-20.48-7.68a.43.43,0,1,1-.39-.77c8.2-4.15,17.25,1,21.61,8a.45.45,0,0,1-.14.6A.46.46,0,0,1,142.79,366.2Z" transform="translate(-0.5 -0.5)"/>
        </g>
        <g>
          <path class="cls-37" d="M148,326.93c-.2,6.41-5,11.47-10.81,11.29s-10.3-5.51-10.1-11.92,5-11.47,10.81-11.29S148.21,320.52,148,326.93Z" transform="translate(-0.5 -0.5)"/>
          <g>
            <path class="cls-38" d="M130.41,327.61c-.14,2.15,1.07,4.41,2.31,6.12a20.87,20.87,0,0,0,2.51,2.9s6.67-1.71,8.51-5.54c.38-.8,2.12-5.81,2.12-5.81s.53-1.22-.46-1.77a30.78,30.78,0,0,1-3.38-1.92,9.56,9.56,0,0,0-2.25-1.44c-.64-.23-.92-.1-2.09,0a33.53,33.53,0,0,1-4-.1c-1.17,0-1.31,1.32-1.31,1.32A65.52,65.52,0,0,0,130.41,327.61Z" transform="translate(-0.5 -0.5)"/>
            <path class="cls-39" d="M132.39,321.35s-1.92,5.35-2,6.25c-.28,4.32,4.82,9,4.82,9h0s6.67-1.71,8.5-5.54c.39-.8,2.13-5.81,2.13-5.81s.53-1.22-.45-1.77A29.76,29.76,0,0,1,142,321.6a9.35,9.35,0,0,0-2.25-1.45c-.64-.23-.92-.1-2.09,0a33.53,33.53,0,0,1-4-.1C132.53,320,132.39,321.35,132.39,321.35Zm1.05-.22,1,0a11.51,11.51,0,0,0,3.06,0c2.11-.4,2.76.67,3.78,1.4a20.17,20.17,0,0,0,2.59,1.51c.31.15.59.3.85.44a.69.69,0,0,1,0,.24l0,.07c-.67,1.92-1.82,5.17-2.08,5.72-.8,1.66-2.8,2.88-4.35,3.62a21.6,21.6,0,0,1-2.58,1,20.29,20.29,0,0,1-1.8-2.16c-1-1.4-2.19-3.7-2.07-5.56a40.63,40.63,0,0,1,1.61-6.06A2.57,2.57,0,0,1,133.44,321.13Z" transform="translate(-0.5 -0.5)"/>
            <path class="cls-40" d="M130.41,327.61c-.17,2.5,1.48,5.14,2.9,6.9-1.29-1.74-2.6-4.08-2.45-6.32a65.52,65.52,0,0,1,2-6.26s.14-1.35,1.31-1.32a35.69,35.69,0,0,0,4,.1c1.18-.09,1.46-.22,2.1,0a9.56,9.56,0,0,1,2.25,1.44,30.78,30.78,0,0,0,3.38,1.92l.09.06a1.06,1.06,0,0,0-.54-.64,30.78,30.78,0,0,1-3.38-1.92,9.56,9.56,0,0,0-2.25-1.44c-.64-.24-.92-.11-2.09,0a35.81,35.81,0,0,1-4-.1c-1.17,0-1.31,1.32-1.31,1.32A65.52,65.52,0,0,0,130.41,327.61Z" transform="translate(-0.5 -0.5)"/>
            <path class="cls-39" d="M137.06,327.72a.39.39,0,0,0,.1.39l-.08.32a.08.08,0,0,0,.06.1l.25.07a.1.1,0,0,0,.11-.06l.08-.32a.41.41,0,0,0,.28-.29.41.41,0,1,0-.8-.21Z" transform="translate(-0.5 -0.5)"/>
            <path class="cls-39" d="M137.06,325.58l-.16.61,1.85.49.16-.62a1,1,0,0,0-.68-1.17A1,1,0,0,0,137.06,325.58Z" transform="translate(-0.5 -0.5)"/>
            <path class="cls-39" d="M133.71,322.84s-1.16,3.94-1.21,4.61c-.24,3.21,3.32,6.91,3.32,6.91h0s4.73-1.33,6.07-4.2c.28-.6,1.57-4.35,1.57-4.35s.39-.91-.31-1.31a22.52,22.52,0,0,1-2.38-1.39c-.41-.3-.78-.55-1.08-.74A4.13,4.13,0,0,0,139,322h0a2.6,2.6,0,0,0-1.39-.11,21.34,21.34,0,0,1-2.8,0C134,321.85,133.71,322.84,133.71,322.84Zm1.7,3.5A.51.51,0,0,1,136,326l.14,0,.16-.61a1.7,1.7,0,1,1,3.29.86l-.16.62.14,0a.52.52,0,0,1,.36.64l-.63,2.39a.52.52,0,0,1-.63.38l-3.56-.94a.52.52,0,0,1-.37-.64Z" transform="translate(-0.5 -0.5)"/>
            <path class="cls-40" d="M132.5,327.46c-.18,2.29,1.62,4.85,2.64,6.11-1-1.37-2.34-3.55-2.19-5.53.05-.68,1.21-4.62,1.21-4.62s.29-1,1.11-1a21.48,21.48,0,0,0,2.8,0,2.61,2.61,0,0,1,1.38.12h0a4.59,4.59,0,0,1,.68.37c.3.18.68.44,1.08.74a17.84,17.84,0,0,0,2.33,1.35.87.87,0,0,0-.4-.55,20.11,20.11,0,0,1-2.38-1.38,11.8,11.8,0,0,0-1.08-.74A4.63,4.63,0,0,0,139,322h0a2.68,2.68,0,0,0-1.39-.12,21.5,21.5,0,0,1-2.8,0c-.82,0-1.11,1-1.11,1S132.55,326.78,132.5,327.46Z" transform="translate(-0.5 -0.5)"/>
          </g>
        </g>
      </g>
    </g>
  </g>
</svg>
