<svg xmlns="http://www.w3.org/2000/svg" xmlns:xlink="http://www.w3.org/1999/xlink" width="1024" height="620" viewBox="0 0 1024 620">
  <defs>
    <style>
      .cls-1 {
        isolation: isolate;
      }

      .cls-2 {
        fill: none;
      }

      .cls-3, .cls-4 {
        fill: #51b2fb;
      }

      .cls-3, .cls-32 {
        opacity: 0.1;
      }

      .cls-4 {
        opacity: 0.2;
      }

      .cls-5 {
        fill: #e3ebfc;
      }

      .cls-6 {
        fill: #ccddfa;
      }

      .cls-7 {
        fill: #fafbff;
      }

      .cls-8 {
        fill: #80a7f6;
      }

      .cls-9 {
        fill: #9fbcfb;
      }

      .cls-10 {
        fill: #b8d0f9;
      }

      .cls-11, .cls-29, .cls-31 {
        fill: #207bff;
      }

      .cls-11, .cls-37 {
        opacity: 0.4;
      }

      .cls-12 {
        fill: #004bff;
        opacity: 0.5;
        mix-blend-mode: multiply;
      }

      .cls-13 {
        fill: #c5d8fa;
      }

      .cls-14 {
        fill: url(#_ÂÁ_Ï_ÌÌ_È_ËÂÌÚ_30);
      }

      .cls-15 {
        fill: #4aebff;
      }

      .cls-16, .cls-30 {
        fill: #fff;
      }

      .cls-17 {
        fill: #bef9ff;
      }

      .cls-18 {
        fill: url(#linear-gradient);
      }

      .cls-19 {
        fill: #ec1c24;
      }

      .cls-20 {
        fill: url(#linear-gradient-2);
      }

      .cls-21 {
        fill: url(#linear-gradient-3);
      }

      .cls-22 {
        fill: url(#linear-gradient-4);
      }

      .cls-23 {
        fill: url(#linear-gradient-5);
      }

      .cls-24 {
        fill: url(#linear-gradient-6);
      }

      .cls-25 {
        fill: url(#linear-gradient-7);
      }

      .cls-26 {
        fill: url(#_ÂÁ_Ï_ÌÌ_È_ËÂÌÚ_14);
      }

      .cls-27 {
        fill: url(#_ÂÁ_Ï_ÌÌ_È_ËÂÌÚ_18);
      }

      .cls-28 {
        fill: #4880f8;
      }

      .cls-30 {
        opacity: 0.8;
      }

      .cls-31 {
        opacity: 0.72;
      }

      .cls-32, .cls-33, .cls-34, .cls-35 {
        fill: #3ae6fb;
      }

      .cls-33 {
        opacity: 0.3;
      }

      .cls-35 {
        opacity: 0.7;
      }

      .cls-36 {
        fill: #93b4fb;
      }

      .cls-37 {
        mix-blend-mode: lighten;
        fill: url(#radial-gradient);
      }

      .cls-38 {
        fill: #00ffda;
      }

      .cls-39 {
        fill: #7fd1ca;
      }

      .cls-40 {
        fill: #1e1e1e;
      }
    </style>
    <radialGradient id="_ÂÁ_Ï_ÌÌ_È_ËÂÌÚ_30" data-name="¡ÂÁ˚ÏˇÌÌ˚È „‡‰ËÂÌÚ 30" cx="4529.62" cy="476.26" r="6.74" gradientTransform="translate(-4325.33)" gradientUnits="userSpaceOnUse">
      <stop offset="0" stop-color="#4aebff"/>
      <stop offset="1" stop-color="#00709e"/>
    </radialGradient>
    <linearGradient id="linear-gradient" x1="150.97" y1="358.51" x2="150.97" y2="395.69" gradientTransform="translate(64.39)" gradientUnits="userSpaceOnUse">
      <stop offset="0.02" stop-color="#dd2a21"/>
      <stop offset="0.06" stop-color="#c8201b"/>
      <stop offset="0.1" stop-color="#b71717"/>
      <stop offset="0.15" stop-color="#ac1113"/>
      <stop offset="0.22" stop-color="#a50e12"/>
      <stop offset="0.43" stop-color="#a30d11"/>
      <stop offset="0.79" stop-color="#6b0006"/>
    </linearGradient>
    <linearGradient id="linear-gradient-2" x1="140.17" y1="360.17" x2="140.17" y2="386.85" gradientTransform="translate(64.39)" gradientUnits="userSpaceOnUse">
      <stop offset="0" stop-color="#ad1a27"/>
      <stop offset="0.08" stop-color="#9e151f"/>
      <stop offset="0.28" stop-color="#7d090e"/>
      <stop offset="0.44" stop-color="#680304"/>
      <stop offset="0.56" stop-color="#610000"/>
      <stop offset="0.73" stop-color="#520000"/>
      <stop offset="1" stop-color="#3f0000"/>
    </linearGradient>
    <linearGradient id="linear-gradient-3" x1="790.22" y1="373.91" x2="807.21" y2="373.91" gradientTransform="matrix(-1, 0, 0, 1, 1034.93, 0)" gradientUnits="userSpaceOnUse">
      <stop offset="0" stop-color="#be1349"/>
      <stop offset="0.24" stop-color="#be124e"/>
      <stop offset="0.25" stop-color="#be124e"/>
      <stop offset="1" stop-color="#7a0025"/>
    </linearGradient>
    <linearGradient id="linear-gradient-4" x1="784.21" y1="382.77" x2="807.3" y2="382.77" gradientTransform="matrix(-1, 0, 0, 1, 1034.93, 0)" gradientUnits="userSpaceOnUse">
      <stop offset="0" stop-color="#282881"/>
      <stop offset="0.27" stop-color="#26257d"/>
      <stop offset="0.55" stop-color="#1f1b70"/>
      <stop offset="0.84" stop-color="#150c5b"/>
      <stop offset="1" stop-color="#0d004c"/>
    </linearGradient>
    <linearGradient id="linear-gradient-5" x1="789.67" y1="382.77" x2="807.22" y2="382.77" xlink:href="#linear-gradient-3"/>
    <linearGradient id="linear-gradient-6" x1="793.23" y1="373.84" x2="815.28" y2="373.84" xlink:href="#linear-gradient-4"/>
    <linearGradient id="linear-gradient-7" x1="157" y1="381.89" x2="157" y2="369.26" gradientTransform="translate(64.39)" gradientUnits="userSpaceOnUse">
      <stop offset="0" stop-color="#ed2d24"/>
      <stop offset="0.12" stop-color="#ed2824"/>
      <stop offset="0.25" stop-color="#ec1c24"/>
      <stop offset="1" stop-color="#74020d"/>
    </linearGradient>
    <linearGradient id="_ÂÁ_Ï_ÌÌ_È_ËÂÌÚ_14" data-name="¡ÂÁ˚ÏˇÌÌ˚È „‡‰ËÂÌÚ 14" x1="4440.94" y1="496.08" x2="4515.96" y2="496.08" gradientTransform="translate(-4300.68 13.43) rotate(-2.88)" gradientUnits="userSpaceOnUse">
      <stop offset="0" stop-color="#003a6b"/>
      <stop offset="1" stop-color="#00204c"/>
    </linearGradient>
    <linearGradient id="_ÂÁ_Ï_ÌÌ_È_ËÂÌÚ_18" data-name="¡ÂÁ˚ÏˇÌÌ˚È „‡‰ËÂÌÚ 18" x1="4505.6" y1="252.29" x2="4543.61" y2="316.33" gradientTransform="translate(-4325.33)" gradientUnits="userSpaceOnUse">
      <stop offset="0" stop-color="#cbd7e1"/>
      <stop offset="0.05" stop-color="#aec0d0"/>
      <stop offset="0.15" stop-color="#7998b2"/>
      <stop offset="0.26" stop-color="#4e7698"/>
      <stop offset="0.35" stop-color="#2c5c85"/>
      <stop offset="0.44" stop-color="#144976"/>
      <stop offset="0.53" stop-color="#053e6e"/>
      <stop offset="0.6" stop-color="#003a6b"/>
      <stop offset="1" stop-color="#00204c"/>
    </linearGradient>
    <radialGradient id="radial-gradient" cx="3095.98" cy="627.62" r="14.28" gradientTransform="matrix(0.74, 0.02, -0.03, 0.82, -2161.97, -206.49)" gradientUnits="userSpaceOnUse">
      <stop offset="0" stop-color="#00ddde" stop-opacity="0.52"/>
      <stop offset="0.09" stop-color="#2de6e7" stop-opacity="0.65"/>
      <stop offset="0.2" stop-color="#63f1f1" stop-opacity="0.8"/>
      <stop offset="0.3" stop-color="#8af8f9" stop-opacity="0.91"/>
      <stop offset="0.38" stop-color="#a2fdfd" stop-opacity="0.98"/>
      <stop offset="0.43" stop-color="#abffff"/>
      <stop offset="0.46" stop-color="#9ffcfd"/>
      <stop offset="0.51" stop-color="#7ff6f6"/>
      <stop offset="0.58" stop-color="#4aebeb"/>
      <stop offset="0.66" stop-color="#03dcdd"/>
      <stop offset="0.66" stop-color="#00dbdc"/>
      <stop offset="0.69" stop-color="#08dcdd" stop-opacity="0.97"/>
      <stop offset="0.74" stop-color="#1fdfe0" stop-opacity="0.88"/>
      <stop offset="0.8" stop-color="#44e5e5" stop-opacity="0.73"/>
      <stop offset="0.87" stop-color="#78eced" stop-opacity="0.53"/>
      <stop offset="0.94" stop-color="#baf5f6" stop-opacity="0.27"/>
      <stop offset="1" stop-color="#fff" stop-opacity="0"/>
    </radialGradient>
  </defs>
  <title>robot</title>
  <g class="cls-1">
    <g id="Robot">
      <g id="Capa_8" data-name="Capa 8">
        <rect class="cls-2" width="1024" height="620"/>
      </g>
      <g id="sombra">
        <ellipse class="cls-3" cx="201.8" cy="509.65" rx="54.07" ry="12.14"/>
        <ellipse class="cls-4" cx="201.8" cy="509.65" rx="42.12" ry="7.72"/>
        <path class="cls-4" d="M226.65,510.15c0,2.57-11.35,4.65-25.35,4.65s-25.36-2.08-25.36-4.65,11.35-4.64,25.36-4.64S226.65,507.59,226.65,510.15Z" transform="translate(0.5 -0.5)"/>
      </g>
      <g id="brazoIzquierdo">
        <g id="BrazoIzq">
          <path class="cls-5" d="M281.57,388.63C263.72,345.57,241,336,241,336s-9.09.68-15.46,17.56c-4.34,11.52.26,20.45.26,20.45s41.14,32.78,52,44.24S288.27,404.8,281.57,388.63Z" transform="translate(0.5 -0.5)"/>
          <path class="cls-5" d="M281.57,388.63C263.72,345.57,241,336,241,336s-9.09.68-15.46,17.56c-4.34,11.52.26,20.45.26,20.45s41.14,32.78,52,44.24S288.27,404.8,281.57,388.63Z" transform="translate(0.5 -0.5)"/>
          <path class="cls-6" d="M280.08,396.86c-11.79-25.06-20.87-36-29-41.18-14-8.86-22.88-3.95-27.35,7.21a28.38,28.38,0,0,1,1.84-9.34C231.92,336.67,241,336,241,336s22.71,9.58,40.56,52.64c4.63,11.17,6.27,26.51,3.25,31.14C284.89,418.4,287.1,411.79,280.08,396.86Z" transform="translate(0.5 -0.5)"/>
          <path class="cls-5" d="M260,401.34c2.38,2.3,4.32,7.94,4.59,10.86a31.64,31.64,0,0,1-.72,7.49s2.31.42,4.12-2.4,1.9-6.83,2.09-8.62S260,401.34,260,401.34Z" transform="translate(0.5 -0.5)"/>
          <path class="cls-7" d="M252.72,367.68a118.2,118.2,0,0,0-12.09-9.2c-2.09-1.29-.56-3.68,1.3-2.9,4,1.68,10.24,6.7,18.17,14.26,4.64,4.43,18.15,23.79,21.34,38.23C281,407.51,272.26,384.36,252.72,367.68Z" transform="translate(0.5 -0.5)"/>
          <path class="cls-8" d="M280.42,384h0a.54.54,0,0,0-.64.36c-3.5,9.22-12.26,17.94-21.58,15.92a.55.55,0,0,0-.61.42.46.46,0,0,0,.31.61c9.87,2.13,19.1-7,22.77-16.66A.49.49,0,0,0,280.42,384Z" transform="translate(0.5 -0.5)"/>
        </g>
        <path class="cls-9" d="M241.67,359.71c6.23-12.17,7.6-23.87,3.07-26.12s-13.25,5.77-19.48,17.94-7.59,23.87-3.06,26.12S235.45,371.88,241.67,359.71Z" transform="translate(0.5 -0.5)"/>
      </g>
      <g id="torso">
        <path class="cls-5" d="M137.33,331c-5.24-.33-23.7,18.19-18.14,36.16s37,77.93,44.14,98.93,11.4,26.16,21.53,28.07,25.45,2.6,43.2-34.47,20.48-78.69,21.29-98.47-1.27-27.62-8.18-29.88C225.05,326.1,137.33,331,137.33,331Z" transform="translate(0.5 -0.5)"/>
        <path class="cls-7" d="M220.9,455.35c13.76-39,12.1-80.9,10.82-100.76-.84-13.2-2.4-21-5.44-25.18-14.66-.82-36.08-.46-54.23.12,9.71,25.6,24,68.71,26.44,113.12,1.59,29.63-2.5,44.11-8.17,51.52C199.56,492.32,210.66,484.36,220.9,455.35Z" transform="translate(0.5 -0.5)"/>
        <path class="cls-10" d="M242.71,333c0,3.84-27.15,9.8-54.54,9.85s-54.56-5.83-54.57-9.67,27.16-4.2,54.55-4.24S242.7,329.17,242.71,333Z" transform="translate(0.5 -0.5)"/>
        <path class="cls-11" d="M226.15,333.79c0,2.66-18.7,6.79-37.57,6.82s-37.59-4-37.59-6.69S169.7,331,188.56,331,226.14,331.14,226.15,333.79Z" transform="translate(0.5 -0.5)"/>
        <path class="cls-12" d="M214.67,335.17c0,1-12.9,2.31-25.47,2.33s-24.6-1.23-24.61-2.25,12-1.42,24.6-1.44S214.67,334.15,214.67,335.17Z" transform="translate(0.5 -0.5)"/>
        <path class="cls-13" d="M174.6,470.45c-2.91-15.72-7.25-67.1-17.58-103.37-5.17-18.18-17.36-31-29.16-26.94-8.37,2.89-11.68,17.32-8.67,27,5.55,18,37,77.93,44.14,98.93s11.4,26.16,21.53,28.07c5.22,1,11.81,1.62,19.41-3C194,492.76,179.42,496.47,174.6,470.45Z" transform="translate(0.5 -0.5)"/>
        <path class="cls-14" d="M210.86,478.1a18.62,18.62,0,0,1-6.24,1,28.92,28.92,0,0,1-7-.51,2.8,2.8,0,0,1-2.43-2.6h0a2.53,2.53,0,0,1,2.44-2.59s5.37.6,6.68.59a47.62,47.62,0,0,0,6.79-.64c1.34,0,2.6.4,2.19,2.33A3.35,3.35,0,0,1,210.86,478.1Z" transform="translate(0.5 -0.5)"/>
        <path class="cls-15" d="M210,477.81a18.7,18.7,0,0,1-5.4.73,29.67,29.67,0,0,1-6-.36c-1.13-.23-2.11-.84-2.11-1.85h0a2,2,0,0,1,2.11-1.85s4.65.43,5.78.42a50,50,0,0,0,5.86-.45c1.16,0,2.25.28,1.9,1.66C212,476.75,211.41,477.38,210,477.81Z" transform="translate(0.5 -0.5)"/>
        <path class="cls-8" d="M203.11,466.25c-12.34,0-27.47-2.68-43.79-9.38a.45.45,0,0,1-.24-.58.44.44,0,0,1,.57-.23c30.41,12.5,56.58,10.91,68,4.15a.43.43,0,0,1,.6.15.44.44,0,0,1-.16.6C222.67,464.18,214,466.25,203.11,466.25Z" transform="translate(0.5 -0.5)"/>
        <path class="cls-16" d="M202.79,465.27c-12.34,0-27.47-2.67-43.79-9.38a.44.44,0,0,1,.33-.81c30.41,12.5,56.57,10.91,68,4.15a.44.44,0,0,1,.59.15.43.43,0,0,1-.15.6C222.35,463.2,213.65,465.27,202.79,465.27Z" transform="translate(0.5 -0.5)"/>
        <path class="cls-7" d="M247.05,341.16c2.33,47.52-4.52,70-4.52,70s6.55-35.91.51-70.61C242.21,335.8,246.68,333.73,247.05,341.16Z" transform="translate(0.5 -0.5)"/>
        <path class="cls-16" d="M137.79,337.84s5.4,3.26,25.17,5.09,45.8,1.49,45.8,1.49-24,3.17-45.89.81S137.79,337.84,137.79,337.84Z" transform="translate(0.5 -0.5)"/>
        <path class="cls-17" d="M207.51,474.75c-1,.08-2.07.15-3.16.15s-5.78-.42-5.78-.42a2.12,2.12,0,0,0-.44,0l2.13,3.89a42.83,42.83,0,0,0,4.34.12,19.7,19.7,0,0,0,5-.63Z" transform="translate(0.5 -0.5)"/>
        <g>
          <path class="cls-18" d="M202.76,373.72a16.79,16.79,0,0,1,10.47-15.55c.63.05,1.26.13,1.87.24A15.46,15.46,0,0,1,228,373.13c0,.17,0,.34,0,.5v.18h0a9.58,9.58,0,0,0-9.58-9.56,9.77,9.77,0,0,0-3.12.52c.94-.33.91-.34-.06,0a9.4,9.4,0,0,0-3.23-.56,9.16,9.16,0,0,0-9.14,9.48v.09c0,5.17,3.71,9.39,9,9.39a9.12,9.12,0,0,0,3-.47A9.59,9.59,0,0,0,228,374a15.3,15.3,0,0,1-12.76,15,17.78,17.78,0,0,1-2,.25A16.81,16.81,0,0,1,202.76,373.72Z" transform="translate(0.5 -0.5)"/>
          <path class="cls-19" d="M208.81,373.84a9.57,9.57,0,0,0,6,8.89,9.12,9.12,0,0,1-3,.47c-5.34,0-9-4.22-9-9.39v-.09a9.16,9.16,0,0,1,9.14-9.48,9.4,9.4,0,0,1,3.23.56c1-.36,1-.35.06,0A9.58,9.58,0,0,0,208.81,373.84Z" transform="translate(0.5 -0.5)"/>
          <path class="cls-20" d="M211.88,358.12c.46,0,.9,0,1.35.05a16.79,16.79,0,0,0,0,31.11c-.42,0-.84.05-1.27.05-9.31,0-16.08-7-16.08-15.61v-.09C195.89,365.06,202.57,358.12,211.88,358.12Z" transform="translate(0.5 -0.5)"/>
          <path class="cls-21" d="M228,373.84v0Z" transform="translate(0.5 -0.5)"/>
          <path class="cls-22" d="M215.09,382.64Z" transform="translate(0.5 -0.5)"/>
          <path class="cls-23" d="M215.09,382.64Z" transform="translate(0.5 -0.5)"/>
          <path class="cls-24" d="M218.38,383.41a9.54,9.54,0,0,1-3.55-.68l.26-.09h0a9.34,9.34,0,0,0,6.17-8.92v-.09a9.19,9.19,0,0,0-6.06-8.83l.06,0a9.77,9.77,0,0,1,3.12-.52,9.58,9.58,0,0,1,9.58,9.56V374A9.58,9.58,0,0,1,218.38,383.41Z" transform="translate(0.5 -0.5)"/>
          <path class="cls-25" d="M218.38,383.41a9.54,9.54,0,0,1-3.55-.68l.26-.09h0a9.34,9.34,0,0,0,6.17-8.92v-.09a9.19,9.19,0,0,0-6.06-8.83l.06,0a9.77,9.77,0,0,1,3.12-.52,9.58,9.58,0,0,1,9.58,9.56V374A9.58,9.58,0,0,1,218.38,383.41Z" transform="translate(0.5 -0.5)"/>
        </g>
      </g>
      <g id="cabeza">
        <g>
          <path class="cls-5" d="M141.49,316.41c12.46,16,50.62,13,61.24,12s28.65-2.87,35.13-22.44,3.24-49.43-14.59-64.95-65.57-13-81.78,7.93S137.16,310.84,141.49,316.41Z" transform="translate(0.5 -0.5)"/>
          <path class="cls-16" d="M144.78,253.2c.71-.25,15.44-11.71,42.12-14,9.18-.79,23.5,0,32.69,1.27-.92-1-14.11-8.59-41.33-5.76C171.62,235.42,156.23,239.57,144.78,253.2Z" transform="translate(0.5 -0.5)"/>
          <path class="cls-7" d="M193.28,248.46c-8.59.14-17.19.75-25.29,3.82l-.18.08c8.4,17.8,9.09,41,4.17,57.57a35,35,0,0,1-7.15,13.44c14.84,2.62,31.45,1.25,37.9.64,7-.67,17.29-1.72,25.31-8a40.85,40.85,0,0,0,2.33-6.07c5-16.8,4.21-40.38-4.51-58.27A138.68,138.68,0,0,0,193.28,248.46Z" transform="translate(0.5 -0.5)"/>
          <path class="cls-26" d="M162.23,264.26c5-6.73,18.44-8.49,35.35-9.5,21.82-1.3,29.2,2.65,31.43,5.17s6.09,15.05,5.26,27.23-1,15.84-6,18.87-19.47,6-28.82,6.22c-17.72.43-26.65-.43-32.57-3.91-3-1.78-6.88-11.36-7.48-23.17S159.66,267.75,162.23,264.26Z" transform="translate(0.5 -0.5)"/>
          <path class="cls-27" d="M197,256.64c-10.5.61-19.63,1.52-26.05,3.79,5.62,15.59,5.65,34.08,1.48,47.76l-.15.46c5.61,1.62,13.65,2,26.53,1.71,9-.22,22.85-3,27.66-5.82a8.54,8.54,0,0,0,3.76-3.92,81.53,81.53,0,0,0-2.77-38.75c-.11-.15-.21-.29-.31-.4C225,259.12,217.9,255.43,197,256.64Z" transform="translate(0.5 -0.5)"/>
          <path class="cls-9" d="M150.76,275.46c-.3,6.61-4,11.82-8.26,11.63s-7.48-5.71-7.18-12.32,4-11.82,8.25-11.63S151.05,268.84,150.76,275.46Z" transform="translate(0.5 -0.5)"/>
          <path class="cls-28" d="M147.38,275c-.21,4.64-2.47,8.31-5,8.2s-4.51-4-4.31-8.62,2.47-8.31,5-8.2S147.59,270.32,147.38,275Z" transform="translate(0.5 -0.5)"/>
          <path class="cls-29" d="M147.45,275.31l-.44,0,.44,0a16.22,16.22,0,0,0-1.94-8.81c-1.44-2.46-3.45-3.87-5.67-4-4.48-.19-8.4,5.21-8.7,12.05s3.1,12.58,7.6,12.78H139C143.38,287.37,147.15,282,147.45,275.31Zm-7.64-11.9c1.9.08,3.66,1.34,4.94,3.53a15.33,15.33,0,0,1,1.83,8.33c-.29,6.36-3.79,11.38-7.8,11.22s-7.05-5.5-6.77-11.87,3.66-11.22,7.59-11.22Z" transform="translate(0.5 -0.5)"/>
          <path class="cls-7" d="M139.27,290.79l3.13.11s1.33,13,5.08,20.63,9.07,10.08,9.07,10.08-8-2.6-12.82-12.49C140.28,302,139.27,290.79,139.27,290.79Z" transform="translate(0.5 -0.5)"/>
          <path class="cls-30" d="M165.17,265.26v0a1.66,1.66,0,0,0,2.38.56c1.52-1,3.84-2.59,5.18-3.32,2.1-1.15,12.52-5,12.52-5s-10.44.21-19.31,5A2,2,0,0,0,165.17,265.26Z" transform="translate(0.5 -0.5)"/>
        </g>
        <ellipse class="cls-31" cx="155.35" cy="273.43" rx="2.13" ry="3.72"/>
      </g>
      <g id="ojos">
        <g>
          <rect class="cls-32" x="182.8" y="268.39" width="15.05" height="19.66" rx="3.93"/>
          <rect class="cls-32" x="184.38" y="270.5" width="11.89" height="15.43" rx="3.93"/>
          <rect class="cls-33" x="186.38" y="272.49" width="8.25" height="12.01" rx="2.44"/>
          <path class="cls-34" d="M193.25,277.62h-6.78a.33.33,0,0,1,0-.66h6.78a.33.33,0,1,1,0,.66Z" transform="translate(0.5 -0.5)"/>
          <path class="cls-34" d="M193.25,279.05h-6.78a.33.33,0,0,1,0-.66h6.78a.33.33,0,1,1,0,.66Z" transform="translate(0.5 -0.5)"/>
          <path class="cls-34" d="M193.25,280.53h-6.78a.32.32,0,0,1-.32-.33.32.32,0,0,1,.32-.32h6.78a.32.32,0,0,1,.33.32A.33.33,0,0,1,193.25,280.53Z" transform="translate(0.5 -0.5)"/>
          <path class="cls-34" d="M192.39,274.87h-5a.33.33,0,1,1,0-.66h5a.33.33,0,0,1,0,.66Z" transform="translate(0.5 -0.5)"/>
          <path class="cls-34" d="M193.25,276.36h-6.78a.33.33,0,0,1,0-.66h6.78a.33.33,0,0,1,0,.66Z" transform="translate(0.5 -0.5)"/>
          <path class="cls-34" d="M193.25,282.3h-6.78a.33.33,0,0,1,0-.66h6.78a.33.33,0,1,1,0,.66Z" transform="translate(0.5 -0.5)"/>
          <path class="cls-34" d="M193.25,283.73h-6.78a.33.33,0,0,1,0-.66h6.78a.33.33,0,0,1,0,.66Z" transform="translate(0.5 -0.5)"/>
        </g>
        <g>
          <rect class="cls-32" x="206.78" y="268.39" width="15.05" height="19.66" rx="3.93"/>
          <rect class="cls-32" x="208.35" y="270.5" width="11.89" height="15.43" rx="3.93"/>
          <rect class="cls-33" x="210.36" y="272.49" width="8.25" height="12.01" rx="2.44"/>
          <path class="cls-34" d="M217.23,277.62h-6.78a.33.33,0,1,1,0-.66h6.78a.33.33,0,1,1,0,.66Z" transform="translate(0.5 -0.5)"/>
          <path class="cls-34" d="M217.23,279.05h-6.78a.33.33,0,1,1,0-.66h6.78a.33.33,0,1,1,0,.66Z" transform="translate(0.5 -0.5)"/>
          <path class="cls-34" d="M217.23,280.53h-6.78a.33.33,0,0,1-.33-.33.32.32,0,0,1,.33-.32h6.78a.32.32,0,0,1,.33.32A.33.33,0,0,1,217.23,280.53Z" transform="translate(0.5 -0.5)"/>
          <path class="cls-34" d="M216.37,274.87h-5.05a.33.33,0,1,1,0-.66h5.05a.33.33,0,0,1,0,.66Z" transform="translate(0.5 -0.5)"/>
          <path class="cls-34" d="M217.23,276.36h-6.78a.33.33,0,1,1,0-.66h6.78a.33.33,0,0,1,0,.66Z" transform="translate(0.5 -0.5)"/>
          <path class="cls-34" d="M217.23,282.3h-6.78a.33.33,0,1,1,0-.66h6.78a.33.33,0,1,1,0,.66Z" transform="translate(0.5 -0.5)"/>
          <path class="cls-34" d="M217.23,283.73h-6.78a.33.33,0,1,1,0-.66h6.78a.33.33,0,0,1,0,.66Z" transform="translate(0.5 -0.5)"/>
        </g>
      </g>
      <path id="boca" class="cls-35" d="M193,298.63c6.79.86,19,1.54,19,1.54s-10.78,1.09-17.8-.12S185.65,297.7,193,298.63Z" transform="translate(0.5 -0.5)"/>
      <g id="brazoDerecho">
        <path class="cls-36" d="M148.38,366.41c3.76,13.11.78,25.47-6.66,27.61s-16.53-6.76-20.29-19.87-.79-25.48,6.66-27.61S144.61,353.3,148.38,366.41Z" transform="translate(0.5 -0.5)"/>
        <path class="cls-29" d="M139.34,390.78a.48.48,0,0,1-.05-.95,5.43,5.43,0,0,0,4.38-3.06c3.09-5.31,2.49-15.34-1.39-23.33-4.64-9.55-12.05-13.36-16.27-11.42a.47.47,0,1,1-.4-.85c5.3-2.45,13.16,2.87,17.52,11.85,4,8.25,4.59,18.67,1.35,24.23a6.42,6.42,0,0,1-5.13,3.53Z" transform="translate(0.5 -0.5)"/>
        <g>
          <path class="cls-5" d="M98.59,415.32c3.13-38.26,16.33-56.07,19.48-59.82a3.1,3.1,0,0,1,1.8-1.08c2.63-.5,9.55-.68,17.51,8.39,5.5,6.26,5.29,17.52,4.94,18.11-3.65,6.14-26.56,44.78-32.31,57.75C103.76,452.76,97.26,431.66,98.59,415.32Z" transform="translate(0.5 -0.5)"/>
          <path class="cls-6" d="M137.43,362.84a31,31,0,0,0-7.27-6.27c.83.78,1.68,1.65,2.55,2.64,6.94,7.89,4.87,14.1,3.32,18.36-5.55,15.27-23.09,44.48-26.35,61.92.13-.25.25-.51.38-.79,5.74-13,28.66-51.61,32.31-57.74C142.72,380.37,142.93,369.1,137.43,362.84Z" transform="translate(0.5 -0.5)"/>
          <path class="cls-7" d="M116.54,369c-15.94,14.84-15.37,60.39-15.37,60.39S108.86,397,116,383,122,363.93,116.54,369Z" transform="translate(0.5 -0.5)"/>
          <path class="cls-6" d="M113.47,430.89a48.79,48.79,0,0,0,.62,6.51c.15.58,3.38,3.09,3.37,2.78-.13-2.73.53-17.13,2.68-21C120.9,417.76,113.24,428.27,113.47,430.89Z" transform="translate(0.5 -0.5)"/>
          <path class="cls-8" d="M120.5,419.55a.44.44,0,0,1-.37-.2c-4.2-6.73-12.89-11.73-20.71-7.77a.44.44,0,1,1-.4-.78c8.29-4.2,17.45,1,21.85,8.08a.44.44,0,0,1-.14.61A.46.46,0,0,1,120.5,419.55Z" transform="translate(0.5 -0.5)"/>
        </g>
        <g>
          <path class="cls-37" d="M125.79,379.83c-.2,6.48-5.09,11.6-10.93,11.42s-10.41-5.58-10.22-12.06,5.1-11.6,10.94-11.42S126,373.35,125.79,379.83Z" transform="translate(0.5 -0.5)"/>
          <g>
            <path class="cls-38" d="M108,380.51c-.14,2.18,1.08,4.47,2.33,6.2a21.79,21.79,0,0,0,2.55,2.93s6.74-1.73,8.6-5.6c.38-.81,2.15-5.88,2.15-5.88s.53-1.23-.46-1.79a29.87,29.87,0,0,1-3.42-1.94,10,10,0,0,0-2.28-1.46c-.65-.23-.93-.1-2.12,0a39.29,39.29,0,0,1-4-.1c-1.18,0-1.33,1.33-1.33,1.33S108,379.6,108,380.51Z" transform="translate(0.5 -0.5)"/>
            <path class="cls-39" d="M110,374.19s-1.94,5.41-2,6.32c-.28,4.37,4.88,9.13,4.88,9.13h0s6.74-1.73,8.6-5.6c.38-.81,2.15-5.88,2.15-5.88s.53-1.23-.46-1.79a31.46,31.46,0,0,1-3.42-1.94,9.69,9.69,0,0,0-2.28-1.46c-.65-.23-.93-.1-2.12,0a34.23,34.23,0,0,1-4-.1C110.13,372.82,110,374.19,110,374.19ZM111,374l1,0a11.32,11.32,0,0,0,3.09,0c2.14-.4,2.8.68,3.82,1.42a20.26,20.26,0,0,0,2.63,1.53l.86.44c0,.07,0,.17,0,.25a.15.15,0,0,0,0,.07c-.68,1.94-1.85,5.23-2.11,5.78-.81,1.68-2.83,2.92-4.4,3.66a21,21,0,0,1-2.61,1,20.82,20.82,0,0,1-1.82-2.18c-1-1.41-2.22-3.74-2.09-5.62a42,42,0,0,1,1.62-6.14Z" transform="translate(0.5 -0.5)"/>
            <path class="cls-40" d="M108,380.51c-.16,2.54,1.5,5.2,2.94,7-1.31-1.76-2.63-4.13-2.49-6.4.07-.92,2-6.32,2-6.32s.14-1.37,1.32-1.34a36.74,36.74,0,0,0,4,.1c1.18-.09,1.47-.22,2.11,0a9.37,9.37,0,0,1,2.28,1.46A31.46,31.46,0,0,0,123.6,377l.09.06a1.15,1.15,0,0,0-.54-.65,31.46,31.46,0,0,1-3.42-1.94,9.69,9.69,0,0,0-2.28-1.46c-.65-.24-.93-.1-2.12,0a34.29,34.29,0,0,1-4-.1c-1.18,0-1.33,1.34-1.33,1.34S108,379.6,108,380.51Z" transform="translate(0.5 -0.5)"/>
            <path class="cls-39" d="M114.71,380.63a.42.42,0,0,0,.1.4l-.08.32a.07.07,0,0,0,.06.1l.25.07a.09.09,0,0,0,.11-.06l.08-.32a.42.42,0,0,0,.29-.3.42.42,0,0,0-.81-.21Z" transform="translate(0.5 -0.5)"/>
            <path class="cls-39" d="M114.71,378.46l-.16.62,1.87.5.16-.63a1,1,0,1,0-1.87-.49Z" transform="translate(0.5 -0.5)"/>
            <path class="cls-39" d="M111.32,375.69s-1.17,4-1.22,4.67c-.25,3.24,3.36,7,3.36,7h0s4.79-1.34,6.14-4.24c.28-.61,1.59-4.41,1.59-4.41s.39-.92-.31-1.32a21.3,21.3,0,0,1-2.41-1.4c-.41-.31-.78-.56-1.09-.75a3.77,3.77,0,0,0-.69-.37h0a2.69,2.69,0,0,0-1.41-.11,20.2,20.2,0,0,1-2.83,0C111.61,374.69,111.32,375.69,111.32,375.69Zm1.72,3.54a.53.53,0,0,1,.64-.38l.14,0,.16-.62a1.72,1.72,0,1,1,3.33.88l-.16.62.13,0a.53.53,0,0,1,.37.65l-.63,2.42a.53.53,0,0,1-.64.38l-3.61-.95a.54.54,0,0,1-.37-.65Z" transform="translate(0.5 -0.5)"/>
            <path class="cls-40" d="M110.1,380.36c-.18,2.33,1.63,4.92,2.67,6.19-1-1.39-2.37-3.59-2.22-5.6,0-.68,1.23-4.67,1.23-4.67s.28-1,1.12-1a21.93,21.93,0,0,0,2.83,0,2.69,2.69,0,0,1,1.4.12h0a5.82,5.82,0,0,1,.68.37c.31.19.69.45,1.1.75a17.63,17.63,0,0,0,2.35,1.37.77.77,0,0,0-.4-.55,22.21,22.21,0,0,1-2.41-1.4c-.41-.31-.78-.56-1.09-.75a5.16,5.16,0,0,0-.68-.37h0a2.69,2.69,0,0,0-1.41-.11,20.2,20.2,0,0,1-2.83,0c-.83,0-1.12,1-1.12,1S110.15,379.68,110.1,380.36Z" transform="translate(0.5 -0.5)"/>
          </g>
        </g>
      </g>
    </g>
  </g>
</svg>
