<svg xmlns="http://www.w3.org/2000/svg" xmlns:xlink="http://www.w3.org/1999/xlink" width="1024" height="620" viewBox="0 0 1024 620">
  <defs>
    <style>
      .cls-1 {
        isolation: isolate;
      }

      .cls-2 {
        fill: none;
      }

      .cls-3, .cls-4 {
        fill: #51b2fb;
      }

      .cls-3, .cls-32 {
        opacity: 0.1;
      }

      .cls-4 {
        opacity: 0.2;
      }

      .cls-5 {
        fill: #e3ebfc;
      }

      .cls-6 {
        fill: #ccddfa;
      }

      .cls-7 {
        fill: #fafbff;
      }

      .cls-8 {
        fill: #80a7f6;
      }

      .cls-9 {
        fill: #9fbcfb;
      }

      .cls-10 {
        fill: #b8d0f9;
      }

      .cls-11, .cls-29, .cls-31 {
        fill: #207bff;
      }

      .cls-11, .cls-37 {
        opacity: 0.4;
      }

      .cls-12 {
        fill: #004bff;
        opacity: 0.5;
        mix-blend-mode: multiply;
      }

      .cls-13 {
        fill: #c5d8fa;
      }

      .cls-14 {
        fill: url(#_ÂÁ_Ï_ÌÌ_È_ËÂÌÚ_30);
      }

      .cls-15 {
        fill: #4aebff;
      }

      .cls-16, .cls-30 {
        fill: #fff;
      }

      .cls-17 {
        fill: #bef9ff;
      }

      .cls-18 {
        fill: url(#linear-gradient);
      }

      .cls-19 {
        fill: #ec1c24;
      }

      .cls-20 {
        fill: url(#linear-gradient-2);
      }

      .cls-21 {
        fill: url(#linear-gradient-3);
      }

      .cls-22 {
        fill: url(#linear-gradient-4);
      }

      .cls-23 {
        fill: url(#linear-gradient-5);
      }

      .cls-24 {
        fill: url(#linear-gradient-6);
      }

      .cls-25 {
        fill: url(#linear-gradient-7);
      }

      .cls-26 {
        fill: url(#_ÂÁ_Ï_ÌÌ_È_ËÂÌÚ_14);
      }

      .cls-27 {
        fill: url(#_ÂÁ_Ï_ÌÌ_È_ËÂÌÚ_18);
      }

      .cls-28 {
        fill: #4880f8;
      }

      .cls-30 {
        opacity: 0.8;
      }

      .cls-31 {
        opacity: 0.72;
      }

      .cls-32, .cls-33, .cls-34, .cls-35 {
        fill: #3ae6fb;
      }

      .cls-33 {
        opacity: 0.3;
      }

      .cls-35 {
        opacity: 0.7;
      }

      .cls-36 {
        fill: #93b4fb;
      }

      .cls-37 {
        mix-blend-mode: lighten;
        fill: url(#radial-gradient);
      }

      .cls-38 {
        fill: #00ffda;
      }

      .cls-39 {
        fill: #7fd1ca;
      }

      .cls-40 {
        fill: #1e1e1e;
      }
    </style>
    <radialGradient id="_ÂÁ_Ï_ÌÌ_È_ËÂÌÚ_30" data-name="¡ÂÁ˚ÏˇÌÌ˚È „‡‰ËÂÌÚ 30" cx="5243.38" cy="339.82" r="5.57" gradientTransform="matrix(-1, 0, 0, 1, 6139.69, 0)" gradientUnits="userSpaceOnUse">
      <stop offset="0" stop-color="#4aebff"/>
      <stop offset="1" stop-color="#00709e"/>
    </radialGradient>
    <linearGradient id="linear-gradient" x1="881.99" y1="242.54" x2="881.99" y2="273.25" gradientTransform="translate(10.84)" gradientUnits="userSpaceOnUse">
      <stop offset="0.02" stop-color="#dd2a21"/>
      <stop offset="0.06" stop-color="#c8201b"/>
      <stop offset="0.1" stop-color="#b71717"/>
      <stop offset="0.15" stop-color="#ac1113"/>
      <stop offset="0.22" stop-color="#a50e12"/>
      <stop offset="0.43" stop-color="#a30d11"/>
      <stop offset="0.79" stop-color="#6b0006"/>
    </linearGradient>
    <linearGradient id="linear-gradient-2" x1="873.07" y1="243.91" x2="873.07" y2="265.95" gradientTransform="translate(10.84)" gradientUnits="userSpaceOnUse">
      <stop offset="0" stop-color="#ad1a27"/>
      <stop offset="0.08" stop-color="#9e151f"/>
      <stop offset="0.28" stop-color="#7d090e"/>
      <stop offset="0.44" stop-color="#680304"/>
      <stop offset="0.56" stop-color="#610000"/>
      <stop offset="0.73" stop-color="#520000"/>
      <stop offset="1" stop-color="#3f0000"/>
    </linearGradient>
    <linearGradient id="linear-gradient-3" x1="63.76" y1="255.25" x2="78.34" y2="255.25" gradientTransform="matrix(-1, 0, 0, 1, 981.37, 0)" gradientUnits="userSpaceOnUse">
      <stop offset="0" stop-color="#be1349"/>
      <stop offset="0.24" stop-color="#be124e"/>
      <stop offset="0.25" stop-color="#be124e"/>
      <stop offset="1" stop-color="#7a0025"/>
    </linearGradient>
    <linearGradient id="linear-gradient-4" x1="59.33" y1="262.58" x2="78.4" y2="262.58" gradientTransform="matrix(-1, 0, 0, 1, 981.37, 0)" gradientUnits="userSpaceOnUse">
      <stop offset="0" stop-color="#282881"/>
      <stop offset="0.27" stop-color="#26257d"/>
      <stop offset="0.55" stop-color="#1f1b70"/>
      <stop offset="0.84" stop-color="#150c5b"/>
      <stop offset="1" stop-color="#0d004c"/>
    </linearGradient>
    <linearGradient id="linear-gradient-5" x1="63.84" y1="262.58" x2="78.34" y2="262.58" xlink:href="#linear-gradient-3"/>
    <linearGradient id="linear-gradient-6" x1="66.78" y1="255.19" x2="85" y2="255.19" xlink:href="#linear-gradient-4"/>
    <linearGradient id="linear-gradient-7" x1="886.98" y1="261.85" x2="886.98" y2="251.42" gradientTransform="translate(10.84)" gradientUnits="userSpaceOnUse">
      <stop offset="0" stop-color="#ed2d24"/>
      <stop offset="0.12" stop-color="#ed2824"/>
      <stop offset="0.25" stop-color="#ec1c24"/>
      <stop offset="1" stop-color="#74020d"/>
    </linearGradient>
    <linearGradient id="_ÂÁ_Ï_ÌÌ_È_ËÂÌÚ_14" data-name="¡ÂÁ˚ÏˇÌÌ˚È „‡‰ËÂÌÚ 14" x1="5166.8" y1="429.22" x2="5228.78" y2="429.22" gradientTransform="matrix(-1, -0.05, -0.05, 1, 6115.04, 13.43)" gradientUnits="userSpaceOnUse">
      <stop offset="0" stop-color="#003a6b"/>
      <stop offset="1" stop-color="#00204c"/>
    </linearGradient>
    <linearGradient id="_ÂÁ_Ï_ÌÌ_È_ËÂÌÚ_18" data-name="¡ÂÁ˚ÏˇÌÌ˚È „‡‰ËÂÌÚ 18" x1="5223.54" y1="154.78" x2="5254.94" y2="207.68" gradientTransform="matrix(-1, 0, 0, 1, 6139.69, 0)" gradientUnits="userSpaceOnUse">
      <stop offset="0" stop-color="#cbd7e1"/>
      <stop offset="0.05" stop-color="#aec0d0"/>
      <stop offset="0.15" stop-color="#7998b2"/>
      <stop offset="0.26" stop-color="#4e7698"/>
      <stop offset="0.35" stop-color="#2c5c85"/>
      <stop offset="0.44" stop-color="#144976"/>
      <stop offset="0.53" stop-color="#053e6e"/>
      <stop offset="0.6" stop-color="#003a6b"/>
      <stop offset="1" stop-color="#00204c"/>
    </linearGradient>
    <radialGradient id="radial-gradient" cx="4074.82" cy="455.22" r="11.8" gradientTransform="matrix(-0.74, 0.02, 0.02, 0.82, 3976.33, -206.49)" gradientUnits="userSpaceOnUse">
      <stop offset="0" stop-color="#00ddde" stop-opacity="0.52"/>
      <stop offset="0.09" stop-color="#2de6e7" stop-opacity="0.65"/>
      <stop offset="0.2" stop-color="#63f1f1" stop-opacity="0.8"/>
      <stop offset="0.3" stop-color="#8af8f9" stop-opacity="0.91"/>
      <stop offset="0.38" stop-color="#a2fdfd" stop-opacity="0.98"/>
      <stop offset="0.43" stop-color="#abffff"/>
      <stop offset="0.46" stop-color="#9ffcfd"/>
      <stop offset="0.51" stop-color="#7ff6f6"/>
      <stop offset="0.58" stop-color="#4aebeb"/>
      <stop offset="0.66" stop-color="#03dcdd"/>
      <stop offset="0.66" stop-color="#00dbdc"/>
      <stop offset="0.69" stop-color="#08dcdd" stop-opacity="0.97"/>
      <stop offset="0.74" stop-color="#1fdfe0" stop-opacity="0.88"/>
      <stop offset="0.8" stop-color="#44e5e5" stop-opacity="0.73"/>
      <stop offset="0.87" stop-color="#78eced" stop-opacity="0.53"/>
      <stop offset="0.94" stop-color="#baf5f6" stop-opacity="0.27"/>
      <stop offset="1" stop-color="#fff" stop-opacity="0"/>
    </radialGradient>
  </defs>
  <title>robot</title>
  <g class="cls-1">
    <g id="robot">
      <g id="fondo">
        <rect class="cls-2" width="1024" height="620"/>
      </g>
      <g id="sombra">
        <ellipse class="cls-3" cx="911.23" cy="371.8" rx="44.67" ry="10.03"/>
        <path class="cls-4" d="M876.44,371.8c0,3.52,15.58,6.38,34.79,6.38s34.8-2.86,34.8-6.38-15.58-6.38-34.8-6.38S876.44,368.28,876.44,371.8Z"/>
        <path class="cls-4" d="M890.28,371.8c0,2.12,9.38,3.84,21,3.84s20.95-1.72,20.95-3.84S922.8,368,911.23,368,890.28,369.68,890.28,371.8Z"/>
      </g>
      <g id="brazoIzquierdo">
        <g>
          <path class="cls-5" d="M833.69,276.5c6.53-31,19.2-44.27,22.17-47a2.59,2.59,0,0,1,1.59-.69c2.2-.14,7.89.43,13.48,8.68,3.86,5.71,2.52,14.92,2.17,15.37-3.63,4.65-26.41,34-32.47,44C834.05,307.73,830.9,289.76,833.69,276.5Z"/>
          <path class="cls-6" d="M871,237.51a25.94,25.94,0,0,0-5.31-5.9c.6.73,1.2,1.53,1.81,2.43,4.87,7.19,2.53,12.07.82,15.4-6.13,11.94-23.53,34.06-28,48,.13-.19.26-.39.39-.61,6.05-10,28.84-39.33,32.47-44C873.49,252.42,874.83,243.21,871,237.51Z"/>
          <path class="cls-7" d="M853.2,240.39c-14.6,10.51-18.85,47.9-18.85,47.9s9.66-25.73,17-36.47S858.19,236.8,853.2,240.39Z"/>
          <path class="cls-6" d="M844.28,290.81a39,39,0,0,0-.17,5.39,9.05,9.05,0,0,0,2.47,2.63c.18-2.25,2.21-14,4.38-17C851.72,280.81,844.36,288.63,844.28,290.81Z"/>
          <path class="cls-8" d="M851.21,282.24a.36.36,0,0,1-.28-.21c-2.74-5.94-9.35-10.95-16.17-8.51a.38.38,0,0,1-.47-.22.37.37,0,0,1,.22-.46c7.24-2.58,14.2,2.65,17.08,8.89a.37.37,0,0,1-.18.48A.34.34,0,0,1,851.21,282.24Z"/>
        </g>
        <path class="cls-9" d="M855.34,243.27c.84,9.69,4.9,17.26,9.07,16.89s6.86-8.51,6-18.19-4.89-17.11-9.06-16.89C855.33,225.39,854.5,233.58,855.34,243.27Z"/>
      </g>
      <g id="torso">
        <path class="cls-5" d="M951.63,219.82c4.32-.27,19.58,15,15,29.87S936,314.08,930.14,331.43s-9.42,21.62-17.79,23.19-21,2.15-35.68-28.47-16.93-65-17.59-81.36,1-22.82,6.76-24.69C879.15,215.76,951.63,219.82,951.63,219.82Z"/>
        <path class="cls-7" d="M882.58,322.54c-11.37-32.21-10-66.84-8.94-83.25.7-10.9,2-17.34,4.5-20.8,12.11-.67,29.8-.38,44.8.1-8,21.15-19.87,56.77-21.84,93.46-1.32,24.48,2.06,36.44,6.74,42.56C900.21,353.09,891,346.51,882.58,322.54Z"/>
        <path class="cls-10" d="M864.56,221.46c0,3.18,22.43,8.11,45.06,8.14s45.08-4.81,45.09-8-22.44-3.46-45.07-3.5S864.57,218.29,864.56,221.46Z"/>
        <path class="cls-11" d="M878.24,222.11c0,2.2,15.46,5.61,31,5.63s31.06-3.33,31.06-5.53-15.45-2.39-31-2.42S878.25,219.92,878.24,222.11Z"/>
        <path class="cls-12" d="M887.73,223.25c0,.84,10.66,1.9,21,1.92s20.33-1,20.33-1.85-9.94-1.18-20.32-1.19S887.73,222.41,887.73,223.25Z"/>
        <path class="cls-13" d="M920.83,335c2.41-13,6-55.44,14.52-85.41,4.28-15,14.35-25.61,24.1-22.25,6.92,2.38,9.65,14.3,7.17,22.33-4.6,14.85-30.59,64.39-36.48,81.74s-9.42,21.62-17.79,23.19c-4.31.81-9.75,1.34-16-2.5C904.81,353.45,916.85,356.51,920.83,335Z"/>
        <path class="cls-14" d="M890.88,341.34a15.44,15.44,0,0,0,5.15.85,24,24,0,0,0,5.77-.42,2.32,2.32,0,0,0,2-2.15h0a2.1,2.1,0,0,0-2-2.14s-4.44.5-5.52.49a40.16,40.16,0,0,1-5.61-.53c-1.11,0-2.15.33-1.81,1.92C889,340.1,889.53,340.83,890.88,341.34Z"/>
        <path class="cls-15" d="M891.59,341.1a15.81,15.81,0,0,0,4.45.6,24.07,24.07,0,0,0,5-.3c.93-.19,1.74-.69,1.74-1.53h0a1.64,1.64,0,0,0-1.74-1.52s-3.84.35-4.77.35a41.21,41.21,0,0,1-4.85-.38c-1,0-1.86.24-1.57,1.37C890,340.22,890.42,340.74,891.59,341.1Z"/>
        <path class="cls-8" d="M897.28,331.55c10.19,0,22.7-2.21,36.18-7.76a.37.37,0,0,0,.2-.47.36.36,0,0,0-.47-.19c-25.13,10.32-46.75,9-56.2,3.42a.37.37,0,0,0-.37.63C881.12,329.83,888.31,331.55,897.28,331.55Z"/>
        <path class="cls-16" d="M897.55,330.74c10.19,0,22.69-2.21,36.18-7.75a.36.36,0,0,0,.19-.47.35.35,0,0,0-.47-.2c-25.12,10.33-46.74,9-56.19,3.43a.36.36,0,0,0-.5.12.37.37,0,0,0,.13.5C881.38,329,888.57,330.74,897.55,330.74Z"/>
        <path class="cls-7" d="M861,228.2c-1.93,39.26,3.73,57.84,3.73,57.84s-5.41-29.67-.42-58.34C865,223.77,861.28,222.06,861,228.2Z"/>
        <path class="cls-16" d="M951.25,225.46s-4.47,2.68-20.8,4.2-37.84,1.23-37.84,1.23,19.82,2.62,37.92.67S951.25,225.46,951.25,225.46Z"/>
        <path class="cls-17" d="M893.64,338.57c.79.06,1.71.12,2.62.13s4.77-.35,4.77-.35a1.47,1.47,0,0,1,.36,0l-1.76,3.21a34.63,34.63,0,0,1-3.59.1,16.14,16.14,0,0,1-4.15-.52Z"/>
        <g>
          <path class="cls-18" d="M882.42,255.1a13.87,13.87,0,0,1,8.65-12.85,15,15,0,0,1,1.54.2,12.77,12.77,0,0,1,10.62,12.16c0,.14,0,.28,0,.42v.14h0a7.89,7.89,0,0,0-10.49-7.46c.78-.28.75-.28,0,0a7.68,7.68,0,0,0-2.67-.47,7.58,7.58,0,0,0-7.55,7.84v.07a7.53,7.53,0,0,0,9.92,7.37,7.69,7.69,0,0,0,2.93.57,7.92,7.92,0,0,0,7.91-7.79,12.64,12.64,0,0,1-10.54,12.43,14.34,14.34,0,0,1-1.62.2A13.86,13.86,0,0,1,882.42,255.1Z"/>
          <path class="cls-19" d="M887.42,255.19a7.9,7.9,0,0,0,5,7.35,7.53,7.53,0,0,1-9.92-7.37v-.07a7.58,7.58,0,0,1,7.55-7.84,7.68,7.68,0,0,1,2.67.47c.8-.29.83-.29,0,0A7.91,7.91,0,0,0,887.42,255.19Z"/>
          <path class="cls-20" d="M890,242.21c.38,0,.75,0,1.11,0a13.87,13.87,0,0,0,0,25.7c-.34,0-.69,0-1.05,0a12.89,12.89,0,0,1-13.28-12.89V255C876.75,247.94,882.27,242.21,890,242.21Z"/>
          <path class="cls-21" d="M903.24,255.19v0Z"/>
          <path class="cls-22" d="M892.61,262.47c.83.29.82.3,0,0Z"/>
          <path class="cls-23" d="M892.61,262.47c.83.29.82.3,0,0Z"/>
          <path class="cls-24" d="M895.33,263.11a7.69,7.69,0,0,1-2.93-.57l.21-.07c.82.3.83.29,0,0a7.72,7.72,0,0,0,5.1-7.37V255a7.6,7.6,0,0,0-5-7.3h0a7.89,7.89,0,0,1,10.49,7.46v.14A7.92,7.92,0,0,1,895.33,263.11Z"/>
          <path class="cls-25" d="M895.33,263.11a7.69,7.69,0,0,1-2.93-.57l.21-.07c.82.3.83.29,0,0a7.72,7.72,0,0,0,5.1-7.37V255a7.6,7.6,0,0,0-5-7.3h0a7.89,7.89,0,0,1,10.49,7.46v.14A7.92,7.92,0,0,1,895.33,263.11Z"/>
        </g>
      </g>
      <g id="cabeza">
        <g>
          <path class="cls-5" d="M948.19,207.75c-10.3,13.26-41.82,10.73-50.6,9.9s-23.67-2.37-29-18.54-2.68-40.84,12-53.66,54.18-10.73,67.57,6.55S951.76,203.15,948.19,207.75Z"/>
          <path class="cls-16" d="M945.47,155.53c-.59-.21-12.76-9.68-34.8-11.57-7.59-.65-19.41,0-27,1.06.75-.8,11.65-7.1,34.14-4.76A44.36,44.36,0,0,1,945.47,155.53Z"/>
          <path class="cls-7" d="M905.4,151.61c7.09.11,14.2.62,20.89,3.16l.16.06c-7,14.71-7.52,33.87-3.45,47.56a29,29,0,0,0,5.91,11.11c-12.26,2.16-26,1-31.32.53-5.81-.56-14.29-1.42-20.91-6.62a32.62,32.62,0,0,1-1.92-5c-4.12-13.87-3.48-33.36,3.72-48.13A114.25,114.25,0,0,1,905.4,151.61Z"/>
          <path class="cls-26" d="M931.06,164.67c-4.09-5.57-15.24-7-29.21-7.85-18-1.08-24.13,2.18-26,4.27s-5,12.43-4.35,22.49.8,13.09,4.94,15.59,16.09,5,23.82,5.14c14.63.36,22-.36,26.9-3.23,2.51-1.47,5.69-9.38,6.18-19.14S933.18,167.55,931.06,164.67Z"/>
          <path class="cls-27" d="M902.35,158.37c8.68.5,16.22,1.25,21.52,3.13-4.64,12.88-4.67,28.16-1.22,39.46,0,.13.08.25.13.38-4.64,1.34-11.28,1.66-21.92,1.41-7.41-.18-18.88-2.47-22.85-4.8a7,7,0,0,1-3.11-3.25,67.26,67.26,0,0,1,2.29-32,2.36,2.36,0,0,1,.25-.33C879.21,160.41,885.06,157.37,902.35,158.37Z"/>
          <path class="cls-9" d="M940.53,173.91c.25,5.47,3.3,9.77,6.82,9.61s6.18-4.71,5.94-10.17-3.3-9.77-6.82-9.62S940.29,168.45,940.53,173.91Z"/>
          <path class="cls-28" d="M943.32,173.5c.17,3.84,2,6.87,4.18,6.78s3.72-3.28,3.55-7.12-2-6.87-4.17-6.77S943.15,169.67,943.32,173.5Z"/>
          <path class="cls-29" d="M950.26,183.75h.2c3.72-.17,6.53-4.9,6.28-10.56s-3.49-10.12-7.19-9.95a5.87,5.87,0,0,0-4.68,3.27,13.43,13.43,0,0,0-1.61,7.28h0C943.51,179.34,946.63,183.75,950.26,183.75Zm-.51-19.8c3.25,0,6,4.11,6.27,9.27s-2.27,9.66-5.59,9.81-6.21-4-6.44-9.27a12.69,12.69,0,0,1,1.5-6.88,5.17,5.17,0,0,1,4.09-2.92Z"/>
          <path class="cls-7" d="M950,186.58l-2.58.09s-1.1,10.74-4.2,17.05-7.49,8.32-7.49,8.32,6.62-2.14,10.59-10.32C949.19,195.83,950,186.58,950,186.58Z"/>
          <path class="cls-30" d="M928.63,165.49h0a1.36,1.36,0,0,1-2,.47c-1.26-.86-3.18-2.15-4.28-2.74-1.74-.95-10.35-4.13-10.35-4.13a39.63,39.63,0,0,1,16,4.16A1.63,1.63,0,0,1,928.63,165.49Z"/>
        </g>
        <path class="cls-31" d="M935.39,172.66c0,1.69.79,3.07,1.76,3.07s1.76-1.38,1.76-3.07-.79-3.07-1.76-3.07S935.39,171,935.39,172.66Z"/>
      </g>
      <g id="ojos">
        <g>
          <rect class="cls-32" x="902.04" y="168.49" width="12.43" height="16.24" rx="3.93" transform="translate(1816.52 353.22) rotate(-180)"/>
          <rect class="cls-32" x="903.35" y="170.23" width="9.83" height="12.75" rx="3.93" transform="translate(1816.52 353.22) rotate(-180)"/>
          <rect class="cls-33" x="904.7" y="171.87" width="6.82" height="9.93" rx="2.44" transform="translate(1816.21 353.67) rotate(-180)"/>
          <path class="cls-34" d="M905.42,175.7H911a.27.27,0,0,0,0-.54h-5.6a.27.27,0,0,0,0,.54Z"/>
          <path class="cls-34" d="M905.42,176.88H911a.27.27,0,0,0,0-.54h-5.6a.27.27,0,0,0,0,.54Z"/>
          <path class="cls-34" d="M905.42,178.11H911a.27.27,0,0,0,.27-.27.28.28,0,0,0-.27-.28h-5.6a.28.28,0,0,0-.27.28A.27.27,0,0,0,905.42,178.11Z"/>
          <path class="cls-34" d="M906.14,173.43h4.17a.27.27,0,1,0,0-.54h-4.17a.27.27,0,1,0,0,.54Z"/>
          <path class="cls-34" d="M905.42,174.66H911a.28.28,0,0,0,0-.55h-5.6a.28.28,0,0,0,0,.55Z"/>
          <path class="cls-34" d="M905.42,179.56H911a.27.27,0,1,0,0-.54h-5.6a.27.27,0,1,0,0,.54Z"/>
          <path class="cls-34" d="M905.42,180.75H911a.27.27,0,0,0,.27-.27.28.28,0,0,0-.27-.28h-5.6a.28.28,0,0,0-.27.28A.27.27,0,0,0,905.42,180.75Z"/>
        </g>
        <g>
          <rect class="cls-32" x="882.23" y="168.49" width="12.43" height="16.24" rx="3.93" transform="translate(1776.89 353.22) rotate(-180)"/>
          <rect class="cls-32" x="883.53" y="170.23" width="9.83" height="12.75" rx="3.93" transform="translate(1776.89 353.22) rotate(-180)"/>
          <rect class="cls-33" x="884.89" y="171.87" width="6.82" height="9.93" rx="2.44" transform="translate(1776.59 353.67) rotate(-180)"/>
          <path class="cls-34" d="M885.61,175.7h5.6a.27.27,0,0,0,0-.54h-5.6a.27.27,0,0,0,0,.54Z"/>
          <path class="cls-34" d="M885.61,176.88h5.6a.27.27,0,0,0,0-.54h-5.6a.27.27,0,0,0,0,.54Z"/>
          <path class="cls-34" d="M885.61,178.11h5.6a.27.27,0,0,0,.27-.27.28.28,0,0,0-.27-.28h-5.6a.28.28,0,0,0-.27.28A.27.27,0,0,0,885.61,178.11Z"/>
          <path class="cls-34" d="M886.33,173.43h4.17a.27.27,0,0,0,0-.54h-4.17a.27.27,0,0,0,0,.54Z"/>
          <path class="cls-34" d="M885.61,174.66h5.6a.28.28,0,0,0,0-.55h-5.6a.28.28,0,0,0,0,.55Z"/>
          <path class="cls-34" d="M885.61,179.56h5.6a.27.27,0,1,0,0-.54h-5.6a.27.27,0,1,0,0,.54Z"/>
          <path class="cls-34" d="M885.61,180.75h5.6a.27.27,0,0,0,.27-.27.28.28,0,0,0-.27-.28h-5.6a.28.28,0,0,0-.27.28A.27.27,0,0,0,885.61,180.75Z"/>
        </g>
      </g>
      <path id="boca" class="cls-35" d="M905.67,193.06c-5.61.71-15.67,1.27-15.67,1.27s8.9.9,14.7-.1S911.7,192.29,905.67,193.06Z"/>
      <g id="brazoDerecho">
        <path class="cls-36" d="M942.5,249.06c-3.11,10.83-.65,21,5.5,22.81s13.65-5.59,16.76-16.42.65-21-5.5-22.81S945.61,238.22,942.5,249.06Z"/>
        <path class="cls-29" d="M950,269.19a.38.38,0,0,0,.4-.36.4.4,0,0,0-.37-.42,4.47,4.47,0,0,1-3.61-2.53c-2.55-4.39-2.06-12.68,1.15-19.28,3.83-7.89,10-11,13.44-9.43a.39.39,0,0,0,.52-.19.4.4,0,0,0-.19-.52c-4.38-2-10.87,2.38-14.48,9.8-3.31,6.82-3.79,15.42-1.11,20a5.28,5.28,0,0,0,4.24,2.91Z"/>
        <g>
          <path class="cls-5" d="M983.63,289.47c-2.58-31.61-13.49-46.33-16.09-49.43a2.57,2.57,0,0,0-1.49-.88c-2.17-.42-7.89-.57-14.47,6.92-4.54,5.17-4.37,14.48-4.08,15,3,5.07,22,37,26.7,47.71C979.36,320.41,984.73,303,983.63,289.47Z"/>
          <path class="cls-6" d="M951.54,246.11a25.69,25.69,0,0,1,6-5.18,29.48,29.48,0,0,0-2.1,2.18c-5.74,6.52-4,11.65-2.75,15.17,4.58,12.61,19.08,36.75,21.77,51.16-.1-.21-.21-.42-.31-.65-4.75-10.72-23.68-42.64-26.7-47.71C947.17,260.59,947,251.28,951.54,246.11Z"/>
          <path class="cls-7" d="M968.8,251.2c13.17,12.26,12.7,49.89,12.7,49.89s-6.35-26.75-12.28-38.32S964.31,247,968.8,251.2Z"/>
          <path class="cls-6" d="M971.34,302.34a41,41,0,0,1-.51,5.37,9.25,9.25,0,0,1-2.78,2.3c.1-2.26-.44-14.16-2.22-17.38C965.2,291.49,971.53,300.17,971.34,302.34Z"/>
          <path class="cls-8" d="M965.53,293a.37.37,0,0,0,.31-.17c3.46-5.56,10.64-9.7,17.11-6.42a.36.36,0,0,0,.49-.16.38.38,0,0,0-.16-.49c-6.85-3.46-14.42.86-18.06,6.68a.37.37,0,0,0,.12.5A.33.33,0,0,0,965.53,293Z"/>
        </g>
        <g>
          <path class="cls-37" d="M961.16,260.15c.16,5.36,4.21,9.58,9,9.43s8.6-4.61,8.44-10-4.21-9.58-9-9.44S961,254.79,961.16,260.15Z"/>
          <g>
            <path class="cls-38" d="M975.87,260.71a8.49,8.49,0,0,1-1.92,5.12,17.58,17.58,0,0,1-2.11,2.42s-5.57-1.42-7.1-4.62c-.32-.67-1.78-4.86-1.78-4.86s-.44-1,.38-1.48a26,26,0,0,0,2.83-1.6,8,8,0,0,1,1.88-1.21c.54-.19.77-.08,1.75,0,1.22.08,2.34-.06,3.32-.08s1.1,1.1,1.1,1.1A54.55,54.55,0,0,1,975.87,260.71Z"/>
            <path class="cls-39" d="M973.12,254.38a29,29,0,0,1-3.32.09c-1-.07-1.22-.18-1.75,0a8.21,8.21,0,0,0-1.88,1.21,26,26,0,0,1-2.83,1.6c-.82.46-.38,1.47-.38,1.47s1.46,4.2,1.78,4.87c1.53,3.19,7.1,4.62,7.1,4.62h0s4.27-3.93,4-7.54a54.55,54.55,0,0,0-1.65-5.22S974.1,254.36,973.12,254.38Zm.3,1.16a33.28,33.28,0,0,1,1.34,5.07,8.3,8.3,0,0,1-1.73,4.64,17.25,17.25,0,0,1-1.5,1.81,19,19,0,0,1-2.16-.85,7.68,7.68,0,0,1-3.63-3c-.22-.46-1.18-3.17-1.74-4.78l0-.06a.71.71,0,0,1,0-.2l.71-.37a16.4,16.4,0,0,0,2.17-1.26c.85-.61,1.39-1.51,3.16-1.17a9.4,9.4,0,0,0,2.55,0l.82,0A2.23,2.23,0,0,1,973.42,255.54Z"/>
            <path class="cls-40" d="M974.22,255.49s-.12-1.13-1.1-1.11a31.5,31.5,0,0,1-3.32.09c-1-.08-1.21-.19-1.75,0a8,8,0,0,0-1.88,1.21,26,26,0,0,1-2.83,1.6.89.89,0,0,0-.44.53l.07-.05a26,26,0,0,0,2.83-1.6,7.8,7.8,0,0,1,1.88-1.21c.53-.19.77-.08,1.75,0a29.24,29.24,0,0,0,3.32-.08c1,0,1.1,1.1,1.1,1.1s1.6,4.47,1.65,5.23c.12,1.87-1,3.83-2,5.28,1.18-1.47,2.56-3.67,2.42-5.77C975.82,260,974.22,255.49,974.22,255.49Z"/>
            <path class="cls-39" d="M970.32,260.81a.36.36,0,0,1-.09.33l.07.26a.07.07,0,0,1,0,.09l-.21.05a.07.07,0,0,1-.09-.05l-.07-.26a.35.35,0,0,1,0-.67A.35.35,0,0,1,970.32,260.81Z"/>
            <path class="cls-39" d="M970.31,259l.14.51-1.55.41-.13-.52a.8.8,0,1,1,1.54-.4Z"/>
            <path class="cls-39" d="M972.19,255.91a18,18,0,0,1-2.34,0,2.06,2.06,0,0,0-1.16.1h0a4.18,4.18,0,0,0-.56.3c-.25.16-.56.37-.9.63a17.42,17.42,0,0,1-2,1.15c-.58.34-.26,1.1-.26,1.1s1.08,3.14,1.31,3.64c1.12,2.39,5.08,3.5,5.08,3.5h0s3-3.09,2.78-5.76c0-.56-1-3.86-1-3.86S972.87,255.9,972.19,255.91Zm0,5.74a.44.44,0,0,1-.31.54l-3,.78a.44.44,0,0,1-.53-.31l-.53-2a.43.43,0,0,1,.31-.53l.11,0-.13-.52a1.42,1.42,0,1,1,2.75-.72l.13.51.11,0a.44.44,0,0,1,.53.31Z"/>
            <path class="cls-40" d="M973.11,256.73s-.23-.83-.92-.82a18,18,0,0,1-2.34,0,2.06,2.06,0,0,0-1.16.1h0a3.52,3.52,0,0,0-.56.31,9,9,0,0,0-.9.61,16.22,16.22,0,0,1-2,1.16.64.64,0,0,0-.33.46,15.21,15.21,0,0,0,1.94-1.13c.34-.25.65-.46.9-.62a5.37,5.37,0,0,1,.57-.31h0a2.17,2.17,0,0,1,1.15-.09,18,18,0,0,0,2.34,0c.69,0,.93.81.93.81s1,3.3,1,3.86c.13,1.66-1,3.48-1.83,4.63.85-1.05,2.35-3.19,2.2-5.11C974.08,260,973.11,256.73,973.11,256.73Z"/>
          </g>
        </g>
      </g>
    </g>
  </g>
</svg>
