<svg xmlns="http://www.w3.org/2000/svg" xmlns:xlink="http://www.w3.org/1999/xlink" width="1024" height="620" viewBox="0 0 1024 620">
  <defs>
    <style>
      .cls-1 {
        isolation: isolate;
      }

      .cls-2 {
        fill: none;
      }

      .cls-3, .cls-4 {
        fill: #51b2fb;
      }

      .cls-3, .cls-32 {
        opacity: 0.1;
      }

      .cls-4 {
        opacity: 0.2;
      }

      .cls-5 {
        fill: #e3ebfc;
      }

      .cls-6 {
        fill: #ccddfa;
      }

      .cls-7 {
        fill: #fafbff;
      }

      .cls-8 {
        fill: #80a7f6;
      }

      .cls-9 {
        fill: #9fbcfb;
      }

      .cls-10 {
        fill: #b8d0f9;
      }

      .cls-11, .cls-29, .cls-31 {
        fill: #207bff;
      }

      .cls-11, .cls-37 {
        opacity: 0.4;
      }

      .cls-12 {
        fill: #004bff;
        opacity: 0.5;
        mix-blend-mode: multiply;
      }

      .cls-13 {
        fill: #c5d8fa;
      }

      .cls-14 {
        fill: url(#_ÂÁ_Ï_ÌÌ_È_ËÂÌÚ_30);
      }

      .cls-15 {
        fill: #4aebff;
      }

      .cls-16, .cls-30 {
        fill: #fff;
      }

      .cls-17 {
        fill: #bef9ff;
      }

      .cls-18 {
        fill: url(#linear-gradient);
      }

      .cls-19 {
        fill: #ec1c24;
      }

      .cls-20 {
        fill: url(#linear-gradient-2);
      }

      .cls-21 {
        fill: url(#linear-gradient-3);
      }

      .cls-22 {
        fill: url(#linear-gradient-4);
      }

      .cls-23 {
        fill: url(#linear-gradient-5);
      }

      .cls-24 {
        fill: url(#linear-gradient-6);
      }

      .cls-25 {
        fill: url(#linear-gradient-7);
      }

      .cls-26 {
        fill: url(#_ÂÁ_Ï_ÌÌ_È_ËÂÌÚ_14);
      }

      .cls-27 {
        fill: url(#_ÂÁ_Ï_ÌÌ_È_ËÂÌÚ_18);
      }

      .cls-28 {
        fill: #4880f8;
      }

      .cls-30 {
        opacity: 0.8;
      }

      .cls-31 {
        opacity: 0.72;
      }

      .cls-32, .cls-33, .cls-34, .cls-35 {
        fill: #3ae6fb;
      }

      .cls-33 {
        opacity: 0.3;
      }

      .cls-35 {
        opacity: 0.7;
      }

      .cls-36 {
        fill: #93b4fb;
      }

      .cls-37 {
        mix-blend-mode: lighten;
        fill: url(#radial-gradient);
      }

      .cls-38 {
        fill: #00ffda;
      }

      .cls-39 {
        fill: #7fd1ca;
      }

      .cls-40 {
        fill: #1e1e1e;
      }
    </style>
    <radialGradient id="_ÂÁ_Ï_ÌÌ_È_ËÂÌÚ_30" data-name="¡ÂÁ˚ÏˇÌÌ˚È „‡‰ËÂÌÚ 30" cx="5231.07" cy="475.66" r="6.14" gradientTransform="matrix(-1, 0, 0, 1, 6110.81, 0)" gradientUnits="userSpaceOnUse">
      <stop offset="0" stop-color="#4aebff"/>
      <stop offset="1" stop-color="#00709e"/>
    </radialGradient>
    <linearGradient id="linear-gradient" x1="874.79" y1="368.41" x2="874.79" y2="402.27" gradientTransform="translate(1.11)" gradientUnits="userSpaceOnUse">
      <stop offset="0.02" stop-color="#dd2a21"/>
      <stop offset="0.06" stop-color="#c8201b"/>
      <stop offset="0.1" stop-color="#b71717"/>
      <stop offset="0.15" stop-color="#ac1113"/>
      <stop offset="0.22" stop-color="#a50e12"/>
      <stop offset="0.43" stop-color="#a30d11"/>
      <stop offset="0.79" stop-color="#6b0006"/>
    </linearGradient>
    <linearGradient id="linear-gradient-2" x1="864.96" y1="369.92" x2="864.96" y2="394.22" gradientTransform="translate(1.11)" gradientUnits="userSpaceOnUse">
      <stop offset="0" stop-color="#ad1a27"/>
      <stop offset="0.08" stop-color="#9e151f"/>
      <stop offset="0.28" stop-color="#7d090e"/>
      <stop offset="0.44" stop-color="#680304"/>
      <stop offset="0.56" stop-color="#610000"/>
      <stop offset="0.73" stop-color="#520000"/>
      <stop offset="1" stop-color="#3f0000"/>
    </linearGradient>
    <linearGradient id="linear-gradient-3" x1="68.42" y1="382.43" x2="84.49" y2="382.43" gradientTransform="matrix(-1, 0, 0, 1, 971.64, 0)" gradientUnits="userSpaceOnUse">
      <stop offset="0" stop-color="#be1349"/>
      <stop offset="0.24" stop-color="#be124e"/>
      <stop offset="0.25" stop-color="#be124e"/>
      <stop offset="1" stop-color="#7a0025"/>
    </linearGradient>
    <linearGradient id="linear-gradient-4" x1="63.54" y1="390.51" x2="84.56" y2="390.51" gradientTransform="matrix(-1, 0, 0, 1, 971.64, 0)" gradientUnits="userSpaceOnUse">
      <stop offset="0" stop-color="#282881"/>
      <stop offset="0.27" stop-color="#26257d"/>
      <stop offset="0.55" stop-color="#1f1b70"/>
      <stop offset="0.84" stop-color="#150c5b"/>
      <stop offset="1" stop-color="#0d004c"/>
    </linearGradient>
    <linearGradient id="linear-gradient-5" x1="68.51" y1="390.51" x2="84.49" y2="390.51" xlink:href="#linear-gradient-3"/>
    <linearGradient id="linear-gradient-6" x1="71.75" y1="382.36" x2="91.83" y2="382.36" xlink:href="#linear-gradient-4"/>
    <linearGradient id="linear-gradient-7" x1="880.29" y1="389.7" x2="880.29" y2="378.2" gradientTransform="translate(1.11)" gradientUnits="userSpaceOnUse">
      <stop offset="0" stop-color="#ed2d24"/>
      <stop offset="0.12" stop-color="#ed2824"/>
      <stop offset="0.25" stop-color="#ec1c24"/>
      <stop offset="1" stop-color="#74020d"/>
    </linearGradient>
    <linearGradient id="_ÂÁ_Ï_ÌÌ_È_ËÂÌÚ_14" data-name="¡ÂÁ˚ÏˇÌÌ˚È „‡‰ËÂÌÚ 14" x1="5144.69" y1="547.95" x2="5213.02" y2="547.95" gradientTransform="matrix(-1, -0.05, -0.05, 1, 6086.16, 13.43)" gradientUnits="userSpaceOnUse">
      <stop offset="0" stop-color="#003a6b"/>
      <stop offset="1" stop-color="#00204c"/>
    </linearGradient>
    <linearGradient id="_ÂÁ_Ï_ÌÌ_È_ËÂÌÚ_18" data-name="¡ÂÁ˚ÏˇÌÌ˚È „‡‰ËÂÌÚ 18" x1="5209.2" y1="271.65" x2="5243.82" y2="329.98" gradientTransform="matrix(-1, 0, 0, 1, 6110.81, 0)" gradientUnits="userSpaceOnUse">
      <stop offset="0" stop-color="#cbd7e1"/>
      <stop offset="0.05" stop-color="#aec0d0"/>
      <stop offset="0.15" stop-color="#7998b2"/>
      <stop offset="0.26" stop-color="#4e7698"/>
      <stop offset="0.35" stop-color="#2c5c85"/>
      <stop offset="0.44" stop-color="#144976"/>
      <stop offset="0.53" stop-color="#053e6e"/>
      <stop offset="0.6" stop-color="#003a6b"/>
      <stop offset="1" stop-color="#00204c"/>
    </linearGradient>
    <radialGradient id="radial-gradient" cx="4053.28" cy="611.07" r="13" gradientTransform="matrix(-0.74, 0.02, 0.02, 0.82, 3947.45, -206.49)" gradientUnits="userSpaceOnUse">
      <stop offset="0" stop-color="#00ddde" stop-opacity="0.52"/>
      <stop offset="0.09" stop-color="#2de6e7" stop-opacity="0.65"/>
      <stop offset="0.2" stop-color="#63f1f1" stop-opacity="0.8"/>
      <stop offset="0.3" stop-color="#8af8f9" stop-opacity="0.91"/>
      <stop offset="0.38" stop-color="#a2fdfd" stop-opacity="0.98"/>
      <stop offset="0.43" stop-color="#abffff"/>
      <stop offset="0.46" stop-color="#9ffcfd"/>
      <stop offset="0.51" stop-color="#7ff6f6"/>
      <stop offset="0.58" stop-color="#4aebeb"/>
      <stop offset="0.66" stop-color="#03dcdd"/>
      <stop offset="0.66" stop-color="#00dbdc"/>
      <stop offset="0.69" stop-color="#08dcdd" stop-opacity="0.97"/>
      <stop offset="0.74" stop-color="#1fdfe0" stop-opacity="0.88"/>
      <stop offset="0.8" stop-color="#44e5e5" stop-opacity="0.73"/>
      <stop offset="0.87" stop-color="#78eced" stop-opacity="0.53"/>
      <stop offset="0.94" stop-color="#baf5f6" stop-opacity="0.27"/>
      <stop offset="1" stop-color="#fff" stop-opacity="0"/>
    </radialGradient>
  </defs>
  <title>robot</title>
  <g class="cls-1">
    <g id="robot">
      <g id="fondo">
        <rect class="cls-2" width="1024" height="620"/>
      </g>
      <g id="sombra">
        <ellipse class="cls-3" cx="890.69" cy="510.42" rx="49.25" ry="11.06"/>
        <path class="cls-4" d="M851.83,510.92c0,3.88,17.18,7,38.36,7s38.37-3.15,38.37-7-17.18-7-38.37-7S851.83,507,851.83,510.92Z" transform="translate(0.5 -0.5)"/>
        <path class="cls-4" d="M867.09,510.92c0,2.34,10.35,4.23,23.1,4.23s23.1-1.89,23.1-4.23-10.34-4.23-23.1-4.23S867.09,508.58,867.09,510.92Z" transform="translate(0.5 -0.5)"/>
      </g>
      <g id="brazoIzquierdo">
        <g>
          <path class="cls-5" d="M814.59,404.65c7.2-34.21,21.16-48.8,24.44-51.83a2.79,2.79,0,0,1,1.75-.76c2.43-.16,8.7.47,14.87,9.57,4.25,6.29,2.77,16.45,2.39,16.94-4,5.13-29.12,37.43-35.8,48.49C815,439.09,811.52,419.27,814.59,404.65Z" transform="translate(0.5 -0.5)"/>
          <path class="cls-6" d="M855.68,361.67a28.21,28.21,0,0,0-5.85-6.5c.67.81,1.33,1.69,2,2.68,5.37,7.93,2.79,13.3.9,17C846,388,826.79,412.38,821.85,427.77l.43-.67c6.67-11.06,31.8-43.37,35.8-48.49C858.46,378.11,859.94,368,855.68,361.67Z" transform="translate(0.5 -0.5)"/>
          <path class="cls-7" d="M836.1,364.85c-16.1,11.59-20.79,52.81-20.79,52.81s10.65-28.37,18.74-40.21S841.6,360.89,836.1,364.85Z" transform="translate(0.5 -0.5)"/>
          <path class="cls-6" d="M826.26,420.43a44.45,44.45,0,0,0-.19,5.95c.07.54,2.7,3.18,2.73,2.9.2-2.49,2.44-15.42,4.82-18.71C834.47,409.41,826.35,418,826.26,420.43Z" transform="translate(0.5 -0.5)"/>
          <path class="cls-8" d="M833.91,411a.41.41,0,0,1-.32-.23c-3-6.56-10.3-12.08-17.83-9.39a.4.4,0,0,1-.51-.24.41.41,0,0,1,.24-.51c8-2.84,15.65,2.93,18.83,9.8a.4.4,0,0,1-.2.53A.52.52,0,0,1,833.91,411Z" transform="translate(0.5 -0.5)"/>
        </g>
        <path class="cls-9" d="M838.46,368c.92,10.68,5.4,19,10,18.62s7.57-9.38,6.64-20.06-5.39-18.87-10-18.63C838.45,348.31,837.53,357.35,838.46,368Z" transform="translate(0.5 -0.5)"/>
      </g>
      <g id="torso">
        <path class="cls-5" d="M940.73,343.37c4.77-.31,21.58,16.56,16.52,32.93s-33.72,71-40.21,90.11S906.66,490.24,897.43,492s-23.18,2.37-39.35-31.39-18.65-71.68-19.39-89.7,1.15-25.16,7.45-27.22C860.82,338.88,940.73,343.37,940.73,343.37Z" transform="translate(0.5 -0.5)"/>
        <path class="cls-7" d="M864.61,456.61c-12.54-35.51-11-73.69-9.87-91.78.78-12,2.2-19.12,5-22.93,13.35-.75,32.86-.42,49.39.11-8.84,23.32-21.91,62.58-24.08,103-1.45,27,2.28,40.17,7.44,46.92C884,490.29,873.93,483,864.61,456.61Z" transform="translate(0.5 -0.5)"/>
        <path class="cls-10" d="M844.74,345.17c0,3.5,24.73,8.94,49.68,9s49.7-5.31,49.7-8.81-24.73-3.82-49.68-3.86S844.74,341.67,844.74,345.17Z" transform="translate(0.5 -0.5)"/>
        <path class="cls-11" d="M859.82,345.89c0,2.42,17,6.18,34.22,6.21s34.24-3.68,34.24-6.1-17-2.64-34.22-2.67S859.83,343.47,859.82,345.89Z" transform="translate(0.5 -0.5)"/>
        <path class="cls-12" d="M870.28,347.14c0,.93,11.75,2.1,23.2,2.12s22.41-1.11,22.41-2-11-1.29-22.41-1.31S870.28,346.22,870.28,347.14Z" transform="translate(0.5 -0.5)"/>
        <path class="cls-13" d="M906.77,470.37c2.66-14.32,6.61-61.13,16-94.16,4.71-16.56,15.81-28.24,26.56-24.54,7.63,2.63,10.64,15.78,7.9,24.63-5.06,16.36-33.72,71-40.21,90.11S906.66,490.24,897.43,492c-4.75.89-10.76,1.48-17.67-2.76C889.11,490.69,902.38,494.07,906.77,470.37Z" transform="translate(0.5 -0.5)"/>
        <path class="cls-14" d="M873.75,477.34a17.08,17.08,0,0,0,5.68.93,26.41,26.41,0,0,0,6.37-.46,2.56,2.56,0,0,0,2.22-2.37h0a2.3,2.3,0,0,0-2.23-2.35s-4.89.54-6.09.53a44,44,0,0,1-6.17-.58c-1.23,0-2.38.36-2,2.12A3.08,3.08,0,0,0,873.75,477.34Z" transform="translate(0.5 -0.5)"/>
        <path class="cls-15" d="M874.53,477.07a17.41,17.41,0,0,0,4.92.67,28,28,0,0,0,5.5-.33c1-.22,1.92-.76,1.92-1.69h0a1.83,1.83,0,0,0-1.93-1.68s-4.23.39-5.26.38a43.49,43.49,0,0,1-5.34-.41c-1.06,0-2.05.26-1.73,1.51C872.76,476.1,873.25,476.68,874.53,477.07Z" transform="translate(0.5 -0.5)"/>
        <path class="cls-8" d="M880.81,466.54c11.24,0,25-2.44,39.89-8.55a.39.39,0,0,0-.3-.73c-27.71,11.38-51.54,9.94-62,3.78a.4.4,0,0,0-.55.14.39.39,0,0,0,.14.54C863,464.65,870.91,466.54,880.81,466.54Z" transform="translate(0.5 -0.5)"/>
        <path class="cls-16" d="M881.1,465.65c11.24,0,25-2.44,39.89-8.55a.4.4,0,0,0,.22-.52.4.4,0,0,0-.52-.21c-27.7,11.38-51.54,9.94-62,3.78a.38.38,0,0,0-.54.14.39.39,0,0,0,.14.54C863.28,463.76,871.21,465.65,881.1,465.65Z" transform="translate(0.5 -0.5)"/>
        <path class="cls-7" d="M840.79,352.6c-2.13,43.28,4.11,63.77,4.11,63.77s-6-32.71-.46-64.32C845.19,347.72,841.12,345.84,840.79,352.6Z" transform="translate(0.5 -0.5)"/>
        <path class="cls-16" d="M940.31,349.58s-4.92,3-22.93,4.63-41.72,1.36-41.72,1.36,21.85,2.89,41.8.74S940.31,349.58,940.31,349.58Z" transform="translate(0.5 -0.5)"/>
        <path class="cls-17" d="M876.8,474.28c.87.08,1.88.14,2.88.14s5.26-.38,5.26-.38a2.58,2.58,0,0,1,.4,0l-1.94,3.54a38.11,38.11,0,0,1-3.95.12,17.85,17.85,0,0,1-4.58-.58Z" transform="translate(0.5 -0.5)"/>
        <g>
          <path class="cls-18" d="M864.43,382.26A15.3,15.3,0,0,1,874,368.09c.58.05,1.15.12,1.71.22a14.08,14.08,0,0,1,11.7,13.41c0,.15,0,.31,0,.46v.16h0a8.72,8.72,0,0,0-11.57-8.23c.86-.31.83-.31,0,0a8.26,8.26,0,0,0-2.94-.52,8.36,8.36,0,0,0-8.33,8.64v.08a8.22,8.22,0,0,0,8.25,8.56,8.47,8.47,0,0,0,2.69-.44,8.7,8.7,0,0,0,12-7.95,14,14,0,0,1-11.62,13.7c-.58.1-1.18.17-1.78.22A15.29,15.29,0,0,1,864.43,382.26Z" transform="translate(0.5 -0.5)"/>
          <path class="cls-19" d="M869.94,382.36a8.71,8.71,0,0,0,5.49,8.1,8.47,8.47,0,0,1-2.69.44,8.22,8.22,0,0,1-8.25-8.56v-.08a8.36,8.36,0,0,1,8.33-8.64,8.26,8.26,0,0,1,2.94.52c.88-.33.91-.33,0,0A8.71,8.71,0,0,0,869.94,382.36Z" transform="translate(0.5 -0.5)"/>
          <path class="cls-20" d="M872.74,368c.41,0,.82,0,1.22,0a15.29,15.29,0,0,0,0,28.34c-.39,0-.77,0-1.16,0-8.48,0-14.65-6.4-14.65-14.21v-.08C858.17,374.37,864.26,368,872.74,368Z" transform="translate(0.5 -0.5)"/>
          <path class="cls-21" d="M887.38,382.36v0Z" transform="translate(0.5 -0.5)"/>
          <path class="cls-22" d="M875.66,390.38Z" transform="translate(0.5 -0.5)"/>
          <path class="cls-23" d="M875.66,390.38Z" transform="translate(0.5 -0.5)"/>
          <path class="cls-24" d="M878.66,391.09a8.68,8.68,0,0,1-3.23-.63l.23-.08h0a8.49,8.49,0,0,0,5.62-8.12v-.08a8.35,8.35,0,0,0-5.52-8l0,0a8.72,8.72,0,0,1,11.57,8.23v.16A8.72,8.72,0,0,1,878.66,391.09Z" transform="translate(0.5 -0.5)"/>
          <path class="cls-25" d="M878.66,391.09a8.68,8.68,0,0,1-3.23-.63l.23-.08h0a8.49,8.49,0,0,0,5.62-8.12v-.08a8.35,8.35,0,0,0-5.52-8l0,0a8.72,8.72,0,0,1,11.57,8.23v.16A8.72,8.72,0,0,1,878.66,391.09Z" transform="translate(0.5 -0.5)"/>
        </g>
      </g>
      <g id="cabeza">
        <g>
          <path class="cls-5" d="M936.94,330.06c-11.35,14.62-46.11,11.83-55.79,10.91s-26.09-2.62-32-20.44-2.95-45,13.29-59.16,59.73-11.83,74.5,7.22S940.88,325,936.94,330.06Z" transform="translate(0.5 -0.5)"/>
          <path class="cls-16" d="M933.94,272.48c-.65-.23-14.07-10.66-38.37-12.75-8.36-.71-21.4,0-29.77,1.16.83-.88,12.85-7.82,37.64-5.24A48.93,48.93,0,0,1,933.94,272.48Z" transform="translate(0.5 -0.5)"/>
          <path class="cls-7" d="M889.76,268.16c7.82.13,15.66.68,23,3.48l.17.07c-7.66,16.21-8.29,37.34-3.8,52.44a31.69,31.69,0,0,0,6.51,12.24c-13.52,2.39-28.65,1.15-34.53.59-6.4-.61-15.75-1.56-23-7.29a36.13,36.13,0,0,1-2.12-5.54c-4.54-15.3-3.84-36.78,4.11-53.07A125.76,125.76,0,0,1,889.76,268.16Z" transform="translate(0.5 -0.5)"/>
          <path class="cls-26" d="M918.05,282.56c-4.51-6.14-16.8-7.74-32.21-8.66-19.87-1.18-26.59,2.41-28.62,4.71s-5.55,13.71-4.8,24.8.88,14.43,5.45,17.19,17.74,5.46,26.26,5.66c16.13.4,24.26-.39,29.66-3.56,2.76-1.62,6.26-10.34,6.81-21.1S920.38,285.74,918.05,282.56Z" transform="translate(0.5 -0.5)"/>
          <path class="cls-27" d="M886.4,275.61c9.57.56,17.88,1.39,23.73,3.45-5.12,14.2-5.15,31.05-1.35,43.51,0,.14.09.28.14.42-5.11,1.48-12.43,1.83-24.17,1.55-8.17-.19-20.81-2.72-25.19-5.29a7.81,7.81,0,0,1-3.43-3.58,74.22,74.22,0,0,1,2.53-35.29,3,3,0,0,1,.28-.37C860.89,277.87,867.33,274.51,886.4,275.61Z" transform="translate(0.5 -0.5)"/>
          <path class="cls-9" d="M928.49,292.75c.27,6,3.64,10.77,7.52,10.6s6.82-5.2,6.55-11.22-3.63-10.77-7.52-10.6S928.23,286.73,928.49,292.75Z" transform="translate(0.5 -0.5)"/>
          <path class="cls-28" d="M931.57,292.3c.19,4.23,2.25,7.57,4.6,7.47s4.11-3.62,3.93-7.85-2.25-7.57-4.61-7.47S931.38,288.07,931.57,292.3Z" transform="translate(0.5 -0.5)"/>
          <path class="cls-29" d="M939.22,303.6h.22c4.1-.18,7.2-5.4,6.93-11.63s-3.85-11.16-7.94-11c-2,.09-3.85,1.37-5.15,3.61a14.72,14.72,0,0,0-1.77,8l.39,0-.39,0C931.78,298.74,935.22,303.6,939.22,303.6Zm-.56-21.83c3.58,0,6.66,4.53,6.91,10.22s-2.51,10.65-6.17,10.81-6.84-4.42-7.1-10.22A14.06,14.06,0,0,1,934,285c1.16-2,2.76-3.14,4.5-3.22Z" transform="translate(0.5 -0.5)"/>
          <path class="cls-7" d="M939,306.72l-2.85.1s-1.22,11.84-4.63,18.79-8.26,9.18-8.26,9.18,7.3-2.36,11.67-11.38C938,316.92,939,306.72,939,306.72Z" transform="translate(0.5 -0.5)"/>
          <path class="cls-30" d="M915.37,283.46v0a1.5,1.5,0,0,1-2.17.51c-1.39-.95-3.5-2.36-4.72-3-1.91-1.05-11.41-4.55-11.41-4.55s9.52.19,17.59,4.58A1.8,1.8,0,0,1,915.37,283.46Z" transform="translate(0.5 -0.5)"/>
        </g>
        <path class="cls-31" d="M922.82,291.36c0,1.87.87,3.39,1.95,3.39s1.94-1.52,1.94-3.39-.87-3.38-1.94-3.38S922.82,289.5,922.82,291.36Z" transform="translate(0.5 -0.5)"/>
      </g>
      <g id="ojos">
        <g>
          <rect class="cls-32" x="886.06" y="286.77" width="13.71" height="17.91" rx="3.93" transform="translate(1786.32 590.95) rotate(-180)"/>
          <rect class="cls-32" x="887.5" y="288.7" width="10.83" height="14.06" rx="3.93" transform="translate(1786.32 590.95) rotate(-180)"/>
          <rect class="cls-33" x="888.99" y="290.5" width="7.52" height="10.94" rx="2.44" transform="translate(1785.99 591.44) rotate(-180)"/>
          <path class="cls-34" d="M889.79,294.72H896a.3.3,0,0,0,.3-.3.29.29,0,0,0-.3-.3h-6.17a.29.29,0,0,0-.3.3A.3.3,0,0,0,889.79,294.72Z" transform="translate(0.5 -0.5)"/>
          <path class="cls-34" d="M889.79,296H896a.29.29,0,0,0,.3-.3.3.3,0,0,0-.3-.3h-6.17a.3.3,0,0,0-.3.3A.29.29,0,0,0,889.79,296Z" transform="translate(0.5 -0.5)"/>
          <path class="cls-34" d="M889.79,297.37H896a.3.3,0,1,0,0-.59h-6.17a.3.3,0,1,0,0,.59Z" transform="translate(0.5 -0.5)"/>
          <path class="cls-34" d="M890.58,292.22h4.59a.3.3,0,0,0,.3-.3.29.29,0,0,0-.3-.3h-4.59a.29.29,0,0,0-.3.3A.3.3,0,0,0,890.58,292.22Z" transform="translate(0.5 -0.5)"/>
          <path class="cls-34" d="M889.79,293.57H896a.29.29,0,0,0,.3-.3.3.3,0,0,0-.3-.3h-6.17a.3.3,0,0,0-.3.3A.29.29,0,0,0,889.79,293.57Z" transform="translate(0.5 -0.5)"/>
          <path class="cls-34" d="M889.79,299H896a.29.29,0,0,0,.3-.3.3.3,0,0,0-.3-.3h-6.17a.3.3,0,0,0-.3.3A.29.29,0,0,0,889.79,299Z" transform="translate(0.5 -0.5)"/>
          <path class="cls-34" d="M889.79,300.29H896a.3.3,0,0,0,.3-.3.29.29,0,0,0-.3-.3h-6.17a.29.29,0,0,0-.3.3A.3.3,0,0,0,889.79,300.29Z" transform="translate(0.5 -0.5)"/>
        </g>
        <g>
          <rect class="cls-32" x="861.44" y="286.45" width="13.71" height="17.91" rx="3.93" transform="translate(1737.1 590.3) rotate(-180)"/>
          <rect class="cls-32" x="862.88" y="288.37" width="10.83" height="14.06" rx="3.93" transform="translate(1737.1 590.3) rotate(-180)"/>
          <rect class="cls-33" x="864.37" y="290.18" width="7.52" height="10.94" rx="2.44" transform="translate(1736.76 590.8) rotate(-180)"/>
          <path class="cls-34" d="M865.17,294.39h6.18a.3.3,0,1,0,0-.59h-6.18a.3.3,0,0,0,0,.59Z" transform="translate(0.5 -0.5)"/>
          <path class="cls-34" d="M865.17,295.7h6.18a.31.31,0,0,0,.3-.3.3.3,0,0,0-.3-.3h-6.18a.29.29,0,0,0-.29.3A.3.3,0,0,0,865.17,295.7Z" transform="translate(0.5 -0.5)"/>
          <path class="cls-34" d="M865.17,297.05h6.18a.3.3,0,0,0,.3-.3.31.31,0,0,0-.3-.3h-6.18a.3.3,0,0,0-.29.3A.29.29,0,0,0,865.17,297.05Z" transform="translate(0.5 -0.5)"/>
          <path class="cls-34" d="M866,291.89h4.6a.3.3,0,1,0,0-.59H866a.3.3,0,1,0,0,.59Z" transform="translate(0.5 -0.5)"/>
          <path class="cls-34" d="M865.17,293.25h6.18a.31.31,0,0,0,.3-.3.3.3,0,0,0-.3-.3h-6.18a.29.29,0,0,0-.29.3A.3.3,0,0,0,865.17,293.25Z" transform="translate(0.5 -0.5)"/>
          <path class="cls-34" d="M865.17,298.66h6.18a.31.31,0,0,0,.3-.3.3.3,0,0,0-.3-.3h-6.18a.29.29,0,0,0-.29.3A.3.3,0,0,0,865.17,298.66Z" transform="translate(0.5 -0.5)"/>
          <path class="cls-34" d="M865.17,300h6.18a.3.3,0,0,0,.3-.3.31.31,0,0,0-.3-.3h-6.18a.3.3,0,0,0-.29.3A.29.29,0,0,0,865.17,300Z" transform="translate(0.5 -0.5)"/>
        </g>
      </g>
      <path id="boca" class="cls-35" d="M890.06,313.86c-6.19.79-17.28,1.4-17.28,1.4s9.81,1,16.21-.11S896.71,313,890.06,313.86Z" transform="translate(0.5 -0.5)"/>
      <g id="brazoDerecho">
        <path class="cls-36" d="M930.66,375.6c-3.43,11.94-.71,23.2,6.07,25.15s15-6.16,18.48-18.1.71-23.21-6.06-25.15S934.09,363.65,930.66,375.6Z" transform="translate(0.5 -0.5)"/>
        <path class="cls-29" d="M938.9,397.8a.43.43,0,0,0,.44-.41.42.42,0,0,0-.4-.45,5,5,0,0,1-4-2.79c-2.81-4.84-2.27-14,1.27-21.26,4.22-8.7,11-12.17,14.82-10.39a.44.44,0,0,0,.57-.21.44.44,0,0,0-.21-.58c-4.83-2.22-12,2.62-16,10.8-3.65,7.52-4.18,17-1.23,22.07a5.85,5.85,0,0,0,4.67,3.22Z" transform="translate(0.5 -0.5)"/>
        <g>
          <path class="cls-5" d="M976,420.15c-2.85-34.85-14.87-51.08-17.74-54.49a2.85,2.85,0,0,0-1.64-1c-2.39-.46-8.7-.62-16,7.64-5,5.7-4.82,16-4.5,16.5,3.32,5.59,24.2,40.79,29.43,52.6C971.3,454.26,977.23,435,976,420.15Z" transform="translate(0.5 -0.5)"/>
          <path class="cls-6" d="M940.64,372.35a28.19,28.19,0,0,1,6.61-5.71c-.75.71-1.53,1.5-2.31,2.4-6.33,7.19-4.44,12.85-3,16.73,5.05,13.9,21,40.51,24,56.4-.11-.23-.23-.47-.34-.72-5.24-11.81-26.11-47-29.43-52.6C935.82,388.31,935.62,378.05,940.64,372.35Z" transform="translate(0.5 -0.5)"/>
          <path class="cls-7" d="M959.66,378c14.52,13.52,14,55,14,55s-7-29.48-13.54-42.24S954.71,373.34,959.66,378Z" transform="translate(0.5 -0.5)"/>
          <path class="cls-6" d="M962.46,434.34a46.62,46.62,0,0,1-.56,5.92c-.14.53-3.08,2.82-3.07,2.53.11-2.49-.49-15.6-2.44-19.16C955.69,422.38,962.67,432,962.46,434.34Z" transform="translate(0.5 -0.5)"/>
          <path class="cls-8" d="M956.05,424a.39.39,0,0,0,.34-.19c3.83-6.13,11.74-10.69,18.87-7.08a.4.4,0,1,0,.36-.71c-7.55-3.82-15.89.94-19.9,7.37a.4.4,0,0,0,.12.55A.42.42,0,0,0,956.05,424Z" transform="translate(0.5 -0.5)"/>
        </g>
        <g>
          <path class="cls-37" d="M951.24,387.83c.17,5.9,4.63,10.56,10,10.39s9.49-5.08,9.31-11-4.64-10.56-10-10.4S951.06,381.92,951.24,387.83Z" transform="translate(0.5 -0.5)"/>
          <g>
            <path class="cls-38" d="M967.46,388.45c.13,2-1,4.06-2.13,5.64a20.14,20.14,0,0,1-2.31,2.67s-6.15-1.57-7.84-5.1c-.35-.74-2-5.36-2-5.36s-.48-1.12.42-1.63a28.87,28.87,0,0,0,3.12-1.76,9.26,9.26,0,0,1,2.07-1.34c.59-.21.85-.09,1.93,0a32.89,32.89,0,0,0,3.67-.09c1.08,0,1.21,1.21,1.21,1.21S967.4,387.61,967.46,388.45Z" transform="translate(0.5 -0.5)"/>
            <path class="cls-39" d="M964.43,381.47a32.89,32.89,0,0,1-3.67.09c-1.08-.08-1.34-.2-1.92,0a9,9,0,0,0-2.08,1.34,28.87,28.87,0,0,1-3.12,1.76c-.9.51-.42,1.63-.42,1.63s1.61,4.62,2,5.36c1.69,3.52,7.83,5.1,7.83,5.1h0s4.7-4.34,4.44-8.31c-.06-.84-1.82-5.77-1.82-5.77S965.51,381.44,964.43,381.47Zm.32,1.27a37.09,37.09,0,0,1,1.48,5.59c.11,1.71-1,3.84-1.91,5.12a17.83,17.83,0,0,1-1.65,2,17.56,17.56,0,0,1-2.38-.94c-1.42-.68-3.27-1.8-4-3.34-.24-.5-1.31-3.49-1.93-5.26l0-.06a1,1,0,0,1-.05-.23l.78-.4a18.4,18.4,0,0,0,2.4-1.4c.93-.67,1.53-1.66,3.47-1.28a11.07,11.07,0,0,0,2.83,0l.9,0S964.75,382.71,964.75,382.74Z" transform="translate(0.5 -0.5)"/>
            <path class="cls-40" d="M965.64,382.68s-.13-1.24-1.21-1.21a32.82,32.82,0,0,1-3.67.09c-1.08-.08-1.34-.2-1.93,0a8.91,8.91,0,0,0-2.07,1.34,28.87,28.87,0,0,1-3.12,1.76,1.05,1.05,0,0,0-.49.59l.08-.05a28.34,28.34,0,0,0,3.12-1.77,8.78,8.78,0,0,1,2.07-1.33c.59-.22.85-.1,1.93,0A32.7,32.7,0,0,0,964,382c1.08,0,1.21,1.22,1.21,1.22s1.77,4.93,1.83,5.76c.13,2.06-1.07,4.23-2.26,5.83,1.3-1.63,2.82-4.06,2.67-6.36C967.4,387.61,965.64,382.68,965.64,382.68Z" transform="translate(0.5 -0.5)"/>
            <path class="cls-39" d="M961.33,388.55a.36.36,0,0,1-.09.36l.08.29a.08.08,0,0,1-.06.1l-.23.06a.08.08,0,0,1-.1-.05l-.08-.29a.41.41,0,0,1-.26-.27.4.4,0,0,1,.27-.48A.39.39,0,0,1,961.33,388.55Z" transform="translate(0.5 -0.5)"/>
            <path class="cls-39" d="M961.33,386.58l.15.56-1.7.45-.15-.56a.88.88,0,1,1,1.7-.45Z" transform="translate(0.5 -0.5)"/>
            <path class="cls-39" d="M963.4,383.15a18.15,18.15,0,0,1-2.58,0,2.37,2.37,0,0,0-1.28.1h0a5.64,5.64,0,0,0-.62.34c-.28.17-.62.4-1,.68a18.27,18.27,0,0,1-2.19,1.28c-.64.37-.28,1.21-.28,1.21s1.19,3.46,1.44,4c1.24,2.64,5.6,3.87,5.6,3.87h0s3.29-3.4,3.06-6.35c0-.62-1.12-4.26-1.12-4.26S964.15,383.14,963.4,383.15Zm0,6.33a.47.47,0,0,1-.34.59l-3.28.87a.49.49,0,0,1-.58-.35l-.58-2.2a.48.48,0,0,1,.34-.59l.12,0-.15-.57a1.57,1.57,0,1,1,3-.8l.15.57.13,0a.49.49,0,0,1,.58.35Z" transform="translate(0.5 -0.5)"/>
            <path class="cls-40" d="M964.41,384.05s-.26-.91-1-.9a19.61,19.61,0,0,1-2.57,0,2.37,2.37,0,0,0-1.28.1h0a5.64,5.64,0,0,0-.62.34c-.28.17-.62.4-1,.68a18.27,18.27,0,0,1-2.19,1.28.72.72,0,0,0-.36.5,16.56,16.56,0,0,0,2.14-1.24,10.54,10.54,0,0,1,1-.68,3.82,3.82,0,0,1,.62-.34h0a2.42,2.42,0,0,1,1.27-.1,19.89,19.89,0,0,0,2.58,0c.76,0,1,.9,1,.9s1.07,3.63,1.12,4.25c.14,1.83-1.08,3.84-2,5.1.94-1.16,2.59-3.51,2.43-5.63C965.48,387.69,964.41,384.05,964.41,384.05Z" transform="translate(0.5 -0.5)"/>
          </g>
        </g>
      </g>
    </g>
  </g>
</svg>
