<svg xmlns="http://www.w3.org/2000/svg" xmlns:xlink="http://www.w3.org/1999/xlink" width="1024" height="620" viewBox="0 0 1024 620">
  <defs>
    <style>
      .cls-1 {
        isolation: isolate;
      }

      .cls-2 {
        fill: none;
      }

      .cls-3 {
        fill: #e3ebfc;
      }

      .cls-4 {
        fill: #ccddfa;
      }

      .cls-5 {
        fill: #fafbff;
      }

      .cls-6 {
        fill: #80a7f6;
      }

      .cls-7 {
        fill: #9fbcfb;
      }

      .cls-8 {
        fill: #e2eafb;
      }

      .cls-9 {
        fill: #f9faff;
      }

      .cls-10 {
        fill: #b7cff8;
      }

      .cls-11, .cls-31, .cls-33 {
        fill: #207bff;
      }

      .cls-11, .cls-39 {
        opacity: 0.4;
      }

      .cls-12 {
        fill: #004bff;
        opacity: 0.5;
        mix-blend-mode: multiply;
      }

      .cls-13 {
        fill: #c4d7f9;
      }

      .cls-14 {
        fill: url(#_ÂÁ_Ï_ÌÌ_È_ËÂÌÚ_30);
      }

      .cls-15 {
        fill: #4aeaff;
      }

      .cls-16 {
        fill: #80a6f5;
      }

      .cls-17, .cls-32 {
        fill: #fff;
      }

      .cls-18 {
        fill: #bdf8ff;
      }

      .cls-19 {
        fill: url(#linear-gradient);
      }

      .cls-20 {
        fill: #eb1c24;
      }

      .cls-21 {
        fill: url(#linear-gradient-2);
      }

      .cls-22 {
        fill: url(#linear-gradient-3);
      }

      .cls-23 {
        fill: url(#linear-gradient-4);
      }

      .cls-24 {
        fill: url(#linear-gradient-5);
      }

      .cls-25 {
        fill: url(#linear-gradient-6);
      }

      .cls-26 {
        fill: url(#linear-gradient-7);
      }

      .cls-27 {
        fill: url(#_ÂÁ_Ï_ÌÌ_È_ËÂÌÚ_14);
      }

      .cls-28 {
        fill: url(#_ÂÁ_Ï_ÌÌ_È_ËÂÌÚ_18);
      }

      .cls-29 {
        fill: #9ebbfa;
      }

      .cls-30 {
        fill: #4880f7;
      }

      .cls-32 {
        opacity: 0.8;
      }

      .cls-33 {
        opacity: 0.72;
      }

      .cls-34, .cls-35, .cls-36, .cls-37 {
        fill: #3ae5fa;
      }

      .cls-34, .cls-43 {
        opacity: 0.1;
      }

      .cls-35 {
        opacity: 0.3;
      }

      .cls-37 {
        opacity: 0.7;
      }

      .cls-38 {
        fill: #93b4fb;
      }

      .cls-39 {
        mix-blend-mode: lighten;
        fill: url(#radial-gradient);
      }

      .cls-40 {
        fill: #00ffda;
      }

      .cls-41 {
        fill: #7fd1ca;
      }

      .cls-42 {
        fill: #1e1e1e;
      }

      .cls-43, .cls-44 {
        fill: #51b1fa;
      }

      .cls-44 {
        opacity: 0.2;
      }
    </style>
    <radialGradient id="_ÂÁ_Ï_ÌÌ_È_ËÂÌÚ_30" data-name="¡ÂÁ˚ÏˇÌÌ˚È „‡‰ËÂÌÚ 30" cx="3043.42" cy="487.4" r="5.88" gradientTransform="translate(-2725.08 32.69) scale(0.95 0.94)" gradientUnits="userSpaceOnUse">
      <stop offset="0" stop-color="#4aeaff"/>
      <stop offset="1" stop-color="#00709d"/>
    </radialGradient>
    <linearGradient id="linear-gradient" x1="1544.09" y1="393.28" x2="1544.09" y2="423.68" gradientTransform="matrix(-1, 0, 0, 1, 1705.34, 0)" gradientUnits="userSpaceOnUse">
      <stop offset="0.02" stop-color="#dc2a21"/>
      <stop offset="0.06" stop-color="#c7201b"/>
      <stop offset="0.1" stop-color="#b61717"/>
      <stop offset="0.15" stop-color="#ab1113"/>
      <stop offset="0.22" stop-color="#a40e12"/>
      <stop offset="0.43" stop-color="#a20d11"/>
      <stop offset="0.79" stop-color="#6b0006"/>
    </linearGradient>
    <linearGradient id="linear-gradient-2" x1="1535.17" y1="394.63" x2="1535.17" y2="416.46" gradientTransform="matrix(-1, 0, 0, 1, 1705.34, 0)" gradientUnits="userSpaceOnUse">
      <stop offset="0" stop-color="#ac1a27"/>
      <stop offset="0.08" stop-color="#9e151f"/>
      <stop offset="0.28" stop-color="#7d0a0e"/>
      <stop offset="0.44" stop-color="#680304"/>
      <stop offset="0.56" stop-color="#610000"/>
      <stop offset="0.73" stop-color="#520000"/>
      <stop offset="1" stop-color="#3f0000"/>
    </linearGradient>
    <linearGradient id="linear-gradient-3" x1="-597.96" y1="405.87" x2="-583.77" y2="405.87" gradientTransform="translate(734.8)" gradientUnits="userSpaceOnUse">
      <stop offset="0" stop-color="#bd1349"/>
      <stop offset="0.24" stop-color="#bd124e"/>
      <stop offset="0.25" stop-color="#bd124e"/>
      <stop offset="1" stop-color="#7a0025"/>
    </linearGradient>
    <linearGradient id="linear-gradient-4" x1="-602.78" y1="413.12" x2="-583.7" y2="413.12" gradientTransform="translate(734.8)" gradientUnits="userSpaceOnUse">
      <stop offset="0" stop-color="#282880"/>
      <stop offset="0.27" stop-color="#26257c"/>
      <stop offset="0.56" stop-color="#1f1b6f"/>
      <stop offset="0.85" stop-color="#140b5a"/>
      <stop offset="1" stop-color="#0d004c"/>
    </linearGradient>
    <linearGradient id="linear-gradient-5" x1="-598.27" y1="413.12" x2="-583.77" y2="413.12" xlink:href="#linear-gradient-3"/>
    <linearGradient id="linear-gradient-6" x1="-595.33" y1="405.81" x2="-577.11" y2="405.81" xlink:href="#linear-gradient-4"/>
    <linearGradient id="linear-gradient-7" x1="1549.08" y1="412.4" x2="1549.08" y2="402.07" gradientTransform="matrix(-1, 0, 0, 1, 1705.34, 0)" gradientUnits="userSpaceOnUse">
      <stop offset="0" stop-color="#ec2d24"/>
      <stop offset="0.12" stop-color="#ec2824"/>
      <stop offset="0.25" stop-color="#eb1c24"/>
      <stop offset="1" stop-color="#74020d"/>
    </linearGradient>
    <linearGradient id="_ÂÁ_Ï_ÌÌ_È_ËÂÌÚ_14" data-name="¡ÂÁ˚ÏˇÌÌ˚È „‡‰ËÂÌÚ 14" x1="2939.36" y1="468.59" x2="3001.36" y2="468.59" gradientTransform="translate(-2838.4 13.43) rotate(-2.88)" gradientUnits="userSpaceOnUse">
      <stop offset="0" stop-color="#003a6b"/>
      <stop offset="1" stop-color="#00204c"/>
    </linearGradient>
    <linearGradient id="_ÂÁ_Ï_ÌÌ_È_ËÂÌÚ_18" data-name="¡ÂÁ˚ÏˇÌÌ˚È „‡‰ËÂÌÚ 18" x1="3001.08" y1="306.28" x2="3032.3" y2="358.89" gradientTransform="translate(-2863.05)" gradientUnits="userSpaceOnUse">
      <stop offset="0" stop-color="#cad6e0"/>
      <stop offset="0.05" stop-color="#aec0d0"/>
      <stop offset="0.15" stop-color="#7998b1"/>
      <stop offset="0.25" stop-color="#4e7698"/>
      <stop offset="0.35" stop-color="#2c5c84"/>
      <stop offset="0.44" stop-color="#144976"/>
      <stop offset="0.53" stop-color="#053e6e"/>
      <stop offset="0.6" stop-color="#003a6b"/>
      <stop offset="1" stop-color="#00204c"/>
    </linearGradient>
    <radialGradient id="radial-gradient" cx="3080.58" cy="653.4" r="13.06" gradientTransform="matrix(0.7, 0.02, -0.02, 0.77, -2060.99, -160.89)" gradientUnits="userSpaceOnUse">
      <stop offset="0" stop-color="#00ddde" stop-opacity="0.52"/>
      <stop offset="0.09" stop-color="#2de6e7" stop-opacity="0.65"/>
      <stop offset="0.2" stop-color="#63f1f1" stop-opacity="0.8"/>
      <stop offset="0.3" stop-color="#8af8f9" stop-opacity="0.91"/>
      <stop offset="0.38" stop-color="#a2fdfd" stop-opacity="0.98"/>
      <stop offset="0.43" stop-color="#abffff"/>
      <stop offset="0.46" stop-color="#9ffcfd"/>
      <stop offset="0.51" stop-color="#7ff6f6"/>
      <stop offset="0.58" stop-color="#4aebeb"/>
      <stop offset="0.66" stop-color="#03dcdd"/>
      <stop offset="0.66" stop-color="#00dbdc"/>
      <stop offset="0.69" stop-color="#08dcdd" stop-opacity="0.97"/>
      <stop offset="0.74" stop-color="#1fdfe0" stop-opacity="0.88"/>
      <stop offset="0.8" stop-color="#44e5e5" stop-opacity="0.73"/>
      <stop offset="0.87" stop-color="#78eced" stop-opacity="0.53"/>
      <stop offset="0.94" stop-color="#baf5f6" stop-opacity="0.27"/>
      <stop offset="1" stop-color="#fff" stop-opacity="0"/>
    </radialGradient>
  </defs>
  <title>robot</title>
  <g class="cls-1">
    <g id="Robot">
      <g id="fondo">
        <rect class="cls-2" width="1024" height="620"/>
      </g>
      <g id="brazoIzquierdo">
        <g>
          <path class="cls-3" d="M213.93,424.47c-6.85-32.22-20.13-46-23.25-48.81a2.72,2.72,0,0,0-1.66-.72c-2.32-.15-8.29.45-14.15,9-4.05,5.92-2.65,15.49-2.28,15.95,3.81,4.83,27.71,35.25,34.06,45.66C213.56,456.89,216.86,438.23,213.93,424.47Z"/>
          <path class="cls-4" d="M174.83,384a26.89,26.89,0,0,1,5.57-6.12c-.63.76-1.27,1.59-1.9,2.52-5.11,7.47-2.65,12.53-.86,16,6.43,12.4,24.69,35.37,29.38,49.86l-.4-.63c-6.35-10.42-30.26-40.83-34.06-45.66C172.19,399.47,170.78,389.91,174.83,384Z"/>
          <path class="cls-5" d="M193.46,387c15.32,10.92,19.79,49.73,19.79,49.73S203.11,410,195.42,398.85,188.24,383.26,193.46,387Z"/>
          <path class="cls-4" d="M202.83,439.32a42.46,42.46,0,0,1,.18,5.61c-.07.5-2.57,3-2.59,2.72-.2-2.34-2.32-14.52-4.6-17.61C195,429,202.75,437.07,202.83,439.32Z"/>
          <path class="cls-6" d="M195.55,430.43a.4.4,0,0,0,.3-.22c2.88-6.17,9.81-11.37,17-8.84a.37.37,0,1,0,.25-.7c-7.58-2.68-14.89,2.75-17.91,9.23a.38.38,0,0,0,.19.5A.35.35,0,0,0,195.55,430.43Z"/>
        </g>
        <path class="cls-7" d="M191.22,390c-.88,10.06-5.14,17.91-9.51,17.53s-7.2-8.83-6.32-18.89,5.13-17.76,9.51-17.54C191.23,371.41,192.1,379.92,191.22,390Z"/>
      </g>
      <g id="torso">
        <path class="cls-8" d="M102.43,370.79c-4.33-.27-19.59,14.87-15,29.57s30.59,63.75,36.48,80.92,9.42,21.4,17.8,23,21,2.12,35.7-28.19,16.93-64.36,17.59-80.54-1-22.59-6.76-24.44C174.93,366.77,102.43,370.79,102.43,370.79Z"/>
        <path class="cls-9" d="M171.5,472.48c11.37-31.89,10-66.17,8.95-82.41-.7-10.8-2-17.17-4.51-20.59-12.11-.67-29.81-.38-44.81.09,8,20.94,19.87,56.2,21.85,92.53,1.31,24.23-2.07,36.07-6.75,42.13C153.87,502.72,163,496.21,171.5,472.48Z"/>
        <path class="cls-10" d="M189.53,372.42c0,3.14-22.44,8-45.08,8.05s-45.1-4.77-45.1-7.91,22.44-3.43,45.08-3.46S189.52,369.27,189.53,372.42Z"/>
        <path class="cls-11" d="M175.84,373.06c0,2.17-15.46,5.55-31.05,5.57s-31.07-3.3-31.07-5.47,15.46-2.37,31.06-2.4S175.83,370.88,175.84,373.06Z"/>
        <path class="cls-12" d="M166.35,374.19c0,.83-10.66,1.88-21,1.9s-20.33-1-20.33-1.84,9.94-1.16,20.33-1.18S166.35,373.35,166.35,374.19Z"/>
        <path class="cls-13" d="M133.24,484.83c-2.41-12.85-6-54.88-14.53-84.54-4.28-14.87-14.35-25.36-24.1-22-6.92,2.36-9.66,14.16-7.17,22.11,4.59,14.7,30.59,63.75,36.48,80.92s9.42,21.4,17.8,23c4.31.8,9.76,1.33,16-2.48C149.26,503.08,137.22,506.11,133.24,484.83Z"/>
        <path class="cls-14" d="M163.2,491.09a15.47,15.47,0,0,1-5.16.84,24.08,24.08,0,0,1-5.77-.42,2.29,2.29,0,0,1-2-2.12h0a2.08,2.08,0,0,1,2-2.12s4.44.49,5.52.48a39.28,39.28,0,0,0,5.61-.52c1.11,0,2.15.33,1.81,1.9C165.07,489.86,164.55,490.59,163.2,491.09Z"/>
        <path class="cls-15" d="M162.49,490.85a15.83,15.83,0,0,1-4.46.6,24.86,24.86,0,0,1-5-.3c-.93-.19-1.74-.68-1.74-1.51h0a1.65,1.65,0,0,1,1.75-1.51s3.83.35,4.77.34a40.2,40.2,0,0,0,4.85-.37c1,0,1.86.24,1.57,1.36C164.1,490,163.66,490.5,162.49,490.85Z"/>
        <path class="cls-16" d="M156.8,481.39c-10.2,0-22.71-2.18-36.2-7.67a.35.35,0,0,1-.19-.47.36.36,0,0,1,.47-.19c25.13,10.22,46.76,8.92,56.21,3.39a.37.37,0,0,1,.5.13.36.36,0,0,1-.13.49C173,479.7,165.77,481.39,156.8,481.39Z"/>
        <path class="cls-17" d="M156.53,480.6c-10.2,0-22.7-2.19-36.19-7.68a.36.36,0,0,1-.2-.47.37.37,0,0,1,.47-.19c25.14,10.22,46.76,8.93,56.22,3.39a.36.36,0,0,1,.37.62C172.7,478.9,165.51,480.6,156.53,480.6Z"/>
        <path class="cls-9" d="M193.11,379.08c1.93,38.87-3.73,57.26-3.73,57.26s5.41-29.36.42-57.75C189.11,374.7,192.81,373,193.11,379.08Z"/>
        <path class="cls-17" d="M102.81,376.37s4.47,2.66,20.81,4.16,37.84,1.22,37.84,1.22-19.82,2.6-37.92.67S102.81,376.37,102.81,376.37Z"/>
        <path class="cls-18" d="M160.44,488.35c-.8.06-1.71.12-2.62.12s-4.77-.34-4.77-.34a1.5,1.5,0,0,0-.37,0l1.76,3.18a34.73,34.73,0,0,0,3.59.1,16.16,16.16,0,0,0,4.16-.52Z"/>
        <g>
          <path class="cls-19" d="M171.66,405.72A13.73,13.73,0,0,0,163,393c-.53,0-1,.1-1.55.19a12.69,12.69,0,0,0-10.62,12c0,.14,0,.28,0,.42v.14h0a7.93,7.93,0,0,1,10.5-7.39c-.78-.28-.75-.28,0,0a7.67,7.67,0,0,1,2.67-.46,7.53,7.53,0,0,1,7.55,7.76v.07a7.41,7.41,0,0,1-7.48,7.68,7.75,7.75,0,0,1-2.44-.39,8,8,0,0,1-2.93.56,7.87,7.87,0,0,1-7.92-7.7,12.56,12.56,0,0,0,10.55,12.3,16.3,16.3,0,0,0,1.62.2A13.73,13.73,0,0,0,171.66,405.72Z"/>
          <path class="cls-20" d="M166.66,405.81a7.82,7.82,0,0,1-5,7.27,7.75,7.75,0,0,0,2.44.39,7.41,7.41,0,0,0,7.48-7.68v-.07a7.53,7.53,0,0,0-7.55-7.76,7.67,7.67,0,0,0-2.67.46c-.8-.29-.83-.29,0,0A7.84,7.84,0,0,1,166.66,405.81Z"/>
          <path class="cls-21" d="M164.12,393c-.38,0-.75,0-1.11.05a13.67,13.67,0,0,1,0,25.44c.34,0,.69,0,1.05,0,7.69,0,13.29-5.75,13.29-12.76v-.07C177.34,398.63,171.81,393,164.12,393Z"/>
          <path class="cls-22" d="M150.83,405.81v0Z"/>
          <path class="cls-23" d="M161.46,413c-.83.29-.81.3,0,0Z"/>
          <path class="cls-24" d="M161.46,413c-.83.29-.81.3,0,0Z"/>
          <path class="cls-25" d="M158.75,413.64a8,8,0,0,0,2.93-.56l-.22-.07c-.81.3-.83.29,0,0a7.64,7.64,0,0,1-5.09-7.29v-.07a7.52,7.52,0,0,1,5-7.23h0a7.93,7.93,0,0,0-10.5,7.39v.14A7.87,7.87,0,0,0,158.75,413.64Z"/>
          <path class="cls-26" d="M158.75,413.64a8,8,0,0,0,2.93-.56l-.22-.07c-.81.3-.83.29,0,0a7.64,7.64,0,0,1-5.09-7.29v-.07a7.52,7.52,0,0,1,5-7.23h0a7.93,7.93,0,0,0-10.5,7.39v.14A7.87,7.87,0,0,0,158.75,413.64Z"/>
        </g>
      </g>
      <g id="cabeza">
        <g>
          <path class="cls-8" d="M105.87,358.84c10.3,13.13,41.83,10.63,50.62,9.8s23.67-2.35,29-18.35,2.68-40.43-12.06-53.13-54.19-10.62-67.59,6.49S102.29,354.29,105.87,358.84Z"/>
          <path class="cls-17" d="M108.59,307.14c.59-.21,12.76-9.58,34.81-11.45,7.59-.64,19.42,0,27,1.05-.75-.8-11.65-7-34.15-4.71A44.47,44.47,0,0,0,108.59,307.14Z"/>
          <path class="cls-9" d="M148.68,303.26c-7.1.12-14.21.61-20.91,3.13l-.15.06c6.95,14.56,7.51,33.53,3.45,47.09a28.6,28.6,0,0,1-5.91,11c12.26,2.14,26,1,31.33.52,5.81-.54,14.29-1.4,20.92-6.54a34.56,34.56,0,0,0,1.92-5c4.12-13.74,3.48-33-3.73-47.66A115.89,115.89,0,0,0,148.68,303.26Z"/>
          <path class="cls-27" d="M123,316.19c4.09-5.51,15.24-6.95,29.22-7.77,18-1.07,24.13,2.16,26,4.23s5,12.31,4.35,22.27-.8,12.95-4.94,15.43-16.1,4.9-23.82,5.09c-14.64.35-22-.36-26.92-3.2-2.5-1.46-5.68-9.29-6.18-19S120.89,319,123,316.19Z"/>
          <path class="cls-28" d="M151.72,310c-8.68.49-16.22,1.24-21.53,3.09,4.64,12.75,4.67,27.88,1.23,39.07,0,.13-.09.25-.13.37,4.64,1.33,11.28,1.65,21.93,1.4,7.41-.17,18.88-2.44,22.86-4.76a7,7,0,0,0,3.11-3.21,66.08,66.08,0,0,0-2.29-31.69l-.26-.32C174.87,312,169,309,151.72,310Z"/>
          <path class="cls-29" d="M113.53,325.34c-.24,5.41-3.3,9.67-6.82,9.52s-6.19-4.67-5.94-10.08,3.29-9.67,6.82-9.51S113.77,319.93,113.53,325.34Z"/>
          <path class="cls-30" d="M110.74,324.94c-.17,3.79-2,6.8-4.18,6.7s-3.73-3.25-3.56-7,2-6.8,4.18-6.71S110.91,321.14,110.74,324.94Z"/>
          <path class="cls-31" d="M110.8,325.22h0a13.14,13.14,0,0,0-1.61-7.2,5.89,5.89,0,0,0-4.68-3.25c-3.7-.16-7,4.26-7.2,9.86s2.57,10.29,6.29,10.45h.2C107.43,335.08,110.55,330.72,110.8,325.22Zm-6.32-9.73a5.17,5.17,0,0,1,4.09,2.89,12.46,12.46,0,0,1,1.5,6.81c-.23,5.21-3.12,9.31-6.44,9.18s-5.83-4.5-5.6-9.71,3-9.18,6.28-9.18Z"/>
          <path class="cls-9" d="M104,337.88l2.59.09s1.1,10.63,4.2,16.88,7.5,8.24,7.5,8.24-6.63-2.12-10.6-10.22C104.87,347,104,337.88,104,337.88Z"/>
          <path class="cls-32" d="M125.44,317v0a1.37,1.37,0,0,0,2,.46c1.26-.85,3.17-2.12,4.28-2.72,1.74-.93,10.35-4.08,10.35-4.08a39.79,39.79,0,0,0-16,4.12A1.6,1.6,0,0,0,125.44,317Z"/>
        </g>
        <path class="cls-33" d="M118.67,324.1c0,1.68-.78,3-1.76,3s-1.76-1.36-1.76-3,.79-3,1.76-3S118.67,322.42,118.67,324.1Z"/>
      </g>
      <g id="ojos">
        <rect class="cls-34" x="159.41" y="319.97" width="12.44" height="16.08" rx="3.93"/>
        <rect class="cls-34" x="160.72" y="321.7" width="9.83" height="12.62" rx="3.93"/>
        <rect class="cls-35" x="162.37" y="323.32" width="6.82" height="9.83" rx="2.44"/>
        <path class="cls-36" d="M168.47,327.11h-5.6a.27.27,0,1,1,0-.54h5.6a.27.27,0,0,1,0,.54Z"/>
        <path class="cls-36" d="M168.47,328.28h-5.6a.27.27,0,1,1,0-.54h5.6a.27.27,0,0,1,0,.54Z"/>
        <path class="cls-36" d="M168.47,329.49h-5.6a.27.27,0,1,1,0-.53h5.6a.27.27,0,1,1,0,.53Z"/>
        <path class="cls-36" d="M167.75,324.86h-4.17a.27.27,0,1,1,0-.53h4.17a.27.27,0,1,1,0,.53Z"/>
        <path class="cls-36" d="M168.47,326.08h-5.6a.27.27,0,1,1,0-.54h5.6a.27.27,0,0,1,0,.54Z"/>
        <path class="cls-36" d="M168.47,330.94h-5.6a.27.27,0,1,1,0-.54h5.6a.27.27,0,0,1,0,.54Z"/>
        <path class="cls-36" d="M168.47,332.11h-5.6a.27.27,0,1,1,0-.54h5.6a.27.27,0,0,1,0,.54Z"/>
        <g>
          <rect class="cls-34" x="139.6" y="319.97" width="12.44" height="16.08" rx="3.93"/>
          <rect class="cls-34" x="140.9" y="321.7" width="9.83" height="12.62" rx="3.93"/>
          <rect class="cls-35" x="142.56" y="323.32" width="6.82" height="9.83" rx="2.44"/>
          <path class="cls-36" d="M148.65,327.11h-5.6a.27.27,0,0,1,0-.54h5.6a.27.27,0,0,1,0,.54Z"/>
          <path class="cls-36" d="M148.65,328.28h-5.6a.27.27,0,1,1,0-.54h5.6a.27.27,0,0,1,0,.54Z"/>
          <path class="cls-36" d="M148.65,329.49h-5.6a.27.27,0,1,1,0-.53h5.6a.27.27,0,1,1,0,.53Z"/>
          <path class="cls-36" d="M147.94,324.86h-4.18a.27.27,0,1,1,0-.53h4.18a.27.27,0,1,1,0,.53Z"/>
          <path class="cls-36" d="M148.65,326.08h-5.6a.27.27,0,1,1,0-.54h5.6a.27.27,0,1,1,0,.54Z"/>
          <path class="cls-36" d="M148.65,330.94h-5.6a.27.27,0,0,1,0-.54h5.6a.27.27,0,1,1,0,.54Z"/>
          <path class="cls-36" d="M148.65,332.11h-5.6a.27.27,0,0,1,0-.54h5.6a.27.27,0,0,1,0,.54Z"/>
        </g>
      </g>
      <path id="boca" class="cls-37" d="M148.41,344.3c5.61.7,15.67,1.25,15.67,1.25s-8.9.9-14.71-.09S142.37,343.54,148.41,344.3Z"/>
      <g id="brazoDerecho">
        <path class="cls-38" d="M113.38,396.75c3.27,11.24.68,21.85-5.77,23.68S93.29,414.63,90,403.38s-.68-21.85,5.77-23.68S110.12,385.5,113.38,396.75Z"/>
        <path class="cls-31" d="M105.55,417.65a.4.4,0,0,1-.42-.38.4.4,0,0,1,.38-.43,4.71,4.71,0,0,0,3.79-2.63c2.68-4.55,2.16-13.16-1.2-20-4-8.19-10.45-11.46-14.1-9.79a.41.41,0,1,1-.35-.74c4.59-2.09,11.4,2.47,15.19,10.17,3.47,7.08,4,16,1.17,20.78a5.54,5.54,0,0,1-4.45,3Z"/>
        <g>
          <path class="cls-3" d="M70.23,438.7c2.71-32.82,14.15-48.1,16.88-51.31a2.7,2.7,0,0,1,1.56-.92c2.28-.43,8.28-.59,15.18,7.19,4.77,5.37,4.59,15,4.28,15.54-3.16,5.26-23,38.4-28,49.52C74.71,470.82,69.08,452.72,70.23,438.7Z"/>
          <path class="cls-4" d="M103.89,393.69a26.79,26.79,0,0,0-6.29-5.38c.72.67,1.45,1.42,2.2,2.26,6,6.77,4.22,12.1,2.88,15.75-4.81,13.1-20,38.15-22.83,53.12l.32-.69c5-11.12,24.84-44.26,28-49.52C108.48,408.72,108.66,399.06,103.89,393.69Z"/>
          <path class="cls-5" d="M85.79,399C72,411.7,72.47,450.76,72.47,450.76S79.13,423,85.36,411,90.5,394.62,85.79,399Z"/>
          <path class="cls-4" d="M83.13,452.06a44,44,0,0,0,.53,5.58c.13.5,2.93,2.65,2.92,2.38-.1-2.34.46-14.69,2.33-18C89.56,440.8,82.93,449.81,83.13,452.06Z"/>
          <path class="cls-6" d="M89.22,442.33a.37.37,0,0,1-.32-.18c-3.64-5.76-11.17-10.06-18-6.66a.38.38,0,1,1-.34-.67c7.18-3.6,15.12.89,18.93,6.94a.36.36,0,0,1-.12.51A.36.36,0,0,1,89.22,442.33Z"/>
        </g>
        <g>
          <path class="cls-39" d="M93.81,408.26c-.17,5.56-4.42,9.95-9.48,9.79s-9-4.78-8.85-10.34,4.41-9.95,9.47-9.79S94,402.7,93.81,408.26Z"/>
          <g>
            <path class="cls-40" d="M78.37,408.85c-.12,1.87.94,3.82,2,5.31a18.62,18.62,0,0,0,2.21,2.51s5.84-1.48,7.45-4.8c.34-.69,1.87-5,1.87-5s.46-1.06-.4-1.54a26.55,26.55,0,0,1-3-1.66,9.18,9.18,0,0,0-2-1.26c-.56-.19-.81-.08-1.84,0a32.06,32.06,0,0,1-3.48-.08c-1,0-1.15,1.14-1.15,1.14S78.43,408.06,78.37,408.85Z"/>
            <path class="cls-41" d="M80.11,403.42s-1.68,4.64-1.74,5.43c-.24,3.74,4.23,7.82,4.23,7.82h0s5.84-1.48,7.45-4.8c.34-.69,1.87-5.05,1.87-5.05s.46-1.05-.4-1.53a27.47,27.47,0,0,1-3-1.66,8.58,8.58,0,0,0-2-1.26c-.55-.2-.8-.08-1.83,0a32.06,32.06,0,0,1-3.48-.08C80.23,402.25,80.11,403.42,80.11,403.42Zm.92-.19.85,0a10.46,10.46,0,0,0,2.69,0c1.85-.35,2.42.58,3.31,1.21a16.77,16.77,0,0,0,2.28,1.31l.74.39a.86.86,0,0,1,0,.21.11.11,0,0,0,0,.06c-.59,1.67-1.6,4.48-1.83,4.95-.69,1.45-2.45,2.51-3.81,3.15a17.63,17.63,0,0,1-2.26.88,18.27,18.27,0,0,1-1.58-1.87c-.87-1.21-1.92-3.21-1.81-4.82A34.08,34.08,0,0,1,81,403.48,1.86,1.86,0,0,1,81,403.23Z"/>
            <path class="cls-42" d="M78.37,408.85c-.14,2.17,1.3,4.46,2.54,6-1.13-1.51-2.27-3.55-2.15-5.49.06-.79,1.74-5.43,1.74-5.43s.12-1.17,1.15-1.14a29.76,29.76,0,0,0,3.48.08c1-.07,1.28-.18,1.84,0a8.65,8.65,0,0,1,2,1.25,27.68,27.68,0,0,0,3,1.67l.07.05a.94.94,0,0,0-.46-.56,26.55,26.55,0,0,1-3-1.66,8.43,8.43,0,0,0-2-1.26c-.56-.2-.81-.08-1.84,0a31.81,31.81,0,0,1-3.48-.09c-1,0-1.15,1.15-1.15,1.15S78.43,408.06,78.37,408.85Z"/>
            <path class="cls-41" d="M84.2,408.94a.37.37,0,0,0,.09.35l-.07.27a.07.07,0,0,0,0,.09l.22.06a.08.08,0,0,0,.09-.06l.08-.27a.34.34,0,0,0,.24-.25.36.36,0,0,0-.26-.45A.37.37,0,0,0,84.2,408.94Z"/>
            <path class="cls-41" d="M84.2,407.09l-.14.53,1.62.42.14-.53a.83.83,0,0,0-.59-1A.84.84,0,0,0,84.2,407.09Z"/>
            <path class="cls-41" d="M81.27,404.71s-1,3.42-1.07,4c-.21,2.78,2.92,6,2.92,6h0s4.15-1.15,5.32-3.64c.25-.52,1.38-3.77,1.38-3.77s.34-.79-.27-1.14a19.06,19.06,0,0,1-2.09-1.2c-.35-.27-.68-.48-.94-.65a5.59,5.59,0,0,0-.6-.32h0a2.41,2.41,0,0,0-1.22-.1,17.92,17.92,0,0,1-2.45,0C81.52,403.85,81.27,404.71,81.27,404.71Zm1.49,3a.45.45,0,0,1,.55-.33l.12,0,.14-.53a1.5,1.5,0,0,1,1.83-1.06,1.49,1.49,0,0,1,1.06,1.81l-.15.54.12,0a.44.44,0,0,1,.32.55l-.55,2.08a.45.45,0,0,1-.55.32l-3.13-.81a.46.46,0,0,1-.32-.56Z"/>
            <path class="cls-42" d="M80.21,408.72c-.16,2,1.41,4.21,2.31,5.3-.9-1.18-2.06-3.08-1.92-4.8,0-.58,1.06-4,1.06-4s.25-.85,1-.84a19.7,19.7,0,0,0,2.45,0,2.32,2.32,0,0,1,1.22.09h0a3.36,3.36,0,0,1,.59.32c.27.16.59.38,1,.64a14.73,14.73,0,0,0,2,1.17.69.69,0,0,0-.35-.47,17.74,17.74,0,0,1-2.09-1.21c-.35-.26-.68-.48-.94-.64a5.59,5.59,0,0,0-.6-.32h0a2.41,2.41,0,0,0-1.22-.1,17.94,17.94,0,0,1-2.45,0c-.72,0-1,.85-1,.85S80.25,408.13,80.21,408.72Z"/>
          </g>
        </g>
      </g>
      <g id="sombra">
        <ellipse class="cls-43" cx="146.7" cy="526.96" rx="43.8" ry="9.73"/>
        <ellipse class="cls-44" cx="146.7" cy="526.96" rx="34.12" ry="6.19"/>
        <ellipse class="cls-44" cx="146.7" cy="526.96" rx="20.54" ry="3.73"/>
      </g>
    </g>
  </g>
</svg>
