<svg xmlns="http://www.w3.org/2000/svg" xmlns:xlink="http://www.w3.org/1999/xlink" width="1024" height="620" viewBox="0 0 1024 620">
  <defs>
    <style>
      .cls-1 {
        isolation: isolate;
      }

      .cls-2 {
        fill: none;
      }

      .cls-3, .cls-4 {
        fill: #51b2fb;
      }

      .cls-3, .cls-32 {
        opacity: 0.1;
      }

      .cls-4 {
        opacity: 0.2;
      }

      .cls-5 {
        fill: #e3ebfc;
      }

      .cls-6 {
        fill: #ccddfa;
      }

      .cls-7 {
        fill: #fafbff;
      }

      .cls-8 {
        fill: #80a7f6;
      }

      .cls-9 {
        fill: #9fbcfb;
      }

      .cls-10 {
        fill: #b8d0f9;
      }

      .cls-11, .cls-29, .cls-31 {
        fill: #207bff;
      }

      .cls-11, .cls-37 {
        opacity: 0.4;
      }

      .cls-12 {
        fill: #004bff;
        opacity: 0.5;
        mix-blend-mode: multiply;
      }

      .cls-13 {
        fill: #c5d8fa;
      }

      .cls-14 {
        fill: url(#_ÂÁ_Ï_ÌÌ_È_ËÂÌÚ_30);
      }

      .cls-15 {
        fill: #4aebff;
      }

      .cls-16, .cls-30 {
        fill: #fff;
      }

      .cls-17 {
        fill: #bef9ff;
      }

      .cls-18 {
        fill: url(#linear-gradient);
      }

      .cls-19 {
        fill: #ec1c24;
      }

      .cls-20 {
        fill: url(#linear-gradient-2);
      }

      .cls-21 {
        fill: url(#linear-gradient-3);
      }

      .cls-22 {
        fill: url(#linear-gradient-4);
      }

      .cls-23 {
        fill: url(#linear-gradient-5);
      }

      .cls-24 {
        fill: url(#linear-gradient-6);
      }

      .cls-25 {
        fill: url(#linear-gradient-7);
      }

      .cls-26 {
        fill: url(#_ÂÁ_Ï_ÌÌ_È_ËÂÌÚ_14);
      }

      .cls-27 {
        fill: url(#_ÂÁ_Ï_ÌÌ_È_ËÂÌÚ_18);
      }

      .cls-28 {
        fill: #4880f8;
      }

      .cls-30 {
        opacity: 0.8;
      }

      .cls-31 {
        opacity: 0.72;
      }

      .cls-32, .cls-33, .cls-34, .cls-35 {
        fill: #3ae6fb;
      }

      .cls-33 {
        opacity: 0.3;
      }

      .cls-35 {
        opacity: 0.7;
      }

      .cls-36 {
        fill: #93b4fb;
      }

      .cls-37 {
        mix-blend-mode: lighten;
        fill: url(#radial-gradient);
      }

      .cls-38 {
        fill: #00ffda;
      }

      .cls-39 {
        fill: #7fd1ca;
      }

      .cls-40 {
        fill: #1e1e1e;
      }
    </style>
    <radialGradient id="_ÂÁ_Ï_ÌÌ_È_ËÂÌÚ_30" data-name="¡ÂÁ˚ÏˇÌÌ˚È „‡‰ËÂÌÚ 30" cx="5912.94" cy="304.15" r="4.81" gradientTransform="translate(-5809.3)" gradientUnits="userSpaceOnUse">
      <stop offset="0" stop-color="#4aebff"/>
      <stop offset="1" stop-color="#00709e"/>
    </radialGradient>
    <linearGradient id="linear-gradient" x1="66.35" y1="220.08" x2="66.35" y2="246.62" gradientTransform="translate(45.19)" gradientUnits="userSpaceOnUse">
      <stop offset="0.02" stop-color="#dd2a21"/>
      <stop offset="0.06" stop-color="#c8201b"/>
      <stop offset="0.1" stop-color="#b71717"/>
      <stop offset="0.15" stop-color="#ac1113"/>
      <stop offset="0.22" stop-color="#a50e12"/>
      <stop offset="0.43" stop-color="#a30d11"/>
      <stop offset="0.79" stop-color="#6b0006"/>
    </linearGradient>
    <linearGradient id="linear-gradient-2" x1="58.64" y1="221.26" x2="58.64" y2="240.31" gradientTransform="translate(45.19)" gradientUnits="userSpaceOnUse">
      <stop offset="0" stop-color="#ad1a27"/>
      <stop offset="0.08" stop-color="#9e151f"/>
      <stop offset="0.28" stop-color="#7d090e"/>
      <stop offset="0.44" stop-color="#680304"/>
      <stop offset="0.56" stop-color="#610000"/>
      <stop offset="0.73" stop-color="#520000"/>
      <stop offset="1" stop-color="#3f0000"/>
    </linearGradient>
    <linearGradient id="linear-gradient-3" x1="882.77" y1="231.07" x2="895.37" y2="231.07" gradientTransform="matrix(-1, 0, 0, 1, 1015.73, 0)" gradientUnits="userSpaceOnUse">
      <stop offset="0" stop-color="#be1349"/>
      <stop offset="0.24" stop-color="#be124e"/>
      <stop offset="0.25" stop-color="#be124e"/>
      <stop offset="1" stop-color="#7a0025"/>
    </linearGradient>
    <linearGradient id="linear-gradient-4" x1="878.94" y1="237.4" x2="895.43" y2="237.4" gradientTransform="matrix(-1, 0, 0, 1, 1015.73, 0)" gradientUnits="userSpaceOnUse">
      <stop offset="0" stop-color="#282881"/>
      <stop offset="0.27" stop-color="#26257d"/>
      <stop offset="0.55" stop-color="#1f1b70"/>
      <stop offset="0.84" stop-color="#150c5b"/>
      <stop offset="1" stop-color="#0d004c"/>
    </linearGradient>
    <linearGradient id="linear-gradient-5" x1="882.84" y1="237.4" x2="895.37" y2="237.4" xlink:href="#linear-gradient-3"/>
    <linearGradient id="linear-gradient-6" x1="885.38" y1="231.02" x2="901.12" y2="231.02" xlink:href="#linear-gradient-4"/>
    <linearGradient id="linear-gradient-7" x1="70.66" y1="236.77" x2="70.66" y2="227.75" gradientTransform="translate(45.19)" gradientUnits="userSpaceOnUse">
      <stop offset="0" stop-color="#ed2d24"/>
      <stop offset="0.12" stop-color="#ed2824"/>
      <stop offset="0.25" stop-color="#ec1c24"/>
      <stop offset="1" stop-color="#74020d"/>
    </linearGradient>
    <linearGradient id="_ÂÁ_Ï_ÌÌ_È_ËÂÌÚ_14" data-name="¡ÂÁ˚ÏˇÌÌ˚È „‡‰ËÂÌÚ 14" x1="5841.28" y1="448.91" x2="5894.84" y2="448.91" gradientTransform="translate(-5784.65 13.43) rotate(-2.88)" gradientUnits="userSpaceOnUse">
      <stop offset="0" stop-color="#003a6b"/>
      <stop offset="1" stop-color="#00204c"/>
    </linearGradient>
    <linearGradient id="_ÂÁ_Ï_ÌÌ_È_ËÂÌÚ_18" data-name="¡ÂÁ˚ÏˇÌÌ˚È „‡‰ËÂÌÚ 18" x1="5895.79" y1="144.24" x2="5922.93" y2="189.96" gradientTransform="translate(-5809.3)" gradientUnits="userSpaceOnUse">
      <stop offset="0" stop-color="#cbd7e1"/>
      <stop offset="0.05" stop-color="#aec0d0"/>
      <stop offset="0.15" stop-color="#7998b2"/>
      <stop offset="0.26" stop-color="#4e7698"/>
      <stop offset="0.35" stop-color="#2c5c85"/>
      <stop offset="0.44" stop-color="#144976"/>
      <stop offset="0.53" stop-color="#053e6e"/>
      <stop offset="0.6" stop-color="#003a6b"/>
      <stop offset="1" stop-color="#00204c"/>
    </linearGradient>
    <radialGradient id="radial-gradient" cx="4990.53" cy="399.87" r="10.19" gradientTransform="matrix(0.74, 0.02, -0.03, 0.82, -3645.94, -206.49)" gradientUnits="userSpaceOnUse">
      <stop offset="0" stop-color="#00ddde" stop-opacity="0.52"/>
      <stop offset="0.09" stop-color="#2de6e7" stop-opacity="0.65"/>
      <stop offset="0.2" stop-color="#63f1f1" stop-opacity="0.8"/>
      <stop offset="0.3" stop-color="#8af8f9" stop-opacity="0.91"/>
      <stop offset="0.38" stop-color="#a2fdfd" stop-opacity="0.98"/>
      <stop offset="0.43" stop-color="#abffff"/>
      <stop offset="0.46" stop-color="#9ffcfd"/>
      <stop offset="0.51" stop-color="#7ff6f6"/>
      <stop offset="0.58" stop-color="#4aebeb"/>
      <stop offset="0.66" stop-color="#03dcdd"/>
      <stop offset="0.66" stop-color="#00dbdc"/>
      <stop offset="0.69" stop-color="#08dcdd" stop-opacity="0.97"/>
      <stop offset="0.74" stop-color="#1fdfe0" stop-opacity="0.88"/>
      <stop offset="0.8" stop-color="#44e5e5" stop-opacity="0.73"/>
      <stop offset="0.87" stop-color="#78eced" stop-opacity="0.53"/>
      <stop offset="0.94" stop-color="#baf5f6" stop-opacity="0.27"/>
      <stop offset="1" stop-color="#fff" stop-opacity="0"/>
    </radialGradient>
  </defs>
  <title>robot</title>
  <g class="cls-1">
    <g id="robot">
      <g id="fondo">
        <rect class="cls-2" width="1024" height="620"/>
      </g>
      <g id="sombra">
        <ellipse class="cls-3" cx="90.24" cy="331.28" rx="38.6" ry="8.67"/>
        <path class="cls-4" d="M120.81,331.78c0,3.05-13.47,5.51-30.07,5.51s-30.07-2.46-30.07-5.51,13.46-5.51,30.07-5.51S120.81,328.74,120.81,331.78Z" transform="translate(-0.5 -0.5)"/>
        <path class="cls-4" d="M108.84,331.78c0,1.84-8.1,3.32-18.1,3.32s-18.11-1.48-18.11-3.32,8.11-3.32,18.11-3.32S108.84,330,108.84,331.78Z" transform="translate(-0.5 -0.5)"/>
      </g>
      <g id="brazoIzquierdo">
        <g>
          <path class="cls-5" d="M154.7,248.49c-5.64-26.82-16.59-38.26-19.15-40.63a2.28,2.28,0,0,0-1.38-.6c-1.9-.12-6.82.37-11.65,7.51-3.34,4.92-2.18,12.89-1.88,13.27,3.14,4,22.83,29.34,28.06,38C154.39,275.48,157.11,260,154.7,248.49Z" transform="translate(-0.5 -0.5)"/>
          <path class="cls-6" d="M122.49,214.8a22.29,22.29,0,0,1,4.58-5.1c-.51.63-1,1.33-1.56,2.1-4.21,6.22-2.19,10.43-.71,13.31,5.3,10.31,20.34,29.43,24.21,41.5l-.34-.53c-5.23-8.67-24.92-34-28.06-38C120.31,227.68,119.15,219.72,122.49,214.8Z" transform="translate(-0.5 -0.5)"/>
          <path class="cls-7" d="M137.84,217.29c12.62,9.08,16.29,41.4,16.29,41.4s-8.34-22.25-14.68-31.52S133.53,214.19,137.84,217.29Z" transform="translate(-0.5 -0.5)"/>
          <path class="cls-6" d="M145.55,260.86a34.33,34.33,0,0,1,.15,4.66,7.75,7.75,0,0,1-2.14,2.27c-.15-2-1.91-12.09-3.78-14.66C139.12,252.22,145.49,259,145.55,260.86Z" transform="translate(-0.5 -0.5)"/>
          <path class="cls-8" d="M139.56,253.45a.3.3,0,0,0,.24-.18c2.38-5.14,8.08-9.46,14-7.35a.32.32,0,0,0,.4-.19.32.32,0,0,0-.19-.4c-6.25-2.23-12.27,2.29-14.75,7.68a.31.31,0,0,0,.15.42A.32.32,0,0,0,139.56,253.45Z" transform="translate(-0.5 -0.5)"/>
        </g>
        <path class="cls-9" d="M136,219.78c-.73,8.37-4.23,14.91-7.83,14.6S122.22,227,123,218.65s4.23-14.79,7.84-14.6C136,204.33,136.72,211.41,136,219.78Z" transform="translate(-0.5 -0.5)"/>
      </g>
      <g id="torso">
        <path class="cls-5" d="M55.83,200.45c-3.74-.24-16.92,13-12.95,25.81S69.31,281.91,74.4,296.9s8.13,18.68,15.37,20,18.17,1.85,30.84-24.61,14.62-56.18,15.2-70.3-.9-19.73-5.84-21.34C118.46,196.93,55.83,200.45,55.83,200.45Z" transform="translate(-0.5 -0.5)"/>
        <path class="cls-7" d="M115.5,289.21c9.82-27.83,8.64-57.76,7.73-71.94-.61-9.42-1.72-15-3.89-18-10.47-.59-25.76-.33-38.72.09,6.93,18.27,17.17,49.05,18.87,80.76,1.14,21.15-1.78,31.49-5.82,36.78C100.26,315.61,108.18,309.93,115.5,289.21Z" transform="translate(-0.5 -0.5)"/>
        <path class="cls-10" d="M131.07,201.87c0,2.74-19.38,7-38.94,7s-39-4.16-39-6.91,19.39-3,38.94-3S131.06,199.12,131.07,201.87Z" transform="translate(-0.5 -0.5)"/>
        <path class="cls-11" d="M119.24,202.43c0,1.89-13.35,4.84-26.82,4.86s-26.83-2.88-26.84-4.77,13.36-2.08,26.83-2.1S119.24,200.53,119.24,202.43Z" transform="translate(-0.5 -0.5)"/>
        <path class="cls-12" d="M111.05,203.41c0,.73-9.21,1.65-18.19,1.66s-17.56-.87-17.56-1.6,8.59-1,17.56-1S111.05,202.68,111.05,203.41Z" transform="translate(-0.5 -0.5)"/>
        <path class="cls-13" d="M82.44,300c-2.08-11.22-5.17-47.91-12.55-73.81-3.69-13-12.4-22.13-20.82-19.23-6,2.06-8.34,12.36-6.19,19.3,4,12.83,26.43,55.65,31.52,70.64s8.13,18.68,15.37,20c3.72.7,8.43,1.16,13.85-2.16C96.29,315.93,85.89,318.57,82.44,300Z" transform="translate(-0.5 -0.5)"/>
        <path class="cls-14" d="M108.33,305.46a13.46,13.46,0,0,1-4.46.73,20.3,20.3,0,0,1-5-.36A2,2,0,0,1,97.15,304h0a1.8,1.8,0,0,1,1.74-1.85s3.84.43,4.77.42a33.49,33.49,0,0,0,4.84-.46c1,0,1.86.28,1.57,1.66C109.94,304.39,109.49,305,108.33,305.46Z" transform="translate(-0.5 -0.5)"/>
        <path class="cls-15" d="M107.72,305.25a13.42,13.42,0,0,1-3.86.53,22.66,22.66,0,0,1-4.31-.26c-.8-.17-1.5-.6-1.5-1.33h0a1.43,1.43,0,0,1,1.51-1.31s3.31.3,4.12.3a36.23,36.23,0,0,0,4.19-.33c.83,0,1.6.21,1.35,1.19C109.11,304.49,108.72,304.94,107.72,305.25Z" transform="translate(-0.5 -0.5)"/>
        <path class="cls-8" d="M102.8,297a83.46,83.46,0,0,1-31.27-6.7.31.31,0,0,1-.17-.41.32.32,0,0,1,.41-.17c21.71,8.93,40.39,7.79,48.56,3a.33.33,0,0,1,.43.11.32.32,0,0,1-.11.43C116.76,295.52,110.55,297,102.8,297Z" transform="translate(-0.5 -0.5)"/>
        <path class="cls-16" d="M102.57,296.3a83.5,83.5,0,0,1-31.27-6.7.31.31,0,0,1-.17-.41.32.32,0,0,1,.41-.17c21.71,8.93,40.39,7.79,48.56,3a.31.31,0,1,1,.32.53C116.53,294.82,110.32,296.3,102.57,296.3Z" transform="translate(-0.5 -0.5)"/>
        <path class="cls-7" d="M134.17,207.69c1.66,33.93-3.23,50-3.23,50s4.68-25.63.36-50.41C130.71,203.86,133.91,202.39,134.17,207.69Z" transform="translate(-0.5 -0.5)"/>
        <path class="cls-16" d="M56.16,205.32s3.86,2.32,18,3.63,32.7,1.06,32.7,1.06-17.13,2.27-32.77.59S56.16,205.32,56.16,205.32Z" transform="translate(-0.5 -0.5)"/>
        <path class="cls-17" d="M105.94,303.07c-.68.05-1.48.1-2.26.11s-4.12-.3-4.12-.3a1.66,1.66,0,0,0-.32,0l1.52,2.78c.84.07,1.87.1,3.1.09a14.25,14.25,0,0,0,3.59-.46Z" transform="translate(-0.5 -0.5)"/>
        <g>
          <path class="cls-18" d="M102.55,230.93a12,12,0,0,1,7.47-11.1c.45,0,.9.09,1.33.17a11,11,0,0,1,9.18,10.51c0,.12,0,.24,0,.36V231h0a6.85,6.85,0,0,0-9.07-6.46c.67-.24.65-.24,0,0a6.67,6.67,0,0,0-2.31-.41,6.54,6.54,0,0,0-6.52,6.77V231a6.44,6.44,0,0,0,6.46,6.71,6.62,6.62,0,0,0,2.11-.34,6.85,6.85,0,0,0,9.37-6.24,10.93,10.93,0,0,1-9.11,10.74,12.75,12.75,0,0,1-1.4.17A12,12,0,0,1,102.55,230.93Z" transform="translate(-0.5 -0.5)"/>
          <path class="cls-19" d="M106.86,231a6.85,6.85,0,0,0,4.31,6.35,6.62,6.62,0,0,1-2.11.34A6.44,6.44,0,0,1,102.6,231v-.07a6.54,6.54,0,0,1,6.52-6.77,6.67,6.67,0,0,1,2.31.41c.69-.26.71-.26,0,0A6.85,6.85,0,0,0,106.86,231Z" transform="translate(-0.5 -0.5)"/>
          <path class="cls-20" d="M109.06,219.79c.32,0,.64,0,1,0A12,12,0,0,0,110,242c-.3,0-.6,0-.91,0a11.14,11.14,0,0,1-11.48-11.15v-.06A11,11,0,0,1,109.06,219.79Z" transform="translate(-0.5 -0.5)"/>
          <path class="cls-21" d="M120.54,231v0Z" transform="translate(-0.5 -0.5)"/>
          <path class="cls-22" d="M111.35,237.3Z" transform="translate(-0.5 -0.5)"/>
          <path class="cls-23" d="M111.35,237.3Z" transform="translate(-0.5 -0.5)"/>
          <path class="cls-24" d="M113.7,237.85a6.86,6.86,0,0,1-2.53-.48l.18-.07h0a6.66,6.66,0,0,0,4.4-6.37v-.06a6.54,6.54,0,0,0-4.32-6.3l0,0a6.85,6.85,0,0,1,9.07,6.46v.12A6.84,6.84,0,0,1,113.7,237.85Z" transform="translate(-0.5 -0.5)"/>
          <path class="cls-25" d="M113.7,237.85a6.86,6.86,0,0,1-2.53-.48l.18-.07h0a6.66,6.66,0,0,0,4.4-6.37v-.06a6.54,6.54,0,0,0-4.32-6.3l0,0a6.85,6.85,0,0,1,9.07,6.46v.12A6.84,6.84,0,0,1,113.7,237.85Z" transform="translate(-0.5 -0.5)"/>
        </g>
      </g>
      <g id="cabeza">
        <g>
          <path class="cls-5" d="M58.8,190c8.9,11.46,36.14,9.27,43.73,8.55s20.45-2,25.08-16,2.31-35.29-10.42-46.37-46.82-9.28-58.39,5.66S55.71,186,58.8,190Z" transform="translate(-0.5 -0.5)"/>
          <path class="cls-16" d="M61.15,144.89c.51-.18,11-8.36,30.07-10a125.79,125.79,0,0,1,23.34.91c-.65-.69-10.07-6.13-29.51-4.11A38.38,38.38,0,0,0,61.15,144.89Z" transform="translate(-0.5 -0.5)"/>
          <path class="cls-7" d="M95.78,141.5c-6.13.1-12.28.53-18.06,2.73l-.13.06c6,12.7,6.49,29.26,3,41.1a25,25,0,0,1-5.11,9.6c10.6,1.86,22.46.89,27.07.45,5-.48,12.34-1.22,18.07-5.71a28.86,28.86,0,0,0,1.66-4.34c3.56-12,3-28.83-3.22-41.6A99.26,99.26,0,0,0,95.78,141.5Z" transform="translate(-0.5 -0.5)"/>
          <path class="cls-26" d="M73.61,152.78c3.53-4.8,13.17-6.06,25.24-6.78,15.58-.93,20.84,1.89,22.43,3.69s4.36,10.75,3.76,19.44-.68,11.31-4.26,13.47-13.91,4.28-20.58,4.44c-12.65.31-19-.3-23.26-2.79C74.78,183,72,176.14,71.6,167.71S71.77,155.28,73.61,152.78Z" transform="translate(-0.5 -0.5)"/>
          <path class="cls-27" d="M98.41,147.34c-7.5.44-14,1.09-18.6,2.71a57.11,57.11,0,0,1,1.06,34.1c0,.11-.07.22-.11.33,4,1.15,9.75,1.43,18.94,1.21,6.41-.15,16.32-2.13,19.75-4.15a6.09,6.09,0,0,0,2.69-2.8,58.26,58.26,0,0,0-2-27.66c-.08-.11-.15-.21-.22-.29C118.41,149.11,113.36,146.48,98.41,147.34Z" transform="translate(-0.5 -0.5)"/>
          <path class="cls-9" d="M65.42,160.78c-.21,4.72-2.85,8.44-5.89,8.3s-5.35-4.07-5.14-8.79,2.85-8.45,5.9-8.31S65.63,156.05,65.42,160.78Z" transform="translate(-0.5 -0.5)"/>
          <path class="cls-28" d="M63,160.42c-.15,3.32-1.77,5.94-3.61,5.86s-3.22-2.84-3.08-6.16,1.77-5.93,3.61-5.85S63.15,157.11,63,160.42Z" transform="translate(-0.5 -0.5)"/>
          <path class="cls-29" d="M63.06,160.67h0a11.64,11.64,0,0,0-1.39-6.29,5.06,5.06,0,0,0-4-2.83c-3.2-.14-6,3.72-6.22,8.6s2.22,9,5.43,9.12H57C60.15,169.28,62.84,165.47,63.06,160.67Zm-5.46-8.5a4.47,4.47,0,0,1,3.53,2.53,10.94,10.94,0,0,1,1.3,5.94c-.2,4.55-2.7,8.13-5.56,8s-5-3.93-4.84-8.47,2.62-8,5.42-8Z" transform="translate(-0.5 -0.5)"/>
          <path class="cls-7" d="M57.21,171.72l2.24.08s.95,9.28,3.63,14.73,6.47,7.2,6.47,7.2-5.72-1.86-9.15-8.92C57.93,179.72,57.21,171.72,57.21,171.72Z" transform="translate(-0.5 -0.5)"/>
          <path class="cls-30" d="M75.71,153.5h0a1.18,1.18,0,0,0,1.71.4c1.08-.74,2.74-1.85,3.69-2.37,1.5-.82,8.94-3.57,8.94-3.57a34.24,34.24,0,0,0-13.78,3.6A1.41,1.41,0,0,0,75.71,153.5Z" transform="translate(-0.5 -0.5)"/>
        </g>
        <path class="cls-31" d="M69.86,159.69c0,1.46-.68,2.65-1.52,2.65s-1.52-1.19-1.52-2.65S67.5,157,68.34,157,69.86,158.22,69.86,159.69Z" transform="translate(-0.5 -0.5)"/>
        <g>
          <rect class="cls-32" x="87.44" y="155.59" width="10.74" height="14.04" rx="3.93"/>
          <rect class="cls-32" x="88.56" y="157.1" width="8.49" height="11.02" rx="3.65"/>
          <rect class="cls-33" x="89.99" y="158.51" width="5.89" height="8.58" rx="2.44"/>
          <path class="cls-34" d="M95.76,162.32H90.92a.24.24,0,0,1-.24-.24.23.23,0,0,1,.24-.23h4.84a.23.23,0,0,1,.23.23A.23.23,0,0,1,95.76,162.32Z" transform="translate(-0.5 -0.5)"/>
          <path class="cls-34" d="M95.76,163.34H90.92a.24.24,0,1,1,0-.47h4.84a.24.24,0,0,1,0,.47Z" transform="translate(-0.5 -0.5)"/>
          <path class="cls-34" d="M95.76,164.4H90.92a.24.24,0,1,1,0-.47h4.84a.24.24,0,0,1,0,.47Z" transform="translate(-0.5 -0.5)"/>
          <path class="cls-34" d="M95.14,160.36H91.53a.24.24,0,0,1-.23-.24.23.23,0,0,1,.23-.23h3.61a.23.23,0,0,1,.23.23A.23.23,0,0,1,95.14,160.36Z" transform="translate(-0.5 -0.5)"/>
          <path class="cls-34" d="M95.76,161.42H90.92a.24.24,0,0,1-.24-.24.23.23,0,0,1,.24-.23h4.84a.23.23,0,0,1,.23.23A.23.23,0,0,1,95.76,161.42Z" transform="translate(-0.5 -0.5)"/>
          <path class="cls-34" d="M95.76,165.66H90.92a.24.24,0,1,1,0-.47h4.84a.24.24,0,0,1,0,.47Z" transform="translate(-0.5 -0.5)"/>
          <path class="cls-34" d="M95.76,166.68H90.92a.23.23,0,0,1-.24-.23.24.24,0,0,1,.24-.24h4.84a.23.23,0,0,1,.23.24A.23.23,0,0,1,95.76,166.68Z" transform="translate(-0.5 -0.5)"/>
        </g>
        <g>
          <rect class="cls-32" x="106.73" y="155.33" width="10.74" height="14.04" rx="3.93"/>
          <rect class="cls-32" x="107.86" y="156.84" width="8.49" height="11.02" rx="3.65"/>
          <rect class="cls-33" x="109.29" y="158.26" width="5.89" height="8.58" rx="2.44"/>
          <path class="cls-34" d="M115.05,162.06h-4.84a.23.23,0,1,1,0-.46h4.84a.23.23,0,0,1,0,.46Z" transform="translate(-0.5 -0.5)"/>
          <path class="cls-34" d="M115.05,163.09h-4.84a.23.23,0,0,1-.23-.24.23.23,0,0,1,.23-.23h4.84a.23.23,0,0,1,.23.23A.23.23,0,0,1,115.05,163.09Z" transform="translate(-0.5 -0.5)"/>
          <path class="cls-34" d="M115.05,164.15h-4.84a.23.23,0,0,1-.23-.24.23.23,0,0,1,.23-.23h4.84a.23.23,0,0,1,.23.23A.23.23,0,0,1,115.05,164.15Z" transform="translate(-0.5 -0.5)"/>
          <path class="cls-34" d="M114.43,160.1h-3.6a.23.23,0,1,1,0-.46h3.6a.23.23,0,1,1,0,.46Z" transform="translate(-0.5 -0.5)"/>
          <path class="cls-34" d="M115.05,161.16h-4.84a.23.23,0,1,1,0-.46h4.84a.23.23,0,0,1,0,.46Z" transform="translate(-0.5 -0.5)"/>
          <path class="cls-34" d="M115.05,165.41h-4.84a.23.23,0,0,1-.23-.24.23.23,0,0,1,.23-.23h4.84a.23.23,0,0,1,.23.23A.23.23,0,0,1,115.05,165.41Z" transform="translate(-0.5 -0.5)"/>
          <path class="cls-34" d="M115.05,166.43h-4.84a.23.23,0,0,1-.23-.24.23.23,0,0,1,.23-.23h4.84a.23.23,0,0,1,.23.23A.23.23,0,0,1,115.05,166.43Z" transform="translate(-0.5 -0.5)"/>
        </g>
      </g>
      <path id="boca" class="cls-35" d="M95.55,177.32c4.85.62,13.54,1.1,13.54,1.1s-7.69.78-12.71-.08S90.33,176.66,95.55,177.32Z" transform="translate(-0.5 -0.5)"/>
      <g id="brazoDerecho">
        <path class="cls-36" d="M63.72,225.71c2.69,9.36.56,18.19-4.75,19.72s-11.8-4.83-14.49-14.19-.56-18.19,4.75-19.72S61,216.35,63.72,225.71Z" transform="translate(-0.5 -0.5)"/>
        <path class="cls-29" d="M57.26,243.11a.32.32,0,0,1-.34-.31.33.33,0,0,1,.31-.36,3.86,3.86,0,0,0,3.12-2.19c2.21-3.79,1.79-10.95-1-16.66-3.32-6.81-8.61-9.53-11.62-8.15a.34.34,0,0,1-.45-.16.34.34,0,0,1,.17-.45c3.78-1.75,9.39,2,12.5,8.47,2.87,5.89,3.28,13.32,1,17.29a4.55,4.55,0,0,1-3.67,2.52Z" transform="translate(-0.5 -0.5)"/>
        <g>
          <path class="cls-5" d="M28.17,260.63c2.24-27.31,11.66-40,13.91-42.71a2.21,2.21,0,0,1,1.28-.76c1.88-.36,6.82-.49,12.51,6,3.93,4.47,3.78,12.51,3.52,12.94-2.6,4.38-19,32-23.07,41.22C31.86,287.37,27.22,272.3,28.17,260.63Z" transform="translate(-0.5 -0.5)"/>
          <path class="cls-6" d="M55.9,223.17a22,22,0,0,0-5.19-4.48c.6.56,1.2,1.18,1.82,1.88,5,5.64,3.48,10.07,2.37,13.11-4,10.9-16.48,31.76-18.81,44.22q.13-.27.27-.57c4.1-9.26,20.46-36.85,23.07-41.23C59.68,235.68,59.83,227.64,55.9,223.17Z" transform="translate(-0.5 -0.5)"/>
          <path class="cls-7" d="M41,227.56c-11.38,10.6-11,43.12-11,43.12s5.49-23.11,10.62-33.12S44.87,224,41,227.56Z" transform="translate(-0.5 -0.5)"/>
          <path class="cls-6" d="M38.8,271.75a33.73,33.73,0,0,0,.44,4.65,7.59,7.59,0,0,0,2.4,2c-.09-1.95.38-12.23,1.91-15C44.1,262.38,38.63,269.88,38.8,271.75Z" transform="translate(-0.5 -0.5)"/>
          <path class="cls-8" d="M43.82,263.66a.31.31,0,0,1-.27-.15c-3-4.8-9.2-8.37-14.79-5.54a.33.33,0,0,1-.42-.14.31.31,0,0,1,.14-.42c5.92-3,12.46.74,15.6,5.77a.31.31,0,0,1-.1.43A.33.33,0,0,1,43.82,263.66Z" transform="translate(-0.5 -0.5)"/>
        </g>
        <g>
          <path class="cls-37" d="M47.59,235.3c-.14,4.63-3.63,8.28-7.8,8.15s-7.44-4-7.3-8.61,3.64-8.28,7.81-8.15S47.73,230.67,47.59,235.3Z" transform="translate(-0.5 -0.5)"/>
          <g>
            <path class="cls-38" d="M34.88,235.78a7.37,7.37,0,0,0,1.66,4.43,15.7,15.7,0,0,0,1.82,2.09s4.81-1.23,6.14-4c.27-.58,1.54-4.2,1.54-4.2s.38-.87-.34-1.27a23.16,23.16,0,0,1-2.44-1.39,7,7,0,0,0-1.62-1c-.47-.17-.67-.07-1.52,0-1,.07-2,0-2.87-.07s-.94,1-.94,1A46.69,46.69,0,0,0,34.88,235.78Z" transform="translate(-0.5 -0.5)"/>
            <path class="cls-39" d="M36.31,231.27a46.69,46.69,0,0,0-1.43,4.51c-.2,3.12,3.48,6.52,3.48,6.52h0s4.81-1.23,6.14-4c.27-.58,1.53-4.2,1.53-4.2s.39-.87-.32-1.27a22.27,22.27,0,0,1-2.45-1.39,6.82,6.82,0,0,0-1.63-1c-.45-.17-.66-.07-1.51,0-1,.07-2,0-2.87-.07S36.31,231.27,36.31,231.27Zm.75-.16h.71a7.74,7.74,0,0,0,2.21,0c1.53-.29,2,.49,2.73,1a13,13,0,0,0,1.88,1.09l.61.32a1.16,1.16,0,0,1,0,.18l0,0c-.48,1.39-1.32,3.73-1.51,4.12a6.54,6.54,0,0,1-3.14,2.62,16,16,0,0,1-1.86.74,16.28,16.28,0,0,1-1.3-1.56,7.14,7.14,0,0,1-1.49-4A28.85,28.85,0,0,1,37,231.32,1.91,1.91,0,0,1,37.06,231.11Z" transform="translate(-0.5 -0.5)"/>
            <path class="cls-40" d="M34.88,235.79c-.12,1.8,1.07,3.71,2.09,5a7.46,7.46,0,0,1-1.77-4.57c0-.65,1.43-4.51,1.43-4.51s.1-1,.95-1a25.91,25.91,0,0,0,2.87.08c.84-.07,1-.16,1.51,0a7,7,0,0,1,1.63,1A21.32,21.32,0,0,0,46,233.25l.06,0a.77.77,0,0,0-.39-.46,23.16,23.16,0,0,1-2.44-1.39,7,7,0,0,0-1.62-1c-.47-.17-.67-.08-1.52,0a26,26,0,0,1-2.87-.08c-.84,0-.94,1-.94,1A46.1,46.1,0,0,0,34.88,235.79Z" transform="translate(-0.5 -0.5)"/>
            <path class="cls-39" d="M39.68,235.87a.29.29,0,0,0,.07.28l-.06.23a.05.05,0,0,0,.05.07l.18.05s.07,0,.07,0l.06-.23a.3.3,0,0,0,.21-.21.3.3,0,1,0-.58-.15Z" transform="translate(-0.5 -0.5)"/>
            <path class="cls-39" d="M39.68,234.32l-.11.44,1.33.35.12-.44a.69.69,0,1,0-1.34-.35Z" transform="translate(-0.5 -0.5)"/>
            <path class="cls-39" d="M37.26,232.34s-.84,2.85-.87,3.34c-.18,2.31,2.4,5,2.4,5h0s3.42-1,4.38-3c.2-.43,1.14-3.14,1.14-3.14s.28-.66-.23-1a15.53,15.53,0,0,1-1.71-1q-.45-.33-.78-.54a3.07,3.07,0,0,0-.49-.26h0a2.12,2.12,0,0,0-1-.08,15,15,0,0,1-2,0C37.47,231.63,37.26,232.34,37.26,232.34Zm1.23,2.53a.38.38,0,0,1,.46-.27l.09,0,.12-.45a1.23,1.23,0,1,1,2.38.63l-.12.44.1,0a.37.37,0,0,1,.26.46l-.45,1.73a.38.38,0,0,1-.46.27l-2.57-.68a.38.38,0,0,1-.27-.46Z" transform="translate(-0.5 -0.5)"/>
            <path class="cls-40" d="M36.39,235.68c-.13,1.66,1.17,3.5,1.9,4.41a6.6,6.6,0,0,1-1.58-4c0-.49.88-3.34.88-3.34s.2-.71.8-.7a16.81,16.81,0,0,0,2,0,2.07,2.07,0,0,1,1,.08h0a3.07,3.07,0,0,1,.49.26c.22.14.49.32.78.54a13.93,13.93,0,0,0,1.68,1,.58.58,0,0,0-.28-.39,14.72,14.72,0,0,1-1.72-1q-.45-.33-.78-.54a4.24,4.24,0,0,0-.49-.26h0a1.86,1.86,0,0,0-1-.09,16.83,16.83,0,0,1-2,0c-.59,0-.8.7-.8.7S36.42,235.19,36.39,235.68Z" transform="translate(-0.5 -0.5)"/>
          </g>
        </g>
      </g>
    </g>
  </g>
</svg>
