<svg xmlns="http://www.w3.org/2000/svg" xmlns:xlink="http://www.w3.org/1999/xlink" width="1024" height="620" viewBox="0 0 1024 620">
  <defs>
    <style>
      .cls-1 {
        isolation: isolate;
      }

      .cls-2 {
        fill: none;
      }

      .cls-3, .cls-4 {
        fill: #51b2fb;
      }

      .cls-3, .cls-32 {
        opacity: 0.1;
      }

      .cls-4 {
        opacity: 0.2;
      }

      .cls-5 {
        fill: #e3ebfc;
      }

      .cls-6 {
        fill: #ccddfa;
      }

      .cls-7 {
        fill: #fafbff;
      }

      .cls-8 {
        fill: #80a7f6;
      }

      .cls-9 {
        fill: #9fbcfb;
      }

      .cls-10 {
        fill: #b8d0f9;
      }

      .cls-11, .cls-29, .cls-31 {
        fill: #207bff;
      }

      .cls-11, .cls-37 {
        opacity: 0.4;
      }

      .cls-12 {
        fill: #004bff;
        opacity: 0.5;
        mix-blend-mode: multiply;
      }

      .cls-13 {
        fill: #c5d8fa;
      }

      .cls-14 {
        fill: url(#_ÂÁ_Ï_ÌÌ_È_ËÂÌÚ_30);
      }

      .cls-15 {
        fill: #4aebff;
      }

      .cls-16, .cls-30 {
        fill: #fff;
      }

      .cls-17 {
        fill: #bef9ff;
      }

      .cls-18 {
        fill: url(#linear-gradient);
      }

      .cls-19 {
        fill: #ec1c24;
      }

      .cls-20 {
        fill: url(#linear-gradient-2);
      }

      .cls-21 {
        fill: url(#linear-gradient-3);
      }

      .cls-22 {
        fill: url(#linear-gradient-4);
      }

      .cls-23 {
        fill: url(#linear-gradient-5);
      }

      .cls-24 {
        fill: url(#linear-gradient-6);
      }

      .cls-25 {
        fill: url(#linear-gradient-7);
      }

      .cls-26 {
        fill: url(#_ÂÁ_Ï_ÌÌ_È_ËÂÌÚ_14);
      }

      .cls-27 {
        fill: url(#_ÂÁ_Ï_ÌÌ_È_ËÂÌÚ_18);
      }

      .cls-28 {
        fill: #4880f8;
      }

      .cls-30 {
        opacity: 0.8;
      }

      .cls-31 {
        opacity: 0.72;
      }

      .cls-32, .cls-33, .cls-34, .cls-35 {
        fill: #3ae6fb;
      }

      .cls-33 {
        opacity: 0.3;
      }

      .cls-35 {
        opacity: 0.7;
      }

      .cls-36 {
        fill: #93b4fb;
      }

      .cls-37 {
        mix-blend-mode: lighten;
        fill: url(#radial-gradient);
      }

      .cls-38 {
        fill: #00ffda;
      }

      .cls-39 {
        fill: #7fd1ca;
      }

      .cls-40 {
        fill: #1e1e1e;
      }
    </style>
    <radialGradient id="_ÂÁ_Ï_ÌÌ_È_ËÂÌÚ_30" data-name="¡ÂÁ˚ÏˇÌÌ˚È „‡‰ËÂÌÚ 30" cx="5922.23" cy="503.46" r="5.44" gradientTransform="translate(-5809.3)" gradientUnits="userSpaceOnUse">
      <stop offset="0" stop-color="#4aebff"/>
      <stop offset="1" stop-color="#00709e"/>
    </radialGradient>
    <linearGradient id="linear-gradient" x1="76.67" y1="408.39" x2="76.67" y2="438.41" gradientTransform="translate(45.19)" gradientUnits="userSpaceOnUse">
      <stop offset="0.02" stop-color="#dd2a21"/>
      <stop offset="0.06" stop-color="#c8201b"/>
      <stop offset="0.1" stop-color="#b71717"/>
      <stop offset="0.15" stop-color="#ac1113"/>
      <stop offset="0.22" stop-color="#a50e12"/>
      <stop offset="0.43" stop-color="#a30d11"/>
      <stop offset="0.79" stop-color="#6b0006"/>
    </linearGradient>
    <linearGradient id="linear-gradient-2" x1="67.96" y1="409.73" x2="67.96" y2="431.27" gradientTransform="translate(45.19)" gradientUnits="userSpaceOnUse">
      <stop offset="0" stop-color="#ad1a27"/>
      <stop offset="0.08" stop-color="#9e151f"/>
      <stop offset="0.28" stop-color="#7d090e"/>
      <stop offset="0.44" stop-color="#680304"/>
      <stop offset="0.56" stop-color="#610000"/>
      <stop offset="0.73" stop-color="#520000"/>
      <stop offset="1" stop-color="#3f0000"/>
    </linearGradient>
    <linearGradient id="linear-gradient-3" x1="869.65" y1="420.82" x2="883.89" y2="420.82" gradientTransform="matrix(-1, 0, 0, 1, 1015.73, 0)" gradientUnits="userSpaceOnUse">
      <stop offset="0" stop-color="#be1349"/>
      <stop offset="0.24" stop-color="#be124e"/>
      <stop offset="0.25" stop-color="#be124e"/>
      <stop offset="1" stop-color="#7a0025"/>
    </linearGradient>
    <linearGradient id="linear-gradient-4" x1="865.32" y1="427.98" x2="883.95" y2="427.98" gradientTransform="matrix(-1, 0, 0, 1, 1015.73, 0)" gradientUnits="userSpaceOnUse">
      <stop offset="0" stop-color="#282881"/>
      <stop offset="0.27" stop-color="#26257d"/>
      <stop offset="0.55" stop-color="#1f1b70"/>
      <stop offset="0.84" stop-color="#150c5b"/>
      <stop offset="1" stop-color="#0d004c"/>
    </linearGradient>
    <linearGradient id="linear-gradient-5" x1="869.72" y1="427.98" x2="883.89" y2="427.98" xlink:href="#linear-gradient-3"/>
    <linearGradient id="linear-gradient-6" x1="872.59" y1="420.76" x2="890.4" y2="420.76" xlink:href="#linear-gradient-4"/>
    <linearGradient id="linear-gradient-7" x1="81.55" y1="427.27" x2="81.55" y2="417.07" gradientTransform="translate(45.19)" gradientUnits="userSpaceOnUse">
      <stop offset="0" stop-color="#ed2d24"/>
      <stop offset="0.12" stop-color="#ed2824"/>
      <stop offset="0.25" stop-color="#ec1c24"/>
      <stop offset="1" stop-color="#74020d"/>
    </linearGradient>
    <linearGradient id="_ÂÁ_Ï_ÌÌ_È_ËÂÌÚ_14" data-name="¡ÂÁ˚ÏˇÌÌ˚È „‡‰ËÂÌÚ 14" x1="5837.24" y1="630.43" x2="5897.81" y2="630.43" gradientTransform="translate(-5784.65 13.43) rotate(-2.88)" gradientUnits="userSpaceOnUse">
      <stop offset="0" stop-color="#003a6b"/>
      <stop offset="1" stop-color="#00204c"/>
    </linearGradient>
    <linearGradient id="_ÂÁ_Ï_ÌÌ_È_ËÂÌÚ_18" data-name="¡ÂÁ˚ÏˇÌÌ˚È „‡‰ËÂÌÚ 18" x1="5902.84" y1="322.63" x2="5933.53" y2="374.33" gradientTransform="translate(-5809.3)" gradientUnits="userSpaceOnUse">
      <stop offset="0" stop-color="#cbd7e1"/>
      <stop offset="0.05" stop-color="#aec0d0"/>
      <stop offset="0.15" stop-color="#7998b2"/>
      <stop offset="0.26" stop-color="#4e7698"/>
      <stop offset="0.35" stop-color="#2c5c85"/>
      <stop offset="0.44" stop-color="#144976"/>
      <stop offset="0.53" stop-color="#053e6e"/>
      <stop offset="0.6" stop-color="#003a6b"/>
      <stop offset="1" stop-color="#00204c"/>
    </linearGradient>
    <radialGradient id="radial-gradient" cx="4999.63" cy="631.04" r="11.53" gradientTransform="matrix(0.74, 0.02, -0.03, 0.82, -3645.94, -206.49)" gradientUnits="userSpaceOnUse">
      <stop offset="0" stop-color="#00ddde" stop-opacity="0.52"/>
      <stop offset="0.09" stop-color="#2de6e7" stop-opacity="0.65"/>
      <stop offset="0.2" stop-color="#63f1f1" stop-opacity="0.8"/>
      <stop offset="0.3" stop-color="#8af8f9" stop-opacity="0.91"/>
      <stop offset="0.38" stop-color="#a2fdfd" stop-opacity="0.98"/>
      <stop offset="0.43" stop-color="#abffff"/>
      <stop offset="0.46" stop-color="#9ffcfd"/>
      <stop offset="0.51" stop-color="#7ff6f6"/>
      <stop offset="0.58" stop-color="#4aebeb"/>
      <stop offset="0.66" stop-color="#03dcdd"/>
      <stop offset="0.66" stop-color="#00dbdc"/>
      <stop offset="0.69" stop-color="#08dcdd" stop-opacity="0.97"/>
      <stop offset="0.74" stop-color="#1fdfe0" stop-opacity="0.88"/>
      <stop offset="0.8" stop-color="#44e5e5" stop-opacity="0.73"/>
      <stop offset="0.87" stop-color="#78eced" stop-opacity="0.53"/>
      <stop offset="0.94" stop-color="#baf5f6" stop-opacity="0.27"/>
      <stop offset="1" stop-color="#fff" stop-opacity="0"/>
    </radialGradient>
  </defs>
  <title>robot</title>
  <g class="cls-1">
    <g id="robot">
      <g id="fondo">
        <rect class="cls-2" width="1024" height="620"/>
      </g>
      <g id="sombra">
        <ellipse class="cls-3" cx="98.34" cy="534.72" rx="43.65" ry="9.8"/>
        <path class="cls-4" d="M132.34,534.72c0,3.44-15.22,6.23-34,6.23s-34-2.79-34-6.23,15.23-6.24,34-6.24S132.34,531.27,132.34,534.72Z"/>
        <path class="cls-4" d="M118.81,534.72c0,2.07-9.16,3.75-20.47,3.75s-20.48-1.68-20.48-3.75S87,531,98.34,531,118.81,532.64,118.81,534.72Z"/>
      </g>
      <g id="brazoIzquierdo">
        <g>
          <path class="cls-5" d="M170.67,440.52c-6.38-30.33-18.76-43.26-21.66-45.95a2.54,2.54,0,0,0-1.55-.67c-2.16-.14-7.72.42-13.18,8.49-3.77,5.57-2.46,14.57-2.12,15,3.54,4.54,25.81,33.18,31.73,43C170.32,471,173.4,453.48,170.67,440.52Z"/>
          <path class="cls-6" d="M134.25,402.42a24.9,24.9,0,0,1,5.18-5.76c-.58.71-1.18,1.49-1.77,2.37-4.76,7-2.47,11.79-.8,15.05,6,11.66,23,33.29,27.38,46.93-.13-.19-.25-.38-.38-.6-5.92-9.8-28.19-38.43-31.73-43C131.78,417,130.47,408,134.25,402.42Z"/>
          <path class="cls-7" d="M151.6,405.24C165.87,415.51,170,452.05,170,452.05s-9.44-25.15-16.61-35.64S146.73,401.73,151.6,405.24Z"/>
          <path class="cls-6" d="M160.33,454.51a38.83,38.83,0,0,1,.17,5.27,8.91,8.91,0,0,1-2.42,2.57c-.18-2.2-2.16-13.67-4.28-16.58C153.05,444.74,160.25,452.38,160.33,454.51Z"/>
          <path class="cls-8" d="M153.55,446.13a.34.34,0,0,0,.28-.2c2.68-5.81,9.13-10.7,15.8-8.32a.35.35,0,0,0,.24-.66c-7.07-2.53-13.87,2.59-16.69,8.69a.35.35,0,0,0,.18.46A.32.32,0,0,0,153.55,446.13Z"/>
        </g>
        <path class="cls-9" d="M149.52,408.05c-.83,9.47-4.79,16.86-8.87,16.51s-6.7-8.31-5.88-17.78,4.78-16.72,8.86-16.51C149.52,390.58,150.34,398.59,149.52,408.05Z"/>
      </g>
      <g id="torso">
        <path class="cls-5" d="M58.86,386.19c-4.22-.27-19.13,14.69-14.65,29.19s29.9,62.93,35.65,79.88,9.2,21.13,17.38,22.67,20.55,2.1,34.88-27.83,16.54-63.54,17.19-79.5-1-22.31-6.61-24.13C129.69,382.22,58.86,386.19,58.86,386.19Z"/>
        <path class="cls-7" d="M126.34,486.58c11.11-31.48,9.77-65.33,8.74-81.36-.69-10.66-1.94-17-4.4-20.32-11.84-.67-29.13-.38-43.78.09,7.83,20.67,19.41,55.48,21.34,91.34,1.29,23.92-2,35.61-6.59,41.59C109.11,516.43,118.07,510,126.34,486.58Z"/>
        <path class="cls-10" d="M144,387.8c0,3.1-21.92,7.92-44,7.95s-44-4.71-44.06-7.81,21.93-3.38,44-3.42S143.94,384.69,144,387.8Z"/>
        <path class="cls-11" d="M130.58,388.43c0,2.15-15.1,5.48-30.34,5.5s-30.34-3.25-30.35-5.4,15.11-2.34,30.34-2.37S130.57,386.28,130.58,388.43Z"/>
        <path class="cls-12" d="M121.31,389.54c0,.82-10.42,1.87-20.57,1.88s-19.86-1-19.86-1.81,9.71-1.15,19.86-1.16S121.31,388.72,121.31,389.54Z"/>
        <path class="cls-13" d="M89,498.77c-2.35-12.69-5.86-54.18-14.2-83.46-4.18-14.68-14-25-23.54-21.75-6.76,2.33-9.43,14-7,21.82,4.49,14.51,29.9,62.93,35.65,79.88s9.2,21.13,17.38,22.67c4.22.79,9.54,1.31,15.67-2.44C104.62,516.79,92.85,519.78,89,498.77Z"/>
        <path class="cls-14" d="M118.23,505a15.34,15.34,0,0,1-5,.83,23.59,23.59,0,0,1-5.64-.41,2.26,2.26,0,0,1-2-2.1h0a2,2,0,0,1,2-2.09s4.34.48,5.39.47a38.21,38.21,0,0,0,5.48-.51c1.09,0,2.1.32,1.77,1.88A2.69,2.69,0,0,1,118.23,505Z"/>
        <path class="cls-15" d="M117.54,504.72a16,16,0,0,1-4.36.59,23.65,23.65,0,0,1-4.87-.3c-.91-.19-1.71-.67-1.7-1.49h0a1.61,1.61,0,0,1,1.7-1.49s3.75.34,4.66.34a40.7,40.7,0,0,0,4.74-.37c.94,0,1.82.23,1.53,1.34C119.11,503.85,118.68,504.37,117.54,504.72Z"/>
        <path class="cls-8" d="M112,495.38c-10,0-22.18-2.16-35.35-7.58a.35.35,0,1,1,.26-.65c24.56,10.09,45.69,8.81,54.92,3.35a.37.37,0,0,1,.49.12.36.36,0,0,1-.13.49C127.77,493.7,120.74,495.38,112,495.38Z"/>
        <path class="cls-16" d="M111.71,494.59c-10,0-22.18-2.16-35.35-7.58a.35.35,0,1,1,.26-.65c24.56,10.09,45.68,8.81,54.92,3.35a.37.37,0,0,1,.49.12.36.36,0,0,1-.13.49C127.51,492.92,120.48,494.59,111.71,494.59Z"/>
        <path class="cls-7" d="M147.45,394.38c1.89,38.37-3.65,56.52-3.65,56.52s5.29-29,.41-57C143.54,390.05,147.16,388.38,147.45,394.38Z"/>
        <path class="cls-16" d="M59.23,391.7s4.37,2.63,20.33,4.11,37,1.2,37,1.2-19.37,2.56-37.06.66S59.23,391.7,59.23,391.7Z"/>
        <path class="cls-17" d="M115.53,502.24c-.77.07-1.67.12-2.56.13s-4.66-.34-4.66-.34l-.36,0,1.73,3.14a32.57,32.57,0,0,0,3.5.11,16.3,16.3,0,0,0,4.06-.52Z"/>
        <g>
          <path class="cls-18" d="M111.69,420.67a13.57,13.57,0,0,1,8.45-12.56,14.46,14.46,0,0,1,1.51.2A12.46,12.46,0,0,1,132,420.19c0,.14,0,.27,0,.41v.14h0a7.73,7.73,0,0,0-7.73-7.72,7.81,7.81,0,0,0-2.53.42c.77-.27.74-.27,0,0a7.42,7.42,0,0,0-10,7.2v.07a7.28,7.28,0,0,0,7.31,7.59,7.38,7.38,0,0,0,2.38-.39,7.6,7.6,0,0,0,2.87.56,7.74,7.74,0,0,0,7.73-7.61A12.35,12.35,0,0,1,121.74,433a13.92,13.92,0,0,1-1.58.2A13.55,13.55,0,0,1,111.69,420.67Z"/>
          <path class="cls-19" d="M116.58,420.76a7.73,7.73,0,0,0,4.86,7.18,7.38,7.38,0,0,1-2.38.39,7.28,7.28,0,0,1-7.31-7.59v-.07a7.42,7.42,0,0,1,10-7.2c.78-.29.81-.29,0,0A7.74,7.74,0,0,0,116.58,420.76Z"/>
          <path class="cls-20" d="M119.06,408.07c.37,0,.73,0,1.08,0a13.55,13.55,0,0,0,0,25.12c-.34,0-.68,0-1,0a12.59,12.59,0,0,1-13-12.6v-.07C106.15,413.67,111.54,408.07,119.06,408.07Z"/>
          <path class="cls-21" d="M132,420.76v0Z"/>
          <path class="cls-22" d="M121.65,427.87c.81.29.8.3,0,0Z"/>
          <path class="cls-23" d="M121.65,427.87c.81.29.8.3,0,0Z"/>
          <path class="cls-24" d="M124.31,428.5a7.6,7.6,0,0,1-2.87-.56l.21-.07c.8.3.81.29,0,0a7.53,7.53,0,0,0,5-7.2v-.07a7.41,7.41,0,0,0-4.89-7.13l0,0a7.81,7.81,0,0,1,2.53-.42,7.73,7.73,0,0,1,7.73,7.72v.14A7.74,7.74,0,0,1,124.31,428.5Z"/>
          <path class="cls-25" d="M124.31,428.5a7.6,7.6,0,0,1-2.87-.56l.21-.07c.8.3.81.29,0,0a7.53,7.53,0,0,0,5-7.2v-.07a7.41,7.41,0,0,0-4.89-7.13l0,0a7.81,7.81,0,0,1,2.53-.42,7.73,7.73,0,0,1,7.73,7.72v.14A7.74,7.74,0,0,1,124.31,428.5Z"/>
        </g>
      </g>
      <g id="cabeza">
        <g>
          <path class="cls-5" d="M62.22,374.4c10.06,13,40.87,10.48,49.45,9.67S134.8,381.75,140,366s2.61-39.91-11.79-52.44-52.94-10.49-66,6.4S58.73,369.9,62.22,374.4Z"/>
          <path class="cls-16" d="M64.88,323.36c.57-.21,12.47-9.45,34-11.3,7.41-.64,19,0,26.39,1-.74-.78-11.39-6.94-33.37-4.65A43.32,43.32,0,0,0,64.88,323.36Z"/>
          <path class="cls-7" d="M104,319.53c-6.93.11-13.88.6-20.42,3.09l-.15.06c6.79,14.37,7.34,33.09,3.37,46.48A28.19,28.19,0,0,1,81.06,380c12,2.12,25.4,1,30.61.52,5.68-.54,14-1.38,20.44-6.46a32.63,32.63,0,0,0,1.87-4.91c4-13.56,3.41-32.6-3.64-47A111.64,111.64,0,0,0,104,319.53Z"/>
          <path class="cls-26" d="M79,332.29c4-5.43,14.89-6.86,28.54-7.67,17.62-1.05,23.58,2.14,25.37,4.17s4.93,12.16,4.26,22-.78,12.79-4.83,15.23-15.73,4.84-23.28,5c-14.3.35-21.51-.34-26.29-3.15-2.44-1.44-5.55-9.17-6-18.71S76.89,335.11,79,332.29Z"/>
          <path class="cls-27" d="M107,326.14c-8.48.49-15.85,1.22-21,3.05,4.54,12.59,4.57,27.52,1.2,38.57l-.12.37c4.53,1.31,11,1.63,21.42,1.38,7.24-.17,18.45-2.41,22.33-4.7a6.86,6.86,0,0,0,3-3.17,65.73,65.73,0,0,0-2.24-31.28,3,3,0,0,0-.25-.32C129.64,328.14,123.92,325.16,107,326.14Z"/>
          <path class="cls-9" d="M69.7,341.33c-.23,5.34-3.22,9.54-6.66,9.39s-6-4.61-5.8-10,3.22-9.54,6.66-9.39S69.94,336,69.7,341.33Z"/>
          <path class="cls-28" d="M67,340.93c-.17,3.75-2,6.71-4.08,6.62s-3.64-3.21-3.48-7,2-6.71,4.08-6.62S67.14,337.18,67,340.93Z"/>
          <path class="cls-29" d="M67,341.21l-.35,0,.35,0a13.08,13.08,0,0,0-1.56-7.11,5.75,5.75,0,0,0-4.58-3.21c-3.62-.16-6.78,4.21-7,9.73s2.51,10.16,6.14,10.32h.2C63.75,350.94,66.79,346.64,67,341.21Zm-6.17-9.61a5.08,5.08,0,0,1,4,2.85,12.45,12.45,0,0,1,1.47,6.73c-.23,5.14-3.06,9.19-6.3,9.05s-5.69-4.44-5.46-9.58,3-9.06,6.13-9.06Z"/>
          <path class="cls-7" d="M60.43,353.71l2.53.09s1.07,10.49,4.1,16.65,7.32,8.14,7.32,8.14S67.91,376.5,64,368.51C61.24,362.75,60.43,353.71,60.43,353.71Z"/>
          <path class="cls-30" d="M81.34,333.09v0a1.33,1.33,0,0,0,1.92.45c1.23-.84,3.11-2.09,4.18-2.68,1.7-.92,10.12-4,10.12-4A38.58,38.58,0,0,0,82,330.92,1.59,1.59,0,0,0,81.34,333.09Z"/>
        </g>
        <path class="cls-31" d="M74.73,340.1c0,1.66-.77,3-1.72,3s-1.72-1.34-1.72-3,.77-3,1.72-3S74.73,338.44,74.73,340.1Z"/>
      </g>
      <g id="ojos">
        <g>
          <rect class="cls-32" x="95.17" y="336.03" width="12.15" height="15.87" rx="3.93"/>
          <rect class="cls-32" x="96.45" y="337.73" width="9.6" height="12.46" rx="3.93"/>
          <rect class="cls-33" x="98.06" y="339.33" width="6.66" height="9.7" rx="2.44"/>
          <path class="cls-34" d="M104,343.07H98.54a.27.27,0,0,1,0-.53H104a.27.27,0,0,1,0,.53Z"/>
          <path class="cls-34" d="M104,344.23H98.54a.27.27,0,0,1,0-.53H104a.27.27,0,0,1,0,.53Z"/>
          <path class="cls-34" d="M104,345.43H98.54a.27.27,0,0,1,0-.53H104a.27.27,0,0,1,0,.53Z"/>
          <path class="cls-34" d="M103.32,340.85H99.24a.26.26,0,0,1,0-.52h4.08a.26.26,0,1,1,0,.52Z"/>
          <path class="cls-34" d="M104,342.05H98.54a.26.26,0,0,1-.26-.26.27.27,0,0,1,.26-.27H104a.27.27,0,0,1,.26.27A.26.26,0,0,1,104,342.05Z"/>
          <path class="cls-34" d="M104,346.85H98.54a.27.27,0,0,1,0-.53H104a.27.27,0,0,1,0,.53Z"/>
          <path class="cls-34" d="M104,348H98.54a.27.27,0,0,1,0-.53H104a.27.27,0,0,1,0,.53Z"/>
        </g>
        <g>
          <rect class="cls-32" x="116.99" y="335.74" width="12.15" height="15.87" rx="3.93"/>
          <rect class="cls-32" x="118.26" y="337.45" width="9.6" height="12.46" rx="3.93"/>
          <rect class="cls-33" x="119.88" y="339.05" width="6.66" height="9.7" rx="2.44"/>
          <path class="cls-34" d="M125.83,342.78h-5.47a.26.26,0,1,1,0-.52h5.47a.26.26,0,1,1,0,.52Z"/>
          <path class="cls-34" d="M125.83,343.94h-5.47a.27.27,0,0,1,0-.53h5.47a.27.27,0,1,1,0,.53Z"/>
          <path class="cls-34" d="M125.83,345.14h-5.47a.27.27,0,0,1,0-.53h5.47a.27.27,0,1,1,0,.53Z"/>
          <path class="cls-34" d="M125.14,340.57h-4.08a.27.27,0,1,1,0-.53h4.08a.27.27,0,0,1,0,.53Z"/>
          <path class="cls-34" d="M125.83,341.77h-5.47a.27.27,0,0,1,0-.53h5.47a.27.27,0,1,1,0,.53Z"/>
          <path class="cls-34" d="M125.83,346.56h-5.47a.26.26,0,0,1-.26-.26.27.27,0,0,1,.26-.27h5.47a.27.27,0,0,1,.27.27A.26.26,0,0,1,125.83,346.56Z"/>
          <path class="cls-34" d="M125.83,347.72h-5.47a.27.27,0,0,1,0-.53h5.47a.27.27,0,1,1,0,.53Z"/>
        </g>
      </g>
      <path id="boca" class="cls-35" d="M103.78,360c5.48.7,15.31,1.24,15.31,1.24s-8.69.88-14.37-.09S97.88,359.29,103.78,360Z"/>
      <g id="brazoDerecho">
        <path class="cls-36" d="M67.78,414.76c3,10.59.64,20.57-5.37,22.3S49.06,431.6,46,421s-.63-20.57,5.38-22.29S64.74,404.18,67.78,414.76Z"/>
        <path class="cls-29" d="M60.48,434.44a.38.38,0,0,1,0-.76A4.37,4.37,0,0,0,64,431.21c2.5-4.29,2-12.39-1.12-18.84-3.74-7.71-9.73-10.79-13.14-9.22a.37.37,0,0,1-.5-.19.37.37,0,0,1,.18-.5c4.28-2,10.62,2.32,14.15,9.57,3.24,6.66,3.7,15.07,1.09,19.56a5.17,5.17,0,0,1-4.14,2.85Z"/>
        <g>
          <path class="cls-5" d="M27.59,454.25C30.11,423.37,40.77,409,43.31,406a2.52,2.52,0,0,1,1.46-.86c2.12-.41,7.71-.55,14.14,6.77,4.44,5.05,4.27,14.15,4,14.63C60,431.44,41.44,462.64,36.8,473.11,31.76,484.49,26.51,467.45,27.59,454.25Z"/>
          <path class="cls-6" d="M58.94,411.88a25.24,25.24,0,0,0-5.86-5.06c.67.63,1.35,1.34,2.05,2.13,5.6,6.38,3.93,11.39,2.68,14.83-4.48,12.32-18.64,35.91-21.27,50l.3-.64c4.64-10.47,23.14-41.67,26.09-46.63C63.21,426,63.38,416.94,58.94,411.88Z"/>
          <path class="cls-7" d="M42.08,416.86c-12.87,12-12.41,48.75-12.41,48.75s6.21-26.13,12-37.44S46.47,412.77,42.08,416.86Z"/>
          <path class="cls-6" d="M39.6,466.83a38.21,38.21,0,0,0,.5,5.26,8.86,8.86,0,0,0,2.72,2.24c-.1-2.21.43-13.83,2.16-17C45.59,456.23,39.41,464.72,39.6,466.83Z"/>
          <path class="cls-8" d="M45.28,457.68a.34.34,0,0,1-.3-.17c-3.39-5.43-10.41-9.47-16.73-6.27a.34.34,0,0,1-.47-.16.35.35,0,0,1,.15-.47c6.7-3.39,14.09.83,17.65,6.53a.35.35,0,0,1-.12.48A.32.32,0,0,1,45.28,457.68Z"/>
        </g>
        <g>
          <path class="cls-37" d="M49.55,425.6c-.16,5.24-4.11,9.37-8.83,9.22s-8.41-4.5-8.25-9.74,4.11-9.36,8.83-9.21S49.71,420.37,49.55,425.6Z"/>
          <g>
            <path class="cls-38" d="M35.17,426.15a8.26,8.26,0,0,0,1.88,5,17.41,17.41,0,0,0,2.05,2.36s5.45-1.39,6.95-4.52c.31-.65,1.74-4.75,1.74-4.75s.43-1-.38-1.44a24.06,24.06,0,0,1-2.76-1.57,8.08,8.08,0,0,0-1.84-1.18c-.52-.18-.75-.08-1.71,0a28,28,0,0,1-3.25-.08c-1,0-1.07,1.08-1.07,1.08S35.22,425.41,35.17,426.15Z"/>
            <path class="cls-39" d="M36.78,421.05s-1.56,4.36-1.61,5.1c-.23,3.53,3.93,7.37,3.93,7.37h0s5.44-1.39,6.94-4.52c.31-.65,1.74-4.75,1.74-4.75s.43-1-.38-1.44a25.45,25.45,0,0,1-2.76-1.56,7.86,7.86,0,0,0-1.84-1.19c-.52-.19-.75-.08-1.71,0a28,28,0,0,1-3.25-.08C36.9,419.94,36.78,421.05,36.78,421.05Zm.86-.19.8,0a9.42,9.42,0,0,0,2.5,0c1.73-.33,2.26.54,3.08,1.14a16.85,16.85,0,0,0,2.13,1.23l.69.36a1.42,1.42,0,0,1,0,.2l0,.06c-.54,1.57-1.49,4.22-1.7,4.66a7.49,7.49,0,0,1-3.55,3,17.77,17.77,0,0,1-2.11.84A17.43,17.43,0,0,1,38,430.59a8.06,8.06,0,0,1-1.7-4.54,33.88,33.88,0,0,1,1.31-4.95Z"/>
            <path class="cls-40" d="M35.17,426.16c-.14,2,1.21,4.19,2.37,5.63-1.06-1.42-2.13-3.33-2-5.16,0-.74,1.62-5.11,1.62-5.11s.11-1.1,1.07-1.08a28,28,0,0,0,3.25.08c1-.07,1.19-.17,1.71,0A7.6,7.6,0,0,1,45,421.72a25.45,25.45,0,0,0,2.76,1.56l.07.05a.9.9,0,0,0-.44-.52,24.06,24.06,0,0,1-2.76-1.57,8.08,8.08,0,0,0-1.84-1.18c-.52-.19-.75-.08-1.71,0a28,28,0,0,1-3.25-.08c-1,0-1.07,1.08-1.07,1.08A53.32,53.32,0,0,0,35.17,426.16Z"/>
            <path class="cls-39" d="M40.6,426.25a.33.33,0,0,0,.08.32l-.07.26a.07.07,0,0,0,0,.08l.21.06a.07.07,0,0,0,.08-.05l.07-.26a.33.33,0,0,0,.23-.24A.34.34,0,0,0,41,426,.33.33,0,0,0,40.6,426.25Z"/>
            <path class="cls-39" d="M40.6,424.5l-.13.5,1.51.4.13-.5a.78.78,0,1,0-1.51-.4Z"/>
            <path class="cls-39" d="M37.87,422.26s-.95,3.22-1,3.77c-.19,2.62,2.72,5.64,2.72,5.64h0s3.87-1.09,5-3.43c.23-.49,1.28-3.55,1.28-3.55s.32-.75-.25-1.08a15.21,15.21,0,0,1-1.94-1.13c-.34-.25-.64-.45-.89-.6a2.92,2.92,0,0,0-.55-.3h0a2.14,2.14,0,0,0-1.14-.09,17.06,17.06,0,0,1-2.28,0C38.1,421.46,37.87,422.26,37.87,422.26Zm1.38,2.86a.43.43,0,0,1,.52-.31l.11,0,.13-.5a1.39,1.39,0,1,1,2.69.71l-.13.5.11,0a.43.43,0,0,1,.3.52l-.52,2a.43.43,0,0,1-.52.3L39,427.6a.43.43,0,0,1-.3-.53Z"/>
            <path class="cls-40" d="M36.88,426c-.15,1.88,1.32,4,2.15,5-.84-1.12-1.91-2.9-1.79-4.52,0-.55,1-3.78,1-3.78s.23-.8.91-.79a17.06,17.06,0,0,0,2.28,0,2.12,2.12,0,0,1,1.13.09h0a4.24,4.24,0,0,1,.55.3A10.37,10.37,0,0,1,44,423a14.49,14.49,0,0,0,1.9,1.1.63.63,0,0,0-.32-.45,15.21,15.21,0,0,1-1.94-1.13,10,10,0,0,0-.89-.6,2.92,2.92,0,0,0-.55-.3h0a2,2,0,0,0-1.14-.1,17.06,17.06,0,0,1-2.28,0c-.67,0-.9.8-.9.8S36.92,425.48,36.88,426Z"/>
          </g>
        </g>
      </g>
    </g>
  </g>
</svg>
