<svg xmlns="http://www.w3.org/2000/svg" xmlns:xlink="http://www.w3.org/1999/xlink" width="1024" height="620" viewBox="0 0 1024 620">
  <defs>
    <style>
      .cls-1 {
        isolation: isolate;
      }

      .cls-2 {
        fill: none;
      }

      .cls-3, .cls-4 {
        fill: #51b2fb;
      }

      .cls-3, .cls-32 {
        opacity: 0.1;
      }

      .cls-4 {
        opacity: 0.2;
      }

      .cls-5 {
        fill: #e3ebfc;
      }

      .cls-6 {
        fill: #ccddfa;
      }

      .cls-7 {
        fill: #fafbff;
      }

      .cls-8 {
        fill: #80a7f6;
      }

      .cls-9 {
        fill: #9fbcfb;
      }

      .cls-10 {
        fill: #b8d0f9;
      }

      .cls-11, .cls-29, .cls-31 {
        fill: #207bff;
      }

      .cls-11, .cls-37 {
        opacity: 0.4;
      }

      .cls-12 {
        fill: #004bff;
        opacity: 0.5;
        mix-blend-mode: multiply;
      }

      .cls-13 {
        fill: #c5d8fa;
      }

      .cls-14 {
        fill: url(#_ÂÁ_Ï_ÌÌ_È_ËÂÌÚ_30);
      }

      .cls-15 {
        fill: #4aebff;
      }

      .cls-16, .cls-30 {
        fill: #fff;
      }

      .cls-17 {
        fill: #bef9ff;
      }

      .cls-18 {
        fill: url(#linear-gradient);
      }

      .cls-19 {
        fill: #ec1c24;
      }

      .cls-20 {
        fill: url(#linear-gradient-2);
      }

      .cls-21 {
        fill: url(#linear-gradient-3);
      }

      .cls-22 {
        fill: url(#linear-gradient-4);
      }

      .cls-23 {
        fill: url(#linear-gradient-5);
      }

      .cls-24 {
        fill: url(#linear-gradient-6);
      }

      .cls-25 {
        fill: url(#linear-gradient-7);
      }

      .cls-26 {
        fill: url(#_ÂÁ_Ï_ÌÌ_È_ËÂÌÚ_14);
      }

      .cls-27 {
        fill: url(#_ÂÁ_Ï_ÌÌ_È_ËÂÌÚ_18);
      }

      .cls-28 {
        fill: #4880f8;
      }

      .cls-30 {
        opacity: 0.8;
      }

      .cls-31 {
        opacity: 0.72;
      }

      .cls-32, .cls-33, .cls-34, .cls-35 {
        fill: #3ae6fb;
      }

      .cls-33 {
        opacity: 0.3;
      }

      .cls-35 {
        opacity: 0.7;
      }

      .cls-36 {
        fill: #93b4fb;
      }

      .cls-37 {
        mix-blend-mode: lighten;
        fill: url(#radial-gradient);
      }

      .cls-38 {
        fill: #00ffda;
      }

      .cls-39 {
        fill: #7fd1ca;
      }

      .cls-40 {
        fill: #1e1e1e;
      }
    </style>
    <radialGradient id="_ÂÁ_Ï_ÌÌ_È_ËÂÌÚ_30" data-name="¡ÂÁ˚ÏˇÌÌ˚È „‡‰ËÂÌÚ 30" cx="5982.84" cy="452.25" r="5.42" gradientTransform="translate(-5809.3)" gradientUnits="userSpaceOnUse">
      <stop offset="0" stop-color="#4aebff"/>
      <stop offset="1" stop-color="#00709e"/>
    </radialGradient>
    <linearGradient id="linear-gradient" x1="137.25" y1="357.56" x2="137.25" y2="387.45" gradientTransform="translate(45.19)" gradientUnits="userSpaceOnUse">
      <stop offset="0.02" stop-color="#dd2a21"/>
      <stop offset="0.06" stop-color="#c8201b"/>
      <stop offset="0.1" stop-color="#b71717"/>
      <stop offset="0.15" stop-color="#ac1113"/>
      <stop offset="0.22" stop-color="#a50e12"/>
      <stop offset="0.43" stop-color="#a30d11"/>
      <stop offset="0.79" stop-color="#6b0006"/>
    </linearGradient>
    <linearGradient id="linear-gradient-2" x1="128.57" y1="358.89" x2="128.57" y2="380.35" gradientTransform="translate(45.19)" gradientUnits="userSpaceOnUse">
      <stop offset="0" stop-color="#ad1a27"/>
      <stop offset="0.08" stop-color="#9e151f"/>
      <stop offset="0.28" stop-color="#7d090e"/>
      <stop offset="0.44" stop-color="#680304"/>
      <stop offset="0.56" stop-color="#610000"/>
      <stop offset="0.73" stop-color="#520000"/>
      <stop offset="1" stop-color="#3f0000"/>
    </linearGradient>
    <linearGradient id="linear-gradient-3" x1="809.16" y1="369.94" x2="823.35" y2="369.94" gradientTransform="matrix(-1, 0, 0, 1, 1015.73, 0)" gradientUnits="userSpaceOnUse">
      <stop offset="0" stop-color="#be1349"/>
      <stop offset="0.24" stop-color="#be124e"/>
      <stop offset="0.25" stop-color="#be124e"/>
      <stop offset="1" stop-color="#7a0025"/>
    </linearGradient>
    <linearGradient id="linear-gradient-4" x1="804.85" y1="377.07" x2="823.41" y2="377.07" gradientTransform="matrix(-1, 0, 0, 1, 1015.73, 0)" gradientUnits="userSpaceOnUse">
      <stop offset="0" stop-color="#282881"/>
      <stop offset="0.27" stop-color="#26257d"/>
      <stop offset="0.55" stop-color="#1f1b70"/>
      <stop offset="0.84" stop-color="#150c5b"/>
      <stop offset="1" stop-color="#0d004c"/>
    </linearGradient>
    <linearGradient id="linear-gradient-5" x1="809.24" y1="377.07" x2="823.35" y2="377.07" xlink:href="#linear-gradient-3"/>
    <linearGradient id="linear-gradient-6" x1="812.1" y1="369.88" x2="829.83" y2="369.88" xlink:href="#linear-gradient-4"/>
    <linearGradient id="linear-gradient-7" x1="142.11" y1="376.36" x2="142.11" y2="366.21" gradientTransform="translate(45.19)" gradientUnits="userSpaceOnUse">
      <stop offset="0" stop-color="#ed2d24"/>
      <stop offset="0.12" stop-color="#ed2824"/>
      <stop offset="0.25" stop-color="#ec1c24"/>
      <stop offset="1" stop-color="#74020d"/>
    </linearGradient>
    <linearGradient id="_ÂÁ_Ï_ÌÌ_È_ËÂÌÚ_14" data-name="¡ÂÁ˚ÏˇÌÌ˚È „‡‰ËÂÌÚ 14" x1="5900.47" y1="582.95" x2="5960.8" y2="582.95" gradientTransform="translate(-5784.65 13.43) rotate(-2.88)" gradientUnits="userSpaceOnUse">
      <stop offset="0" stop-color="#003a6b"/>
      <stop offset="1" stop-color="#00204c"/>
    </linearGradient>
    <linearGradient id="_ÂÁ_Ï_ÌÌ_È_ËÂÌÚ_18" data-name="¡ÂÁ˚ÏˇÌÌ˚È „‡‰ËÂÌÚ 18" x1="5963.53" y1="272.14" x2="5994.1" y2="323.64" gradientTransform="translate(-5809.3)" gradientUnits="userSpaceOnUse">
      <stop offset="0" stop-color="#cbd7e1"/>
      <stop offset="0.05" stop-color="#aec0d0"/>
      <stop offset="0.15" stop-color="#7998b2"/>
      <stop offset="0.26" stop-color="#4e7698"/>
      <stop offset="0.35" stop-color="#2c5c85"/>
      <stop offset="0.44" stop-color="#144976"/>
      <stop offset="0.53" stop-color="#053e6e"/>
      <stop offset="0.6" stop-color="#003a6b"/>
      <stop offset="1" stop-color="#00204c"/>
    </linearGradient>
    <radialGradient id="radial-gradient" cx="5079.71" cy="566.94" r="11.48" gradientTransform="matrix(0.74, 0.02, -0.03, 0.82, -3645.94, -206.49)" gradientUnits="userSpaceOnUse">
      <stop offset="0" stop-color="#00ddde" stop-opacity="0.52"/>
      <stop offset="0.09" stop-color="#2de6e7" stop-opacity="0.65"/>
      <stop offset="0.2" stop-color="#63f1f1" stop-opacity="0.8"/>
      <stop offset="0.3" stop-color="#8af8f9" stop-opacity="0.91"/>
      <stop offset="0.38" stop-color="#a2fdfd" stop-opacity="0.98"/>
      <stop offset="0.43" stop-color="#abffff"/>
      <stop offset="0.46" stop-color="#9ffcfd"/>
      <stop offset="0.51" stop-color="#7ff6f6"/>
      <stop offset="0.58" stop-color="#4aebeb"/>
      <stop offset="0.66" stop-color="#03dcdd"/>
      <stop offset="0.66" stop-color="#00dbdc"/>
      <stop offset="0.69" stop-color="#08dcdd" stop-opacity="0.97"/>
      <stop offset="0.74" stop-color="#1fdfe0" stop-opacity="0.88"/>
      <stop offset="0.8" stop-color="#44e5e5" stop-opacity="0.73"/>
      <stop offset="0.87" stop-color="#78eced" stop-opacity="0.53"/>
      <stop offset="0.94" stop-color="#baf5f6" stop-opacity="0.27"/>
      <stop offset="1" stop-color="#fff" stop-opacity="0"/>
    </radialGradient>
  </defs>
  <title>robot</title>
  <g class="cls-1">
    <g id="robot">
      <g id="fondo">
        <rect class="cls-2" width="1024" height="620"/>
      </g>
      <g id="sombra">
        <ellipse class="cls-3" cx="158.51" cy="482.88" rx="43.48" ry="9.76"/>
        <path class="cls-4" d="M192.88,483.38c0,3.43-15.16,6.21-33.87,6.21s-33.87-2.78-33.87-6.21,15.17-6.21,33.87-6.21S192.88,480,192.88,483.38Z" transform="translate(-0.5 -0.5)"/>
        <path class="cls-4" d="M179.4,483.38c0,2.06-9.13,3.74-20.39,3.74s-20.39-1.68-20.39-3.74,9.13-3.74,20.39-3.74S179.4,481.32,179.4,483.38Z" transform="translate(-0.5 -0.5)"/>
      </g>
      <g id="brazoIzquierdo">
        <g>
          <path class="cls-5" d="M231.05,389.56c-6.35-30.21-18.68-43.09-21.57-45.76a2.48,2.48,0,0,0-1.54-.67c-2.15-.14-7.69.42-13.13,8.45-3.76,5.55-2.45,14.52-2.11,14.95,3.53,4.53,25.71,33.05,31.6,42.81C230.71,420,233.77,402.47,231.05,389.56Z" transform="translate(-0.5 -0.5)"/>
          <path class="cls-6" d="M194.78,351.61a24.86,24.86,0,0,1,5.16-5.73,29,29,0,0,0-1.76,2.36c-4.74,7-2.46,11.74-.8,15,6,11.62,22.91,33.16,27.27,46.75-.13-.19-.25-.38-.38-.6-5.89-9.76-28.07-38.28-31.61-42.8C192.32,366.13,191,357.16,194.78,351.61Z" transform="translate(-0.5 -0.5)"/>
          <path class="cls-7" d="M212.06,354.42c14.22,10.23,18.36,46.63,18.36,46.63S221,376,213.88,365.54,207.21,350.93,212.06,354.42Z" transform="translate(-0.5 -0.5)"/>
          <path class="cls-6" d="M220.75,403.49a38.59,38.59,0,0,1,.17,5.25,8.71,8.71,0,0,1-2.41,2.56c-.17-2.19-2.15-13.61-4.26-16.51C213.51,393.76,220.68,401.38,220.75,403.49Z" transform="translate(-0.5 -0.5)"/>
          <path class="cls-8" d="M214,395.15a.36.36,0,0,0,.28-.2c2.67-5.79,9.1-10.66,15.74-8.29a.34.34,0,0,0,.45-.21.35.35,0,0,0-.21-.45c-7-2.51-13.82,2.59-16.62,8.66a.35.35,0,0,0,.17.46A.32.32,0,0,0,214,395.15Z" transform="translate(-0.5 -0.5)"/>
        </g>
        <path class="cls-9" d="M210,357.23c-.81,9.43-4.76,16.79-8.82,16.44s-6.68-8.29-5.86-17.72,4.76-16.65,8.82-16.44C210,339.82,210.8,347.79,210,357.23Z" transform="translate(-0.5 -0.5)"/>
      </g>
      <g id="torso">
        <path class="cls-5" d="M119.69,335.45c-4.21-.27-19,14.62-14.58,29.08s29.77,62.67,35.5,79.55,9.16,21.05,17.31,22.58,20.46,2.09,34.74-27.72,16.47-63.28,17.12-79.18-1-22.22-6.58-24C190.24,331.49,119.69,335.45,119.69,335.45Z" transform="translate(-0.5 -0.5)"/>
        <path class="cls-7" d="M186.9,435.43c11.07-31.35,9.73-65.06,8.71-81-.69-10.61-1.94-16.88-4.38-20.24-11.79-.66-29-.37-43.61.1,7.8,20.58,19.34,55.25,21.26,91,1.28,23.83-2,35.47-6.57,41.43C169.74,465.17,178.66,458.76,186.9,435.43Z" transform="translate(-0.5 -0.5)"/>
        <path class="cls-10" d="M204.44,337.05c0,3.09-21.83,7.89-43.86,7.92s-43.88-4.69-43.88-7.78,21.84-3.37,43.86-3.41S204.43,334,204.44,337.05Z" transform="translate(-0.5 -0.5)"/>
        <path class="cls-11" d="M191.12,337.68c0,2.14-15,5.46-30.21,5.48s-30.23-3.24-30.23-5.38,15-2.33,30.22-2.36S191.12,335.54,191.12,337.68Z" transform="translate(-0.5 -0.5)"/>
        <path class="cls-12" d="M181.89,338.79c0,.82-10.37,1.85-20.48,1.87s-19.79-1-19.79-1.81,9.67-1.14,19.78-1.15S181.89,338,181.89,338.79Z" transform="translate(-0.5 -0.5)"/>
        <path class="cls-13" d="M149.67,447.58c-2.34-12.64-5.83-54-14.14-83.13-4.16-14.62-14-24.93-23.45-21.66-6.73,2.32-9.39,13.92-7,21.74,4.46,14.45,29.77,62.67,35.5,79.55s9.16,21.05,17.31,22.58c4.2.79,9.5,1.31,15.6-2.43C165.26,465.52,153.55,468.5,149.67,447.58Z" transform="translate(-0.5 -0.5)"/>
        <path class="cls-14" d="M178.83,453.73a15.26,15.26,0,0,1-5,.83,23.46,23.46,0,0,1-5.62-.41,2.26,2.26,0,0,1-2-2.09h0a2,2,0,0,1,2-2.08s4.32.48,5.37.47a37.9,37.9,0,0,0,5.45-.51c1.08,0,2.1.32,1.77,1.87A2.68,2.68,0,0,1,178.83,453.73Z" transform="translate(-0.5 -0.5)"/>
        <path class="cls-15" d="M178.14,453.5a15.86,15.86,0,0,1-4.34.59,23.6,23.6,0,0,1-4.86-.3c-.9-.18-1.69-.67-1.69-1.48h0a1.61,1.61,0,0,1,1.7-1.49s3.73.35,4.64.34a41.6,41.6,0,0,0,4.72-.36c.93,0,1.8.22,1.52,1.33C179.7,452.64,179.27,453.15,178.14,453.5Z" transform="translate(-0.5 -0.5)"/>
        <path class="cls-8" d="M172.59,444.2c-9.92,0-22.09-2.15-35.21-7.55a.34.34,0,0,1-.19-.45.35.35,0,0,1,.45-.2c24.46,10.06,45.5,8.78,54.7,3.34a.35.35,0,0,1,.48.12.36.36,0,0,1-.12.49C188.33,442.53,181.33,444.2,172.59,444.2Z" transform="translate(-0.5 -0.5)"/>
        <path class="cls-16" d="M172.34,443.41c-9.93,0-22.1-2.15-35.22-7.54a.35.35,0,0,1,.27-.65c24.45,10,45.49,8.77,54.69,3.33a.37.37,0,0,1,.49.13.36.36,0,0,1-.13.48C188.07,441.75,181.07,443.41,172.34,443.41Z" transform="translate(-0.5 -0.5)"/>
        <path class="cls-7" d="M207.93,343.6c1.87,38.22-3.64,56.3-3.64,56.3s5.27-28.87.41-56.78C204,339.29,207.64,337.63,207.93,343.6Z" transform="translate(-0.5 -0.5)"/>
        <path class="cls-16" d="M120.06,340.94s4.35,2.61,20.25,4.09,36.83,1.2,36.83,1.2-19.29,2.55-36.91.65S120.06,340.94,120.06,340.94Z" transform="translate(-0.5 -0.5)"/>
        <path class="cls-17" d="M176.13,451c-.77.07-1.66.12-2.54.13s-4.64-.34-4.64-.34a1.42,1.42,0,0,0-.36,0l1.72,3.13c.93.08,2.09.12,3.49.1a16.23,16.23,0,0,0,4-.51Z" transform="translate(-0.5 -0.5)"/>
        <g>
          <path class="cls-18" d="M172.31,369.79a13.5,13.5,0,0,1,8.42-12.51,14.63,14.63,0,0,1,1.5.2,12.42,12.42,0,0,1,10.34,11.83c0,.14,0,.27,0,.41v.14h0a7.7,7.7,0,0,0-7.7-7.69,7.79,7.79,0,0,0-2.52.42c.76-.27.73-.27,0,0a7.39,7.39,0,0,0-9.95,7.17v.07A7.3,7.3,0,0,0,182,377a7.59,7.59,0,0,0,2.86.55,7.7,7.7,0,0,0,7.7-7.57,12.3,12.3,0,0,1-10.26,12.09,13.64,13.64,0,0,1-1.58.2A13.5,13.5,0,0,1,172.31,369.79Z" transform="translate(-0.5 -0.5)"/>
          <path class="cls-19" d="M177.18,369.88A7.68,7.68,0,0,0,182,377a7.3,7.3,0,0,1-9.65-7.17v-.07a7.39,7.39,0,0,1,9.95-7.17c.77-.29.8-.29,0,0A7.72,7.72,0,0,0,177.18,369.88Z" transform="translate(-0.5 -0.5)"/>
          <path class="cls-20" d="M179.65,357.24c.37,0,.73,0,1.08,0a13.5,13.5,0,0,0,0,25c-.33,0-.67,0-1,0a12.55,12.55,0,0,1-12.93-12.55v-.07C166.79,362.82,172.16,357.24,179.65,357.24Z" transform="translate(-0.5 -0.5)"/>
          <path class="cls-21" d="M192.58,369.88v0Z" transform="translate(-0.5 -0.5)"/>
          <path class="cls-22" d="M182.23,377c.81.29.8.3,0,0Z" transform="translate(-0.5 -0.5)"/>
          <path class="cls-23" d="M182.23,377c.81.29.8.3,0,0Z" transform="translate(-0.5 -0.5)"/>
          <path class="cls-24" d="M184.88,377.58A7.59,7.59,0,0,1,182,377l.21-.07c.8.3.81.29,0,0a7.51,7.51,0,0,0,5-7.17v-.07a7.38,7.38,0,0,0-4.87-7.1l0,0a7.79,7.79,0,0,1,2.52-.42,7.7,7.7,0,0,1,7.7,7.69V370A7.7,7.7,0,0,1,184.88,377.58Z" transform="translate(-0.5 -0.5)"/>
          <path class="cls-25" d="M184.88,377.58A7.59,7.59,0,0,1,182,377l.21-.07c.8.3.81.29,0,0a7.51,7.51,0,0,0,5-7.17v-.07a7.38,7.38,0,0,0-4.87-7.1l0,0a7.79,7.79,0,0,1,2.52-.42,7.7,7.7,0,0,1,7.7,7.69V370A7.7,7.7,0,0,1,184.88,377.58Z" transform="translate(-0.5 -0.5)"/>
        </g>
      </g>
      <g id="cabeza">
        <g>
          <path class="cls-5" d="M123,323.7c10,12.91,40.71,10.45,49.25,9.63s23-2.3,28.25-18,2.61-39.75-11.73-52.23-52.74-10.45-65.77,6.38S119.56,319.22,123,323.7Z" transform="translate(-0.5 -0.5)"/>
          <path class="cls-16" d="M125.68,272.87c.58-.2,12.42-9.42,33.88-11.26,7.38-.63,18.9,0,26.28,1-.73-.78-11.34-6.91-33.23-4.63A43.22,43.22,0,0,0,125.68,272.87Z" transform="translate(-0.5 -0.5)"/>
          <path class="cls-7" d="M164.69,269.06c-6.9.11-13.83.6-20.34,3.07l-.15.06c6.76,14.31,7.32,33,3.36,46.3a28.18,28.18,0,0,1-5.75,10.81c11.93,2.1,25.29,1,30.48.51,5.66-.54,13.91-1.38,20.36-6.44a34.5,34.5,0,0,0,1.87-4.88c4-13.51,3.38-32.47-3.63-46.86A111.32,111.32,0,0,0,164.69,269.06Z" transform="translate(-0.5 -0.5)"/>
          <path class="cls-26" d="M139.72,281.77c4-5.42,14.83-6.83,28.43-7.65,17.54-1,23.48,2.13,25.27,4.16s4.9,12.11,4.23,21.9-.77,12.74-4.8,15.17-15.67,4.82-23.18,5c-14.25.35-21.43-.34-26.19-3.14-2.44-1.43-5.53-9.14-6-18.64S137.65,284.57,139.72,281.77Z" transform="translate(-0.5 -0.5)"/>
          <path class="cls-27" d="M167.66,275.64c-8.45.49-15.79,1.22-20.95,3,4.51,12.54,4.54,27.41,1.19,38.41l-.12.37c4.51,1.31,11,1.62,21.33,1.37,7.21-.17,18.38-2.4,22.24-4.67a6.92,6.92,0,0,0,3-3.16,65.62,65.62,0,0,0-2.23-31.16,3,3,0,0,0-.25-.32C190.18,277.63,184.49,274.66,167.66,275.64Z" transform="translate(-0.5 -0.5)"/>
          <path class="cls-9" d="M130.49,290.77c-.23,5.32-3.2,9.5-6.63,9.35s-6-4.59-5.78-9.91,3.2-9.5,6.63-9.35S130.73,285.45,130.49,290.77Z" transform="translate(-0.5 -0.5)"/>
          <path class="cls-28" d="M127.78,290.37c-.17,3.73-2,6.68-4.07,6.59s-3.62-3.19-3.46-6.93,2-6.68,4.07-6.59S127.94,286.63,127.78,290.37Z" transform="translate(-0.5 -0.5)"/>
          <path class="cls-29" d="M127.83,290.65l-.35,0,.35,0a13,13,0,0,0-1.56-7.09,5.72,5.72,0,0,0-4.55-3.19c-3.61-.16-6.76,4.19-7,9.69s2.5,10.12,6.12,10.28H121C124.56,300.34,127.59,296.05,127.83,290.65Zm-6.14-9.57a5,5,0,0,1,4,2.84,12.35,12.35,0,0,1,1.47,6.7c-.23,5.11-3,9.15-6.27,9s-5.67-4.43-5.44-9.54,2.94-9,6.1-9Z" transform="translate(-0.5 -0.5)"/>
          <path class="cls-7" d="M121.25,303.1l2.52.08s1.07,10.46,4.09,16.59,7.29,8.11,7.29,8.11-6.45-2.09-10.31-10.05C122.06,312.1,121.25,303.1,121.25,303.1Z" transform="translate(-0.5 -0.5)"/>
          <path class="cls-30" d="M142.08,282.57h0A1.33,1.33,0,0,0,144,283c1.22-.83,3.09-2.08,4.16-2.67,1.69-.92,10.07-4,10.07-4a38.44,38.44,0,0,0-15.53,4A1.59,1.59,0,0,0,142.08,282.57Z" transform="translate(-0.5 -0.5)"/>
        </g>
        <path class="cls-31" d="M135.5,289.54c0,1.65-.77,3-1.71,3s-1.72-1.34-1.72-3,.77-3,1.72-3S135.5,287.89,135.5,289.54Z" transform="translate(-0.5 -0.5)"/>
        <g>
          <rect class="cls-32" x="155.36" y="284.99" width="12.1" height="15.81" rx="3.93"/>
          <rect class="cls-32" x="156.63" y="286.69" width="9.56" height="12.41" rx="3.65"/>
          <rect class="cls-33" x="158.24" y="288.28" width="6.64" height="9.66" rx="2.44"/>
          <path class="cls-34" d="M164.67,292.5h-5.45a.27.27,0,0,1-.27-.26.26.26,0,0,1,.27-.26h5.45a.26.26,0,0,1,.26.26A.26.26,0,0,1,164.67,292.5Z" transform="translate(-0.5 -0.5)"/>
          <path class="cls-34" d="M164.67,293.65h-5.45a.26.26,0,1,1,0-.52h5.45a.26.26,0,0,1,0,.52Z" transform="translate(-0.5 -0.5)"/>
          <path class="cls-34" d="M164.67,294.85h-5.45a.27.27,0,1,1,0-.53h5.45a.27.27,0,0,1,0,.53Z" transform="translate(-0.5 -0.5)"/>
          <path class="cls-34" d="M164,290.29h-4.06a.25.25,0,0,1-.26-.26.26.26,0,0,1,.26-.26H164a.26.26,0,0,1,.26.26A.25.25,0,0,1,164,290.29Z" transform="translate(-0.5 -0.5)"/>
          <path class="cls-34" d="M164.67,291.49h-5.45a.27.27,0,1,1,0-.53h5.45a.27.27,0,0,1,0,.53Z" transform="translate(-0.5 -0.5)"/>
          <path class="cls-34" d="M164.67,296.27h-5.45a.27.27,0,1,1,0-.53h5.45a.27.27,0,0,1,0,.53Z" transform="translate(-0.5 -0.5)"/>
          <path class="cls-34" d="M164.67,297.42h-5.45a.27.27,0,1,1,0-.53h5.45a.27.27,0,0,1,0,.53Z" transform="translate(-0.5 -0.5)"/>
        </g>
        <g>
          <rect class="cls-32" x="177.09" y="284.7" width="12.1" height="15.81" rx="3.93"/>
          <rect class="cls-32" x="178.36" y="286.4" width="9.56" height="12.41" rx="3.65"/>
          <rect class="cls-33" x="179.97" y="287.99" width="6.64" height="9.66" rx="2.44"/>
          <path class="cls-34" d="M186.4,292.22H181a.27.27,0,1,1,0-.53h5.45a.27.27,0,0,1,0,.53Z" transform="translate(-0.5 -0.5)"/>
          <path class="cls-34" d="M186.4,293.37H181a.27.27,0,1,1,0-.53h5.45a.27.27,0,0,1,0,.53Z" transform="translate(-0.5 -0.5)"/>
          <path class="cls-34" d="M186.4,294.56H181a.27.27,0,1,1,0-.53h5.45a.27.27,0,0,1,0,.53Z" transform="translate(-0.5 -0.5)"/>
          <path class="cls-34" d="M185.7,290h-4.06a.27.27,0,0,1,0-.53h4.06a.27.27,0,1,1,0,.53Z" transform="translate(-0.5 -0.5)"/>
          <path class="cls-34" d="M186.4,291.2H181a.26.26,0,1,1,0-.52h5.45a.26.26,0,1,1,0,.52Z" transform="translate(-0.5 -0.5)"/>
          <path class="cls-34" d="M186.4,296H181a.27.27,0,1,1,0-.53h5.45a.27.27,0,0,1,0,.53Z" transform="translate(-0.5 -0.5)"/>
          <path class="cls-34" d="M186.4,297.13H181a.27.27,0,1,1,0-.53h5.45a.27.27,0,0,1,0,.53Z" transform="translate(-0.5 -0.5)"/>
        </g>
      </g>
      <path id="boca" class="cls-35" d="M164.43,309.4c5.46.7,15.25,1.24,15.25,1.24s-8.66.88-14.31-.1S158.56,308.65,164.43,309.4Z" transform="translate(-0.5 -0.5)"/>
      <g id="brazoDerecho">
        <path class="cls-36" d="M128.58,363.91c3,10.54.63,20.48-5.35,22.2s-13.29-5.43-16.32-16-.63-20.48,5.35-22.2S125.55,353.36,128.58,363.91Z" transform="translate(-0.5 -0.5)"/>
        <path class="cls-29" d="M121.31,383.51a.38.38,0,0,1-.39-.36.37.37,0,0,1,.35-.4,4.37,4.37,0,0,0,3.52-2.46c2.49-4.28,2-12.35-1.11-18.77-3.73-7.68-9.7-10.74-13.09-9.18a.37.37,0,0,1-.5-.18.38.38,0,0,1,.18-.51c4.26-2,10.58,2.31,14.09,9.54,3.23,6.63,3.69,15,1.09,19.48a5.16,5.16,0,0,1-4.13,2.84Z" transform="translate(-0.5 -0.5)"/>
        <g>
          <path class="cls-5" d="M88.54,403.24c2.52-30.77,13.13-45.09,15.66-48.11a2.56,2.56,0,0,1,1.45-.86c2.12-.4,7.68-.55,14.09,6.74,4.42,5,4.25,14.1,4,14.57-2.94,4.93-21.36,36-26,46.44C92.7,433.36,87.47,416.39,88.54,403.24Z" transform="translate(-0.5 -0.5)"/>
          <path class="cls-6" d="M119.77,361a24.84,24.84,0,0,0-5.84-5c.67.63,1.35,1.33,2,2.12,5.58,6.35,3.91,11.34,2.67,14.77-4.46,12.27-18.57,35.77-21.19,49.79q.15-.3.3-.63c4.62-10.43,23-41.51,26-46.44C124,375.13,124.2,366.07,119.77,361Z" transform="translate(-0.5 -0.5)"/>
          <path class="cls-7" d="M103,366c-12.82,11.94-12.37,48.56-12.37,48.56s6.19-26,12-37.29S107.35,361.92,103,366Z" transform="translate(-0.5 -0.5)"/>
          <path class="cls-6" d="M100.51,415.77A39.55,39.55,0,0,0,101,421a9,9,0,0,0,2.71,2.24c-.1-2.2.43-13.78,2.16-16.92C106.48,405.21,100.32,413.66,100.51,415.77Z" transform="translate(-0.5 -0.5)"/>
          <path class="cls-8" d="M106.16,406.65a.36.36,0,0,1-.3-.17c-3.37-5.4-10.36-9.43-16.65-6.24a.37.37,0,0,1-.48-.16.35.35,0,0,1,.16-.47c6.67-3.38,14,.83,17.57,6.5a.35.35,0,0,1-.11.48A.33.33,0,0,1,106.16,406.65Z" transform="translate(-0.5 -0.5)"/>
        </g>
        <g>
          <path class="cls-37" d="M110.42,374.7c-.16,5.22-4.1,9.33-8.79,9.19s-8.38-4.49-8.22-9.7,4.09-9.33,8.79-9.18S110.57,369.49,110.42,374.7Z" transform="translate(-0.5 -0.5)"/>
          <g>
            <path class="cls-38" d="M96.09,375.25a8.29,8.29,0,0,0,1.88,5,17.68,17.68,0,0,0,2,2.35s5.42-1.39,6.91-4.5c.31-.65,1.73-4.73,1.73-4.73s.43-1-.37-1.44a23.8,23.8,0,0,1-2.75-1.56,8.45,8.45,0,0,0-1.83-1.18c-.52-.18-.75-.07-1.71,0a29.85,29.85,0,0,1-3.23-.09c-1,0-1.07,1.08-1.07,1.08S96.14,374.52,96.09,375.25Z" transform="translate(-0.5 -0.5)"/>
            <path class="cls-39" d="M97.7,370.17s-1.56,4.35-1.61,5.08c-.22,3.51,3.93,7.34,3.93,7.34h0s5.42-1.39,6.91-4.5c.31-.65,1.73-4.73,1.73-4.73s.43-1-.37-1.44a23.8,23.8,0,0,1-2.75-1.56,7.6,7.6,0,0,0-1.83-1.17c-.52-.19-.75-.09-1.71,0a27.64,27.64,0,0,1-3.23-.08C97.82,369.06,97.7,370.17,97.7,370.17Zm.86-.19.79,0a9.35,9.35,0,0,0,2.49,0c1.72-.33,2.25.54,3.08,1.13a15,15,0,0,0,2.11,1.23l.69.36a1.42,1.42,0,0,1,0,.2.11.11,0,0,0,0,.06c-.54,1.56-1.48,4.2-1.69,4.64a7.5,7.5,0,0,1-3.54,3,18.48,18.48,0,0,1-2.1.83,17.34,17.34,0,0,1-1.46-1.76,8.05,8.05,0,0,1-1.68-4.52,33.12,33.12,0,0,1,1.3-4.93S98.56,370,98.56,370Z" transform="translate(-0.5 -0.5)"/>
            <path class="cls-40" d="M96.09,375.25c-.13,2,1.21,4.18,2.36,5.62-1-1.42-2.11-3.32-2-5.14.05-.74,1.61-5.09,1.61-5.09s.11-1.1,1.07-1.08a27.58,27.58,0,0,0,3.23.08c.95-.07,1.18-.17,1.7,0a7.41,7.41,0,0,1,1.83,1.17,24.67,24.67,0,0,0,2.75,1.56l.07.05a.88.88,0,0,0-.43-.52,23.8,23.8,0,0,1-2.75-1.56,7.6,7.6,0,0,0-1.83-1.17c-.52-.19-.75-.09-1.71,0a27.64,27.64,0,0,1-3.23-.08c-1,0-1.07,1.08-1.07,1.08S96.14,374.52,96.09,375.25Z" transform="translate(-0.5 -0.5)"/>
            <path class="cls-39" d="M101.5,375.34a.36.36,0,0,0,.08.32l-.06.26a.07.07,0,0,0,0,.09l.2.05a.07.07,0,0,0,.09-.05l.07-.26a.34.34,0,0,0,0-.65A.33.33,0,0,0,101.5,375.34Z" transform="translate(-0.5 -0.5)"/>
            <path class="cls-39" d="M101.51,373.6l-.14.5,1.51.4.13-.5a.78.78,0,1,0-1.5-.4Z" transform="translate(-0.5 -0.5)"/>
            <path class="cls-39" d="M98.78,371.37s-1,3.21-1,3.76c-.19,2.6,2.71,5.61,2.71,5.61h0s3.85-1.08,4.94-3.41c.23-.49,1.28-3.54,1.28-3.54s.31-.74-.25-1.07a15.06,15.06,0,0,1-1.94-1.12c-.33-.25-.63-.45-.88-.61a6,6,0,0,0-.55-.3h0a2.12,2.12,0,0,0-1.13-.09,17,17,0,0,1-2.28,0C99,370.57,98.78,371.37,98.78,371.37Zm1.38,2.85a.42.42,0,0,1,.52-.3l.11,0,.13-.5a1.38,1.38,0,0,1,1.69-1,1.4,1.4,0,0,1,1,1.7l-.14.5.11,0a.42.42,0,0,1,.3.52l-.51,1.95a.43.43,0,0,1-.52.3l-2.89-.76a.42.42,0,0,1-.3-.52Z" transform="translate(-0.5 -0.5)"/>
            <path class="cls-40" d="M97.8,375.13c-.15,1.87,1.31,3.95,2.14,5-.83-1.12-1.91-2.89-1.78-4.51,0-.55,1-3.75,1-3.75s.23-.81.9-.8a16.91,16.91,0,0,0,2.27,0,2.12,2.12,0,0,1,1.13.09h0a3.26,3.26,0,0,1,.55.3c.24.15.55.35.88.6a14.92,14.92,0,0,0,1.89,1.1.7.7,0,0,0-.32-.45,15.21,15.21,0,0,1-1.94-1.13c-.33-.24-.63-.45-.88-.6a6,6,0,0,0-.55-.3h0a2.12,2.12,0,0,0-1.13-.09,17.06,17.06,0,0,1-2.28,0c-.67,0-.9.8-.9.8S97.84,374.58,97.8,375.13Z" transform="translate(-0.5 -0.5)"/>
          </g>
        </g>
      </g>
    </g>
  </g>
</svg>
