<svg xmlns="http://www.w3.org/2000/svg" xmlns:xlink="http://www.w3.org/1999/xlink" width="1024" height="620" viewBox="0 0 1024 620">
  <defs>
    <style>
      .cls-1 {
        isolation: isolate;
      }

      .cls-2 {
        fill: none;
      }

      .cls-3, .cls-4 {
        fill: #51b2fb;
      }

      .cls-3, .cls-32 {
        opacity: 0.1;
      }

      .cls-4 {
        opacity: 0.2;
      }

      .cls-5 {
        fill: #e3ebfc;
      }

      .cls-6 {
        fill: #ccddfa;
      }

      .cls-7 {
        fill: #fafbff;
      }

      .cls-8 {
        fill: #80a7f6;
      }

      .cls-9 {
        fill: #9fbcfb;
      }

      .cls-10 {
        fill: #b8d0f9;
      }

      .cls-11, .cls-29, .cls-31 {
        fill: #207bff;
      }

      .cls-11, .cls-37 {
        opacity: 0.4;
      }

      .cls-12 {
        fill: #004bff;
        opacity: 0.5;
        mix-blend-mode: multiply;
      }

      .cls-13 {
        fill: #c5d8fa;
      }

      .cls-14 {
        fill: url(#_ÂÁ_Ï_ÌÌ_È_ËÂÌÚ_30);
      }

      .cls-15 {
        fill: #4aebff;
      }

      .cls-16, .cls-30 {
        fill: #fff;
      }

      .cls-17 {
        fill: #bef9ff;
      }

      .cls-18 {
        fill: url(#linear-gradient);
      }

      .cls-19 {
        fill: #ec1c24;
      }

      .cls-20 {
        fill: url(#linear-gradient-2);
      }

      .cls-21 {
        fill: url(#linear-gradient-3);
      }

      .cls-22 {
        fill: url(#linear-gradient-4);
      }

      .cls-23 {
        fill: url(#linear-gradient-5);
      }

      .cls-24 {
        fill: url(#linear-gradient-6);
      }

      .cls-25 {
        fill: url(#linear-gradient-7);
      }

      .cls-26 {
        fill: url(#_ÂÁ_Ï_ÌÌ_È_ËÂÌÚ_14);
      }

      .cls-27 {
        fill: url(#_ÂÁ_Ï_ÌÌ_È_ËÂÌÚ_18);
      }

      .cls-28 {
        fill: #4880f8;
      }

      .cls-30 {
        opacity: 0.8;
      }

      .cls-31 {
        opacity: 0.72;
      }

      .cls-32, .cls-33, .cls-34, .cls-35 {
        fill: #3ae6fb;
      }

      .cls-33 {
        opacity: 0.3;
      }

      .cls-35 {
        opacity: 0.7;
      }

      .cls-36 {
        fill: #93b4fb;
      }

      .cls-37 {
        mix-blend-mode: lighten;
        fill: url(#radial-gradient);
      }

      .cls-38 {
        fill: #00ffda;
      }

      .cls-39 {
        fill: #7fd1ca;
      }

      .cls-40 {
        fill: #1e1e1e;
      }
    </style>
    <radialGradient id="_ÂÁ_Ï_ÌÌ_È_ËÂÌÚ_30" data-name="¡ÂÁ˚ÏˇÌÌ˚È „‡‰ËÂÌÚ 30" cx="5884.47" cy="378.1" r="3.72" gradientTransform="translate(-5809.3)" gradientUnits="userSpaceOnUse">
      <stop offset="0" stop-color="#4aebff"/>
      <stop offset="1" stop-color="#00709e"/>
    </radialGradient>
    <linearGradient id="linear-gradient" x1="36.08" y1="313.14" x2="36.08" y2="333.65" gradientTransform="translate(45.19)" gradientUnits="userSpaceOnUse">
      <stop offset="0.02" stop-color="#dd2a21"/>
      <stop offset="0.06" stop-color="#c8201b"/>
      <stop offset="0.1" stop-color="#b71717"/>
      <stop offset="0.15" stop-color="#ac1113"/>
      <stop offset="0.22" stop-color="#a50e12"/>
      <stop offset="0.43" stop-color="#a30d11"/>
      <stop offset="0.79" stop-color="#6b0006"/>
    </linearGradient>
    <linearGradient id="linear-gradient-2" x1="30.13" y1="314.05" x2="30.13" y2="328.77" gradientTransform="translate(45.19)" gradientUnits="userSpaceOnUse">
      <stop offset="0" stop-color="#ad1a27"/>
      <stop offset="0.08" stop-color="#9e151f"/>
      <stop offset="0.28" stop-color="#7d090e"/>
      <stop offset="0.44" stop-color="#680304"/>
      <stop offset="0.56" stop-color="#610000"/>
      <stop offset="0.73" stop-color="#520000"/>
      <stop offset="1" stop-color="#3f0000"/>
    </linearGradient>
    <linearGradient id="linear-gradient-3" x1="917.9" y1="321.63" x2="927.64" y2="321.63" gradientTransform="matrix(-1, 0, 0, 1, 1015.73, 0)" gradientUnits="userSpaceOnUse">
      <stop offset="0" stop-color="#be1349"/>
      <stop offset="0.24" stop-color="#be124e"/>
      <stop offset="0.25" stop-color="#be124e"/>
      <stop offset="1" stop-color="#7a0025"/>
    </linearGradient>
    <linearGradient id="linear-gradient-4" x1="914.95" y1="326.52" x2="927.68" y2="326.52" gradientTransform="matrix(-1, 0, 0, 1, 1015.73, 0)" gradientUnits="userSpaceOnUse">
      <stop offset="0" stop-color="#282881"/>
      <stop offset="0.27" stop-color="#26257d"/>
      <stop offset="0.55" stop-color="#1f1b70"/>
      <stop offset="0.84" stop-color="#150c5b"/>
      <stop offset="1" stop-color="#0d004c"/>
    </linearGradient>
    <linearGradient id="linear-gradient-5" x1="917.96" y1="326.52" x2="927.64" y2="326.52" xlink:href="#linear-gradient-3"/>
    <linearGradient id="linear-gradient-6" x1="919.92" y1="321.59" x2="932.08" y2="321.59" xlink:href="#linear-gradient-4"/>
    <linearGradient id="linear-gradient-7" x1="39.41" y1="326.04" x2="39.41" y2="319.07" gradientTransform="translate(45.19)" gradientUnits="userSpaceOnUse">
      <stop offset="0" stop-color="#ed2d24"/>
      <stop offset="0.12" stop-color="#ed2824"/>
      <stop offset="0.25" stop-color="#ec1c24"/>
      <stop offset="1" stop-color="#74020d"/>
    </linearGradient>
    <linearGradient id="_ÂÁ_Ï_ÌÌ_È_ËÂÌÚ_14" data-name="¡ÂÁ˚ÏˇÌÌ˚È „‡‰ËÂÌÚ 14" x1="5814.84" y1="552.62" x2="5856.23" y2="552.62" gradientTransform="translate(-5784.65 13.43) rotate(-2.88)" gradientUnits="userSpaceOnUse">
      <stop offset="0" stop-color="#003a6b"/>
      <stop offset="1" stop-color="#00204c"/>
    </linearGradient>
    <linearGradient id="_ÂÁ_Ï_ÌÌ_È_ËÂÌÚ_18" data-name="¡ÂÁ˚ÏˇÌÌ˚È „‡‰ËÂÌÚ 18" x1="5871.22" y1="254.54" x2="5892.19" y2="289.87" gradientTransform="translate(-5809.3)" gradientUnits="userSpaceOnUse">
      <stop offset="0" stop-color="#cbd7e1"/>
      <stop offset="0.05" stop-color="#aec0d0"/>
      <stop offset="0.15" stop-color="#7998b2"/>
      <stop offset="0.26" stop-color="#4e7698"/>
      <stop offset="0.35" stop-color="#2c5c85"/>
      <stop offset="0.44" stop-color="#144976"/>
      <stop offset="0.53" stop-color="#053e6e"/>
      <stop offset="0.6" stop-color="#003a6b"/>
      <stop offset="1" stop-color="#00204c"/>
    </linearGradient>
    <radialGradient id="radial-gradient" cx="4975.3" cy="509.33" r="7.88" gradientTransform="matrix(0.74, 0.02, -0.03, 0.82, -3645.94, -206.49)" gradientUnits="userSpaceOnUse">
      <stop offset="0" stop-color="#00ddde" stop-opacity="0.52"/>
      <stop offset="0.09" stop-color="#2de6e7" stop-opacity="0.65"/>
      <stop offset="0.2" stop-color="#63f1f1" stop-opacity="0.8"/>
      <stop offset="0.3" stop-color="#8af8f9" stop-opacity="0.91"/>
      <stop offset="0.38" stop-color="#a2fdfd" stop-opacity="0.98"/>
      <stop offset="0.43" stop-color="#abffff"/>
      <stop offset="0.46" stop-color="#9ffcfd"/>
      <stop offset="0.51" stop-color="#7ff6f6"/>
      <stop offset="0.58" stop-color="#4aebeb"/>
      <stop offset="0.66" stop-color="#03dcdd"/>
      <stop offset="0.66" stop-color="#00dbdc"/>
      <stop offset="0.69" stop-color="#08dcdd" stop-opacity="0.97"/>
      <stop offset="0.74" stop-color="#1fdfe0" stop-opacity="0.88"/>
      <stop offset="0.8" stop-color="#44e5e5" stop-opacity="0.73"/>
      <stop offset="0.87" stop-color="#78eced" stop-opacity="0.53"/>
      <stop offset="0.94" stop-color="#baf5f6" stop-opacity="0.27"/>
      <stop offset="1" stop-color="#fff" stop-opacity="0"/>
    </radialGradient>
  </defs>
  <title>robot</title>
  <g class="cls-1">
    <g id="Capa_9" data-name="Capa 9">
      <g id="fondo">
        <rect class="cls-2" width="1024" height="620"/>
      </g>
      <g id="sombra">
        <ellipse class="cls-3" cx="65.2" cy="399.46" rx="29.83" ry="6.7"/>
        <path class="cls-4" d="M88.44,399.46c0,2.35-10.41,4.25-23.24,4.25S42,401.81,42,399.46s10.4-4.26,23.23-4.26S88.44,397.1,88.44,399.46Z"/>
        <path class="cls-4" d="M79.19,399.46c0,1.41-6.26,2.56-14,2.56s-14-1.15-14-2.56,6.26-2.57,14-2.57S79.19,398,79.19,399.46Z"/>
      </g>
      <g id="brazoIzquierdo">
        <g>
          <path class="cls-5" d="M113.62,335.09c-4.35-20.72-12.81-29.56-14.79-31.39a1.73,1.73,0,0,0-1.06-.46c-1.48-.1-5.28.28-9,5.8-2.58,3.8-1.68,9.95-1.45,10.25C89.73,322.4,105,342,109,348.66,113.39,356,115.49,344,113.62,335.09Z"/>
          <path class="cls-6" d="M88.74,309.06a17.19,17.19,0,0,1,3.54-3.94c-.4.49-.8,1-1.21,1.62-3.25,4.81-1.69,8.06-.55,10.28,4.1,8,15.72,22.75,18.71,32.07-.09-.13-.17-.26-.26-.41-4-6.69-19.26-26.26-21.68-29.36C87.05,319,86.16,312.87,88.74,309.06Z"/>
          <path class="cls-7" d="M100.6,311c9.75,7,12.59,32,12.59,32s-6.45-17.19-11.35-24.35S97.27,308.59,100.6,311Z"/>
          <path class="cls-6" d="M106.56,344.65a26,26,0,0,1,.11,3.6A5.91,5.91,0,0,1,105,350c-.12-1.51-1.48-9.34-2.92-11.33C101.59,338,106.51,343.2,106.56,344.65Z"/>
          <path class="cls-8" d="M101.93,338.93a.25.25,0,0,0,.19-.14c1.83-4,6.24-7.31,10.8-5.69a.23.23,0,0,0,.3-.14.24.24,0,0,0-.14-.31c-4.83-1.72-9.48,1.77-11.4,5.94a.23.23,0,0,0,.12.32A.27.27,0,0,0,101.93,338.93Z"/>
        </g>
        <path class="cls-9" d="M99.17,312.91c-.56,6.47-3.27,11.52-6,11.28s-4.59-5.68-4-12.15,3.27-11.43,6.06-11.28C99.17,301,99.73,306.44,99.17,312.91Z"/>
      </g>
      <g id="torso">
        <path class="cls-5" d="M38.23,298c-2.89-.18-13.08,10-10,19.95s20.42,43,24.35,54.58S58.86,386.93,64.45,388s14,1.44,23.83-19,11.3-43.41,11.75-54.32-.7-15.25-4.51-16.49C86.62,295.26,38.23,298,38.23,298Z"/>
        <path class="cls-7" d="M84.33,366.56c7.59-21.51,6.68-44.63,6-55.59-.47-7.28-1.33-11.58-3-13.89-8.09-.45-19.9-.25-29.92.07,5.36,14.12,13.27,37.91,14.59,62.41.88,16.34-1.38,24.33-4.51,28.42C72.56,387,78.68,382.57,84.33,366.56Z"/>
        <path class="cls-10" d="M96.37,299.07c0,2.12-15,5.41-30.09,5.43s-30.11-3.21-30.11-5.33,15-2.32,30.09-2.34S96.36,297,96.37,299.07Z"/>
        <path class="cls-11" d="M87.23,299.5c0,1.47-10.32,3.74-20.73,3.76S45.77,301,45.76,299.57,56.08,298,66.49,298,87.23,298,87.23,299.5Z"/>
        <path class="cls-12" d="M80.9,300.26c0,.56-7.12,1.27-14.05,1.28s-13.58-.67-13.58-1.23,6.64-.79,13.57-.8S80.89,299.7,80.9,300.26Z"/>
        <path class="cls-13" d="M58.79,374.89c-1.6-8.67-4-37-9.7-57-2.85-10-9.58-17.11-16.08-14.87-4.62,1.6-6.45,9.56-4.79,14.92,3.07,9.91,20.42,43,24.35,54.58S58.86,386.93,64.45,388a14,14,0,0,0,10.71-1.67C69.49,387.2,61.45,389.25,58.79,374.89Z"/>
        <path class="cls-14" d="M78.8,379.11a10.24,10.24,0,0,1-3.45.57,15.53,15.53,0,0,1-3.85-.28A1.55,1.55,0,0,1,70.15,378h0a1.4,1.4,0,0,1,1.35-1.43s3,.33,3.69.32a25.45,25.45,0,0,0,3.74-.35c.74,0,1.44.22,1.21,1.28A1.83,1.83,0,0,1,78.8,379.11Z"/>
        <path class="cls-15" d="M78.32,379a11,11,0,0,1-3,.4,16.91,16.91,0,0,1-3.33-.2c-.62-.13-1.16-.46-1.16-1h0a1.11,1.11,0,0,1,1.17-1s2.56.24,3.18.23a27.16,27.16,0,0,0,3.24-.25c.64,0,1.24.16,1,.92C79.4,378.37,79.1,378.72,78.32,379Z"/>
        <path class="cls-8" d="M74.52,372.58a64.53,64.53,0,0,1-24.16-5.18.25.25,0,0,1-.13-.32.24.24,0,0,1,.31-.13c16.78,6.9,31.22,6,37.53,2.29a.24.24,0,0,1,.24.42C85.31,371.43,80.51,372.58,74.52,372.58Z"/>
        <path class="cls-16" d="M74.34,372a64.57,64.57,0,0,1-24.16-5.18.24.24,0,0,1-.13-.31.24.24,0,0,1,.31-.14c16.78,6.9,31.22,6,37.53,2.29a.25.25,0,0,1,.33.09.24.24,0,0,1-.08.33C85.13,370.89,80.33,372,74.34,372Z"/>
        <path class="cls-7" d="M98.76,303.56c1.29,26.22-2.49,38.63-2.49,38.63s3.61-19.81.28-39C96.09,300.61,98.56,299.47,98.76,303.56Z"/>
        <path class="cls-16" d="M38.48,301.73s3,1.8,13.89,2.81,25.26.82,25.26.82a123.41,123.41,0,0,1-25.31.45C40.23,304.51,38.48,301.73,38.48,301.73Z"/>
        <path class="cls-17" d="M77,377.26c-.53.05-1.14.09-1.75.09s-3.18-.23-3.18-.23l-.25,0L73,379.29a23.9,23.9,0,0,0,2.39.07,11.14,11.14,0,0,0,2.78-.35Z"/>
        <g>
          <path class="cls-18" d="M74.33,321.53A9.26,9.26,0,0,1,80.1,313c.35,0,.7.07,1,.13a8.53,8.53,0,0,1,7.09,8.12,2.62,2.62,0,0,1,0,.28v.1h0A5.28,5.28,0,0,0,83,316.31a5.19,5.19,0,0,0-1.73.29c.52-.19.5-.19,0,0a5.12,5.12,0,0,0-1.78-.31,5.06,5.06,0,0,0-5,5.23v.05a5,5,0,0,0,5,5.18A5.11,5.11,0,0,0,81,326.5a5.27,5.27,0,0,0,7.24-4.82,8.45,8.45,0,0,1-7,8.3c-.35.06-.71.1-1.08.13A9.25,9.25,0,0,1,74.33,321.53Z"/>
          <path class="cls-19" d="M77.66,321.59A5.29,5.29,0,0,0,81,326.5a5.11,5.11,0,0,1-1.63.26,5,5,0,0,1-5-5.18v-.05a5.06,5.06,0,0,1,5-5.23,5.12,5.12,0,0,1,1.78.31c.53-.2.55-.2,0,0A5.28,5.28,0,0,0,77.66,321.59Z"/>
          <path class="cls-20" d="M79.36,312.92c.25,0,.5,0,.74,0a9.26,9.26,0,0,0,0,17.16c-.23,0-.47,0-.7,0a8.61,8.61,0,0,1-8.87-8.61v0A8.53,8.53,0,0,1,79.36,312.92Z"/>
          <path class="cls-21" d="M88.23,321.59v0Z"/>
          <path class="cls-22" d="M81.13,326.45Z"/>
          <path class="cls-23" d="M81.13,326.45Z"/>
          <path class="cls-24" d="M83,326.88a5.26,5.26,0,0,1-2-.38l.14-.05h0a5.16,5.16,0,0,0,3.4-4.92v0a5.06,5.06,0,0,0-3.34-4.87h0a5.19,5.19,0,0,1,1.73-.29,5.28,5.28,0,0,1,5.28,5.27v.1A5.28,5.28,0,0,1,83,326.88Z"/>
          <path class="cls-25" d="M83,326.88a5.26,5.26,0,0,1-2-.38l.14-.05h0a5.16,5.16,0,0,0,3.4-4.92v0a5.06,5.06,0,0,0-3.34-4.87h0a5.19,5.19,0,0,1,1.73-.29,5.28,5.28,0,0,1,5.28,5.27v.1A5.28,5.28,0,0,1,83,326.88Z"/>
        </g>
      </g>
      <g id="cabeza">
        <g>
          <path class="cls-5" d="M40.52,289.91c6.88,8.86,27.93,7.17,33.79,6.61s15.8-1.58,19.38-12.38,1.79-27.27-8-35.83-36.17-7.17-45.12,4.37S38.14,286.84,40.52,289.91Z"/>
          <path class="cls-16" d="M42.34,255c.39-.14,8.52-6.46,23.24-7.72a96.36,96.36,0,0,1,18,.7c-.5-.53-7.78-4.74-22.8-3.18A29.67,29.67,0,0,0,42.34,255Z"/>
          <path class="cls-7" d="M69.1,252.42c-4.74.08-9.49.41-13.95,2.11l-.11,0c4.64,9.82,5,22.62,2.3,31.76a19.14,19.14,0,0,1-3.94,7.42c8.19,1.44,17.35.69,20.91.35,3.88-.37,9.54-.94,14-4.41a24.28,24.28,0,0,0,1.28-3.36c2.75-9.26,2.32-22.27-2.49-32.14A76.92,76.92,0,0,0,69.1,252.42Z"/>
          <path class="cls-26" d="M52,261.14c2.74-3.71,10.18-4.68,19.51-5.24,12-.72,16.11,1.46,17.34,2.85s3.36,8.3,2.9,15-.53,8.74-3.3,10.41-10.74,3.31-15.9,3.43c-9.77.24-14.7-.23-18-2.15-1.67-1-3.79-6.27-4.12-12.79S50.55,263.07,52,261.14Z"/>
          <path class="cls-27" d="M71.13,256.94c-5.79.33-10.83.83-14.37,2.08a44.17,44.17,0,0,1,.82,26.36l-.09.25c3.1.89,7.53,1.11,14.64.94,5-.12,12.61-1.65,15.26-3.21a4.75,4.75,0,0,0,2.08-2.16,45.13,45.13,0,0,0-1.53-21.38l-.17-.22C86.59,258.3,82.68,256.27,71.13,256.94Z"/>
          <path class="cls-9" d="M45.64,267.32c-.17,3.64-2.2,6.52-4.56,6.41s-4.12-3.14-4-6.79,2.2-6.53,4.55-6.42S45.8,263.67,45.64,267.32Z"/>
          <path class="cls-28" d="M43.77,267c-.11,2.56-1.36,4.59-2.78,4.52s-2.49-2.19-2.38-4.75,1.36-4.58,2.79-4.52S43.89,264.48,43.77,267Z"/>
          <path class="cls-29" d="M43.81,267.23h0a9,9,0,0,0-1.07-4.86,3.91,3.91,0,0,0-3.12-2.18c-2.48-.11-4.64,2.87-4.81,6.64s1.72,6.94,4.2,7.05h.13C41.57,273.89,43.65,270.94,43.81,267.23Zm-4.22-6.56a3.43,3.43,0,0,1,2.73,1.95,8.38,8.38,0,0,1,1,4.59c-.16,3.51-2.09,6.28-4.3,6.19s-3.89-3-3.74-6.54,2-6.2,4.19-6.2Z"/>
          <path class="cls-7" d="M39.3,275.77l1.73.06s.73,7.18,2.8,11.39a11.91,11.91,0,0,0,5,5.56,13.36,13.36,0,0,1-7.07-6.89C39.85,282,39.3,275.77,39.3,275.77Z"/>
          <path class="cls-30" d="M53.59,261.69h0a.91.91,0,0,0,1.32.31c.84-.57,2.12-1.43,2.85-1.83,1.16-.63,6.91-2.76,6.91-2.76A26.41,26.41,0,0,0,54,260.2,1.09,1.09,0,0,0,53.59,261.69Z"/>
        </g>
        <path class="cls-31" d="M49.07,266.48c0,1.13-.53,2-1.17,2s-1.18-.92-1.18-2,.53-2.05,1.18-2.05S49.07,265.34,49.07,266.48Z"/>
        <g>
          <rect class="cls-32" x="63.04" y="263.69" width="8.3" height="10.85" rx="3.92"/>
          <rect class="cls-32" x="63.91" y="264.86" width="6.56" height="8.51" rx="3.1"/>
          <rect class="cls-33" x="65.01" y="265.95" width="4.55" height="6.63" rx="2.15"/>
          <path class="cls-34" d="M69.08,268.51H65.34a.18.18,0,1,1,0-.36h3.74a.18.18,0,1,1,0,.36Z"/>
          <path class="cls-34" d="M69.08,269.3H65.34a.18.18,0,0,1-.18-.18.19.19,0,0,1,.18-.19h3.74a.19.19,0,0,1,.18.19A.18.18,0,0,1,69.08,269.3Z"/>
          <path class="cls-34" d="M69.08,270.12H65.34a.19.19,0,0,1-.18-.19.18.18,0,0,1,.18-.18h3.74a.18.18,0,0,1,.18.18A.19.19,0,0,1,69.08,270.12Z"/>
          <path class="cls-34" d="M68.6,267H65.82a.18.18,0,1,1,0-.36H68.6a.18.18,0,1,1,0,.36Z"/>
          <path class="cls-34" d="M69.08,267.81H65.34a.18.18,0,0,1,0-.36h3.74a.18.18,0,0,1,0,.36Z"/>
          <path class="cls-34" d="M69.08,271.09H65.34a.18.18,0,1,1,0-.36h3.74a.18.18,0,1,1,0,.36Z"/>
          <path class="cls-34" d="M69.08,271.88H65.34a.18.18,0,1,1,0-.36h3.74a.18.18,0,1,1,0,.36Z"/>
        </g>
        <g>
          <rect class="cls-32" x="77.95" y="263.5" width="8.3" height="10.85" rx="3.92"/>
          <rect class="cls-32" x="78.82" y="264.66" width="6.56" height="8.51" rx="3.1"/>
          <rect class="cls-33" x="79.92" y="265.76" width="4.55" height="6.63" rx="2.15"/>
          <path class="cls-34" d="M84,268.31H80.25a.18.18,0,0,1,0-.36H84a.18.18,0,0,1,0,.36Z"/>
          <path class="cls-34" d="M84,269.1H80.25a.18.18,0,1,1,0-.36H84a.18.18,0,1,1,0,.36Z"/>
          <path class="cls-34" d="M84,269.92H80.25a.18.18,0,0,1,0-.36H84a.18.18,0,0,1,0,.36Z"/>
          <path class="cls-34" d="M83.51,266.8H80.73a.18.18,0,0,1-.18-.18.19.19,0,0,1,.18-.19h2.78a.19.19,0,0,1,.18.19A.18.18,0,0,1,83.51,266.8Z"/>
          <path class="cls-34" d="M84,267.62H80.25a.19.19,0,0,1-.18-.19.18.18,0,0,1,.18-.18H84a.18.18,0,0,1,.18.18A.19.19,0,0,1,84,267.62Z"/>
          <path class="cls-34" d="M84,270.89H80.25a.18.18,0,1,1,0-.36H84a.18.18,0,1,1,0,.36Z"/>
          <path class="cls-34" d="M84,271.68H80.25a.18.18,0,0,1,0-.36H84a.18.18,0,0,1,0,.36Z"/>
        </g>
      </g>
      <path id="boca" class="cls-35" d="M67.92,280.1c3.74.48,10.46.85,10.46.85a45.78,45.78,0,0,1-9.82-.07C64.74,280.22,63.89,279.59,67.92,280.1Z"/>
      <g id="brazoDerecho">
        <path class="cls-36" d="M44.32,317.49c2.08,7.24.44,14.06-3.67,15.24s-9.12-3.73-11.19-11-.44-14.05,3.67-15.23S42.25,310.26,44.32,317.49Z"/>
        <path class="cls-29" d="M39.34,330.94a.26.26,0,0,1-.27-.25.26.26,0,0,1,.24-.27,3,3,0,0,0,2.41-1.69c1.71-2.93,1.38-8.47-.76-12.88-2.56-5.26-6.65-7.36-9-6.29a.26.26,0,0,1-.34-.13.26.26,0,0,1,.13-.35c2.92-1.34,7.25,1.59,9.66,6.55,2.21,4.55,2.53,10.29.74,13.36a3.5,3.5,0,0,1-2.83,1.95Z"/>
        <g>
          <path class="cls-5" d="M16.86,344.48c1.72-21.11,9-30.94,10.74-33a1.81,1.81,0,0,1,1-.59c1.45-.28,5.26-.37,9.66,4.63,3,3.45,2.92,9.67,2.72,10-2,3.39-14.65,24.71-17.82,31.86C19.71,365.14,16.12,353.49,16.86,344.48Z"/>
          <path class="cls-6" d="M38.28,315.53a16.9,16.9,0,0,0-4-3.46c.46.43.93.91,1.41,1.45,3.83,4.36,2.68,7.78,1.83,10.13-3.06,8.42-12.74,24.54-14.53,34.17l.2-.44C26.35,350.22,39,328.91,41,325.52,41.2,325.19,41.32,319,38.28,315.53Z"/>
          <path class="cls-7" d="M26.76,318.92c-8.79,8.19-8.48,33.32-8.48,33.32s4.24-17.86,8.2-25.59S29.76,316.13,26.76,318.92Z"/>
          <path class="cls-6" d="M25.07,353.07a27.07,27.07,0,0,0,.34,3.59,6,6,0,0,0,1.85,1.53c-.06-1.5.3-9.45,1.48-11.6C29.16,345.83,24.94,351.62,25.07,353.07Z"/>
          <path class="cls-8" d="M28.94,346.81a.24.24,0,0,1-.2-.11c-2.32-3.71-7.11-6.47-11.43-4.28a.24.24,0,0,1-.32-.11.26.26,0,0,1,.1-.33c4.58-2.31,9.63.57,12.06,4.46a.24.24,0,0,1-.08.34A.28.28,0,0,1,28.94,346.81Z"/>
        </g>
        <g>
          <path class="cls-37" d="M31.86,324.9c-.11,3.58-2.81,6.4-6,6.3s-5.74-3.08-5.63-6.66,2.8-6.39,6-6.29S32,321.32,31.86,324.9Z"/>
          <g>
            <path class="cls-38" d="M22,325.28a5.62,5.62,0,0,0,1.28,3.41,12.49,12.49,0,0,0,1.41,1.62s3.72-.95,4.74-3.09c.21-.45,1.19-3.24,1.19-3.24s.29-.68-.26-1a17.37,17.37,0,0,1-1.88-1.07,6,6,0,0,0-1.26-.81c-.36-.12-.51-.05-1.17,0a22.17,22.17,0,0,1-2.22-.06c-.65,0-.73.74-.73.74A35.45,35.45,0,0,0,22,325.28Z"/>
            <path class="cls-39" d="M23.14,321.79a35.45,35.45,0,0,0-1.1,3.49c-.16,2.4,2.69,5,2.69,5h0s3.72-.95,4.74-3.09c.22-.45,1.19-3.24,1.19-3.24s.29-.68-.26-1a17.37,17.37,0,0,1-1.88-1.07,5.48,5.48,0,0,0-1.26-.81c-.36-.13-.51-.05-1.17,0a22.17,22.17,0,0,1-2.22-.06C23.22,321,23.14,321.79,23.14,321.79Zm.59-.13h.54a6.07,6.07,0,0,0,1.71,0c1.18-.23,1.54.37,2.11.78a10.27,10.27,0,0,0,1.45.84l.47.25a.39.39,0,0,1,0,.14s0,0,0,0c-.38,1.07-1,2.88-1.17,3.18a5.08,5.08,0,0,1-2.42,2,11.61,11.61,0,0,1-1.44.57,10.45,10.45,0,0,1-1-1.2,5.52,5.52,0,0,1-1.16-3.1,22.15,22.15,0,0,1,.9-3.39A1.56,1.56,0,0,1,23.73,321.66Z"/>
            <path class="cls-40" d="M22,325.28a6.2,6.2,0,0,0,1.62,3.85,5.74,5.74,0,0,1-1.37-3.53,35.45,35.45,0,0,1,1.1-3.49s.08-.75.73-.74a19.53,19.53,0,0,0,2.22.06c.66-.05.81-.12,1.17,0a5.27,5.27,0,0,1,1.26.81,19,19,0,0,0,1.88,1.06s0,0,.05,0a.6.6,0,0,0-.3-.36,17.37,17.37,0,0,1-1.88-1.07,5.27,5.27,0,0,0-1.26-.81c-.36-.13-.51-.05-1.17,0a19.68,19.68,0,0,1-2.22-.05c-.65,0-.73.74-.73.74A35.45,35.45,0,0,0,22,325.28Z"/>
            <path class="cls-39" d="M25.75,325.34a.25.25,0,0,0,.05.22l0,.17s0,.06,0,.06l.14,0s.06,0,.06,0l.05-.18a.25.25,0,0,0,.16-.16.24.24,0,0,0-.17-.29A.23.23,0,0,0,25.75,325.34Z"/>
            <path class="cls-39" d="M25.75,324.14l-.09.35,1,.27.09-.34a.53.53,0,0,0-.38-.66A.54.54,0,0,0,25.75,324.14Z"/>
            <path class="cls-39" d="M23.88,322.62s-.65,2.2-.68,2.57C23.07,327,25.06,329,25.06,329h0s2.64-.74,3.39-2.34c.15-.33.87-2.43.87-2.43s.22-.51-.17-.73a11.42,11.42,0,0,1-1.33-.77c-.22-.17-.43-.31-.6-.42a3,3,0,0,0-.38-.2h0a1.37,1.37,0,0,0-.77-.07,10,10,0,0,1-1.56,0C24,322.06,23.88,322.62,23.88,322.62Zm.95,1.95a.29.29,0,0,1,.35-.21l.08,0,.09-.34a.95.95,0,1,1,1.83.48l-.09.34.08,0a.29.29,0,0,1,.2.36L27,326.57a.29.29,0,0,1-.35.21l-2-.52a.29.29,0,0,1-.2-.36Z"/>
            <path class="cls-40" d="M23.2,325.19a5.7,5.7,0,0,0,1.48,3.42,5.14,5.14,0,0,1-1.22-3.09c0-.38.67-2.58.67-2.58s.16-.55.62-.55a11.34,11.34,0,0,0,1.56,0,1.42,1.42,0,0,1,.77.06h0a2.84,2.84,0,0,1,.37.21,7.26,7.26,0,0,1,.61.41,9,9,0,0,0,1.29.75.42.42,0,0,0-.22-.3,10.58,10.58,0,0,1-1.32-.77c-.23-.17-.44-.31-.61-.42l-.37-.2h0a1.37,1.37,0,0,0-.77-.07,11.46,11.46,0,0,1-1.56,0c-.46,0-.62.55-.62.55S23.23,324.82,23.2,325.19Z"/>
          </g>
        </g>
      </g>
    </g>
  </g>
</svg>
