<svg xmlns="http://www.w3.org/2000/svg" xmlns:xlink="http://www.w3.org/1999/xlink" width="1024" height="620" viewBox="0 0 1024 620">
  <defs>
    <style>
      .cls-1 {
        isolation: isolate;
      }

      .cls-2 {
        fill: none;
      }

      .cls-3, .cls-4 {
        fill: #51b2fb;
      }

      .cls-3, .cls-32 {
        opacity: 0.1;
      }

      .cls-4 {
        opacity: 0.2;
      }

      .cls-5 {
        fill: #e3ebfc;
      }

      .cls-6 {
        fill: #ccddfa;
      }

      .cls-7 {
        fill: #fafbff;
      }

      .cls-8 {
        fill: #80a7f6;
      }

      .cls-9 {
        fill: #9fbcfb;
      }

      .cls-10 {
        fill: #b8d0f9;
      }

      .cls-11, .cls-29, .cls-31 {
        fill: #207bff;
      }

      .cls-11, .cls-37 {
        opacity: 0.4;
      }

      .cls-12 {
        fill: #004bff;
        opacity: 0.5;
        mix-blend-mode: multiply;
      }

      .cls-13 {
        fill: #c5d8fa;
      }

      .cls-14 {
        fill: url(#_ÂÁ_Ï_ÌÌ_È_ËÂÌÚ_30);
      }

      .cls-15 {
        fill: #4aebff;
      }

      .cls-16, .cls-30 {
        fill: #fff;
      }

      .cls-17 {
        fill: #bef9ff;
      }

      .cls-18 {
        fill: url(#linear-gradient);
      }

      .cls-19 {
        fill: #ec1c24;
      }

      .cls-20 {
        fill: url(#linear-gradient-2);
      }

      .cls-21 {
        fill: url(#linear-gradient-3);
      }

      .cls-22 {
        fill: url(#linear-gradient-4);
      }

      .cls-23 {
        fill: url(#linear-gradient-5);
      }

      .cls-24 {
        fill: url(#linear-gradient-6);
      }

      .cls-25 {
        fill: url(#linear-gradient-7);
      }

      .cls-26 {
        fill: url(#_ÂÁ_Ï_ÌÌ_È_ËÂÌÚ_14);
      }

      .cls-27 {
        fill: url(#_ÂÁ_Ï_ÌÌ_È_ËÂÌÚ_18);
      }

      .cls-28 {
        fill: #4880f8;
      }

      .cls-30 {
        opacity: 0.8;
      }

      .cls-31 {
        opacity: 0.72;
      }

      .cls-32, .cls-33, .cls-34, .cls-35 {
        fill: #3ae6fb;
      }

      .cls-33 {
        opacity: 0.3;
      }

      .cls-35 {
        opacity: 0.7;
      }

      .cls-36 {
        fill: #93b4fb;
      }

      .cls-37 {
        mix-blend-mode: lighten;
        fill: url(#radial-gradient);
      }

      .cls-38 {
        fill: #00ffda;
      }

      .cls-39 {
        fill: #7fd1ca;
      }

      .cls-40 {
        fill: #1e1e1e;
      }
    </style>
    <radialGradient id="_ÂÁ_Ï_ÌÌ_È_ËÂÌÚ_30" data-name="¡ÂÁ˚ÏˇÌÌ˚È „‡‰ËÂÌÚ 30" cx="4410.06" cy="472.6" r="6.14" gradientTransform="translate(-4284.51)" gradientUnits="userSpaceOnUse">
      <stop offset="0" stop-color="#4aebff"/>
      <stop offset="1" stop-color="#00709e"/>
    </radialGradient>
    <linearGradient id="linear-gradient" x1="90.44" y1="365.34" x2="90.44" y2="399.2" gradientTransform="translate(45.19)" gradientUnits="userSpaceOnUse">
      <stop offset="0.02" stop-color="#dd2a21"/>
      <stop offset="0.06" stop-color="#c8201b"/>
      <stop offset="0.1" stop-color="#b71717"/>
      <stop offset="0.15" stop-color="#ac1113"/>
      <stop offset="0.22" stop-color="#a50e12"/>
      <stop offset="0.43" stop-color="#a30d11"/>
      <stop offset="0.79" stop-color="#6b0006"/>
    </linearGradient>
    <linearGradient id="linear-gradient-2" x1="80.61" y1="366.86" x2="80.61" y2="391.16" gradientTransform="translate(45.19)" gradientUnits="userSpaceOnUse">
      <stop offset="0" stop-color="#ad1a27"/>
      <stop offset="0.08" stop-color="#9e151f"/>
      <stop offset="0.28" stop-color="#7d090e"/>
      <stop offset="0.44" stop-color="#680304"/>
      <stop offset="0.56" stop-color="#610000"/>
      <stop offset="0.73" stop-color="#520000"/>
      <stop offset="1" stop-color="#3f0000"/>
    </linearGradient>
    <linearGradient id="linear-gradient-3" x1="852.77" y1="379.37" x2="868.85" y2="379.37" gradientTransform="matrix(-1, 0, 0, 1, 1015.73, 0)" gradientUnits="userSpaceOnUse">
      <stop offset="0" stop-color="#be1349"/>
      <stop offset="0.24" stop-color="#be124e"/>
      <stop offset="0.25" stop-color="#be124e"/>
      <stop offset="1" stop-color="#7a0025"/>
    </linearGradient>
    <linearGradient id="linear-gradient-4" x1="847.89" y1="387.44" x2="868.91" y2="387.44" gradientTransform="matrix(-1, 0, 0, 1, 1015.73, 0)" gradientUnits="userSpaceOnUse">
      <stop offset="0" stop-color="#282881"/>
      <stop offset="0.27" stop-color="#26257d"/>
      <stop offset="0.55" stop-color="#1f1b70"/>
      <stop offset="0.84" stop-color="#150c5b"/>
      <stop offset="1" stop-color="#0d004c"/>
    </linearGradient>
    <linearGradient id="linear-gradient-5" x1="852.86" y1="387.44" x2="868.84" y2="387.44" xlink:href="#linear-gradient-3"/>
    <linearGradient id="linear-gradient-6" x1="856.1" y1="379.3" x2="876.18" y2="379.3" xlink:href="#linear-gradient-4"/>
    <linearGradient id="linear-gradient-7" x1="95.94" y1="386.64" x2="95.94" y2="375.14" gradientTransform="translate(45.19)" gradientUnits="userSpaceOnUse">
      <stop offset="0" stop-color="#ed2d24"/>
      <stop offset="0.12" stop-color="#ed2824"/>
      <stop offset="0.25" stop-color="#ec1c24"/>
      <stop offset="1" stop-color="#74020d"/>
    </linearGradient>
    <linearGradient id="_ÂÁ_Ï_ÌÌ_È_ËÂÌÚ_14" data-name="¡ÂÁ˚ÏˇÌÌ˚È „‡‰ËÂÌÚ 14" x1="4324.85" y1="503.59" x2="4393.18" y2="503.59" gradientTransform="translate(-4259.86 13.43) rotate(-2.88)" gradientUnits="userSpaceOnUse">
      <stop offset="0" stop-color="#003a6b"/>
      <stop offset="1" stop-color="#00204c"/>
    </linearGradient>
    <linearGradient id="_ÂÁ_Ï_ÌÌ_È_ËÂÌÚ_18" data-name="¡ÂÁ˚ÏˇÌÌ˚È „‡‰ËÂÌÚ 18" x1="4388.18" y1="268.59" x2="4422.81" y2="326.92" gradientTransform="translate(-4284.51)" gradientUnits="userSpaceOnUse">
      <stop offset="0" stop-color="#cbd7e1"/>
      <stop offset="0.05" stop-color="#aec0d0"/>
      <stop offset="0.15" stop-color="#7998b2"/>
      <stop offset="0.26" stop-color="#4e7698"/>
      <stop offset="0.35" stop-color="#2c5c85"/>
      <stop offset="0.44" stop-color="#144976"/>
      <stop offset="0.53" stop-color="#053e6e"/>
      <stop offset="0.6" stop-color="#003a6b"/>
      <stop offset="1" stop-color="#00204c"/>
    </linearGradient>
    <radialGradient id="radial-gradient" cx="2945.6" cy="637.79" r="13" gradientTransform="matrix(0.74, 0.02, -0.03, 0.82, -2121.15, -206.49)" gradientUnits="userSpaceOnUse">
      <stop offset="0" stop-color="#00ddde" stop-opacity="0.52"/>
      <stop offset="0.09" stop-color="#2de6e7" stop-opacity="0.65"/>
      <stop offset="0.2" stop-color="#63f1f1" stop-opacity="0.8"/>
      <stop offset="0.3" stop-color="#8af8f9" stop-opacity="0.91"/>
      <stop offset="0.38" stop-color="#a2fdfd" stop-opacity="0.98"/>
      <stop offset="0.43" stop-color="#abffff"/>
      <stop offset="0.46" stop-color="#9ffcfd"/>
      <stop offset="0.51" stop-color="#7ff6f6"/>
      <stop offset="0.58" stop-color="#4aebeb"/>
      <stop offset="0.66" stop-color="#03dcdd"/>
      <stop offset="0.66" stop-color="#00dbdc"/>
      <stop offset="0.69" stop-color="#08dcdd" stop-opacity="0.97"/>
      <stop offset="0.74" stop-color="#1fdfe0" stop-opacity="0.88"/>
      <stop offset="0.8" stop-color="#44e5e5" stop-opacity="0.73"/>
      <stop offset="0.87" stop-color="#78eced" stop-opacity="0.53"/>
      <stop offset="0.94" stop-color="#baf5f6" stop-opacity="0.27"/>
      <stop offset="1" stop-color="#fff" stop-opacity="0"/>
    </radialGradient>
  </defs>
  <title>robot</title>
  <g class="cls-1">
    <g id="robot">
      <g id="fondo">
        <rect class="cls-2" width="1024" height="620"/>
      </g>
      <g id="sombras">
        <ellipse class="cls-3" cx="109.09" cy="507.86" rx="49.25" ry="11.06"/>
        <path class="cls-4" d="M147.46,507.86c0,3.88-17.18,7-38.37,7s-38.36-3.15-38.36-7,17.18-7,38.36-7S147.46,504,147.46,507.86Z"/>
        <path class="cls-4" d="M132.19,507.86c0,2.33-10.34,4.23-23.1,4.23S86,510.19,86,507.86s10.34-4.24,23.09-4.24S132.19,505.52,132.19,507.86Z"/>
      </g>
      <g id="brazoIzquierdo">
        <g>
          <path class="cls-5" d="M197.35,398.15c-7.19-34.22-21.16-48.81-24.43-51.84a2.87,2.87,0,0,0-1.75-.76c-2.43-.15-8.71.48-14.87,9.58-4.26,6.28-2.78,16.44-2.39,16.93,4,5.13,29.12,37.43,35.79,48.49C197,432.58,200.43,412.77,197.35,398.15Z"/>
          <path class="cls-6" d="M156.26,355.16a28.38,28.38,0,0,1,5.85-6.49c-.66.8-1.33,1.68-2,2.67-5.37,7.93-2.78,13.3-.9,17,6.76,13.16,25.95,37.55,30.88,52.94-.14-.21-.28-.43-.42-.67-6.68-11.06-31.8-43.36-35.8-48.49C153.48,371.61,152,361.45,156.26,355.16Z"/>
          <path class="cls-7" d="M175.84,358.34c16.1,11.59,20.79,52.82,20.79,52.82S186,382.78,177.89,370.94,170.35,354.39,175.84,358.34Z"/>
          <path class="cls-6" d="M185.69,413.93a44.16,44.16,0,0,1,.18,5.95c-.07.54-2.7,3.17-2.72,2.89-.2-2.48-2.44-15.42-4.83-18.7C177.48,402.91,185.6,411.53,185.69,413.93Z"/>
          <path class="cls-8" d="M178,404.48a.41.41,0,0,0,.31-.23c3-6.55,10.31-12.07,17.83-9.38a.41.41,0,0,0,.51-.24.39.39,0,0,0-.24-.51c-8-2.85-15.65,2.92-18.82,9.8a.4.4,0,0,0,.19.53A.42.42,0,0,0,178,404.48Z"/>
        </g>
        <path class="cls-9" d="M173.49,361.52c-.93,10.68-5.4,19-10,18.62s-7.57-9.38-6.64-20.06,5.39-18.86,10-18.62C173.5,341.81,174.41,350.84,173.49,361.52Z"/>
      </g>
      <g id="torso">
        <path class="cls-5" d="M64.56,340.3C59.79,340,43,356.87,48,373.23s33.72,71,40.21,90.12,10.38,23.83,19.61,25.57,23.18,2.36,39.34-31.4,18.66-71.67,19.39-89.69-1.14-25.16-7.44-27.22C144.46,335.82,64.56,340.3,64.56,340.3Z"/>
        <path class="cls-7" d="M140.68,453.55c12.54-35.52,11-73.69,9.86-91.78-.77-12-2.19-19.12-5-22.93-13.35-.75-32.86-.43-49.39.11,8.84,23.32,21.9,62.58,24.08,103,1.45,27-2.28,40.18-7.44,46.93C121.25,487.23,131.35,480,140.68,453.55Z"/>
        <path class="cls-10" d="M160.55,342.11c0,3.5-24.73,8.93-49.68,9s-49.7-5.32-49.71-8.82,24.74-3.82,49.69-3.86S160.54,338.61,160.55,342.11Z"/>
        <path class="cls-11" d="M145.46,342.83c0,2.42-17,6.18-34.22,6.2S77,345.36,77,342.94s17-2.64,34.23-2.67S145.46,340.41,145.46,342.83Z"/>
        <path class="cls-12" d="M135,344.08c0,.93-11.75,2.1-23.2,2.12s-22.41-1.12-22.41-2,10.95-1.3,22.4-1.32S135,343.15,135,344.08Z"/>
        <path class="cls-13" d="M98.51,467.3c-2.65-14.31-6.6-61.12-16-94.15-4.71-16.56-15.82-28.24-26.56-24.54-7.63,2.63-10.64,15.77-7.9,24.62,5.06,16.37,33.72,71,40.21,90.12s10.38,23.83,19.61,25.57c4.75.89,10.76,1.48,17.67-2.76C116.18,487.63,102.9,491,98.51,467.3Z"/>
        <path class="cls-14" d="M131.54,474.27a16.88,16.88,0,0,1-5.69.94,26.36,26.36,0,0,1-6.36-.46,2.56,2.56,0,0,1-2.22-2.37h0A2.31,2.31,0,0,1,119.5,470s4.89.55,6.08.54a44,44,0,0,0,6.18-.58c1.23,0,2.37.36,2,2.11A3,3,0,0,1,131.54,474.27Z"/>
        <path class="cls-15" d="M130.76,474a17.77,17.77,0,0,1-4.92.67,27,27,0,0,1-5.5-.34c-1-.21-1.92-.76-1.92-1.68h0a1.82,1.82,0,0,1,1.93-1.68s4.23.39,5.26.38A46.13,46.13,0,0,0,131,471c1.06,0,2.05.26,1.73,1.51C132.53,473,132,473.62,130.76,474Z"/>
        <path class="cls-8" d="M124.48,463.48c-11.24,0-25-2.44-39.89-8.55a.4.4,0,1,1,.3-.74c27.7,11.39,51.54,9.94,62,3.78a.4.4,0,0,1,.4.69C142.3,461.59,134.37,463.48,124.48,463.48Z"/>
        <path class="cls-16" d="M124.19,462.59c-11.24,0-25-2.44-39.89-8.55a.4.4,0,0,1-.22-.52.41.41,0,0,1,.52-.22c27.7,11.39,51.53,9.94,62,3.78a.4.4,0,0,1,.41.69C142,460.7,134.08,462.59,124.19,462.59Z"/>
        <path class="cls-7" d="M164.5,349.54c2.13,43.28-4.12,63.77-4.12,63.77s6-32.71.47-64.32C160.09,344.65,164.17,342.77,164.5,349.54Z"/>
        <path class="cls-16" d="M65,346.51s4.92,3,22.93,4.64,41.71,1.35,41.71,1.35-21.84,2.9-41.8.75S65,346.51,65,346.51Z"/>
        <path class="cls-17" d="M128.49,471.22c-.87.07-1.89.13-2.88.14s-5.26-.38-5.26-.38a1.84,1.84,0,0,0-.41,0l2,3.54a38,38,0,0,0,4,.12,18.31,18.31,0,0,0,4.58-.58Z"/>
        <g>
          <path class="cls-18" d="M124.16,379.2A15.28,15.28,0,0,1,133.7,365c.57.05,1.14.12,1.7.22a14.07,14.07,0,0,1,11.7,13.41c0,.15,0,.3,0,.46v.17a8.73,8.73,0,0,0-11.58-8.23c.87-.31.83-.31,0,0a8.48,8.48,0,0,0-2.94-.51,8.35,8.35,0,0,0-8.33,8.64v.07a8.22,8.22,0,0,0,8.25,8.56,8.38,8.38,0,0,0,2.69-.43,8.72,8.72,0,0,0,12-8,13.93,13.93,0,0,1-11.62,13.7,14.67,14.67,0,0,1-1.78.22A15.28,15.28,0,0,1,124.16,379.2Z"/>
          <path class="cls-19" d="M129.67,379.3a8.72,8.72,0,0,0,5.49,8.1,8.38,8.38,0,0,1-2.69.43,8.22,8.22,0,0,1-8.25-8.56v-.07a8.35,8.35,0,0,1,8.33-8.64,8.48,8.48,0,0,1,2.94.51c.88-.32.92-.32,0,0A8.72,8.72,0,0,0,129.67,379.3Z"/>
          <path class="cls-20" d="M132.47,365c.41,0,.82,0,1.23,0a15.28,15.28,0,0,0,0,28.33c-.38,0-.77.05-1.16.05-8.48,0-14.65-6.4-14.65-14.21v-.08C117.9,371.3,124,365,132.47,365Z"/>
          <path class="cls-21" d="M147.12,379.3c0,.05,0,.1,0,.14s0-.1,0-.15Z"/>
          <path class="cls-22" d="M135.4,387.32Z"/>
          <path class="cls-23" d="M135.4,387.32Z"/>
          <path class="cls-24" d="M138.39,388a8.68,8.68,0,0,1-3.23-.62l.24-.08h0A8.51,8.51,0,0,0,141,379.2v-.08a8.37,8.37,0,0,0-5.51-8.05h0a8.73,8.73,0,0,1,11.58,8.23s0,.1,0,.15A8.71,8.71,0,0,1,138.39,388Z"/>
          <path class="cls-25" d="M138.39,388a8.68,8.68,0,0,1-3.23-.62l.24-.08h0A8.51,8.51,0,0,0,141,379.2v-.08a8.37,8.37,0,0,0-5.51-8.05h0a8.73,8.73,0,0,1,11.58,8.23s0,.1,0,.15A8.71,8.71,0,0,1,138.39,388Z"/>
        </g>
      </g>
      <g id="cabeza">
        <g>
          <path class="cls-5" d="M68.35,327c11.35,14.62,46.11,11.84,55.79,10.91s26.09-2.61,32-20.43,3-45-13.29-59.16-59.73-11.84-74.49,7.22S64.41,321.92,68.35,327Z"/>
          <path class="cls-16" d="M71.34,269.42c.65-.23,14.07-10.67,38.38-12.75,8.36-.72,21.4,0,29.77,1.16-.83-.88-12.85-7.83-37.65-5.24A48.91,48.91,0,0,0,71.34,269.42Z"/>
          <path class="cls-7" d="M115.53,265.1c-7.82.12-15.66.68-23,3.48l-.17.07c7.66,16.21,8.28,37.34,3.8,52.44a32,32,0,0,1-6.51,12.24c13.52,2.38,28.65,1.14,34.53.58,6.4-.61,15.75-1.56,23-7.29a37.06,37.06,0,0,0,2.12-5.53c4.54-15.3,3.84-36.78-4.11-53.07A125.82,125.82,0,0,0,115.53,265.1Z"/>
          <path class="cls-26" d="M87.24,279.49c4.51-6.13,16.8-7.73,32.2-8.65,19.88-1.18,26.6,2.41,28.63,4.71s5.55,13.71,4.79,24.8-.88,14.43-5.44,17.18-17.74,5.46-26.26,5.67c-16.13.39-24.27-.39-29.66-3.56-2.76-1.62-6.27-10.35-6.82-21.11S84.9,282.67,87.24,279.49Z"/>
          <path class="cls-27" d="M118.89,272.55c-9.57.56-17.88,1.38-23.73,3.45,5.11,14.2,5.15,31,1.35,43.51,0,.14-.1.27-.14.42,5.11,1.47,12.43,1.83,24.16,1.55,8.17-.19,20.82-2.72,25.2-5.3a7.8,7.8,0,0,0,3.43-3.57,74.39,74.39,0,0,0-2.53-35.3c-.1-.13-.19-.26-.28-.36C144.4,274.81,138,271.45,118.89,272.55Z"/>
          <path class="cls-9" d="M76.79,289.69c-.27,6-3.63,10.77-7.51,10.6s-6.82-5.2-6.55-11.23,3.63-10.77,7.51-10.59S77.06,283.66,76.79,289.69Z"/>
          <path class="cls-28" d="M73.72,289.24c-.19,4.23-2.25,7.57-4.61,7.46s-4.11-3.61-3.92-7.84,2.25-7.58,4.6-7.47S73.9,285,73.72,289.24Z"/>
          <path class="cls-29" d="M73.78,289.55h0a14.85,14.85,0,0,0-1.77-8c-1.31-2.24-3.14-3.52-5.16-3.61-4.08-.18-7.65,4.74-7.93,11s2.83,11.46,6.93,11.64h.22C70.07,300.54,73.51,295.68,73.78,289.55Zm-7-10.84c1.74.08,3.34,1.22,4.5,3.22A14.06,14.06,0,0,1,73,289.52c-.26,5.79-3.45,10.36-7.11,10.22s-6.42-5-6.16-10.81,3.33-10.22,6.91-10.22Z"/>
          <path class="cls-7" d="M66.33,303.65l2.85.1s1.21,11.84,4.62,18.8,8.27,9.18,8.27,9.18-7.3-2.37-11.68-11.38C67.25,313.85,66.33,303.65,66.33,303.65Z"/>
          <path class="cls-30" d="M89.92,280.4v0a1.51,1.51,0,0,0,2.17.51c1.39-.95,3.5-2.36,4.71-3,1.92-1.05,11.41-4.55,11.41-4.55s-9.51.19-17.59,4.58A1.8,1.8,0,0,0,89.92,280.4Z"/>
        </g>
        <path class="cls-31" d="M82.46,288.3c0,1.87-.87,3.39-1.94,3.39s-1.94-1.52-1.94-3.39.87-3.38,1.94-3.38S82.46,286.43,82.46,288.3Z"/>
      </g>
      <g id="ojos">
        <g>
          <rect class="cls-32" x="105.52" y="283.71" width="13.71" height="17.91" rx="3.93"/>
          <rect class="cls-32" x="106.96" y="285.63" width="10.83" height="14.06" rx="3.93"/>
          <rect class="cls-33" x="108.78" y="287.44" width="7.52" height="10.94" rx="2.44"/>
          <path class="cls-34" d="M115.5,291.66h-6.17a.3.3,0,0,1-.3-.3.29.29,0,0,1,.3-.3h6.17a.3.3,0,0,1,.3.3A.31.31,0,0,1,115.5,291.66Z"/>
          <path class="cls-34" d="M115.5,293h-6.17a.29.29,0,0,1-.3-.3.3.3,0,0,1,.3-.3h6.17a.31.31,0,0,1,.3.3A.3.3,0,0,1,115.5,293Z"/>
          <path class="cls-34" d="M115.5,294.31h-6.17a.29.29,0,0,1-.3-.3.3.3,0,0,1,.3-.3h6.17a.31.31,0,0,1,.3.3A.3.3,0,0,1,115.5,294.31Z"/>
          <path class="cls-34" d="M114.71,289.15h-4.6a.3.3,0,1,1,0-.59h4.6a.3.3,0,1,1,0,.59Z"/>
          <path class="cls-34" d="M115.5,290.51h-6.17a.3.3,0,0,1-.3-.3.29.29,0,0,1,.3-.3h6.17a.3.3,0,0,1,.3.3A.31.31,0,0,1,115.5,290.51Z"/>
          <path class="cls-34" d="M115.5,295.92h-6.17a.3.3,0,0,1,0-.6h6.17a.3.3,0,1,1,0,.6Z"/>
          <path class="cls-34" d="M115.5,297.22h-6.17a.29.29,0,0,1-.3-.3.3.3,0,0,1,.3-.3h6.17a.31.31,0,0,1,.3.3A.3.3,0,0,1,115.5,297.22Z"/>
        </g>
        <g>
          <rect class="cls-32" x="130.14" y="283.38" width="13.71" height="17.91" rx="3.93"/>
          <rect class="cls-32" x="131.57" y="285.31" width="10.83" height="14.06" rx="3.93"/>
          <rect class="cls-33" x="133.4" y="287.11" width="7.52" height="10.94" rx="2.44"/>
          <path class="cls-34" d="M140.11,291.33h-6.17a.29.29,0,0,1-.3-.3.3.3,0,0,1,.3-.3h6.17a.3.3,0,0,1,.3.3A.29.29,0,0,1,140.11,291.33Z"/>
          <path class="cls-34" d="M140.11,292.64h-6.17a.3.3,0,0,1-.3-.3.29.29,0,0,1,.3-.3h6.17a.29.29,0,0,1,.3.3A.3.3,0,0,1,140.11,292.64Z"/>
          <path class="cls-34" d="M140.11,294h-6.17a.3.3,0,0,1-.3-.3.29.29,0,0,1,.3-.3h6.17a.29.29,0,0,1,.3.3A.3.3,0,0,1,140.11,294Z"/>
          <path class="cls-34" d="M139.33,288.83h-4.6a.29.29,0,0,1-.3-.3.3.3,0,0,1,.3-.3h4.6a.31.31,0,0,1,.3.3A.3.3,0,0,1,139.33,288.83Z"/>
          <path class="cls-34" d="M140.11,290.18h-6.17a.3.3,0,1,1,0-.59h6.17a.3.3,0,1,1,0,.59Z"/>
          <path class="cls-34" d="M140.11,295.59h-6.17a.3.3,0,1,1,0-.59h6.17a.3.3,0,1,1,0,.59Z"/>
          <path class="cls-34" d="M140.11,296.9h-6.17a.3.3,0,0,1-.3-.3.29.29,0,0,1,.3-.3h6.17a.29.29,0,0,1,.3.3A.3.3,0,0,1,140.11,296.9Z"/>
        </g>
      </g>
      <path id="boca" class="cls-35" d="M115.23,310.8c6.19.78,17.28,1.4,17.28,1.4s-9.81,1-16.21-.11S108.58,310,115.23,310.8Z"/>
      <g id="brazoDerecho">
        <path class="cls-36" d="M74.63,372.53c3.42,12,.71,23.21-6.07,25.15s-15.05-6.15-18.48-18.1-.72-23.2,6.06-25.15S71.2,360.59,74.63,372.53Z"/>
        <path class="cls-29" d="M66.39,394.73a.42.42,0,0,1-.44-.4.43.43,0,0,1,.4-.46,4.91,4.91,0,0,0,4-2.79c2.82-4.84,2.28-14-1.26-21.25-4.22-8.7-11-12.17-14.82-10.4a.43.43,0,1,1-.36-.78c4.82-2.23,12,2.62,16,10.8,3.65,7.52,4.18,17,1.23,22.07a5.83,5.83,0,0,1-4.68,3.21Z"/>
        <g>
          <path class="cls-5" d="M29.28,417.08C32.13,382.24,44.15,366,47,362.59a2.81,2.81,0,0,1,1.64-1c2.39-.46,8.7-.62,16,7.63,5,5.71,4.82,16,4.5,16.51-3.33,5.58-24.2,40.78-29.43,52.59C34,451.19,28.06,432,29.28,417.08Z"/>
          <path class="cls-6" d="M64.65,369.28A28.49,28.49,0,0,0,58,363.57c.76.72,1.53,1.51,2.32,2.41,6.32,7.19,4.44,12.84,3,16.72-5.06,13.91-21,40.52-24,56.41.11-.23.23-.47.34-.73,5.23-11.8,26.11-47,29.43-52.59C69.47,385.25,69.66,375,64.65,369.28Z"/>
          <path class="cls-7" d="M45.62,374.9c-14.51,13.51-14,55-14,55s7-29.49,13.55-42.25S50.58,370.28,45.62,374.9Z"/>
          <path class="cls-6" d="M42.83,431.27a44.84,44.84,0,0,0,.56,5.93c.14.53,3.08,2.81,3.07,2.53-.11-2.49.48-15.6,2.44-19.16C49.59,419.31,42.62,428.89,42.83,431.27Z"/>
          <path class="cls-8" d="M49.23,420.94a.38.38,0,0,1-.33-.18c-3.83-6.13-11.74-10.69-18.87-7.08a.41.41,0,0,1-.54-.17.4.4,0,0,1,.18-.54c7.55-3.82,15.89.94,19.9,7.36a.39.39,0,0,1-.13.55A.37.37,0,0,1,49.23,420.94Z"/>
        </g>
        <g>
          <path class="cls-37" d="M54.05,384.76c-.18,5.91-4.64,10.56-9.95,10.4s-9.49-5.08-9.31-11,4.64-10.56,10-10.4S54.23,378.86,54.05,384.76Z"/>
          <g>
            <path class="cls-38" d="M37.83,385.38c-.13,2,1,4.07,2.12,5.65a20.07,20.07,0,0,0,2.32,2.66s6.14-1.57,7.84-5.09c.35-.74,2-5.36,2-5.36s.48-1.12-.43-1.63a27.39,27.39,0,0,1-3.11-1.77,9.51,9.51,0,0,0-2.08-1.33c-.59-.21-.85-.09-1.93,0a35.29,35.29,0,0,1-3.66-.09c-1.08,0-1.21,1.21-1.21,1.21S37.89,384.55,37.83,385.38Z"/>
            <path class="cls-39" d="M39.65,379.62s-1.76,4.93-1.82,5.76c-.26,4,4.44,8.31,4.44,8.31h0s6.15-1.57,7.84-5.09c.35-.74,2-5.36,2-5.36s.49-1.12-.42-1.63a28.8,28.8,0,0,1-3.11-1.76,8.58,8.58,0,0,0-2.08-1.34c-.59-.21-.85-.09-1.93,0a32.7,32.7,0,0,1-3.66-.09C39.78,378.37,39.65,379.62,39.65,379.62Zm1-.2.9,0a10.58,10.58,0,0,0,2.82,0c1.95-.37,2.55.62,3.48,1.29a17.63,17.63,0,0,0,2.4,1.39l.77.41a.85.85,0,0,1,0,.22l0,.07c-.61,1.77-1.68,4.76-1.92,5.26-.73,1.53-2.58,2.66-4,3.34a21.42,21.42,0,0,1-2.37.94,20,20,0,0,1-1.66-2c-.91-1.29-2-3.41-1.9-5.12a36.76,36.76,0,0,1,1.47-5.59S40.62,379.42,40.62,379.42Z"/>
            <path class="cls-40" d="M37.83,385.38c-.15,2.31,1.37,4.74,2.67,6.36-1.19-1.6-2.39-3.76-2.26-5.82.06-.84,1.82-5.76,1.82-5.76s.13-1.25,1.21-1.22a32.89,32.89,0,0,0,3.67.09c1.08-.08,1.34-.2,1.93,0a8.78,8.78,0,0,1,2.07,1.33,28.87,28.87,0,0,0,3.12,1.76l.08.06a1,1,0,0,0-.5-.59,28.8,28.8,0,0,1-3.11-1.76,8.58,8.58,0,0,0-2.08-1.34c-.59-.21-.85-.09-1.93,0a32.54,32.54,0,0,1-3.66-.1c-1.08,0-1.21,1.22-1.21,1.22S37.89,384.55,37.83,385.38Z"/>
            <path class="cls-39" d="M44,385.49a.36.36,0,0,0,.09.36l-.08.29a.08.08,0,0,0,.06.1l.23.06a.09.09,0,0,0,.1-.06l.07-.29a.36.36,0,0,0,.26-.27.38.38,0,1,0-.73-.19Z"/>
            <path class="cls-39" d="M44,383.52l-.15.56,1.7.45.15-.57a.88.88,0,1,0-1.7-.44Z"/>
            <path class="cls-39" d="M40.87,381s-1.07,3.64-1.11,4.25c-.23,2.95,3.06,6.36,3.06,6.36h0s4.36-1.22,5.59-3.86c.26-.55,1.45-4,1.45-4s.36-.84-.28-1.21a18.33,18.33,0,0,1-2.2-1.28c-.37-.28-.71-.51-1-.68a4.3,4.3,0,0,0-.62-.34h0a2.32,2.32,0,0,0-1.28-.11,18.25,18.25,0,0,1-2.58,0C41.14,380.08,40.87,381,40.87,381Zm1.57,3.23a.49.49,0,0,1,.58-.35l.13,0,.14-.56a1.57,1.57,0,1,1,3,.8l-.15.56.12,0a.47.47,0,0,1,.34.58l-.58,2.21a.47.47,0,0,1-.58.34L42.19,387a.48.48,0,0,1-.33-.59Z"/>
            <path class="cls-40" d="M39.76,385.25c-.17,2.11,1.49,4.47,2.43,5.63-.94-1.26-2.16-3.27-2-5.1,0-.62,1.12-4.25,1.12-4.25s.26-.91,1-.9a19.87,19.87,0,0,0,2.58,0,2.35,2.35,0,0,1,1.27.1h0a5.64,5.64,0,0,1,.62.34c.28.17.63.41,1,.68A15.61,15.61,0,0,0,49.94,383a.73.73,0,0,0-.36-.5,18.27,18.27,0,0,1-2.19-1.28c-.38-.28-.72-.51-1-.68a4.3,4.3,0,0,0-.62-.34h0a2.32,2.32,0,0,0-1.28-.11,19.89,19.89,0,0,1-2.58,0c-.76,0-1,.9-1,.9S39.8,384.63,39.76,385.25Z"/>
          </g>
        </g>
      </g>
    </g>
  </g>
</svg>
