<svg xmlns="http://www.w3.org/2000/svg" xmlns:xlink="http://www.w3.org/1999/xlink" width="1024" height="619" viewBox="0 0 1024 619">
  <defs>
    <style>
      .cls-1 {
        isolation: isolate;
      }

      .cls-2 {
        fill: none;
      }

      .cls-3, .cls-4 {
        fill: #51b2fb;
      }

      .cls-3, .cls-32 {
        opacity: 0.1;
      }

      .cls-4 {
        opacity: 0.2;
      }

      .cls-5 {
        fill: #e3ebfc;
      }

      .cls-6 {
        fill: #ccddfa;
      }

      .cls-7 {
        fill: #fafbff;
      }

      .cls-8 {
        fill: #80a7f6;
      }

      .cls-9 {
        fill: #9fbcfb;
      }

      .cls-10 {
        fill: #b8d0f9;
      }

      .cls-11, .cls-29, .cls-31 {
        fill: #207bff;
      }

      .cls-11, .cls-37 {
        opacity: 0.4;
      }

      .cls-12 {
        fill: #004bff;
        opacity: 0.5;
        mix-blend-mode: multiply;
      }

      .cls-13 {
        fill: #c5d8fa;
      }

      .cls-14 {
        fill: url(#_ÂÁ_Ï_ÌÌ_È_ËÂÌÚ_30);
      }

      .cls-15 {
        fill: #4aebff;
      }

      .cls-16, .cls-30 {
        fill: #fff;
      }

      .cls-17 {
        fill: #bef9ff;
      }

      .cls-18 {
        fill: url(#linear-gradient);
      }

      .cls-19 {
        fill: #ec1c24;
      }

      .cls-20 {
        fill: url(#linear-gradient-2);
      }

      .cls-21 {
        fill: url(#linear-gradient-3);
      }

      .cls-22 {
        fill: url(#linear-gradient-4);
      }

      .cls-23 {
        fill: url(#linear-gradient-5);
      }

      .cls-24 {
        fill: url(#linear-gradient-6);
      }

      .cls-25 {
        fill: url(#linear-gradient-7);
      }

      .cls-26 {
        fill: url(#_ÂÁ_Ï_ÌÌ_È_ËÂÌÚ_14);
      }

      .cls-27 {
        fill: url(#_ÂÁ_Ï_ÌÌ_È_ËÂÌÚ_18);
      }

      .cls-28 {
        fill: #4880f8;
      }

      .cls-30 {
        opacity: 0.8;
      }

      .cls-31 {
        opacity: 0.72;
      }

      .cls-32, .cls-33, .cls-34, .cls-35 {
        fill: #3ae6fb;
      }

      .cls-33 {
        opacity: 0.3;
      }

      .cls-35 {
        opacity: 0.7;
      }

      .cls-36 {
        fill: #93b4fb;
      }

      .cls-37 {
        mix-blend-mode: lighten;
        fill: url(#radial-gradient);
      }

      .cls-38 {
        fill: #00ffda;
      }

      .cls-39 {
        fill: #7fd1ca;
      }

      .cls-40 {
        fill: #1e1e1e;
      }
    </style>
    <radialGradient id="_ÂÁ_Ï_ÌÌ_È_ËÂÌÚ_30" data-name="¡ÂÁ˚ÏˇÌÌ˚È „‡‰ËÂÌÚ 30" cx="5199.16" cy="443.37" r="6.14" gradientTransform="matrix(-1, 0, 0, 1, 6110.81, 0)" gradientUnits="userSpaceOnUse">
      <stop offset="0" stop-color="#4aebff"/>
      <stop offset="1" stop-color="#00709e"/>
    </radialGradient>
    <linearGradient id="linear-gradient" x1="906.7" y1="336.12" x2="906.7" y2="369.98" gradientTransform="translate(1.11)" gradientUnits="userSpaceOnUse">
      <stop offset="0.02" stop-color="#dd2a21"/>
      <stop offset="0.06" stop-color="#c8201b"/>
      <stop offset="0.1" stop-color="#b71717"/>
      <stop offset="0.15" stop-color="#ac1113"/>
      <stop offset="0.22" stop-color="#a50e12"/>
      <stop offset="0.43" stop-color="#a30d11"/>
      <stop offset="0.79" stop-color="#6b0006"/>
    </linearGradient>
    <linearGradient id="linear-gradient-2" x1="896.87" y1="337.63" x2="896.87" y2="361.93" gradientTransform="translate(1.11)" gradientUnits="userSpaceOnUse">
      <stop offset="0" stop-color="#ad1a27"/>
      <stop offset="0.08" stop-color="#9e151f"/>
      <stop offset="0.28" stop-color="#7d090e"/>
      <stop offset="0.44" stop-color="#680304"/>
      <stop offset="0.56" stop-color="#610000"/>
      <stop offset="0.73" stop-color="#520000"/>
      <stop offset="1" stop-color="#3f0000"/>
    </linearGradient>
    <linearGradient id="linear-gradient-3" x1="36.51" y1="350.14" x2="52.59" y2="350.14" gradientTransform="matrix(-1, 0, 0, 1, 971.64, 0)" gradientUnits="userSpaceOnUse">
      <stop offset="0" stop-color="#be1349"/>
      <stop offset="0.24" stop-color="#be124e"/>
      <stop offset="0.25" stop-color="#be124e"/>
      <stop offset="1" stop-color="#7a0025"/>
    </linearGradient>
    <linearGradient id="linear-gradient-4" x1="31.63" y1="358.22" x2="52.66" y2="358.22" gradientTransform="matrix(-1, 0, 0, 1, 971.64, 0)" gradientUnits="userSpaceOnUse">
      <stop offset="0" stop-color="#282881"/>
      <stop offset="0.27" stop-color="#26257d"/>
      <stop offset="0.55" stop-color="#1f1b70"/>
      <stop offset="0.84" stop-color="#150c5b"/>
      <stop offset="1" stop-color="#0d004c"/>
    </linearGradient>
    <linearGradient id="linear-gradient-5" x1="36.6" y1="358.22" x2="52.58" y2="358.22" xlink:href="#linear-gradient-3"/>
    <linearGradient id="linear-gradient-6" x1="39.84" y1="350.07" x2="59.92" y2="350.07" xlink:href="#linear-gradient-4"/>
    <linearGradient id="linear-gradient-7" x1="912.2" y1="357.41" x2="912.2" y2="345.91" gradientTransform="translate(1.11)" gradientUnits="userSpaceOnUse">
      <stop offset="0" stop-color="#ed2d24"/>
      <stop offset="0.12" stop-color="#ed2824"/>
      <stop offset="0.25" stop-color="#ec1c24"/>
      <stop offset="1" stop-color="#74020d"/>
    </linearGradient>
    <linearGradient id="_ÂÁ_Ï_ÌÌ_È_ËÂÌÚ_14" data-name="¡ÂÁ˚ÏˇÌÌ˚È „‡‰ËÂÌÚ 14" x1="5114.45" y1="514.09" x2="5182.78" y2="514.09" gradientTransform="matrix(-1, -0.05, -0.05, 1, 6086.16, 13.43)" gradientUnits="userSpaceOnUse">
      <stop offset="0" stop-color="#003a6b"/>
      <stop offset="1" stop-color="#00204c"/>
    </linearGradient>
    <linearGradient id="_ÂÁ_Ï_ÌÌ_È_ËÂÌÚ_18" data-name="¡ÂÁ˚ÏˇÌÌ˚È „‡‰ËÂÌÚ 18" x1="5177.29" y1="239.37" x2="5211.91" y2="297.69" gradientTransform="matrix(-1, 0, 0, 1, 6110.81, 0)" gradientUnits="userSpaceOnUse">
      <stop offset="0" stop-color="#cbd7e1"/>
      <stop offset="0.05" stop-color="#aec0d0"/>
      <stop offset="0.15" stop-color="#7998b2"/>
      <stop offset="0.26" stop-color="#4e7698"/>
      <stop offset="0.35" stop-color="#2c5c85"/>
      <stop offset="0.44" stop-color="#144976"/>
      <stop offset="0.53" stop-color="#053e6e"/>
      <stop offset="0.6" stop-color="#003a6b"/>
      <stop offset="1" stop-color="#00204c"/>
    </linearGradient>
    <radialGradient id="radial-gradient" cx="4008.91" cy="573.02" r="13" gradientTransform="matrix(-0.74, 0.02, 0.02, 0.82, 3947.45, -206.49)" gradientUnits="userSpaceOnUse">
      <stop offset="0" stop-color="#00ddde" stop-opacity="0.52"/>
      <stop offset="0.09" stop-color="#2de6e7" stop-opacity="0.65"/>
      <stop offset="0.2" stop-color="#63f1f1" stop-opacity="0.8"/>
      <stop offset="0.3" stop-color="#8af8f9" stop-opacity="0.91"/>
      <stop offset="0.38" stop-color="#a2fdfd" stop-opacity="0.98"/>
      <stop offset="0.43" stop-color="#abffff"/>
      <stop offset="0.46" stop-color="#9ffcfd"/>
      <stop offset="0.51" stop-color="#7ff6f6"/>
      <stop offset="0.58" stop-color="#4aebeb"/>
      <stop offset="0.66" stop-color="#03dcdd"/>
      <stop offset="0.66" stop-color="#00dbdc"/>
      <stop offset="0.69" stop-color="#08dcdd" stop-opacity="0.97"/>
      <stop offset="0.74" stop-color="#1fdfe0" stop-opacity="0.88"/>
      <stop offset="0.8" stop-color="#44e5e5" stop-opacity="0.73"/>
      <stop offset="0.87" stop-color="#78eced" stop-opacity="0.53"/>
      <stop offset="0.94" stop-color="#baf5f6" stop-opacity="0.27"/>
      <stop offset="1" stop-color="#fff" stop-opacity="0"/>
    </radialGradient>
  </defs>
  <title>robot</title>
  <g class="cls-1">
    <g id="robot">
      <g id="fondo">
        <rect class="cls-2" width="1024" height="619"/>
      </g>
      <g id="sombra">
        <ellipse class="cls-3" cx="920.6" cy="499.71" rx="49.25" ry="11.06"/>
        <path class="cls-4" d="M882.73,500.21c0,3.89,17.18,7,38.37,7s38.36-3.14,38.36-7-17.18-7-38.36-7S882.73,496.33,882.73,500.21Z" transform="translate(-0.5 -0.5)"/>
        <path class="cls-4" d="M898,500.21c0,2.34,10.34,4.24,23.1,4.24s23.09-1.9,23.09-4.24S933.85,496,921.1,496,898,497.88,898,500.21Z" transform="translate(-0.5 -0.5)"/>
      </g>
      <g id="brazoIzquierdo">
        <g>
          <path class="cls-5" d="M846.5,372.37c7.2-34.22,21.16-48.81,24.43-51.84a2.87,2.87,0,0,1,1.75-.76c2.44-.16,8.71.47,14.87,9.57,4.26,6.29,2.78,16.45,2.4,16.94-4,5.13-29.13,37.43-35.8,48.49C846.89,406.8,843.42,387,846.5,372.37Z" transform="translate(-0.5 -0.5)"/>
          <path class="cls-6" d="M887.59,329.38a28.67,28.67,0,0,0-5.85-6.5c.66.81,1.33,1.69,2,2.68,5.37,7.93,2.79,13.3.9,17-6.76,13.17-25.95,37.56-30.88,53l.43-.67c6.67-11.06,31.79-43.37,35.79-48.49C890.37,345.82,891.85,335.67,887.59,329.38Z" transform="translate(-0.5 -0.5)"/>
          <path class="cls-7" d="M868,332.56c-16.1,11.59-20.79,52.81-20.79,52.81S857.87,357,866,345.16,873.5,328.6,868,332.56Z" transform="translate(-0.5 -0.5)"/>
          <path class="cls-6" d="M858.17,388.14a44.45,44.45,0,0,0-.19,5.95c.07.54,2.7,3.18,2.72,2.9.21-2.49,2.44-15.42,4.83-18.7C866.37,377.12,858.25,385.75,858.17,388.14Z" transform="translate(-0.5 -0.5)"/>
          <path class="cls-8" d="M865.81,378.7a.41.41,0,0,1-.31-.23c-3-6.56-10.3-12.07-17.83-9.39a.39.39,0,0,1-.51-.24.4.4,0,0,1,.24-.51c8-2.84,15.65,2.93,18.83,9.81a.39.39,0,0,1-.2.52A.35.35,0,0,1,865.81,378.7Z" transform="translate(-0.5 -0.5)"/>
        </g>
        <path class="cls-9" d="M870.37,335.74c.92,10.68,5.4,19,10,18.62S887.93,345,887,334.3s-5.39-18.87-10-18.62C870.36,316,869.44,325.06,870.37,335.74Z" transform="translate(-0.5 -0.5)"/>
      </g>
      <g id="torso">
        <path class="cls-5" d="M972.63,311.08c4.77-.31,21.59,16.56,16.53,32.93S955.44,415,949,434.12,938.56,458,929.34,459.69,906.16,462.06,890,428.3s-18.66-71.68-19.39-89.69,1.15-25.17,7.45-27.22C892.73,306.59,972.63,311.08,972.63,311.08Z" transform="translate(-0.5 -0.5)"/>
        <path class="cls-7" d="M896.51,424.32c-12.53-35.51-11-73.69-9.86-91.78.77-12,2.19-19.12,5-22.93,13.36-.75,32.86-.42,49.4.11-8.84,23.32-21.91,62.59-24.08,103-1.45,27,2.27,40.17,7.43,46.92C916,458,905.84,450.75,896.51,424.32Z" transform="translate(-0.5 -0.5)"/>
        <path class="cls-10" d="M876.64,312.89c0,3.49,24.73,8.93,49.68,9s49.7-5.31,49.71-8.81-24.74-3.82-49.69-3.86S876.65,309.39,876.64,312.89Z" transform="translate(-0.5 -0.5)"/>
        <path class="cls-11" d="M891.73,313.6c0,2.42,17,6.18,34.22,6.21s34.24-3.68,34.24-6.1-17-2.64-34.23-2.67S891.73,311.18,891.73,313.6Z" transform="translate(-0.5 -0.5)"/>
        <path class="cls-12" d="M902.19,314.86c0,.92,11.75,2.1,23.19,2.11s22.42-1.11,22.42-2-11-1.29-22.41-1.31S902.19,313.93,902.19,314.86Z" transform="translate(-0.5 -0.5)"/>
        <path class="cls-13" d="M938.68,438.08c2.65-14.32,6.6-61.13,16-94.16,4.72-16.56,15.82-28.24,26.56-24.53,7.63,2.62,10.65,15.77,7.91,24.62-5.06,16.37-33.72,71-40.21,90.11S938.56,458,929.34,459.69c-4.76.89-10.76,1.48-17.68-2.75C921,458.4,934.29,461.78,938.68,438.08Z" transform="translate(-0.5 -0.5)"/>
        <path class="cls-14" d="M905.66,445.05a16.83,16.83,0,0,0,5.68.93,26.36,26.36,0,0,0,6.36-.46,2.55,2.55,0,0,0,2.22-2.36h0a2.3,2.3,0,0,0-2.23-2.36s-4.89.54-6.08.53a44,44,0,0,1-6.18-.58c-1.22,0-2.37.36-2,2.12A3.06,3.06,0,0,0,905.66,445.05Z" transform="translate(-0.5 -0.5)"/>
        <path class="cls-15" d="M906.44,444.79a17.36,17.36,0,0,0,4.91.66,27.12,27.12,0,0,0,5.5-.33c1-.21,1.92-.76,1.92-1.69h0a1.82,1.82,0,0,0-1.92-1.68s-4.23.39-5.26.39a44.7,44.7,0,0,1-5.34-.42c-1.06,0-2,.26-1.73,1.51C904.66,443.81,905.16,444.39,906.44,444.79Z" transform="translate(-0.5 -0.5)"/>
        <path class="cls-8" d="M912.72,434.25c11.24,0,25-2.43,39.88-8.55a.38.38,0,0,0,.22-.51.4.4,0,0,0-.52-.22c-27.7,11.38-51.53,9.94-61.95,3.78a.4.4,0,0,0-.55.14.39.39,0,0,0,.14.54C894.9,432.36,902.82,434.25,912.72,434.25Z" transform="translate(-0.5 -0.5)"/>
        <path class="cls-16" d="M913,433.36c11.24,0,25-2.43,39.89-8.55a.38.38,0,0,0,.21-.51.39.39,0,0,0-.52-.22c-27.7,11.38-51.53,9.94-62,3.78a.41.41,0,0,0-.55.14.39.39,0,0,0,.14.54C895.19,431.47,903.12,433.36,913,433.36Z" transform="translate(-0.5 -0.5)"/>
        <path class="cls-7" d="M872.69,320.31c-2.12,43.29,4.12,63.77,4.12,63.77s-6-32.71-.46-64.32C877.1,315.43,873,313.55,872.69,320.31Z" transform="translate(-0.5 -0.5)"/>
        <path class="cls-16" d="M972.21,317.29s-4.92,3-22.93,4.64-41.71,1.35-41.71,1.35,21.85,2.89,41.8.74S972.21,317.29,972.21,317.29Z" transform="translate(-0.5 -0.5)"/>
        <path class="cls-17" d="M908.7,442c.88.08,1.89.14,2.89.15s5.26-.39,5.26-.39a2.58,2.58,0,0,1,.4,0l-1.94,3.55c-1.07.09-2.38.13-4,.11a17.85,17.85,0,0,1-4.58-.58Z" transform="translate(-0.5 -0.5)"/>
        <g>
          <path class="cls-18" d="M896.33,350a15.28,15.28,0,0,1,9.54-14.16,15.48,15.48,0,0,1,1.7.21,14.08,14.08,0,0,1,11.71,13.41c0,.15,0,.31,0,.46v.16h0a8.72,8.72,0,0,0-11.57-8.23c.86-.31.83-.31-.05,0A8.37,8.37,0,0,0,896.4,350v.08a8.22,8.22,0,0,0,8.25,8.56,8.68,8.68,0,0,1,5.92.19,8.72,8.72,0,0,0,8.72-8.58,14,14,0,0,1-11.62,13.7,17.16,17.16,0,0,1-1.79.22A15.29,15.29,0,0,1,896.33,350Z" transform="translate(-0.5 -0.5)"/>
          <path class="cls-19" d="M901.84,350.07a8.75,8.75,0,0,0,5.49,8.11,8.65,8.65,0,0,1-2.68.43,8.22,8.22,0,0,1-8.25-8.56V350a8.37,8.37,0,0,1,11.27-8.12c.88-.33.91-.33.05,0A8.72,8.72,0,0,0,901.84,350.07Z" transform="translate(-0.5 -0.5)"/>
          <path class="cls-20" d="M904.65,335.76c.41,0,.82,0,1.22.05a15.28,15.28,0,0,0,0,28.33c-.38,0-.76,0-1.16,0-8.48,0-14.64-6.4-14.64-14.21v-.08C890.08,342.08,896.16,335.76,904.65,335.76Z" transform="translate(-0.5 -0.5)"/>
          <path class="cls-21" d="M919.29,350.07v0Z" transform="translate(-0.5 -0.5)"/>
          <path class="cls-22" d="M907.57,358.09c.92.33.9.34,0,0Z" transform="translate(-0.5 -0.5)"/>
          <path class="cls-23" d="M907.57,358.09c.92.33.9.34,0,0Z" transform="translate(-0.5 -0.5)"/>
          <path class="cls-24" d="M910.57,358.8a8.69,8.69,0,0,1-3.24-.62l.24-.09c.9.34.92.33,0,0a8.51,8.51,0,0,0,5.62-8.12v-.08a8.37,8.37,0,0,0-5.52-8l.05,0a8.72,8.72,0,0,1,11.57,8.23v.16A8.72,8.72,0,0,1,910.57,358.8Z" transform="translate(-0.5 -0.5)"/>
          <path class="cls-25" d="M910.57,358.8a8.69,8.69,0,0,1-3.24-.62l.24-.09c.9.34.92.33,0,0a8.51,8.51,0,0,0,5.62-8.12v-.08a8.37,8.37,0,0,0-5.52-8l.05,0a8.72,8.72,0,0,1,11.57,8.23v.16A8.72,8.72,0,0,1,910.57,358.8Z" transform="translate(-0.5 -0.5)"/>
        </g>
      </g>
      <g id="cabeza">
        <g>
          <path class="cls-5" d="M968.85,297.77c-11.36,14.62-46.11,11.83-55.79,10.91s-26.09-2.61-32-20.44-2.95-45,13.29-59.16,59.73-11.83,74.5,7.22S972.79,292.7,968.85,297.77Z" transform="translate(-0.5 -0.5)"/>
          <path class="cls-16" d="M965.85,240.19c-.65-.23-14.07-10.66-38.37-12.75-8.37-.71-21.4,0-29.77,1.16.83-.88,12.85-7.82,37.64-5.24A48.93,48.93,0,0,1,965.85,240.19Z" transform="translate(-0.5 -0.5)"/>
          <path class="cls-7" d="M921.67,235.87c7.82.13,15.66.68,23,3.48l.17.07c-7.65,16.22-8.28,37.34-3.8,52.44a31.82,31.82,0,0,0,6.52,12.25c-13.52,2.38-28.65,1.14-34.53.58-6.41-.61-15.75-1.56-23.06-7.29a37.2,37.2,0,0,1-2.11-5.54c-4.55-15.3-3.84-36.78,4.1-53.07A126.43,126.43,0,0,1,921.67,235.87Z" transform="translate(-0.5 -0.5)"/>
          <path class="cls-26" d="M950,250.27c-4.51-6.13-16.8-7.74-32.2-8.66-19.87-1.18-26.59,2.42-28.62,4.71s-5.56,13.71-4.8,24.8.88,14.43,5.45,17.19S907.52,293.77,916,294c16.14.39,24.27-.4,29.67-3.57,2.75-1.62,6.26-10.34,6.81-21.1S952.29,253.45,950,250.27Z" transform="translate(-0.5 -0.5)"/>
          <path class="cls-27" d="M918.31,243.33c9.56.55,17.88,1.38,23.73,3.44-5.12,14.2-5.15,31-1.35,43.51,0,.14.09.28.13.42-5.11,1.48-12.43,1.83-24.16,1.55-8.17-.19-20.81-2.72-25.19-5.29a7.81,7.81,0,0,1-3.43-3.58,74.21,74.21,0,0,1,2.52-35.29,2.84,2.84,0,0,1,.29-.36C892.79,245.58,899.24,242.22,918.31,243.33Z" transform="translate(-0.5 -0.5)"/>
          <path class="cls-9" d="M960.4,260.46c.27,6,3.64,10.77,7.52,10.6s6.81-5.2,6.55-11.22-3.64-10.77-7.52-10.6S960.13,254.44,960.4,260.46Z" transform="translate(-0.5 -0.5)"/>
          <path class="cls-28" d="M963.48,260c.19,4.23,2.25,7.57,4.6,7.47s4.11-3.62,3.92-7.85-2.25-7.57-4.6-7.47S963.29,255.78,963.48,260Z" transform="translate(-0.5 -0.5)"/>
          <path class="cls-29" d="M971.13,271.31h.22c4.09-.19,7.2-5.41,6.92-11.64s-3.85-11.16-7.93-11c-2,.09-3.85,1.37-5.16,3.61a14.9,14.9,0,0,0-1.77,8l.4,0-.4,0C963.69,266.45,967.12,271.31,971.13,271.31Zm-.56-21.83c3.57,0,6.66,4.53,6.91,10.22s-2.51,10.65-6.17,10.81-6.84-4.42-7.1-10.22a13.92,13.92,0,0,1,1.66-7.58c1.17-2,2.77-3.15,4.51-3.22Z" transform="translate(-0.5 -0.5)"/>
          <path class="cls-7" d="M970.87,274.43l-2.86.1s-1.21,11.84-4.62,18.79-8.26,9.18-8.26,9.18,7.3-2.36,11.67-11.38C970,284.63,970.87,274.43,970.87,274.43Z" transform="translate(-0.5 -0.5)"/>
          <path class="cls-30" d="M947.28,251.17v0a1.51,1.51,0,0,1-2.18.51c-1.38-.94-3.49-2.36-4.71-3-1.92-1-11.41-4.55-11.41-4.55s9.51.2,17.59,4.59A1.8,1.8,0,0,1,947.28,251.17Z" transform="translate(-0.5 -0.5)"/>
        </g>
        <path class="cls-31" d="M954.73,259.08c0,1.87.87,3.38,1.94,3.38s1.94-1.51,1.94-3.38-.87-3.39-1.94-3.39S954.73,257.21,954.73,259.08Z" transform="translate(-0.5 -0.5)"/>
      </g>
      <g id="ojos">
        <g>
          <rect class="cls-32" x="917.97" y="254.48" width="13.71" height="17.91" rx="3.93" transform="translate(1849.14 526.37) rotate(-180)"/>
          <rect class="cls-32" x="919.4" y="256.41" width="10.83" height="14.06" rx="3.93" transform="translate(1849.14 526.37) rotate(-180)"/>
          <rect class="cls-33" x="920.9" y="258.21" width="7.52" height="10.94" rx="2.44" transform="translate(1848.81 526.87) rotate(-180)"/>
          <path class="cls-34" d="M921.7,262.43h6.17a.3.3,0,0,0,.3-.3.31.31,0,0,0-.3-.3H921.7a.3.3,0,0,0-.3.3A.29.29,0,0,0,921.7,262.43Z" transform="translate(-0.5 -0.5)"/>
          <path class="cls-34" d="M921.7,263.73h6.17a.3.3,0,1,0,0-.59H921.7a.3.3,0,1,0,0,.59Z" transform="translate(-0.5 -0.5)"/>
          <path class="cls-34" d="M921.7,265.09h6.17a.31.31,0,0,0,.3-.3.3.3,0,0,0-.3-.3H921.7a.29.29,0,0,0-.3.3A.3.3,0,0,0,921.7,265.09Z" transform="translate(-0.5 -0.5)"/>
          <path class="cls-34" d="M922.48,259.93h4.6a.3.3,0,1,0,0-.6h-4.6a.3.3,0,1,0,0,.6Z" transform="translate(-0.5 -0.5)"/>
          <path class="cls-34" d="M921.7,261.28h6.17a.3.3,0,0,0,.3-.3.31.31,0,0,0-.3-.3H921.7a.3.3,0,0,0-.3.3A.29.29,0,0,0,921.7,261.28Z" transform="translate(-0.5 -0.5)"/>
          <path class="cls-34" d="M921.7,266.69h6.17a.3.3,0,1,0,0-.59H921.7a.3.3,0,1,0,0,.59Z" transform="translate(-0.5 -0.5)"/>
          <path class="cls-34" d="M921.7,268h6.17a.31.31,0,0,0,.3-.3.3.3,0,0,0-.3-.3H921.7a.29.29,0,0,0-.3.3A.3.3,0,0,0,921.7,268Z" transform="translate(-0.5 -0.5)"/>
        </g>
        <g>
          <rect class="cls-32" x="893.35" y="254.16" width="13.71" height="17.91" rx="3.93" transform="translate(1799.91 525.72) rotate(-180)"/>
          <rect class="cls-32" x="894.79" y="256.08" width="10.83" height="14.06" rx="3.93" transform="translate(1799.91 525.72) rotate(-180)"/>
          <rect class="cls-33" x="896.28" y="257.89" width="7.52" height="10.94" rx="2.44" transform="translate(1799.58 526.22) rotate(-180)"/>
          <path class="cls-34" d="M897.08,262.11h6.17a.3.3,0,0,0,.3-.3.29.29,0,0,0-.3-.3h-6.17a.3.3,0,0,0-.3.3A.31.31,0,0,0,897.08,262.11Z" transform="translate(-0.5 -0.5)"/>
          <path class="cls-34" d="M897.08,263.41h6.17a.29.29,0,0,0,.3-.3.3.3,0,0,0-.3-.3h-6.17a.31.31,0,0,0-.3.3A.3.3,0,0,0,897.08,263.41Z" transform="translate(-0.5 -0.5)"/>
          <path class="cls-34" d="M897.08,264.76h6.17a.3.3,0,1,0,0-.59h-6.17a.3.3,0,1,0,0,.59Z" transform="translate(-0.5 -0.5)"/>
          <path class="cls-34" d="M897.87,259.61h4.6a.31.31,0,0,0,.3-.3.3.3,0,0,0-.3-.3h-4.6a.29.29,0,0,0-.3.3A.3.3,0,0,0,897.87,259.61Z" transform="translate(-0.5 -0.5)"/>
          <path class="cls-34" d="M897.08,261h6.17a.3.3,0,0,0,.3-.3.29.29,0,0,0-.3-.3h-6.17a.3.3,0,0,0-.3.3A.31.31,0,0,0,897.08,261Z" transform="translate(-0.5 -0.5)"/>
          <path class="cls-34" d="M897.08,266.37h6.17a.29.29,0,0,0,.3-.3.3.3,0,0,0-.3-.3h-6.17a.31.31,0,0,0-.3.3A.3.3,0,0,0,897.08,266.37Z" transform="translate(-0.5 -0.5)"/>
          <path class="cls-34" d="M897.08,267.67h6.17a.3.3,0,1,0,0-.59h-6.17a.3.3,0,1,0,0,.59Z" transform="translate(-0.5 -0.5)"/>
        </g>
      </g>
      <path id="boca" class="cls-35" d="M922,281.57c-6.18.79-17.28,1.4-17.28,1.4s9.82,1,16.22-.1S928.62,280.72,922,281.57Z" transform="translate(-0.5 -0.5)"/>
      <g id="brazoDerecho">
        <path class="cls-36" d="M962.57,343.31c-3.43,11.94-.72,23.2,6.06,25.15s15.06-6.16,18.49-18.1.71-23.21-6.07-25.15S966,331.36,962.57,343.31Z" transform="translate(-0.5 -0.5)"/>
        <path class="cls-29" d="M970.81,365.51a.44.44,0,0,0,.44-.41.43.43,0,0,0-.41-.45,5,5,0,0,1-4-2.79c-2.82-4.84-2.28-14,1.26-21.26,4.23-8.69,11-12.16,14.82-10.39a.43.43,0,0,0,.57-.21.42.42,0,0,0-.21-.57c-4.82-2.23-12,2.61-15.95,10.79-3.65,7.52-4.18,17-1.23,22.07a5.83,5.83,0,0,0,4.67,3.22Z" transform="translate(-0.5 -0.5)"/>
        <g>
          <path class="cls-5" d="M1007.92,387.86c-2.85-34.85-14.87-51.08-17.74-54.49a2.91,2.91,0,0,0-1.64-1c-2.4-.46-8.7-.62-16,7.64-5,5.7-4.82,16-4.49,16.5,3.32,5.59,24.19,40.79,29.43,52.6C1003.21,422,1009.13,402.75,1007.92,387.86Z" transform="translate(-0.5 -0.5)"/>
          <path class="cls-6" d="M972.54,340.06a28.21,28.21,0,0,1,6.62-5.71c-.76.71-1.53,1.5-2.32,2.4-6.32,7.19-4.43,12.85-3,16.73,5,13.9,21,40.51,24,56.4-.12-.23-.23-.47-.34-.72-5.24-11.81-26.11-47-29.44-52.6C967.72,356,967.53,345.76,972.54,340.06Z" transform="translate(-0.5 -0.5)"/>
          <path class="cls-7" d="M991.57,345.67c14.52,13.52,14,55,14,55s-7-29.48-13.55-42.24S986.61,341.06,991.57,345.67Z" transform="translate(-0.5 -0.5)"/>
          <path class="cls-6" d="M994.36,402.05a43,43,0,0,1-.56,5.92c-.13.53-3.08,2.82-3.07,2.54.12-2.49-.48-15.61-2.44-19.17C987.6,390.09,994.58,399.66,994.36,402.05Z" transform="translate(-0.5 -0.5)"/>
          <path class="cls-8" d="M988,391.72a.42.42,0,0,0,.34-.19c3.82-6.12,11.74-10.68,18.87-7.07a.4.4,0,0,0,.53-.18.41.41,0,0,0-.17-.54c-7.56-3.82-15.9.94-19.91,7.37a.41.41,0,0,0,.13.55A.39.39,0,0,0,988,391.72Z" transform="translate(-0.5 -0.5)"/>
        </g>
        <g>
          <path class="cls-37" d="M983.14,355.54c.18,5.9,4.64,10.56,10,10.4s9.48-5.08,9.3-11-4.63-10.56-9.95-10.4S983,349.63,983.14,355.54Z" transform="translate(-0.5 -0.5)"/>
          <g>
            <path class="cls-38" d="M999.37,356.16c.12,2-1,4.06-2.13,5.64a19.75,19.75,0,0,1-2.32,2.67s-6.14-1.57-7.83-5.1c-.35-.74-2-5.36-2-5.36s-.49-1.12.42-1.63a28.14,28.14,0,0,0,3.12-1.76,9.26,9.26,0,0,1,2.07-1.34c.59-.21.85-.08,1.93,0a32.7,32.7,0,0,0,3.66-.09c1.08,0,1.21,1.22,1.21,1.22S999.31,355.32,999.37,356.16Z" transform="translate(-0.5 -0.5)"/>
            <path class="cls-39" d="M996.33,349.18a32.64,32.64,0,0,1-3.66.09c-1.08-.08-1.34-.2-1.93,0a8.78,8.78,0,0,0-2.07,1.33,29.85,29.85,0,0,1-3.12,1.76c-.91.51-.42,1.63-.42,1.63s1.61,4.62,2,5.36c1.69,3.53,7.83,5.1,7.83,5.1h0s4.7-4.34,4.44-8.31a58.65,58.65,0,0,0-1.82-5.76S997.41,349.15,996.33,349.18Zm.33,1.28a38,38,0,0,1,1.48,5.58c.11,1.72-1,3.84-1.91,5.12a18.89,18.89,0,0,1-1.66,2,18,18,0,0,1-2.37-.94c-1.43-.68-3.28-1.8-4-3.34-.24-.5-1.3-3.49-1.92-5.26a.17.17,0,0,0,0-.06.93.93,0,0,1,0-.23l.78-.4a17.7,17.7,0,0,0,2.39-1.4c.94-.67,1.53-1.65,3.48-1.28a10.56,10.56,0,0,0,2.82,0l.91,0Z" transform="translate(-0.5 -0.5)"/>
            <path class="cls-40" d="M997.54,350.4s-.13-1.25-1.21-1.22a32.7,32.7,0,0,1-3.66.09c-1.08-.08-1.34-.2-1.93,0a8.78,8.78,0,0,0-2.07,1.33,32,32,0,0,1-3.12,1.77,1,1,0,0,0-.49.58l.08-.05a27.39,27.39,0,0,0,3.11-1.77,8.79,8.79,0,0,1,2.08-1.33c.59-.21.85-.09,1.93,0a32.7,32.7,0,0,0,3.66-.09c1.08,0,1.21,1.22,1.21,1.22s1.76,4.93,1.82,5.76c.14,2.07-1.07,4.23-2.26,5.83,1.31-1.63,2.83-4,2.68-6.36C999.31,355.32,997.54,350.4,997.54,350.4Z" transform="translate(-0.5 -0.5)"/>
            <path class="cls-39" d="M993.24,356.26a.41.41,0,0,1-.09.36l.07.3a.07.07,0,0,1-.05.09l-.24.06a.07.07,0,0,1-.09-.05l-.08-.29a.39.39,0,0,1-.26-.27.38.38,0,0,1,.74-.2Z" transform="translate(-0.5 -0.5)"/>
            <path class="cls-39" d="M993.23,354.29l.15.56-1.7.45-.15-.56a.88.88,0,0,1,.63-1.08A.87.87,0,0,1,993.23,354.29Z" transform="translate(-0.5 -0.5)"/>
            <path class="cls-39" d="M995.3,350.87a19.87,19.87,0,0,1-2.58,0,2.49,2.49,0,0,0-1.28.1h0a4.84,4.84,0,0,0-.62.34c-.28.18-.63.41-1,.69a19.53,19.53,0,0,1-2.19,1.27c-.64.37-.29,1.21-.29,1.21s1.19,3.46,1.45,4c1.23,2.65,5.59,3.87,5.59,3.87h0s3.28-3.41,3.06-6.36c-.05-.62-1.12-4.26-1.12-4.26S996.06,350.86,995.3,350.87Zm0,6.33a.47.47,0,0,1-.34.58l-3.28.87a.47.47,0,0,1-.58-.35l-.59-2.2a.49.49,0,0,1,.34-.59l.13,0-.15-.57a1.57,1.57,0,1,1,3-.8l.15.57.12,0a.48.48,0,0,1,.59.34Z" transform="translate(-0.5 -0.5)"/>
            <path class="cls-40" d="M996.32,351.77s-.26-.91-1-.9a19.89,19.89,0,0,1-2.58,0,2.31,2.31,0,0,0-1.27.1h0a4.84,4.84,0,0,0-.62.34c-.29.17-.63.41-1,.68a18.27,18.27,0,0,1-2.19,1.28.73.73,0,0,0-.37.51,18.05,18.05,0,0,0,2.15-1.25c.37-.28.71-.51,1-.68a4.3,4.3,0,0,1,.62-.34h0a2.32,2.32,0,0,1,1.28-.11,19.89,19.89,0,0,0,2.58,0c.76,0,1,.9,1,.9s1.07,3.63,1.11,4.25c.15,1.83-1.07,3.84-2,5.11.94-1.16,2.59-3.52,2.43-5.64C997.39,355.4,996.32,351.77,996.32,351.77Z" transform="translate(-0.5 -0.5)"/>
          </g>
        </g>
      </g>
    </g>
  </g>
</svg>
