<svg xmlns="http://www.w3.org/2000/svg" xmlns:xlink="http://www.w3.org/1999/xlink" width="1025" height="620" viewBox="0 0 1025 620">
  <defs>
    <style>
      .cls-1 {
        isolation: isolate;
      }

      .cls-2 {
        fill: none;
      }

      .cls-3, .cls-4 {
        fill: #51b2fb;
      }

      .cls-3, .cls-32 {
        opacity: 0.1;
      }

      .cls-4 {
        opacity: 0.2;
      }

      .cls-5 {
        fill: #e3ebfc;
      }

      .cls-6 {
        fill: #ccddfa;
      }

      .cls-7 {
        fill: #fafbff;
      }

      .cls-8 {
        fill: #80a7f6;
      }

      .cls-9 {
        fill: #9fbcfb;
      }

      .cls-10 {
        fill: #b8d0f9;
      }

      .cls-11, .cls-29, .cls-31 {
        fill: #207bff;
      }

      .cls-11, .cls-37 {
        opacity: 0.4;
      }

      .cls-12 {
        fill: #004bff;
        opacity: 0.5;
        mix-blend-mode: multiply;
      }

      .cls-13 {
        fill: #c5d8fa;
      }

      .cls-14 {
        fill: url(#_ÂÁ_Ï_ÌÌ_È_ËÂÌÚ_30);
      }

      .cls-15 {
        fill: #4aebff;
      }

      .cls-16, .cls-30 {
        fill: #fff;
      }

      .cls-17 {
        fill: #bef9ff;
      }

      .cls-18 {
        fill: url(#linear-gradient);
      }

      .cls-19 {
        fill: #ec1c24;
      }

      .cls-20 {
        fill: url(#linear-gradient-2);
      }

      .cls-21 {
        fill: url(#linear-gradient-3);
      }

      .cls-22 {
        fill: url(#linear-gradient-4);
      }

      .cls-23 {
        fill: url(#linear-gradient-5);
      }

      .cls-24 {
        fill: url(#linear-gradient-6);
      }

      .cls-25 {
        fill: url(#linear-gradient-7);
      }

      .cls-26 {
        fill: url(#_ÂÁ_Ï_ÌÌ_È_ËÂÌÚ_14);
      }

      .cls-27 {
        fill: url(#_ÂÁ_Ï_ÌÌ_È_ËÂÌÚ_18);
      }

      .cls-28 {
        fill: #4880f8;
      }

      .cls-30 {
        opacity: 0.8;
      }

      .cls-31 {
        opacity: 0.72;
      }

      .cls-32, .cls-33, .cls-34, .cls-35 {
        fill: #3ae6fb;
      }

      .cls-33 {
        opacity: 0.3;
      }

      .cls-35 {
        opacity: 0.7;
      }

      .cls-36 {
        fill: #93b4fb;
      }

      .cls-37 {
        mix-blend-mode: lighten;
        fill: url(#radial-gradient);
      }

      .cls-38 {
        fill: #00ffda;
      }

      .cls-39 {
        fill: #7fd1ca;
      }

      .cls-40 {
        fill: #1e1e1e;
      }
    </style>
    <radialGradient id="_ÂÁ_Ï_ÌÌ_È_ËÂÌÚ_30" data-name="¡ÂÁ˚ÏˇÌÌ˚È „‡‰ËÂÌÚ 30" cx="6008.21" cy="461.49" r="6.67" gradientTransform="translate(-5809.3)" gradientUnits="userSpaceOnUse">
      <stop offset="0" stop-color="#4aebff"/>
      <stop offset="1" stop-color="#00709e"/>
    </radialGradient>
    <linearGradient id="linear-gradient" x1="164.66" y1="345.08" x2="164.66" y2="381.83" gradientTransform="translate(45.19)" gradientUnits="userSpaceOnUse">
      <stop offset="0.02" stop-color="#dd2a21"/>
      <stop offset="0.06" stop-color="#c8201b"/>
      <stop offset="0.1" stop-color="#b71717"/>
      <stop offset="0.15" stop-color="#ac1113"/>
      <stop offset="0.22" stop-color="#a50e12"/>
      <stop offset="0.43" stop-color="#a30d11"/>
      <stop offset="0.79" stop-color="#6b0006"/>
    </linearGradient>
    <linearGradient id="linear-gradient-2" x1="153.99" y1="346.72" x2="153.99" y2="373.09" gradientTransform="translate(45.19)" gradientUnits="userSpaceOnUse">
      <stop offset="0" stop-color="#ad1a27"/>
      <stop offset="0.08" stop-color="#9e151f"/>
      <stop offset="0.28" stop-color="#7d090e"/>
      <stop offset="0.44" stop-color="#680304"/>
      <stop offset="0.56" stop-color="#610000"/>
      <stop offset="0.73" stop-color="#520000"/>
      <stop offset="1" stop-color="#3f0000"/>
    </linearGradient>
    <linearGradient id="linear-gradient-3" x1="776.22" y1="360.3" x2="793.66" y2="360.3" gradientTransform="matrix(-1, 0, 0, 1, 1015.73, 0)" gradientUnits="userSpaceOnUse">
      <stop offset="0" stop-color="#be1349"/>
      <stop offset="0.24" stop-color="#be124e"/>
      <stop offset="0.25" stop-color="#be124e"/>
      <stop offset="1" stop-color="#7a0025"/>
    </linearGradient>
    <linearGradient id="linear-gradient-4" x1="770.92" y1="369.06" x2="793.74" y2="369.06" gradientTransform="matrix(-1, 0, 0, 1, 1015.73, 0)" gradientUnits="userSpaceOnUse">
      <stop offset="0" stop-color="#282881"/>
      <stop offset="0.27" stop-color="#26257d"/>
      <stop offset="0.55" stop-color="#1f1b70"/>
      <stop offset="0.84" stop-color="#150c5b"/>
      <stop offset="1" stop-color="#0d004c"/>
    </linearGradient>
    <linearGradient id="linear-gradient-5" x1="776.31" y1="369.06" x2="793.66" y2="369.06" xlink:href="#linear-gradient-3"/>
    <linearGradient id="linear-gradient-6" x1="779.83" y1="360.22" x2="801.63" y2="360.22" xlink:href="#linear-gradient-4"/>
    <linearGradient id="linear-gradient-7" x1="170.63" y1="368.19" x2="170.63" y2="355.7" gradientTransform="translate(45.19)" gradientUnits="userSpaceOnUse">
      <stop offset="0" stop-color="#ed2d24"/>
      <stop offset="0.12" stop-color="#ed2824"/>
      <stop offset="0.25" stop-color="#ec1c24"/>
      <stop offset="1" stop-color="#74020d"/>
    </linearGradient>
    <linearGradient id="_ÂÁ_Ï_ÌÌ_È_ËÂÌÚ_14" data-name="¡ÂÁ˚ÏˇÌÌ˚È „‡‰ËÂÌÚ 14" x1="5918.85" y1="557.88" x2="5993.02" y2="557.88" gradientTransform="translate(-5784.65 13.43) rotate(-2.88)" gradientUnits="userSpaceOnUse">
      <stop offset="0" stop-color="#003a6b"/>
      <stop offset="1" stop-color="#00204c"/>
    </linearGradient>
    <linearGradient id="_ÂÁ_Ï_ÌÌ_È_ËÂÌÚ_18" data-name="¡ÂÁ˚ÏˇÌÌ˚È „‡‰ËÂÌÚ 18" x1="5984.47" y1="240.05" x2="6022.05" y2="303.37" gradientTransform="translate(-5809.3)" gradientUnits="userSpaceOnUse">
      <stop offset="0" stop-color="#cbd7e1"/>
      <stop offset="0.05" stop-color="#aec0d0"/>
      <stop offset="0.15" stop-color="#7998b2"/>
      <stop offset="0.26" stop-color="#4e7698"/>
      <stop offset="0.35" stop-color="#2c5c85"/>
      <stop offset="0.44" stop-color="#144976"/>
      <stop offset="0.53" stop-color="#053e6e"/>
      <stop offset="0.6" stop-color="#003a6b"/>
      <stop offset="1" stop-color="#00204c"/>
    </linearGradient>
    <radialGradient id="radial-gradient" cx="5091.4" cy="556.14" r="14.12" gradientTransform="matrix(0.74, 0.02, -0.03, 0.82, -3645.94, -206.49)" gradientUnits="userSpaceOnUse">
      <stop offset="0" stop-color="#00ddde" stop-opacity="0.52"/>
      <stop offset="0.09" stop-color="#2de6e7" stop-opacity="0.65"/>
      <stop offset="0.2" stop-color="#63f1f1" stop-opacity="0.8"/>
      <stop offset="0.3" stop-color="#8af8f9" stop-opacity="0.91"/>
      <stop offset="0.38" stop-color="#a2fdfd" stop-opacity="0.98"/>
      <stop offset="0.43" stop-color="#abffff"/>
      <stop offset="0.46" stop-color="#9ffcfd"/>
      <stop offset="0.51" stop-color="#7ff6f6"/>
      <stop offset="0.58" stop-color="#4aebeb"/>
      <stop offset="0.66" stop-color="#03dcdd"/>
      <stop offset="0.66" stop-color="#00dbdc"/>
      <stop offset="0.69" stop-color="#08dcdd" stop-opacity="0.97"/>
      <stop offset="0.74" stop-color="#1fdfe0" stop-opacity="0.88"/>
      <stop offset="0.8" stop-color="#44e5e5" stop-opacity="0.73"/>
      <stop offset="0.87" stop-color="#78eced" stop-opacity="0.53"/>
      <stop offset="0.94" stop-color="#baf5f6" stop-opacity="0.27"/>
      <stop offset="1" stop-color="#fff" stop-opacity="0"/>
    </radialGradient>
  </defs>
  <title>robot</title>
  <g class="cls-1">
    <g id="robot">
      <g id="fondo">
        <rect class="cls-2" width="1025" height="620"/>
      </g>
      <g id="sombra">
        <ellipse class="cls-3" cx="181.55" cy="499.27" rx="53.46" ry="12"/>
        <path class="cls-4" d="M222.69,499.77c0,4.21-18.65,7.63-41.64,7.63s-41.64-3.42-41.64-7.63,18.64-7.64,41.64-7.64S222.69,495.55,222.69,499.77Z" transform="translate(0.5 -0.5)"/>
        <path class="cls-4" d="M206.12,499.77c0,2.53-11.23,4.59-25.07,4.59S156,502.3,156,499.77s11.22-4.6,25.07-4.6S206.12,497.23,206.12,499.77Z" transform="translate(0.5 -0.5)"/>
      </g>
      <g id="brazoIzquierdo">
        <g>
          <path class="cls-5" d="M269.62,384.42c-7.81-37.14-23-53-26.52-56.26a3.08,3.08,0,0,0-1.9-.83c-2.64-.17-9.45.51-16.14,10.39-4.62,6.83-3,17.85-2.6,18.39,4.34,5.56,31.61,40.63,38.86,52.63C269.2,421.79,273,400.29,269.62,384.42Z" transform="translate(0.5 -0.5)"/>
          <path class="cls-6" d="M225,337.76a30.72,30.72,0,0,1,6.35-7.05c-.72.87-1.45,1.83-2.17,2.9-5.83,8.61-3,14.44-1,18.43,7.33,14.29,28.16,40.77,33.52,57.47-.15-.23-.31-.47-.46-.73-7.25-12-34.52-47.07-38.86-52.63C222,355.61,220.4,344.59,225,337.76Z" transform="translate(0.5 -0.5)"/>
          <path class="cls-7" d="M246.27,341.21c17.47,12.58,22.57,57.33,22.57,57.33s-11.56-30.8-20.34-43.65S240.31,336.92,246.27,341.21Z" transform="translate(0.5 -0.5)"/>
          <path class="cls-6" d="M257,401.55a48.73,48.73,0,0,1,.2,6.45c-.08.59-2.93,3.45-3,3.15-.22-2.7-2.65-16.74-5.24-20.3C248.05,389.59,256.86,399,257,401.55Z" transform="translate(0.5 -0.5)"/>
          <path class="cls-8" d="M248.65,391.29A.41.41,0,0,0,249,391c3.29-7.11,11.19-13.1,19.36-10.18a.43.43,0,0,0,.55-.26.44.44,0,0,0-.26-.56c-8.65-3.09-17,3.18-20.43,10.64a.44.44,0,0,0,.21.58A.47.47,0,0,0,248.65,391.29Z" transform="translate(0.5 -0.5)"/>
        </g>
        <path class="cls-9" d="M243.71,344.66c-1,11.6-5.86,20.65-10.85,20.22s-8.21-10.19-7.2-21.78,5.85-20.48,10.85-20.21C243.72,323.27,244.72,333.07,243.71,344.66Z" transform="translate(0.5 -0.5)"/>
      </g>
      <g id="torso">
        <path class="cls-5" d="M132.71,317.9c-5.18-.34-23.43,18-17.94,35.74s36.6,77.06,43.65,97.81,11.27,25.87,21.29,27.76,25.15,2.57,42.7-34.08,20.25-77.8,21.05-97.35-1.25-27.32-8.09-29.55C219.44,313,132.71,317.9,132.71,317.9Z" transform="translate(0.5 -0.5)"/>
        <path class="cls-7" d="M215.33,440.82c13.61-38.55,12-80,10.71-99.63-.84-13.05-2.38-20.75-5.39-24.89-14.49-.81-35.67-.46-53.61.12,9.59,25.31,23.77,67.94,26.13,111.84,1.58,29.3-2.47,43.61-8.07,50.94C194.24,477.37,205.21,469.5,215.33,440.82Z" transform="translate(0.5 -0.5)"/>
        <path class="cls-10" d="M236.9,319.86c0,3.8-26.84,9.69-53.92,9.74S129,323.83,129,320s26.85-4.14,53.93-4.19S236.89,316.06,236.9,319.86Z" transform="translate(0.5 -0.5)"/>
        <path class="cls-11" d="M220.52,320.63c0,2.63-18.49,6.71-37.14,6.74s-37.16-4-37.17-6.61,18.5-2.87,37.15-2.9S220.52,318,220.52,320.63Z" transform="translate(0.5 -0.5)"/>
        <path class="cls-12" d="M209.17,322c0,1-12.75,2.28-25.18,2.3s-24.32-1.22-24.32-2.22,11.89-1.41,24.32-1.43S209.17,321,209.17,322Z" transform="translate(0.5 -0.5)"/>
        <path class="cls-13" d="M169.56,455.75c-2.88-15.54-7.17-66.35-17.38-102.2-5.12-18-17.17-30.66-28.83-26.64-8.28,2.85-11.55,17.12-8.58,26.73,5.49,17.77,36.6,77.06,43.65,97.81s11.27,25.87,21.29,27.76c5.15,1,11.67,1.61,19.18-3C188.73,477.81,174.33,481.47,169.56,455.75Z" transform="translate(0.5 -0.5)"/>
        <path class="cls-14" d="M205.41,463.31a18.25,18.25,0,0,1-6.17,1,28.85,28.85,0,0,1-6.91-.5,2.79,2.79,0,0,1-2.41-2.57h0a2.5,2.5,0,0,1,2.42-2.56s5.31.59,6.6.58a47.34,47.34,0,0,0,6.71-.63c1.33,0,2.57.39,2.17,2.3A3.29,3.29,0,0,1,205.41,463.31Z" transform="translate(0.5 -0.5)"/>
        <path class="cls-15" d="M204.56,463a19,19,0,0,1-5.34.72,29.12,29.12,0,0,1-6-.36c-1.11-.23-2.08-.82-2.08-1.83h0a2,2,0,0,1,2.09-1.82s4.59.42,5.71.41a50.19,50.19,0,0,0,5.8-.44c1.14,0,2.22.27,1.88,1.63C206.49,462,206,462.6,204.56,463Z" transform="translate(0.5 -0.5)"/>
        <path class="cls-8" d="M197.74,451.59c-12.2,0-27.16-2.64-43.29-9.27a.44.44,0,0,1-.24-.57.44.44,0,0,1,.57-.23c30.06,12.36,55.93,10.79,67.25,4.1a.43.43,0,1,1,.44.74C217.09,449.54,208.48,451.59,197.74,451.59Z" transform="translate(0.5 -0.5)"/>
        <path class="cls-16" d="M197.43,450.63c-12.2,0-27.16-2.65-43.3-9.28a.43.43,0,0,1-.24-.56.45.45,0,0,1,.57-.24c30.07,12.36,55.93,10.79,67.25,4.1a.43.43,0,0,1,.59.16.44.44,0,0,1-.15.59C216.77,448.58,208.17,450.63,197.43,450.63Z" transform="translate(0.5 -0.5)"/>
        <path class="cls-7" d="M241.19,327.92c2.3,47-4.47,69.22-4.47,69.22s6.47-35.51.5-69.82C236.4,322.62,240.83,320.58,241.19,327.92Z" transform="translate(0.5 -0.5)"/>
        <path class="cls-16" d="M133.16,324.64s5.34,3.21,24.89,5,45.28,1.47,45.28,1.47-23.71,3.14-45.37.81S133.16,324.64,133.16,324.64Z" transform="translate(0.5 -0.5)"/>
        <path class="cls-17" d="M202.1,460c-.95.08-2,.14-3.13.15s-5.71-.41-5.71-.41a2.12,2.12,0,0,0-.44,0l2.11,3.85c1.16.1,2.58.14,4.29.12a19.27,19.27,0,0,0,5-.63Z" transform="translate(0.5 -0.5)"/>
        <g>
          <path class="cls-18" d="M197.4,360.11a16.59,16.59,0,0,1,10.35-15.37,15.85,15.85,0,0,1,1.85.23,15.28,15.28,0,0,1,12.7,14.56c0,.16,0,.33,0,.5v.17h0a9.49,9.49,0,0,0-12.56-8.94c.93-.33.89-.33-.06,0a9.23,9.23,0,0,0-3.2-.56,9.07,9.07,0,0,0-9,9.38v.09c0,5.11,3.66,9.29,8.95,9.29a9.26,9.26,0,0,0,2.92-.47,9.47,9.47,0,0,0,13-8.64,15.12,15.12,0,0,1-12.61,14.87,17.42,17.42,0,0,1-1.94.24A16.6,16.6,0,0,1,197.4,360.11Z" transform="translate(0.5 -0.5)"/>
          <path class="cls-19" d="M203.38,360.22a9.48,9.48,0,0,0,6,8.8,9.26,9.26,0,0,1-2.92.47c-5.29,0-8.95-4.18-8.95-9.29v-.09a9.07,9.07,0,0,1,9-9.38,9.23,9.23,0,0,1,3.2.56c1-.35,1-.35.06,0A9.49,9.49,0,0,0,203.38,360.22Z" transform="translate(0.5 -0.5)"/>
          <path class="cls-20" d="M206.42,344.68c.45,0,.89,0,1.33.06a16.59,16.59,0,0,0,0,30.75c-.41,0-.83.05-1.26.05-9.2,0-15.89-7-15.89-15.43V360C190.61,351.54,197.21,344.68,206.42,344.68Z" transform="translate(0.5 -0.5)"/>
          <path class="cls-21" d="M222.32,360.22c0,.06,0,.11,0,.16s0-.11,0-.17Z" transform="translate(0.5 -0.5)"/>
          <path class="cls-22" d="M209.59,368.93c1,.35,1,.36,0,0Z" transform="translate(0.5 -0.5)"/>
          <path class="cls-23" d="M209.59,368.93c1,.35,1,.36,0,0Z" transform="translate(0.5 -0.5)"/>
          <path class="cls-24" d="M212.85,369.69a9.49,9.49,0,0,1-3.51-.67l.25-.09c1,.36,1,.35,0,0a9.24,9.24,0,0,0,6.1-8.82V360a9.09,9.09,0,0,0-6-8.74l.06,0a9.49,9.49,0,0,1,12.56,8.94c0,.06,0,.11,0,.17A9.45,9.45,0,0,1,212.85,369.69Z" transform="translate(0.5 -0.5)"/>
          <path class="cls-25" d="M212.85,369.69a9.49,9.49,0,0,1-3.51-.67l.25-.09c1,.36,1,.35,0,0a9.24,9.24,0,0,0,6.1-8.82V360a9.09,9.09,0,0,0-6-8.74l.06,0a9.49,9.49,0,0,1,12.56,8.94c0,.06,0,.11,0,.17A9.45,9.45,0,0,1,212.85,369.69Z" transform="translate(0.5 -0.5)"/>
        </g>
      </g>
      <g id="cabeza">
        <g>
          <path class="cls-5" d="M136.82,303.45c12.32,15.87,50.05,12.84,60.55,11.84s28.32-2.84,34.74-22.18,3.2-48.87-14.43-64.22-64.83-12.84-80.86,7.84S132.54,297.94,136.82,303.45Z" transform="translate(0.5 -0.5)"/>
          <path class="cls-16" d="M140.07,241c.71-.25,15.27-11.58,41.65-13.84,9.08-.77,23.23,0,32.32,1.26-.91-1-13.95-8.49-40.86-5.69C166.61,223.37,151.39,227.48,140.07,241Z" transform="translate(0.5 -0.5)"/>
          <path class="cls-7" d="M188,236.26c-8.49.14-17,.74-25,3.78l-.19.08c8.31,17.6,9,40.52,4.13,56.92a34.65,34.65,0,0,1-7.08,13.29c14.68,2.58,31.1,1.24,37.48.63,7-.66,17.1-1.7,25-7.91a41.6,41.6,0,0,0,2.3-6c4.93-16.61,4.16-39.93-4.46-57.61A137.18,137.18,0,0,0,188,236.26Z" transform="translate(0.5 -0.5)"/>
          <path class="cls-26" d="M157.32,251.89c4.9-6.66,18.24-8.4,35-9.39,21.57-1.29,28.87,2.61,31.07,5.11s6,14.88,5.21,26.92-1,15.66-5.91,18.65-19.26,5.93-28.51,6.15c-17.51.43-26.34-.43-32.19-3.87-3-1.75-6.8-11.22-7.4-22.91S154.79,255.34,157.32,251.89Z" transform="translate(0.5 -0.5)"/>
          <path class="cls-27" d="M191.67,244.35c-10.38.61-19.4,1.5-25.75,3.75,5.55,15.41,5.59,33.69,1.47,47.22,0,.16-.11.3-.16.46,5.55,1.6,13.5,2,26.23,1.68,8.87-.21,22.59-2.95,27.35-5.75a8.46,8.46,0,0,0,3.72-3.88,80.59,80.59,0,0,0-2.74-38.31,3.32,3.32,0,0,0-.31-.39C219.37,246.8,212.37,243.15,191.67,244.35Z" transform="translate(0.5 -0.5)"/>
          <path class="cls-9" d="M146,263c-.29,6.54-3.94,11.69-8.16,11.51s-7.39-5.64-7.1-12.18,3.94-11.69,8.16-11.51S146.27,256.41,146,263Z" transform="translate(0.5 -0.5)"/>
          <path class="cls-28" d="M142.64,262.46c-.2,4.59-2.44,8.22-5,8.11s-4.46-3.93-4.26-8.52,2.44-8.22,5-8.1S142.85,257.87,142.64,262.46Z" transform="translate(0.5 -0.5)"/>
          <path class="cls-29" d="M142.71,262.81l-.43,0,.43,0a16,16,0,0,0-1.92-8.71c-1.42-2.43-3.4-3.83-5.6-3.92-4.43-.2-8.31,5.14-8.61,11.91s3.08,12.44,7.52,12.63h.24C138.69,274.73,142.42,269.45,142.71,262.81ZM135.16,251c1.88.08,3.62,1.33,4.89,3.49a15.2,15.2,0,0,1,1.8,8.24c-.28,6.29-3.74,11.25-7.71,11.09s-7-5.44-6.69-11.73S131.07,251,135,251Z" transform="translate(0.5 -0.5)"/>
          <path class="cls-7" d="M134.62,278.11l3.1.11s1.32,12.85,5,20.4,9,10,9,10S143.78,306,139,296.23C135.62,289.19,134.62,278.11,134.62,278.11Z" transform="translate(0.5 -0.5)"/>
          <path class="cls-30" d="M160.23,252.87v0a1.65,1.65,0,0,0,2.36.56c1.5-1,3.8-2.57,5.12-3.29,2.08-1.13,12.38-4.93,12.38-4.93s-10.32.21-19.09,5A2,2,0,0,0,160.23,252.87Z" transform="translate(0.5 -0.5)"/>
        </g>
        <path class="cls-31" d="M152.14,261.45c0,2-.94,3.67-2.11,3.67s-2.11-1.64-2.11-3.67,1-3.67,2.11-3.67S152.14,259.42,152.14,261.45Z" transform="translate(0.5 -0.5)"/>
      </g>
      <g id="ojos">
        <g>
          <rect class="cls-32" x="177.67" y="255.96" width="14.88" height="19.44" rx="3.93"/>
          <rect class="cls-32" x="179.23" y="258.05" width="11.76" height="15.26" rx="3.68"/>
          <rect class="cls-33" x="181.21" y="260.01" width="8.16" height="11.88" rx="2.44"/>
          <path class="cls-34" d="M188,265.09h-6.7a.33.33,0,1,1,0-.65H188a.33.33,0,0,1,0,.65Z" transform="translate(0.5 -0.5)"/>
          <path class="cls-34" d="M188,266.5h-6.7a.32.32,0,1,1,0-.64H188a.32.32,0,0,1,0,.64Z" transform="translate(0.5 -0.5)"/>
          <path class="cls-34" d="M188,268h-6.7a.32.32,0,0,1-.33-.32.33.33,0,0,1,.33-.33H188a.32.32,0,0,1,.32.33A.32.32,0,0,1,188,268Z" transform="translate(0.5 -0.5)"/>
          <path class="cls-34" d="M187.14,262.38h-5a.32.32,0,0,1-.32-.33.32.32,0,0,1,.32-.32h5a.32.32,0,0,1,.33.32A.33.33,0,0,1,187.14,262.38Z" transform="translate(0.5 -0.5)"/>
          <path class="cls-34" d="M188,263.84h-6.7a.32.32,0,1,1,0-.64H188a.32.32,0,0,1,0,.64Z" transform="translate(0.5 -0.5)"/>
          <path class="cls-34" d="M188,269.72h-6.7a.33.33,0,0,1-.33-.33.32.32,0,0,1,.33-.32H188a.32.32,0,0,1,.32.32A.32.32,0,0,1,188,269.72Z" transform="translate(0.5 -0.5)"/>
          <path class="cls-34" d="M188,271.13h-6.7a.32.32,0,0,1-.33-.32.33.33,0,0,1,.33-.33H188a.32.32,0,0,1,.32.33A.32.32,0,0,1,188,271.13Z" transform="translate(0.5 -0.5)"/>
        </g>
        <g>
          <rect class="cls-32" x="204.39" y="255.61" width="14.88" height="19.44" rx="3.93"/>
          <rect class="cls-32" x="205.95" y="257.7" width="11.76" height="15.26" rx="3.68"/>
          <rect class="cls-33" x="207.93" y="259.66" width="8.16" height="11.88" rx="2.44"/>
          <path class="cls-34" d="M214.72,264.74H208a.33.33,0,0,1,0-.65h6.71a.33.33,0,0,1,0,.65Z" transform="translate(0.5 -0.5)"/>
          <path class="cls-34" d="M214.72,266.15H208a.32.32,0,0,1,0-.64h6.71a.32.32,0,0,1,0,.64Z" transform="translate(0.5 -0.5)"/>
          <path class="cls-34" d="M214.72,267.62H208a.32.32,0,0,1-.32-.32A.33.33,0,0,1,208,267h6.71a.33.33,0,0,1,.32.33A.32.32,0,0,1,214.72,267.62Z" transform="translate(0.5 -0.5)"/>
          <path class="cls-34" d="M213.86,262h-5a.32.32,0,1,1,0-.64h5a.32.32,0,1,1,0,.64Z" transform="translate(0.5 -0.5)"/>
          <path class="cls-34" d="M214.72,263.49H208a.32.32,0,0,1-.32-.32.33.33,0,0,1,.32-.33h6.71a.33.33,0,0,1,.32.33A.32.32,0,0,1,214.72,263.49Z" transform="translate(0.5 -0.5)"/>
          <path class="cls-34" d="M214.72,269.37H208a.33.33,0,0,1-.32-.33.32.32,0,0,1,.32-.32h6.71a.32.32,0,0,1,.32.32A.33.33,0,0,1,214.72,269.37Z" transform="translate(0.5 -0.5)"/>
          <path class="cls-34" d="M214.72,270.78H208a.32.32,0,0,1-.32-.32.33.33,0,0,1,.32-.33h6.71a.33.33,0,0,1,.32.33A.32.32,0,0,1,214.72,270.78Z" transform="translate(0.5 -0.5)"/>
        </g>
      </g>
      <path id="boca" class="cls-35" d="M187.71,285.87c6.71.85,18.75,1.52,18.75,1.52s-10.65,1.08-17.6-.12S180.49,285,187.71,285.87Z" transform="translate(0.5 -0.5)"/>
      <g id="brazoDerecho">
        <path class="cls-36" d="M143.63,352.88c3.72,13,.78,25.19-6.58,27.3s-16.34-6.69-20.06-19.65-.78-25.19,6.58-27.3S139.91,339.92,143.63,352.88Z" transform="translate(0.5 -0.5)"/>
        <path class="cls-29" d="M134.69,377a.48.48,0,0,1-.48-.44.47.47,0,0,1,.44-.5,5.37,5.37,0,0,0,4.32-3c3.06-5.26,2.47-15.18-1.37-23.08-4.58-9.44-11.92-13.2-16.08-11.28a.46.46,0,0,1-.62-.23.47.47,0,0,1,.22-.62c5.24-2.42,13,2.84,17.32,11.72,4,8.16,4.54,18.46,1.34,24a6.32,6.32,0,0,1-5.07,3.48Z" transform="translate(0.5 -0.5)"/>
        <g>
          <path class="cls-5" d="M94.41,401.24c3.09-37.83,16.14-55.44,19.25-59.15a3.19,3.19,0,0,1,1.78-1.06c2.6-.5,9.45-.67,17.32,8.29,5.44,6.19,5.23,17.33,4.88,17.91-3.61,6.07-26.26,44.27-31.94,57.09C99.52,438.26,93.09,417.4,94.41,401.24Z" transform="translate(0.5 -0.5)"/>
          <path class="cls-6" d="M132.81,349.35a31.06,31.06,0,0,0-7.19-6.2c.82.78,1.66,1.64,2.52,2.61,6.86,7.81,4.81,13.95,3.28,18.16-5.48,15.09-22.83,44-26,61.22.13-.25.25-.51.37-.78,5.68-12.82,28.34-51,32-57.09C138,366.68,138.25,355.54,132.81,349.35Z" transform="translate(0.5 -0.5)"/>
          <path class="cls-7" d="M112.15,355.44C96.4,370.12,97,415.15,97,415.15s7.61-32,14.71-45.86S117.53,350.43,112.15,355.44Z" transform="translate(0.5 -0.5)"/>
          <path class="cls-6" d="M109.12,416.64a47.81,47.81,0,0,0,.61,6.43c.15.58,3.34,3.06,3.33,2.75-.12-2.7.52-16.94,2.65-20.8C116.46,403.66,108.89,414.05,109.12,416.64Z" transform="translate(0.5 -0.5)"/>
          <path class="cls-8" d="M116.07,405.43a.46.46,0,0,1-.37-.21c-4.15-6.64-12.74-11.6-20.48-7.68a.42.42,0,0,1-.58-.19.43.43,0,0,1,.19-.58c8.2-4.15,17.25,1,21.61,8a.45.45,0,0,1-.14.6A.48.48,0,0,1,116.07,405.43Z" transform="translate(0.5 -0.5)"/>
        </g>
        <g>
          <path class="cls-37" d="M121.3,366.15c-.19,6.41-5,11.47-10.81,11.29s-10.29-5.51-10.1-11.92,5-11.47,10.81-11.29S121.5,359.74,121.3,366.15Z" transform="translate(0.5 -0.5)"/>
          <g>
            <path class="cls-38" d="M103.69,366.83c-.14,2.15,1.07,4.41,2.31,6.12a21.68,21.68,0,0,0,2.51,2.9s6.67-1.71,8.51-5.53c.38-.81,2.13-5.82,2.13-5.82s.52-1.21-.46-1.77a29.29,29.29,0,0,1-3.39-1.92,9.56,9.56,0,0,0-2.25-1.44c-.64-.23-.92-.1-2.09,0a38.41,38.41,0,0,1-4-.1c-1.17,0-1.31,1.31-1.31,1.31A65.52,65.52,0,0,0,103.69,366.83Z" transform="translate(0.5 -0.5)"/>
            <path class="cls-39" d="M105.67,360.57a65.52,65.52,0,0,0-2,6.26c-.28,4.31,4.82,9,4.82,9h0s6.67-1.71,8.51-5.54c.38-.8,2.12-5.81,2.12-5.81s.53-1.22-.45-1.77a30.65,30.65,0,0,1-3.39-1.91,9.35,9.35,0,0,0-2.25-1.45c-.64-.23-.92-.1-2.09,0a33.53,33.53,0,0,1-4-.1C105.81,359.22,105.67,360.57,105.67,360.57Zm1-.22,1,0a11.51,11.51,0,0,0,3.06,0c2.12-.4,2.76.67,3.78,1.4a19.59,19.59,0,0,0,2.6,1.51l.84.44a.69.69,0,0,1,0,.24.41.41,0,0,1,0,.08c-.66,1.92-1.82,5.16-2.08,5.71-.8,1.66-2.8,2.88-4.35,3.62a21.6,21.6,0,0,1-2.58,1,20.29,20.29,0,0,1-1.8-2.16c-1-1.39-2.19-3.7-2.07-5.56a40.63,40.63,0,0,1,1.61-6.06A2.57,2.57,0,0,1,106.72,360.35Z" transform="translate(0.5 -0.5)"/>
            <path class="cls-40" d="M103.69,366.83c-.16,2.5,1.49,5.14,2.9,6.9-1.29-1.74-2.6-4.08-2.45-6.32a65.52,65.52,0,0,1,2-6.26s.14-1.35,1.31-1.32a33.53,33.53,0,0,0,4,.1c1.17-.08,1.45-.22,2.09,0a9.35,9.35,0,0,1,2.25,1.45,32.29,32.29,0,0,0,3.38,1.91l.09.06a1.07,1.07,0,0,0-.53-.64,32.36,32.36,0,0,1-3.39-1.91,9.35,9.35,0,0,0-2.25-1.45c-.64-.24-.92-.1-2.09,0a33.53,33.53,0,0,1-4-.1c-1.17,0-1.31,1.32-1.31,1.32A65.52,65.52,0,0,0,103.69,366.83Z" transform="translate(0.5 -0.5)"/>
            <path class="cls-39" d="M110.34,366.94a.39.39,0,0,0,.1.39l-.08.32a.08.08,0,0,0,.06.1l.25.07a.09.09,0,0,0,.11-.06l.08-.32a.41.41,0,0,0,.28-.29.41.41,0,1,0-.8-.21Z" transform="translate(0.5 -0.5)"/>
            <path class="cls-39" d="M110.35,364.8l-.17.61,1.85.49.16-.61a1,1,0,1,0-1.84-.49Z" transform="translate(0.5 -0.5)"/>
            <path class="cls-39" d="M107,362.06s-1.17,3.95-1.22,4.62c-.24,3.2,3.33,6.9,3.33,6.9h0s4.73-1.33,6.07-4.2c.28-.6,1.57-4.35,1.57-4.35s.39-.91-.31-1.31a21.82,21.82,0,0,1-2.38-1.39c-.4-.3-.77-.55-1.08-.74a4.63,4.63,0,0,0-.67-.37h0a2.6,2.6,0,0,0-1.39-.11,19.77,19.77,0,0,1-2.8,0C107.28,361.07,107,362.06,107,362.06Zm1.69,3.5a.52.52,0,0,1,.64-.37l.13,0,.16-.61a1.7,1.7,0,1,1,3.29.87l-.16.61.14,0a.51.51,0,0,1,.36.64l-.63,2.4a.52.52,0,0,1-.63.37l-3.56-.94a.52.52,0,0,1-.37-.64Z" transform="translate(0.5 -0.5)"/>
            <path class="cls-40" d="M105.78,366.68c-.17,2.3,1.62,4.86,2.64,6.11-1-1.36-2.34-3.55-2.19-5.53,0-.68,1.21-4.62,1.21-4.62s.29-1,1.11-1a21.39,21.39,0,0,0,2.8,0,2.6,2.6,0,0,1,1.39.11h0a5.92,5.92,0,0,1,.67.37c.31.19.68.44,1.08.74a17.84,17.84,0,0,0,2.33,1.35.77.77,0,0,0-.4-.54,21.82,21.82,0,0,1-2.38-1.39c-.4-.3-.77-.55-1.08-.74a5.92,5.92,0,0,0-.67-.37h0a2.6,2.6,0,0,0-1.39-.11,21.39,21.39,0,0,1-2.8,0c-.82,0-1.1,1-1.1,1S105.83,366,105.78,366.68Z" transform="translate(0.5 -0.5)"/>
          </g>
        </g>
      </g>
    </g>
  </g>
</svg>
